M48
; DRILL file {KiCad (6.0.5)} date Tue Sep 12 21:56:39 2023
; FORMAT={-:-/ absolute / metric / decimal}
; #@! TF.CreationDate,2023-09-12T21:56:39-04:00
; #@! TF.GenerationSoftware,Kicad,Pcbnew,(6.0.5)
; #@! TF.FileFunction,Plated,1,4,PTH
FMAT,2
METRIC
; #@! TA.AperFunction,Plated,PTH,ViaDrill
T1C0.300
; #@! TA.AperFunction,Plated,PTH,ComponentDrill
T2C0.500
; #@! TA.AperFunction,Plated,PTH,ComponentDrill
T3C1.000
; #@! TA.AperFunction,Plated,PTH,ComponentDrill
T4C1.020
%
G90
G05
T1
X105.41Y-78.105
X105.41Y-79.375
X105.41Y-105.41
X106.68Y-78.105
X106.68Y-79.375
X106.68Y-121.92
X107.315Y-61.595
X108.585Y-74.93
X108.585Y-90.17
X108.763Y-62.738
X109.22Y-87.427
X109.525Y-69.291
X109.728Y-102.413
X110.236Y-91.948
X111.76Y-99.06
X111.76Y-100.33
X112.141Y-94.742
X112.141Y-111.633
X113.03Y-99.06
X113.03Y-100.33
X113.335Y-124.663
X113.792Y-62.738
X115.418Y-69.342
X116.459Y-108.712
X117.475Y-102.235
X117.475Y-108.712
X117.475Y-119.38
X117.551Y-97.638
X118.11Y-57.15
X118.11Y-72.39
X118.11Y-86.995
X118.25Y-115.0
X118.25Y-117.651
X119.38Y-115.0
X119.38Y-117.651
X119.761Y-62.23
X120.65Y-60.325
X121.361Y-65.938
X121.92Y-89.535
X121.92Y-106.68
X123.063Y-63.5
X123.825Y-120.65
X124.079Y-61.722
X124.917Y-95.25
X125.019Y-67.31
X130.175Y-99.695
X130.429Y-62.357
X130.937Y-64.135
X132.715Y-86.995
X132.715Y-116.84
X133.35Y-56.515
X134.62Y-68.072
X135.23Y-120.752
X135.255Y-60.325
X135.89Y-82.55
X135.89Y-120.015
X136.652Y-66.04
X136.906Y-68.072
X137.16Y-106.68
X138.43Y-90.805
X138.938Y-78.486
X138.938Y-83.82
X139.192Y-66.294
X139.446Y-80.01
X139.446Y-86.614
X139.446Y-87.63
X140.081Y-82.169
X140.97Y-81.28
X143.51Y-58.928
X144.018Y-84.226
X144.475Y-91.024
X144.729Y-97.18
X144.78Y-95.885
X144.882Y-94.386
X145.415Y-100.965
X145.948Y-66.192
X146.304Y-58.928
X146.685Y-88.265
X147.32Y-63.246
X147.32Y-85.09
X147.32Y-117.475
X147.844Y-67.31
X147.955Y-56.515
X148.487Y-77.946
X148.59Y-68.072
X149.503Y-65.627
X149.86Y-85.09
X150.419Y-121.92
X150.495Y-70.485
X150.876Y-65.532
X151.13Y-59.579
X151.892Y-62.738
X152.4Y-61.595
X152.4Y-106.68
X152.908Y-63.5
X152.948Y-77.057
X153.405Y-90.982
X153.53Y-83.723
X153.567Y-71.342
X153.67Y-67.818
X153.67Y-120.65
X153.948Y-77.057
X154.305Y-90.35
X154.427Y-68.331
X154.686Y-64.77
X154.94Y-95.25
X154.94Y-96.876
X154.94Y-105.41
X155.0Y-61.0
X155.345Y-71.342
X155.448Y-63.754
X155.575Y-90.874
X157.226Y-66.548
X157.48Y-68.58
X158.52Y-75.688
X158.52Y-76.703
X158.547Y-73.989
X158.75Y-81.915
X159.155Y-67.786
X159.155Y-69.437
X159.868Y-87.02
X159.925Y-72.834
X160.02Y-98.425
X160.298Y-70.608
X160.529Y-59.412
X160.72Y-79.765
X161.441Y-67.024
X161.568Y-79.724
X161.925Y-90.805
X162.56Y-117.475
X162.763Y-95.453
X163.13Y-70.608
X163.195Y-57.15
X164.033Y-112.725
X164.084Y-123.19
X164.108Y-70.58
X165.13Y-76.56
X165.174Y-84.739
X165.506Y-86.36
X165.608Y-56.35
X165.862Y-96.063
X165.913Y-79.197
X166.014Y-100.635
X166.267Y-71.342
X166.319Y-112.573
X166.648Y-69.31
X166.827Y-82.296
X167.005Y-106.68
X167.156Y-79.216
X167.64Y-99.924
X168.0Y-62.0
X168.91Y-83.82
X168.91Y-90.17
X168.91Y-100.965
X168.91Y-120.65
X169.315Y-72.612
X173.99Y-84.455
X174.041Y-105.562
X174.193Y-75.438
X174.498Y-87.833
X176.53Y-58.42
X176.53Y-118.745
T3
X106.939Y-65.532
X109.479Y-65.532
X120.285Y-124.46
X122.825Y-124.46
X125.365Y-124.46
X133.985Y-124.46
X136.525Y-124.46
X139.065Y-124.46
X141.605Y-124.46
X144.145Y-124.46
X146.685Y-124.46
X154.305Y-124.46
X156.845Y-124.46
X159.385Y-124.46
X161.925Y-124.46
T4
X123.42Y-99.06
X123.42Y-111.76
T2
X164.318Y-52.674G85X164.318Y-51.974
G05
X170.918Y-52.674G85X170.918Y-51.974
G05
T0
M30
