G04 #@! TF.GenerationSoftware,KiCad,Pcbnew,(6.0.5)*
G04 #@! TF.CreationDate,2023-09-12T21:56:23-04:00*
G04 #@! TF.ProjectId,control_board,636f6e74-726f-46c5-9f62-6f6172642e6b,rev?*
G04 #@! TF.SameCoordinates,Original*
G04 #@! TF.FileFunction,Soldermask,Bot*
G04 #@! TF.FilePolarity,Negative*
%FSLAX46Y46*%
G04 Gerber Fmt 4.6, Leading zero omitted, Abs format (unit mm)*
G04 Created by KiCad (PCBNEW (6.0.5)) date 2023-09-12 21:56:23*
%MOMM*%
%LPD*%
G01*
G04 APERTURE LIST*
G04 Aperture macros list*
%AMRoundRect*
0 Rectangle with rounded corners*
0 $1 Rounding radius*
0 $2 $3 $4 $5 $6 $7 $8 $9 X,Y pos of 4 corners*
0 Add a 4 corners polygon primitive as box body*
4,1,4,$2,$3,$4,$5,$6,$7,$8,$9,$2,$3,0*
0 Add four circle primitives for the rounded corners*
1,1,$1+$1,$2,$3*
1,1,$1+$1,$4,$5*
1,1,$1+$1,$6,$7*
1,1,$1+$1,$8,$9*
0 Add four rect primitives between the rounded corners*
20,1,$1+$1,$2,$3,$4,$5,0*
20,1,$1+$1,$4,$5,$6,$7,0*
20,1,$1+$1,$6,$7,$8,$9,0*
20,1,$1+$1,$8,$9,$2,$3,0*%
G04 Aperture macros list end*
%ADD10R,1.700000X1.700000*%
%ADD11O,1.700000X1.700000*%
%ADD12C,0.500000*%
%ADD13O,0.900000X1.800000*%
%ADD14C,2.100000*%
%ADD15C,3.450000*%
%ADD16R,2.000000X2.000000*%
%ADD17C,2.000000*%
%ADD18R,1.500000X1.000000*%
%ADD19RoundRect,0.237500X0.300000X0.237500X-0.300000X0.237500X-0.300000X-0.237500X0.300000X-0.237500X0*%
%ADD20RoundRect,0.237500X0.237500X-0.300000X0.237500X0.300000X-0.237500X0.300000X-0.237500X-0.300000X0*%
%ADD21RoundRect,0.237500X-0.237500X0.300000X-0.237500X-0.300000X0.237500X-0.300000X0.237500X0.300000X0*%
%ADD22RoundRect,0.237500X-0.300000X-0.237500X0.300000X-0.237500X0.300000X0.237500X-0.300000X0.237500X0*%
G04 APERTURE END LIST*
D10*
X161925000Y-124460000D03*
D11*
X159385000Y-124460000D03*
X156845000Y-124460000D03*
X154305000Y-124460000D03*
D12*
X164318250Y-52324000D03*
X170918250Y-52324000D03*
D13*
X164318250Y-52324000D03*
X170918250Y-52324000D03*
D14*
X174752000Y-53848000D03*
D15*
X162030000Y-107760000D03*
D16*
X123420000Y-99060000D03*
D17*
X123420000Y-111760000D03*
D11*
X125365000Y-124460000D03*
D10*
X122825000Y-124460000D03*
D11*
X120285000Y-124460000D03*
D14*
X104648000Y-123952000D03*
D11*
X146685000Y-124460000D03*
X144145000Y-124460000D03*
X141605000Y-124460000D03*
X139065000Y-124460000D03*
X136525000Y-124460000D03*
X133985000Y-124460000D03*
D10*
X109479000Y-65532000D03*
D11*
X106939000Y-65532000D03*
D14*
X104648000Y-53848000D03*
X174752000Y-123952000D03*
D18*
X157150000Y-117300000D03*
X157150000Y-120500000D03*
X152250000Y-120500000D03*
X152250000Y-117300000D03*
X172150000Y-117300000D03*
X172150000Y-120500000D03*
X167250000Y-120500000D03*
X167250000Y-117300000D03*
D19*
X176122500Y-117475000D03*
X174397500Y-117475000D03*
D20*
X160560000Y-69564000D03*
X160560000Y-67839000D03*
D18*
X142150000Y-57300000D03*
X142150000Y-60500000D03*
X137250000Y-60500000D03*
X137250000Y-57300000D03*
X112150000Y-57300000D03*
X112150000Y-60500000D03*
X107250000Y-60500000D03*
X107250000Y-57300000D03*
D19*
X146277500Y-102235000D03*
X144552500Y-102235000D03*
D20*
X164116000Y-69564000D03*
X164116000Y-67839000D03*
D18*
X157150000Y-87300000D03*
X157150000Y-90500000D03*
X152250000Y-90500000D03*
X152250000Y-87300000D03*
X142150000Y-87300000D03*
X142150000Y-90500000D03*
X137250000Y-90500000D03*
X137250000Y-87300000D03*
D21*
X160306000Y-80793000D03*
X160306000Y-82518000D03*
D18*
X127150000Y-72300000D03*
X127150000Y-75500000D03*
X122250000Y-75500000D03*
X122250000Y-72300000D03*
D19*
X161517500Y-57150000D03*
X159792500Y-57150000D03*
X176122500Y-57150000D03*
X174397500Y-57150000D03*
X176757500Y-72390000D03*
X175032500Y-72390000D03*
D18*
X157150000Y-72300000D03*
X157150000Y-75500000D03*
X152250000Y-75500000D03*
X152250000Y-72300000D03*
D19*
X131037500Y-86995000D03*
X129312500Y-86995000D03*
D18*
X172150000Y-87300000D03*
X172150000Y-90500000D03*
X167250000Y-90500000D03*
X167250000Y-87300000D03*
X112150000Y-102300000D03*
X112150000Y-105500000D03*
X107250000Y-105500000D03*
X107250000Y-102300000D03*
D19*
X146277500Y-117475000D03*
X144552500Y-117475000D03*
D18*
X142150000Y-117300000D03*
X142150000Y-120500000D03*
X137250000Y-120500000D03*
X137250000Y-117300000D03*
D22*
X169317500Y-99695000D03*
X171042500Y-99695000D03*
D19*
X146912500Y-57150000D03*
X145187500Y-57150000D03*
D22*
X154712500Y-69850000D03*
X156437500Y-69850000D03*
D19*
X161517500Y-117475000D03*
X159792500Y-117475000D03*
D18*
X157150000Y-57300000D03*
X157150000Y-60500000D03*
X152250000Y-60500000D03*
X152250000Y-57300000D03*
X172150000Y-57300000D03*
X172150000Y-60500000D03*
X167250000Y-60500000D03*
X167250000Y-57300000D03*
D19*
X159612500Y-99695000D03*
X157887500Y-99695000D03*
D18*
X142150000Y-102300000D03*
X142150000Y-105500000D03*
X137250000Y-105500000D03*
X137250000Y-102300000D03*
D19*
X116432500Y-86995000D03*
X114707500Y-86995000D03*
X131037500Y-116840000D03*
X129312500Y-116840000D03*
X116432500Y-57150000D03*
X114707500Y-57150000D03*
X131672500Y-57150000D03*
X129947500Y-57150000D03*
D18*
X172150000Y-72300000D03*
X172150000Y-75500000D03*
X167250000Y-75500000D03*
X167250000Y-72300000D03*
X172150000Y-102300000D03*
X172150000Y-105500000D03*
X167250000Y-105500000D03*
X167250000Y-102300000D03*
X142150000Y-72300000D03*
X142150000Y-75500000D03*
X137250000Y-75500000D03*
X137250000Y-72300000D03*
X127150000Y-102300000D03*
X127150000Y-105500000D03*
X122250000Y-105500000D03*
X122250000Y-102300000D03*
D22*
X169317500Y-85090000D03*
X171042500Y-85090000D03*
D21*
X157480000Y-82322500D03*
X157480000Y-84047500D03*
D19*
X146277500Y-72390000D03*
X144552500Y-72390000D03*
D18*
X127150000Y-57300000D03*
X127150000Y-60500000D03*
X122250000Y-60500000D03*
X122250000Y-57300000D03*
D21*
X162076000Y-80793000D03*
X162076000Y-82518000D03*
D19*
X131037500Y-72390000D03*
X129312500Y-72390000D03*
X146277500Y-86995000D03*
X144552500Y-86995000D03*
D18*
X112150000Y-117300000D03*
X112150000Y-120500000D03*
X107250000Y-120500000D03*
X107250000Y-117300000D03*
X157150000Y-102300000D03*
X157150000Y-105500000D03*
X152250000Y-105500000D03*
X152250000Y-102300000D03*
X112150000Y-87300000D03*
X112150000Y-90500000D03*
X107250000Y-90500000D03*
X107250000Y-87300000D03*
X127150000Y-87300000D03*
X127150000Y-90500000D03*
X122250000Y-90500000D03*
X122250000Y-87300000D03*
D20*
X162338000Y-69564000D03*
X162338000Y-67839000D03*
D19*
X116432500Y-102235000D03*
X114707500Y-102235000D03*
D18*
X112150000Y-72300000D03*
X112150000Y-75500000D03*
X107250000Y-75500000D03*
X107250000Y-72300000D03*
D19*
X116432500Y-72390000D03*
X114707500Y-72390000D03*
X115797500Y-119380000D03*
X114072500Y-119380000D03*
X129132500Y-99695000D03*
X127407500Y-99695000D03*
D18*
X127150000Y-117300000D03*
X127150000Y-120500000D03*
X122250000Y-120500000D03*
X122250000Y-117300000D03*
M02*
