G04 #@! TF.GenerationSoftware,KiCad,Pcbnew,(6.0.5)*
G04 #@! TF.CreationDate,2023-04-10T12:53:00-04:00*
G04 #@! TF.ProjectId,control_board,636f6e74-726f-46c5-9f62-6f6172642e6b,rev?*
G04 #@! TF.SameCoordinates,Original*
G04 #@! TF.FileFunction,Copper,L2,Inr*
G04 #@! TF.FilePolarity,Positive*
%FSLAX46Y46*%
G04 Gerber Fmt 4.6, Leading zero omitted, Abs format (unit mm)*
G04 Created by KiCad (PCBNEW (6.0.5)) date 2023-04-10 12:53:00*
%MOMM*%
%LPD*%
G01*
G04 APERTURE LIST*
G04 #@! TA.AperFunction,ComponentPad*
%ADD10R,1.700000X1.700000*%
G04 #@! TD*
G04 #@! TA.AperFunction,ComponentPad*
%ADD11O,1.700000X1.700000*%
G04 #@! TD*
G04 #@! TA.AperFunction,ComponentPad*
%ADD12O,0.900000X1.800000*%
G04 #@! TD*
G04 #@! TA.AperFunction,ComponentPad*
%ADD13C,2.000000*%
G04 #@! TD*
G04 #@! TA.AperFunction,ComponentPad*
%ADD14R,2.000000X2.000000*%
G04 #@! TD*
G04 #@! TA.AperFunction,ViaPad*
%ADD15C,0.600000*%
G04 #@! TD*
G04 APERTURE END LIST*
D10*
X161925000Y-124460000D03*
D11*
X159385000Y-124460000D03*
X156845000Y-124460000D03*
X154305000Y-124460000D03*
D12*
X170918250Y-52324000D03*
X164318250Y-52324000D03*
D13*
X123420000Y-111760000D03*
D14*
X123420000Y-99060000D03*
D11*
X125365000Y-124460000D03*
D10*
X122825000Y-124460000D03*
D11*
X120285000Y-124460000D03*
X146685000Y-124460000D03*
X144145000Y-124460000D03*
X141605000Y-124460000D03*
X139065000Y-124460000D03*
X136525000Y-124460000D03*
X133985000Y-124460000D03*
D10*
X109479000Y-65532000D03*
D11*
X106939000Y-65532000D03*
D15*
X161798000Y-81307500D03*
X163068000Y-90424000D03*
X163500000Y-84700000D03*
X150622000Y-117348000D03*
X128524000Y-73699980D03*
X138938000Y-83820000D03*
X108585000Y-102362000D03*
X130429000Y-62357000D03*
X162300000Y-84700000D03*
X168656000Y-72390000D03*
X155067000Y-82042000D03*
X150749000Y-102235000D03*
X162300000Y-85700000D03*
X161100000Y-85700000D03*
X165100000Y-58549011D03*
X170815000Y-58549011D03*
X162941000Y-77724000D03*
X135509000Y-117348000D03*
X149352000Y-87376000D03*
X170815000Y-83312000D03*
X153670000Y-72390000D03*
X154448500Y-87757000D03*
X120777000Y-102362000D03*
X120396000Y-72263000D03*
X123536278Y-57272468D03*
X108585000Y-72390000D03*
X165862000Y-102362000D03*
X168656000Y-89916000D03*
X165735000Y-117348000D03*
X127508000Y-85344000D03*
X112141000Y-94742000D03*
X139446000Y-87630000D03*
X108587623Y-57272468D03*
X165608000Y-56350498D03*
X166751000Y-86233000D03*
X108585000Y-87249000D03*
X108585000Y-117348000D03*
X161100000Y-86800000D03*
X161100000Y-84700000D03*
X138564442Y-72294394D03*
X135763000Y-102235000D03*
X168148000Y-80010000D03*
X138580452Y-57272468D03*
X160655000Y-78486000D03*
X112141000Y-111633000D03*
X165100000Y-113792000D03*
X151003000Y-76327000D03*
X163500000Y-85700000D03*
X123063000Y-63500000D03*
X162300000Y-86800000D03*
X153670000Y-57277000D03*
X120904000Y-87249000D03*
X119761000Y-62230000D03*
X121412000Y-116332000D03*
X110236000Y-91948000D03*
X155448000Y-87757000D03*
X157734000Y-69596000D03*
X149987000Y-88646000D03*
X111760000Y-100330000D03*
X164630500Y-81307500D03*
X165608000Y-81280000D03*
X139446000Y-86614000D03*
X130937000Y-64135000D03*
X168910000Y-86741000D03*
X113030000Y-100330000D03*
X113030000Y-99060000D03*
X156845000Y-82042000D03*
X111760000Y-99060000D03*
X124079000Y-61722000D03*
X160655000Y-80137000D03*
X167767000Y-82042000D03*
X150876000Y-79756000D03*
X140081000Y-82169000D03*
X162219678Y-90464678D03*
X105664000Y-73914000D03*
X105664000Y-58928000D03*
X109093000Y-106807000D03*
X105029000Y-118999000D03*
X107569000Y-106807000D03*
X105664000Y-89027000D03*
X109093000Y-108585000D03*
X107569000Y-108585000D03*
X105664000Y-103886000D03*
X114935000Y-59055000D03*
X175260000Y-108585000D03*
X153670000Y-110490000D03*
X173990000Y-108585000D03*
X153670000Y-107315000D03*
X155575000Y-91440000D03*
X151688780Y-98425000D03*
X151765000Y-97155000D03*
X160020000Y-87403500D03*
X151765000Y-95885000D03*
X154305000Y-91440000D03*
X146685000Y-86995000D03*
X139700000Y-98425000D03*
X146050000Y-91449500D03*
X160020000Y-86387500D03*
X143256000Y-83312000D03*
X136144000Y-83312000D03*
X141224000Y-84328000D03*
X160020000Y-85371500D03*
X160655000Y-93980000D03*
X165735000Y-93980000D03*
X158676378Y-78412378D03*
X161425500Y-83533500D03*
X170053000Y-86741000D03*
X169280878Y-98795878D03*
X119380000Y-115000000D03*
X117475000Y-108712000D03*
X118250000Y-117650980D03*
X116459000Y-108712000D03*
X119380000Y-117650980D03*
X118250000Y-115000000D03*
G04 #@! TA.AperFunction,Conductor*
G36*
X177491621Y-51070502D02*
G01*
X177538114Y-51124158D01*
X177549500Y-51176500D01*
X177549500Y-126623500D01*
X177529498Y-126691621D01*
X177475842Y-126738114D01*
X177423500Y-126749500D01*
X101976500Y-126749500D01*
X101908379Y-126729498D01*
X101861886Y-126675842D01*
X101850500Y-126623500D01*
X101850500Y-123952000D01*
X103342532Y-123952000D01*
X103362365Y-124178692D01*
X103421261Y-124398496D01*
X103423583Y-124403476D01*
X103423584Y-124403478D01*
X103478627Y-124521516D01*
X103517432Y-124604734D01*
X103647953Y-124791139D01*
X103808861Y-124952047D01*
X103995266Y-125082568D01*
X104000244Y-125084889D01*
X104000247Y-125084891D01*
X104012145Y-125090439D01*
X104201504Y-125178739D01*
X104206812Y-125180161D01*
X104206814Y-125180162D01*
X104415993Y-125236211D01*
X104415995Y-125236211D01*
X104421308Y-125237635D01*
X104507674Y-125245191D01*
X104588492Y-125252262D01*
X104588499Y-125252262D01*
X104591216Y-125252500D01*
X104704784Y-125252500D01*
X104707501Y-125252262D01*
X104707508Y-125252262D01*
X104788326Y-125245191D01*
X104874692Y-125237635D01*
X104880005Y-125236211D01*
X104880007Y-125236211D01*
X105089186Y-125180162D01*
X105089188Y-125180161D01*
X105094496Y-125178739D01*
X105283855Y-125090439D01*
X105295753Y-125084891D01*
X105295756Y-125084889D01*
X105300734Y-125082568D01*
X105487139Y-124952047D01*
X105648047Y-124791139D01*
X105778568Y-124604734D01*
X105817374Y-124521516D01*
X105859550Y-124431069D01*
X119180164Y-124431069D01*
X119193392Y-124632894D01*
X119243178Y-124828928D01*
X119327856Y-125012607D01*
X119331189Y-125017323D01*
X119375070Y-125079413D01*
X119444588Y-125177780D01*
X119589466Y-125318913D01*
X119757637Y-125431282D01*
X119762940Y-125433560D01*
X119762943Y-125433562D01*
X119851291Y-125471519D01*
X119943470Y-125511122D01*
X120140740Y-125555760D01*
X120146509Y-125555987D01*
X120146512Y-125555987D01*
X120222683Y-125558979D01*
X120342842Y-125563700D01*
X120429132Y-125551189D01*
X120537286Y-125535508D01*
X120537291Y-125535507D01*
X120543007Y-125534678D01*
X120548479Y-125532820D01*
X120548481Y-125532820D01*
X120729067Y-125471519D01*
X120729069Y-125471518D01*
X120734531Y-125469664D01*
X120911001Y-125370837D01*
X120973433Y-125318913D01*
X121062073Y-125245191D01*
X121066505Y-125241505D01*
X121195837Y-125086001D01*
X121199527Y-125079413D01*
X121291845Y-124914564D01*
X121294664Y-124909531D01*
X121359678Y-124718007D01*
X121360507Y-124712291D01*
X121360508Y-124712286D01*
X121388167Y-124521516D01*
X121388700Y-124517842D01*
X121390215Y-124460000D01*
X121387557Y-124431069D01*
X124260164Y-124431069D01*
X124273392Y-124632894D01*
X124323178Y-124828928D01*
X124407856Y-125012607D01*
X124411189Y-125017323D01*
X124455070Y-125079413D01*
X124524588Y-125177780D01*
X124669466Y-125318913D01*
X124837637Y-125431282D01*
X124842940Y-125433560D01*
X124842943Y-125433562D01*
X124931291Y-125471519D01*
X125023470Y-125511122D01*
X125220740Y-125555760D01*
X125226509Y-125555987D01*
X125226512Y-125555987D01*
X125302683Y-125558979D01*
X125422842Y-125563700D01*
X125509132Y-125551189D01*
X125617286Y-125535508D01*
X125617291Y-125535507D01*
X125623007Y-125534678D01*
X125628479Y-125532820D01*
X125628481Y-125532820D01*
X125809067Y-125471519D01*
X125809069Y-125471518D01*
X125814531Y-125469664D01*
X125991001Y-125370837D01*
X126053433Y-125318913D01*
X126142073Y-125245191D01*
X126146505Y-125241505D01*
X126275837Y-125086001D01*
X126279527Y-125079413D01*
X126371845Y-124914564D01*
X126374664Y-124909531D01*
X126439678Y-124718007D01*
X126440507Y-124712291D01*
X126440508Y-124712286D01*
X126468167Y-124521516D01*
X126468700Y-124517842D01*
X126470215Y-124460000D01*
X126467557Y-124431069D01*
X132880164Y-124431069D01*
X132893392Y-124632894D01*
X132943178Y-124828928D01*
X133027856Y-125012607D01*
X133031189Y-125017323D01*
X133075070Y-125079413D01*
X133144588Y-125177780D01*
X133289466Y-125318913D01*
X133457637Y-125431282D01*
X133462940Y-125433560D01*
X133462943Y-125433562D01*
X133551291Y-125471519D01*
X133643470Y-125511122D01*
X133840740Y-125555760D01*
X133846509Y-125555987D01*
X133846512Y-125555987D01*
X133922683Y-125558979D01*
X134042842Y-125563700D01*
X134129132Y-125551189D01*
X134237286Y-125535508D01*
X134237291Y-125535507D01*
X134243007Y-125534678D01*
X134248479Y-125532820D01*
X134248481Y-125532820D01*
X134429067Y-125471519D01*
X134429069Y-125471518D01*
X134434531Y-125469664D01*
X134611001Y-125370837D01*
X134673433Y-125318913D01*
X134762073Y-125245191D01*
X134766505Y-125241505D01*
X134895837Y-125086001D01*
X134899527Y-125079413D01*
X134991845Y-124914564D01*
X134994664Y-124909531D01*
X135059678Y-124718007D01*
X135060507Y-124712291D01*
X135060508Y-124712286D01*
X135088167Y-124521516D01*
X135088700Y-124517842D01*
X135090215Y-124460000D01*
X135087557Y-124431069D01*
X135420164Y-124431069D01*
X135433392Y-124632894D01*
X135483178Y-124828928D01*
X135567856Y-125012607D01*
X135571189Y-125017323D01*
X135615070Y-125079413D01*
X135684588Y-125177780D01*
X135829466Y-125318913D01*
X135997637Y-125431282D01*
X136002940Y-125433560D01*
X136002943Y-125433562D01*
X136091291Y-125471519D01*
X136183470Y-125511122D01*
X136380740Y-125555760D01*
X136386509Y-125555987D01*
X136386512Y-125555987D01*
X136462683Y-125558979D01*
X136582842Y-125563700D01*
X136669132Y-125551189D01*
X136777286Y-125535508D01*
X136777291Y-125535507D01*
X136783007Y-125534678D01*
X136788479Y-125532820D01*
X136788481Y-125532820D01*
X136969067Y-125471519D01*
X136969069Y-125471518D01*
X136974531Y-125469664D01*
X137151001Y-125370837D01*
X137213433Y-125318913D01*
X137302073Y-125245191D01*
X137306505Y-125241505D01*
X137435837Y-125086001D01*
X137439527Y-125079413D01*
X137531845Y-124914564D01*
X137534664Y-124909531D01*
X137599678Y-124718007D01*
X137600507Y-124712291D01*
X137600508Y-124712286D01*
X137628167Y-124521516D01*
X137628700Y-124517842D01*
X137630215Y-124460000D01*
X137627557Y-124431069D01*
X137960164Y-124431069D01*
X137973392Y-124632894D01*
X138023178Y-124828928D01*
X138107856Y-125012607D01*
X138111189Y-125017323D01*
X138155070Y-125079413D01*
X138224588Y-125177780D01*
X138369466Y-125318913D01*
X138537637Y-125431282D01*
X138542940Y-125433560D01*
X138542943Y-125433562D01*
X138631291Y-125471519D01*
X138723470Y-125511122D01*
X138920740Y-125555760D01*
X138926509Y-125555987D01*
X138926512Y-125555987D01*
X139002683Y-125558979D01*
X139122842Y-125563700D01*
X139209132Y-125551189D01*
X139317286Y-125535508D01*
X139317291Y-125535507D01*
X139323007Y-125534678D01*
X139328479Y-125532820D01*
X139328481Y-125532820D01*
X139509067Y-125471519D01*
X139509069Y-125471518D01*
X139514531Y-125469664D01*
X139691001Y-125370837D01*
X139753433Y-125318913D01*
X139842073Y-125245191D01*
X139846505Y-125241505D01*
X139975837Y-125086001D01*
X139979527Y-125079413D01*
X140071845Y-124914564D01*
X140074664Y-124909531D01*
X140139678Y-124718007D01*
X140140507Y-124712291D01*
X140140508Y-124712286D01*
X140168167Y-124521516D01*
X140168700Y-124517842D01*
X140170215Y-124460000D01*
X140167557Y-124431069D01*
X140500164Y-124431069D01*
X140513392Y-124632894D01*
X140563178Y-124828928D01*
X140647856Y-125012607D01*
X140651189Y-125017323D01*
X140695070Y-125079413D01*
X140764588Y-125177780D01*
X140909466Y-125318913D01*
X141077637Y-125431282D01*
X141082940Y-125433560D01*
X141082943Y-125433562D01*
X141171291Y-125471519D01*
X141263470Y-125511122D01*
X141460740Y-125555760D01*
X141466509Y-125555987D01*
X141466512Y-125555987D01*
X141542683Y-125558979D01*
X141662842Y-125563700D01*
X141749132Y-125551189D01*
X141857286Y-125535508D01*
X141857291Y-125535507D01*
X141863007Y-125534678D01*
X141868479Y-125532820D01*
X141868481Y-125532820D01*
X142049067Y-125471519D01*
X142049069Y-125471518D01*
X142054531Y-125469664D01*
X142231001Y-125370837D01*
X142293433Y-125318913D01*
X142382073Y-125245191D01*
X142386505Y-125241505D01*
X142515837Y-125086001D01*
X142519527Y-125079413D01*
X142611845Y-124914564D01*
X142614664Y-124909531D01*
X142679678Y-124718007D01*
X142680507Y-124712291D01*
X142680508Y-124712286D01*
X142708167Y-124521516D01*
X142708700Y-124517842D01*
X142710215Y-124460000D01*
X142707557Y-124431069D01*
X143040164Y-124431069D01*
X143053392Y-124632894D01*
X143103178Y-124828928D01*
X143187856Y-125012607D01*
X143191189Y-125017323D01*
X143235070Y-125079413D01*
X143304588Y-125177780D01*
X143449466Y-125318913D01*
X143617637Y-125431282D01*
X143622940Y-125433560D01*
X143622943Y-125433562D01*
X143711291Y-125471519D01*
X143803470Y-125511122D01*
X144000740Y-125555760D01*
X144006509Y-125555987D01*
X144006512Y-125555987D01*
X144082683Y-125558979D01*
X144202842Y-125563700D01*
X144289132Y-125551189D01*
X144397286Y-125535508D01*
X144397291Y-125535507D01*
X144403007Y-125534678D01*
X144408479Y-125532820D01*
X144408481Y-125532820D01*
X144589067Y-125471519D01*
X144589069Y-125471518D01*
X144594531Y-125469664D01*
X144771001Y-125370837D01*
X144833433Y-125318913D01*
X144922073Y-125245191D01*
X144926505Y-125241505D01*
X145055837Y-125086001D01*
X145059527Y-125079413D01*
X145151845Y-124914564D01*
X145154664Y-124909531D01*
X145219678Y-124718007D01*
X145220507Y-124712291D01*
X145220508Y-124712286D01*
X145248167Y-124521516D01*
X145248700Y-124517842D01*
X145250215Y-124460000D01*
X145247557Y-124431069D01*
X145580164Y-124431069D01*
X145593392Y-124632894D01*
X145643178Y-124828928D01*
X145727856Y-125012607D01*
X145731189Y-125017323D01*
X145775070Y-125079413D01*
X145844588Y-125177780D01*
X145989466Y-125318913D01*
X146157637Y-125431282D01*
X146162940Y-125433560D01*
X146162943Y-125433562D01*
X146251291Y-125471519D01*
X146343470Y-125511122D01*
X146540740Y-125555760D01*
X146546509Y-125555987D01*
X146546512Y-125555987D01*
X146622683Y-125558979D01*
X146742842Y-125563700D01*
X146829132Y-125551189D01*
X146937286Y-125535508D01*
X146937291Y-125535507D01*
X146943007Y-125534678D01*
X146948479Y-125532820D01*
X146948481Y-125532820D01*
X147129067Y-125471519D01*
X147129069Y-125471518D01*
X147134531Y-125469664D01*
X147311001Y-125370837D01*
X147373433Y-125318913D01*
X147462073Y-125245191D01*
X147466505Y-125241505D01*
X147595837Y-125086001D01*
X147599527Y-125079413D01*
X147691845Y-124914564D01*
X147694664Y-124909531D01*
X147759678Y-124718007D01*
X147760507Y-124712291D01*
X147760508Y-124712286D01*
X147788167Y-124521516D01*
X147788700Y-124517842D01*
X147790215Y-124460000D01*
X147787557Y-124431069D01*
X153200164Y-124431069D01*
X153213392Y-124632894D01*
X153263178Y-124828928D01*
X153347856Y-125012607D01*
X153351189Y-125017323D01*
X153395070Y-125079413D01*
X153464588Y-125177780D01*
X153609466Y-125318913D01*
X153777637Y-125431282D01*
X153782940Y-125433560D01*
X153782943Y-125433562D01*
X153871291Y-125471519D01*
X153963470Y-125511122D01*
X154160740Y-125555760D01*
X154166509Y-125555987D01*
X154166512Y-125555987D01*
X154242683Y-125558979D01*
X154362842Y-125563700D01*
X154449132Y-125551189D01*
X154557286Y-125535508D01*
X154557291Y-125535507D01*
X154563007Y-125534678D01*
X154568479Y-125532820D01*
X154568481Y-125532820D01*
X154749067Y-125471519D01*
X154749069Y-125471518D01*
X154754531Y-125469664D01*
X154931001Y-125370837D01*
X154993433Y-125318913D01*
X155082073Y-125245191D01*
X155086505Y-125241505D01*
X155215837Y-125086001D01*
X155219527Y-125079413D01*
X155311845Y-124914564D01*
X155314664Y-124909531D01*
X155379678Y-124718007D01*
X155380507Y-124712291D01*
X155380508Y-124712286D01*
X155408167Y-124521516D01*
X155408700Y-124517842D01*
X155410215Y-124460000D01*
X155407557Y-124431069D01*
X155740164Y-124431069D01*
X155753392Y-124632894D01*
X155803178Y-124828928D01*
X155887856Y-125012607D01*
X155891189Y-125017323D01*
X155935070Y-125079413D01*
X156004588Y-125177780D01*
X156149466Y-125318913D01*
X156317637Y-125431282D01*
X156322940Y-125433560D01*
X156322943Y-125433562D01*
X156411291Y-125471519D01*
X156503470Y-125511122D01*
X156700740Y-125555760D01*
X156706509Y-125555987D01*
X156706512Y-125555987D01*
X156782683Y-125558979D01*
X156902842Y-125563700D01*
X156989132Y-125551189D01*
X157097286Y-125535508D01*
X157097291Y-125535507D01*
X157103007Y-125534678D01*
X157108479Y-125532820D01*
X157108481Y-125532820D01*
X157289067Y-125471519D01*
X157289069Y-125471518D01*
X157294531Y-125469664D01*
X157471001Y-125370837D01*
X157533433Y-125318913D01*
X157622073Y-125245191D01*
X157626505Y-125241505D01*
X157755837Y-125086001D01*
X157759527Y-125079413D01*
X157851845Y-124914564D01*
X157854664Y-124909531D01*
X157919678Y-124718007D01*
X157920507Y-124712291D01*
X157920508Y-124712286D01*
X157948167Y-124521516D01*
X157948700Y-124517842D01*
X157950215Y-124460000D01*
X157947557Y-124431069D01*
X158280164Y-124431069D01*
X158293392Y-124632894D01*
X158343178Y-124828928D01*
X158427856Y-125012607D01*
X158431189Y-125017323D01*
X158475070Y-125079413D01*
X158544588Y-125177780D01*
X158689466Y-125318913D01*
X158857637Y-125431282D01*
X158862940Y-125433560D01*
X158862943Y-125433562D01*
X158951291Y-125471519D01*
X159043470Y-125511122D01*
X159240740Y-125555760D01*
X159246509Y-125555987D01*
X159246512Y-125555987D01*
X159322683Y-125558979D01*
X159442842Y-125563700D01*
X159529132Y-125551189D01*
X159637286Y-125535508D01*
X159637291Y-125535507D01*
X159643007Y-125534678D01*
X159648479Y-125532820D01*
X159648481Y-125532820D01*
X159829067Y-125471519D01*
X159829069Y-125471518D01*
X159834531Y-125469664D01*
X160011001Y-125370837D01*
X160073433Y-125318913D01*
X160162073Y-125245191D01*
X160166505Y-125241505D01*
X160295837Y-125086001D01*
X160299527Y-125079413D01*
X160391845Y-124914564D01*
X160394664Y-124909531D01*
X160459678Y-124718007D01*
X160460507Y-124712291D01*
X160460508Y-124712286D01*
X160488167Y-124521516D01*
X160488700Y-124517842D01*
X160490215Y-124460000D01*
X160471708Y-124258591D01*
X160416807Y-124063926D01*
X160361611Y-123952000D01*
X173446532Y-123952000D01*
X173466365Y-124178692D01*
X173525261Y-124398496D01*
X173527583Y-124403476D01*
X173527584Y-124403478D01*
X173582627Y-124521516D01*
X173621432Y-124604734D01*
X173751953Y-124791139D01*
X173912861Y-124952047D01*
X174099266Y-125082568D01*
X174104244Y-125084889D01*
X174104247Y-125084891D01*
X174116145Y-125090439D01*
X174305504Y-125178739D01*
X174310812Y-125180161D01*
X174310814Y-125180162D01*
X174519993Y-125236211D01*
X174519995Y-125236211D01*
X174525308Y-125237635D01*
X174611674Y-125245191D01*
X174692492Y-125252262D01*
X174692499Y-125252262D01*
X174695216Y-125252500D01*
X174808784Y-125252500D01*
X174811501Y-125252262D01*
X174811508Y-125252262D01*
X174892326Y-125245191D01*
X174978692Y-125237635D01*
X174984005Y-125236211D01*
X174984007Y-125236211D01*
X175193186Y-125180162D01*
X175193188Y-125180161D01*
X175198496Y-125178739D01*
X175387855Y-125090439D01*
X175399753Y-125084891D01*
X175399756Y-125084889D01*
X175404734Y-125082568D01*
X175591139Y-124952047D01*
X175752047Y-124791139D01*
X175882568Y-124604734D01*
X175921374Y-124521516D01*
X175976416Y-124403478D01*
X175976417Y-124403476D01*
X175978739Y-124398496D01*
X176037635Y-124178692D01*
X176057468Y-123952000D01*
X176037635Y-123725308D01*
X176030645Y-123699220D01*
X175980162Y-123510814D01*
X175980161Y-123510812D01*
X175978739Y-123505504D01*
X175966065Y-123478325D01*
X175884891Y-123304247D01*
X175884889Y-123304244D01*
X175882568Y-123299266D01*
X175752047Y-123112861D01*
X175591139Y-122951953D01*
X175404734Y-122821432D01*
X175399756Y-122819111D01*
X175399753Y-122819109D01*
X175203478Y-122727584D01*
X175203476Y-122727583D01*
X175198496Y-122725261D01*
X175193188Y-122723839D01*
X175193186Y-122723838D01*
X174984007Y-122667789D01*
X174984005Y-122667789D01*
X174978692Y-122666365D01*
X174879698Y-122657704D01*
X174811508Y-122651738D01*
X174811501Y-122651738D01*
X174808784Y-122651500D01*
X174695216Y-122651500D01*
X174692499Y-122651738D01*
X174692492Y-122651738D01*
X174624302Y-122657704D01*
X174525308Y-122666365D01*
X174519995Y-122667789D01*
X174519993Y-122667789D01*
X174310814Y-122723838D01*
X174310812Y-122723839D01*
X174305504Y-122725261D01*
X174300524Y-122727583D01*
X174300522Y-122727584D01*
X174104247Y-122819109D01*
X174104244Y-122819111D01*
X174099266Y-122821432D01*
X173912861Y-122951953D01*
X173751953Y-123112861D01*
X173621432Y-123299266D01*
X173619111Y-123304244D01*
X173619109Y-123304247D01*
X173537935Y-123478325D01*
X173525261Y-123505504D01*
X173523839Y-123510812D01*
X173523838Y-123510814D01*
X173473355Y-123699220D01*
X173466365Y-123725308D01*
X173446532Y-123952000D01*
X160361611Y-123952000D01*
X160327351Y-123882527D01*
X160309079Y-123858057D01*
X160209788Y-123725091D01*
X160209787Y-123725090D01*
X160206335Y-123720467D01*
X160183350Y-123699220D01*
X160062053Y-123587094D01*
X160062051Y-123587092D01*
X160057812Y-123583174D01*
X160030374Y-123565862D01*
X159891637Y-123478325D01*
X159886757Y-123475246D01*
X159698898Y-123400298D01*
X159500526Y-123360839D01*
X159494752Y-123360763D01*
X159494748Y-123360763D01*
X159392257Y-123359422D01*
X159298286Y-123358192D01*
X159292589Y-123359171D01*
X159292588Y-123359171D01*
X159104646Y-123391465D01*
X159104645Y-123391465D01*
X159098949Y-123392444D01*
X158909193Y-123462449D01*
X158904232Y-123465401D01*
X158904231Y-123465401D01*
X158827899Y-123510814D01*
X158735371Y-123565862D01*
X158583305Y-123699220D01*
X158458089Y-123858057D01*
X158363914Y-124037053D01*
X158303937Y-124230213D01*
X158280164Y-124431069D01*
X157947557Y-124431069D01*
X157931708Y-124258591D01*
X157876807Y-124063926D01*
X157787351Y-123882527D01*
X157769079Y-123858057D01*
X157669788Y-123725091D01*
X157669787Y-123725090D01*
X157666335Y-123720467D01*
X157643350Y-123699220D01*
X157522053Y-123587094D01*
X157522051Y-123587092D01*
X157517812Y-123583174D01*
X157490374Y-123565862D01*
X157351637Y-123478325D01*
X157346757Y-123475246D01*
X157158898Y-123400298D01*
X156960526Y-123360839D01*
X156954752Y-123360763D01*
X156954748Y-123360763D01*
X156852257Y-123359422D01*
X156758286Y-123358192D01*
X156752589Y-123359171D01*
X156752588Y-123359171D01*
X156564646Y-123391465D01*
X156564645Y-123391465D01*
X156558949Y-123392444D01*
X156369193Y-123462449D01*
X156364232Y-123465401D01*
X156364231Y-123465401D01*
X156287899Y-123510814D01*
X156195371Y-123565862D01*
X156043305Y-123699220D01*
X155918089Y-123858057D01*
X155823914Y-124037053D01*
X155763937Y-124230213D01*
X155740164Y-124431069D01*
X155407557Y-124431069D01*
X155391708Y-124258591D01*
X155336807Y-124063926D01*
X155247351Y-123882527D01*
X155229079Y-123858057D01*
X155129788Y-123725091D01*
X155129787Y-123725090D01*
X155126335Y-123720467D01*
X155103350Y-123699220D01*
X154982053Y-123587094D01*
X154982051Y-123587092D01*
X154977812Y-123583174D01*
X154950374Y-123565862D01*
X154811637Y-123478325D01*
X154806757Y-123475246D01*
X154618898Y-123400298D01*
X154420526Y-123360839D01*
X154414752Y-123360763D01*
X154414748Y-123360763D01*
X154312257Y-123359422D01*
X154218286Y-123358192D01*
X154212589Y-123359171D01*
X154212588Y-123359171D01*
X154024646Y-123391465D01*
X154024645Y-123391465D01*
X154018949Y-123392444D01*
X153829193Y-123462449D01*
X153824232Y-123465401D01*
X153824231Y-123465401D01*
X153747899Y-123510814D01*
X153655371Y-123565862D01*
X153503305Y-123699220D01*
X153378089Y-123858057D01*
X153283914Y-124037053D01*
X153223937Y-124230213D01*
X153200164Y-124431069D01*
X147787557Y-124431069D01*
X147771708Y-124258591D01*
X147716807Y-124063926D01*
X147627351Y-123882527D01*
X147609079Y-123858057D01*
X147509788Y-123725091D01*
X147509787Y-123725090D01*
X147506335Y-123720467D01*
X147483350Y-123699220D01*
X147362053Y-123587094D01*
X147362051Y-123587092D01*
X147357812Y-123583174D01*
X147330374Y-123565862D01*
X147191637Y-123478325D01*
X147186757Y-123475246D01*
X146998898Y-123400298D01*
X146800526Y-123360839D01*
X146794752Y-123360763D01*
X146794748Y-123360763D01*
X146692257Y-123359422D01*
X146598286Y-123358192D01*
X146592589Y-123359171D01*
X146592588Y-123359171D01*
X146404646Y-123391465D01*
X146404645Y-123391465D01*
X146398949Y-123392444D01*
X146209193Y-123462449D01*
X146204232Y-123465401D01*
X146204231Y-123465401D01*
X146127899Y-123510814D01*
X146035371Y-123565862D01*
X145883305Y-123699220D01*
X145758089Y-123858057D01*
X145663914Y-124037053D01*
X145603937Y-124230213D01*
X145580164Y-124431069D01*
X145247557Y-124431069D01*
X145231708Y-124258591D01*
X145176807Y-124063926D01*
X145087351Y-123882527D01*
X145069079Y-123858057D01*
X144969788Y-123725091D01*
X144969787Y-123725090D01*
X144966335Y-123720467D01*
X144943350Y-123699220D01*
X144822053Y-123587094D01*
X144822051Y-123587092D01*
X144817812Y-123583174D01*
X144790374Y-123565862D01*
X144651637Y-123478325D01*
X144646757Y-123475246D01*
X144458898Y-123400298D01*
X144260526Y-123360839D01*
X144254752Y-123360763D01*
X144254748Y-123360763D01*
X144152257Y-123359422D01*
X144058286Y-123358192D01*
X144052589Y-123359171D01*
X144052588Y-123359171D01*
X143864646Y-123391465D01*
X143864645Y-123391465D01*
X143858949Y-123392444D01*
X143669193Y-123462449D01*
X143664232Y-123465401D01*
X143664231Y-123465401D01*
X143587899Y-123510814D01*
X143495371Y-123565862D01*
X143343305Y-123699220D01*
X143218089Y-123858057D01*
X143123914Y-124037053D01*
X143063937Y-124230213D01*
X143040164Y-124431069D01*
X142707557Y-124431069D01*
X142691708Y-124258591D01*
X142636807Y-124063926D01*
X142547351Y-123882527D01*
X142529079Y-123858057D01*
X142429788Y-123725091D01*
X142429787Y-123725090D01*
X142426335Y-123720467D01*
X142403350Y-123699220D01*
X142282053Y-123587094D01*
X142282051Y-123587092D01*
X142277812Y-123583174D01*
X142250374Y-123565862D01*
X142111637Y-123478325D01*
X142106757Y-123475246D01*
X141918898Y-123400298D01*
X141720526Y-123360839D01*
X141714752Y-123360763D01*
X141714748Y-123360763D01*
X141612257Y-123359422D01*
X141518286Y-123358192D01*
X141512589Y-123359171D01*
X141512588Y-123359171D01*
X141324646Y-123391465D01*
X141324645Y-123391465D01*
X141318949Y-123392444D01*
X141129193Y-123462449D01*
X141124232Y-123465401D01*
X141124231Y-123465401D01*
X141047899Y-123510814D01*
X140955371Y-123565862D01*
X140803305Y-123699220D01*
X140678089Y-123858057D01*
X140583914Y-124037053D01*
X140523937Y-124230213D01*
X140500164Y-124431069D01*
X140167557Y-124431069D01*
X140151708Y-124258591D01*
X140096807Y-124063926D01*
X140007351Y-123882527D01*
X139989079Y-123858057D01*
X139889788Y-123725091D01*
X139889787Y-123725090D01*
X139886335Y-123720467D01*
X139863350Y-123699220D01*
X139742053Y-123587094D01*
X139742051Y-123587092D01*
X139737812Y-123583174D01*
X139710374Y-123565862D01*
X139571637Y-123478325D01*
X139566757Y-123475246D01*
X139378898Y-123400298D01*
X139180526Y-123360839D01*
X139174752Y-123360763D01*
X139174748Y-123360763D01*
X139072257Y-123359422D01*
X138978286Y-123358192D01*
X138972589Y-123359171D01*
X138972588Y-123359171D01*
X138784646Y-123391465D01*
X138784645Y-123391465D01*
X138778949Y-123392444D01*
X138589193Y-123462449D01*
X138584232Y-123465401D01*
X138584231Y-123465401D01*
X138507899Y-123510814D01*
X138415371Y-123565862D01*
X138263305Y-123699220D01*
X138138089Y-123858057D01*
X138043914Y-124037053D01*
X137983937Y-124230213D01*
X137960164Y-124431069D01*
X137627557Y-124431069D01*
X137611708Y-124258591D01*
X137556807Y-124063926D01*
X137467351Y-123882527D01*
X137449079Y-123858057D01*
X137349788Y-123725091D01*
X137349787Y-123725090D01*
X137346335Y-123720467D01*
X137323350Y-123699220D01*
X137202053Y-123587094D01*
X137202051Y-123587092D01*
X137197812Y-123583174D01*
X137170374Y-123565862D01*
X137031637Y-123478325D01*
X137026757Y-123475246D01*
X136838898Y-123400298D01*
X136640526Y-123360839D01*
X136634752Y-123360763D01*
X136634748Y-123360763D01*
X136532257Y-123359422D01*
X136438286Y-123358192D01*
X136432589Y-123359171D01*
X136432588Y-123359171D01*
X136244646Y-123391465D01*
X136244645Y-123391465D01*
X136238949Y-123392444D01*
X136049193Y-123462449D01*
X136044232Y-123465401D01*
X136044231Y-123465401D01*
X135967899Y-123510814D01*
X135875371Y-123565862D01*
X135723305Y-123699220D01*
X135598089Y-123858057D01*
X135503914Y-124037053D01*
X135443937Y-124230213D01*
X135420164Y-124431069D01*
X135087557Y-124431069D01*
X135071708Y-124258591D01*
X135016807Y-124063926D01*
X134927351Y-123882527D01*
X134909079Y-123858057D01*
X134809788Y-123725091D01*
X134809787Y-123725090D01*
X134806335Y-123720467D01*
X134783350Y-123699220D01*
X134662053Y-123587094D01*
X134662051Y-123587092D01*
X134657812Y-123583174D01*
X134630374Y-123565862D01*
X134491637Y-123478325D01*
X134486757Y-123475246D01*
X134298898Y-123400298D01*
X134100526Y-123360839D01*
X134094752Y-123360763D01*
X134094748Y-123360763D01*
X133992257Y-123359422D01*
X133898286Y-123358192D01*
X133892589Y-123359171D01*
X133892588Y-123359171D01*
X133704646Y-123391465D01*
X133704645Y-123391465D01*
X133698949Y-123392444D01*
X133509193Y-123462449D01*
X133504232Y-123465401D01*
X133504231Y-123465401D01*
X133427899Y-123510814D01*
X133335371Y-123565862D01*
X133183305Y-123699220D01*
X133058089Y-123858057D01*
X132963914Y-124037053D01*
X132903937Y-124230213D01*
X132880164Y-124431069D01*
X126467557Y-124431069D01*
X126451708Y-124258591D01*
X126396807Y-124063926D01*
X126307351Y-123882527D01*
X126289079Y-123858057D01*
X126189788Y-123725091D01*
X126189787Y-123725090D01*
X126186335Y-123720467D01*
X126163350Y-123699220D01*
X126042053Y-123587094D01*
X126042051Y-123587092D01*
X126037812Y-123583174D01*
X126010374Y-123565862D01*
X125871637Y-123478325D01*
X125866757Y-123475246D01*
X125678898Y-123400298D01*
X125480526Y-123360839D01*
X125474752Y-123360763D01*
X125474748Y-123360763D01*
X125372257Y-123359422D01*
X125278286Y-123358192D01*
X125272589Y-123359171D01*
X125272588Y-123359171D01*
X125084646Y-123391465D01*
X125084645Y-123391465D01*
X125078949Y-123392444D01*
X124889193Y-123462449D01*
X124884232Y-123465401D01*
X124884231Y-123465401D01*
X124807899Y-123510814D01*
X124715371Y-123565862D01*
X124563305Y-123699220D01*
X124438089Y-123858057D01*
X124343914Y-124037053D01*
X124283937Y-124230213D01*
X124260164Y-124431069D01*
X121387557Y-124431069D01*
X121371708Y-124258591D01*
X121316807Y-124063926D01*
X121227351Y-123882527D01*
X121209079Y-123858057D01*
X121109788Y-123725091D01*
X121109787Y-123725090D01*
X121106335Y-123720467D01*
X121083350Y-123699220D01*
X120962053Y-123587094D01*
X120962051Y-123587092D01*
X120957812Y-123583174D01*
X120930374Y-123565862D01*
X120791637Y-123478325D01*
X120786757Y-123475246D01*
X120598898Y-123400298D01*
X120400526Y-123360839D01*
X120394752Y-123360763D01*
X120394748Y-123360763D01*
X120292257Y-123359422D01*
X120198286Y-123358192D01*
X120192589Y-123359171D01*
X120192588Y-123359171D01*
X120004646Y-123391465D01*
X120004645Y-123391465D01*
X119998949Y-123392444D01*
X119809193Y-123462449D01*
X119804232Y-123465401D01*
X119804231Y-123465401D01*
X119727899Y-123510814D01*
X119635371Y-123565862D01*
X119483305Y-123699220D01*
X119358089Y-123858057D01*
X119263914Y-124037053D01*
X119203937Y-124230213D01*
X119180164Y-124431069D01*
X105859550Y-124431069D01*
X105872416Y-124403478D01*
X105872417Y-124403476D01*
X105874739Y-124398496D01*
X105933635Y-124178692D01*
X105953468Y-123952000D01*
X105933635Y-123725308D01*
X105926645Y-123699220D01*
X105876162Y-123510814D01*
X105876161Y-123510812D01*
X105874739Y-123505504D01*
X105862065Y-123478325D01*
X105780891Y-123304247D01*
X105780889Y-123304244D01*
X105778568Y-123299266D01*
X105648047Y-123112861D01*
X105487139Y-122951953D01*
X105300734Y-122821432D01*
X105295756Y-122819111D01*
X105295753Y-122819109D01*
X105099478Y-122727584D01*
X105099476Y-122727583D01*
X105094496Y-122725261D01*
X105089188Y-122723839D01*
X105089186Y-122723838D01*
X104880007Y-122667789D01*
X104880005Y-122667789D01*
X104874692Y-122666365D01*
X104775698Y-122657704D01*
X104707508Y-122651738D01*
X104707501Y-122651738D01*
X104704784Y-122651500D01*
X104591216Y-122651500D01*
X104588499Y-122651738D01*
X104588492Y-122651738D01*
X104520302Y-122657704D01*
X104421308Y-122666365D01*
X104415995Y-122667789D01*
X104415993Y-122667789D01*
X104206814Y-122723838D01*
X104206812Y-122723839D01*
X104201504Y-122725261D01*
X104196524Y-122727583D01*
X104196522Y-122727584D01*
X104000247Y-122819109D01*
X104000244Y-122819111D01*
X103995266Y-122821432D01*
X103808861Y-122951953D01*
X103647953Y-123112861D01*
X103517432Y-123299266D01*
X103515111Y-123304244D01*
X103515109Y-123304247D01*
X103433935Y-123478325D01*
X103421261Y-123505504D01*
X103419839Y-123510812D01*
X103419838Y-123510814D01*
X103369355Y-123699220D01*
X103362365Y-123725308D01*
X103342532Y-123952000D01*
X101850500Y-123952000D01*
X101850500Y-118999000D01*
X104473750Y-118999000D01*
X104492670Y-119142709D01*
X104548139Y-119276625D01*
X104636379Y-119391621D01*
X104751375Y-119479861D01*
X104885291Y-119535330D01*
X105029000Y-119554250D01*
X105172709Y-119535330D01*
X105306625Y-119479861D01*
X105421621Y-119391621D01*
X105509861Y-119276625D01*
X105565330Y-119142709D01*
X105584250Y-118999000D01*
X105565330Y-118855291D01*
X105509861Y-118721375D01*
X105421621Y-118606379D01*
X105306625Y-118518139D01*
X105172709Y-118462670D01*
X105029000Y-118443750D01*
X104885291Y-118462670D01*
X104751375Y-118518139D01*
X104636379Y-118606379D01*
X104548139Y-118721375D01*
X104492670Y-118855291D01*
X104473750Y-118999000D01*
X101850500Y-118999000D01*
X101850500Y-118250000D01*
X112500000Y-118250000D01*
X117750000Y-118250000D01*
X117750000Y-118216709D01*
X117770002Y-118148588D01*
X117823658Y-118102095D01*
X117893932Y-118091991D01*
X117952702Y-118116745D01*
X117972375Y-118131841D01*
X118106291Y-118187310D01*
X118250000Y-118206230D01*
X118393709Y-118187310D01*
X118527625Y-118131841D01*
X118642621Y-118043601D01*
X118715038Y-117949226D01*
X118772376Y-117907359D01*
X118843247Y-117903137D01*
X118905150Y-117937901D01*
X118914962Y-117949226D01*
X118987379Y-118043601D01*
X119102375Y-118131841D01*
X119236291Y-118187310D01*
X119380000Y-118206230D01*
X119523709Y-118187310D01*
X119657625Y-118131841D01*
X119772621Y-118043601D01*
X119860861Y-117928605D01*
X119916330Y-117794689D01*
X119935250Y-117650980D01*
X119916330Y-117507271D01*
X119860861Y-117373355D01*
X119772621Y-117258359D01*
X119657625Y-117170119D01*
X119523709Y-117114650D01*
X119380000Y-117095730D01*
X119236291Y-117114650D01*
X119102375Y-117170119D01*
X118987379Y-117258359D01*
X118982353Y-117264909D01*
X118914962Y-117352734D01*
X118857624Y-117394601D01*
X118786753Y-117398823D01*
X118724850Y-117364059D01*
X118715038Y-117352734D01*
X118647647Y-117264909D01*
X118642621Y-117258359D01*
X118527625Y-117170119D01*
X118393709Y-117114650D01*
X118250000Y-117095730D01*
X118106291Y-117114650D01*
X117972375Y-117170119D01*
X117952702Y-117185215D01*
X117886483Y-117210814D01*
X117816935Y-117196549D01*
X117766139Y-117146948D01*
X117750000Y-117085251D01*
X117750000Y-115565729D01*
X117770002Y-115497608D01*
X117823658Y-115451115D01*
X117893932Y-115441011D01*
X117952702Y-115465765D01*
X117972375Y-115480861D01*
X118106291Y-115536330D01*
X118250000Y-115555250D01*
X118393709Y-115536330D01*
X118527625Y-115480861D01*
X118642621Y-115392621D01*
X118715038Y-115298246D01*
X118772376Y-115256379D01*
X118843247Y-115252157D01*
X118905150Y-115286921D01*
X118914962Y-115298246D01*
X118987379Y-115392621D01*
X119102375Y-115480861D01*
X119236291Y-115536330D01*
X119380000Y-115555250D01*
X119523709Y-115536330D01*
X119657625Y-115480861D01*
X119772621Y-115392621D01*
X119860861Y-115277625D01*
X119916330Y-115143709D01*
X119935250Y-115000000D01*
X119916330Y-114856291D01*
X119860861Y-114722375D01*
X119772621Y-114607379D01*
X119657625Y-114519139D01*
X119523709Y-114463670D01*
X119380000Y-114444750D01*
X119236291Y-114463670D01*
X119102375Y-114519139D01*
X118987379Y-114607379D01*
X118982353Y-114613929D01*
X118914962Y-114701754D01*
X118857624Y-114743621D01*
X118786753Y-114747843D01*
X118724850Y-114713079D01*
X118715038Y-114701754D01*
X118647647Y-114613929D01*
X118642621Y-114607379D01*
X118527625Y-114519139D01*
X118393709Y-114463670D01*
X118250000Y-114444750D01*
X118106291Y-114463670D01*
X117972375Y-114519139D01*
X117952702Y-114534235D01*
X117886483Y-114559834D01*
X117816935Y-114545569D01*
X117766139Y-114495968D01*
X117750000Y-114434271D01*
X117750000Y-113500000D01*
X112500000Y-113500000D01*
X112500000Y-118250000D01*
X101850500Y-118250000D01*
X101850500Y-110490000D01*
X153114750Y-110490000D01*
X153133670Y-110633709D01*
X153189139Y-110767625D01*
X153277379Y-110882621D01*
X153392375Y-110970861D01*
X153526291Y-111026330D01*
X153670000Y-111045250D01*
X153813709Y-111026330D01*
X153947625Y-110970861D01*
X154062621Y-110882621D01*
X154150861Y-110767625D01*
X154206330Y-110633709D01*
X154225250Y-110490000D01*
X154206330Y-110346291D01*
X154150861Y-110212375D01*
X154062621Y-110097379D01*
X153947625Y-110009139D01*
X153813709Y-109953670D01*
X153670000Y-109934750D01*
X153526291Y-109953670D01*
X153392375Y-110009139D01*
X153277379Y-110097379D01*
X153189139Y-110212375D01*
X153133670Y-110346291D01*
X153114750Y-110490000D01*
X101850500Y-110490000D01*
X101850500Y-108585000D01*
X107013750Y-108585000D01*
X107032670Y-108728709D01*
X107088139Y-108862625D01*
X107176379Y-108977621D01*
X107291375Y-109065861D01*
X107425291Y-109121330D01*
X107569000Y-109140250D01*
X107712709Y-109121330D01*
X107846625Y-109065861D01*
X107961621Y-108977621D01*
X108049861Y-108862625D01*
X108105330Y-108728709D01*
X108124250Y-108585000D01*
X108537750Y-108585000D01*
X108556670Y-108728709D01*
X108612139Y-108862625D01*
X108700379Y-108977621D01*
X108815375Y-109065861D01*
X108949291Y-109121330D01*
X109093000Y-109140250D01*
X109236709Y-109121330D01*
X109370625Y-109065861D01*
X109485621Y-108977621D01*
X109573861Y-108862625D01*
X109629330Y-108728709D01*
X109631530Y-108712000D01*
X115903750Y-108712000D01*
X115922670Y-108855709D01*
X115978139Y-108989625D01*
X116066379Y-109104621D01*
X116181375Y-109192861D01*
X116315291Y-109248330D01*
X116459000Y-109267250D01*
X116602709Y-109248330D01*
X116736625Y-109192861D01*
X116851621Y-109104621D01*
X116867040Y-109084527D01*
X116924375Y-109042662D01*
X116995246Y-109038440D01*
X117057149Y-109073204D01*
X117066952Y-109084517D01*
X117082379Y-109104621D01*
X117197375Y-109192861D01*
X117331291Y-109248330D01*
X117475000Y-109267250D01*
X117618709Y-109248330D01*
X117752625Y-109192861D01*
X117867621Y-109104621D01*
X117955861Y-108989625D01*
X118011330Y-108855709D01*
X118030250Y-108712000D01*
X118011330Y-108568291D01*
X117955861Y-108434375D01*
X117867621Y-108319379D01*
X117752625Y-108231139D01*
X117618709Y-108175670D01*
X117475000Y-108156750D01*
X117331291Y-108175670D01*
X117197375Y-108231139D01*
X117082379Y-108319379D01*
X117066960Y-108339473D01*
X117009625Y-108381338D01*
X116938754Y-108385560D01*
X116876851Y-108350796D01*
X116867048Y-108339483D01*
X116851621Y-108319379D01*
X116736625Y-108231139D01*
X116602709Y-108175670D01*
X116459000Y-108156750D01*
X116315291Y-108175670D01*
X116181375Y-108231139D01*
X116066379Y-108319379D01*
X115978139Y-108434375D01*
X115922670Y-108568291D01*
X115903750Y-108712000D01*
X109631530Y-108712000D01*
X109648250Y-108585000D01*
X109629330Y-108441291D01*
X109573861Y-108307375D01*
X109485621Y-108192379D01*
X109370625Y-108104139D01*
X109236709Y-108048670D01*
X109093000Y-108029750D01*
X108949291Y-108048670D01*
X108815375Y-108104139D01*
X108700379Y-108192379D01*
X108612139Y-108307375D01*
X108556670Y-108441291D01*
X108537750Y-108585000D01*
X108124250Y-108585000D01*
X108105330Y-108441291D01*
X108049861Y-108307375D01*
X107961621Y-108192379D01*
X107846625Y-108104139D01*
X107712709Y-108048670D01*
X107569000Y-108029750D01*
X107425291Y-108048670D01*
X107291375Y-108104139D01*
X107176379Y-108192379D01*
X107088139Y-108307375D01*
X107032670Y-108441291D01*
X107013750Y-108585000D01*
X101850500Y-108585000D01*
X101850500Y-106807000D01*
X107013750Y-106807000D01*
X107032670Y-106950709D01*
X107088139Y-107084625D01*
X107176379Y-107199621D01*
X107291375Y-107287861D01*
X107425291Y-107343330D01*
X107569000Y-107362250D01*
X107712709Y-107343330D01*
X107846625Y-107287861D01*
X107961621Y-107199621D01*
X108049861Y-107084625D01*
X108105330Y-106950709D01*
X108124250Y-106807000D01*
X108537750Y-106807000D01*
X108556670Y-106950709D01*
X108612139Y-107084625D01*
X108700379Y-107199621D01*
X108815375Y-107287861D01*
X108949291Y-107343330D01*
X109093000Y-107362250D01*
X109236709Y-107343330D01*
X109305105Y-107315000D01*
X153114750Y-107315000D01*
X153133670Y-107458709D01*
X153189139Y-107592625D01*
X153277379Y-107707621D01*
X153392375Y-107795861D01*
X153526291Y-107851330D01*
X153670000Y-107870250D01*
X153813709Y-107851330D01*
X153947625Y-107795861D01*
X154034902Y-107728891D01*
X160049698Y-107728891D01*
X160049942Y-107733326D01*
X160049942Y-107733330D01*
X160056216Y-107847322D01*
X160065071Y-108008228D01*
X160065939Y-108012591D01*
X160065939Y-108012592D01*
X160108783Y-108227979D01*
X160119650Y-108282613D01*
X160212345Y-108546570D01*
X160341307Y-108794832D01*
X160390263Y-108863340D01*
X160475056Y-108981996D01*
X160503963Y-109022448D01*
X160697068Y-109224873D01*
X160700564Y-109227629D01*
X160700565Y-109227630D01*
X160752627Y-109268672D01*
X160916768Y-109398071D01*
X160975577Y-109432230D01*
X161154826Y-109536347D01*
X161154832Y-109536350D01*
X161158680Y-109538585D01*
X161162813Y-109540259D01*
X161413846Y-109641938D01*
X161413854Y-109641941D01*
X161417978Y-109643611D01*
X161689487Y-109711054D01*
X161928077Y-109735500D01*
X162101266Y-109735500D01*
X162309061Y-109720787D01*
X162313416Y-109719849D01*
X162313419Y-109719849D01*
X162578208Y-109662842D01*
X162578210Y-109662842D01*
X162582555Y-109661906D01*
X162845023Y-109565076D01*
X162891017Y-109540259D01*
X163087314Y-109434343D01*
X163091230Y-109432230D01*
X163316262Y-109266019D01*
X163358060Y-109224873D01*
X163445117Y-109139172D01*
X163515629Y-109069759D01*
X163518330Y-109066220D01*
X163518336Y-109066213D01*
X163682653Y-108850905D01*
X163685355Y-108847365D01*
X163822052Y-108603275D01*
X163823653Y-108599136D01*
X163823657Y-108599128D01*
X163829123Y-108585000D01*
X173434750Y-108585000D01*
X173453670Y-108728709D01*
X173509139Y-108862625D01*
X173597379Y-108977621D01*
X173712375Y-109065861D01*
X173846291Y-109121330D01*
X173990000Y-109140250D01*
X174133709Y-109121330D01*
X174267625Y-109065861D01*
X174382621Y-108977621D01*
X174470861Y-108862625D01*
X174474021Y-108854996D01*
X174474023Y-108854993D01*
X174508591Y-108771536D01*
X174553139Y-108716254D01*
X174620502Y-108693833D01*
X174689293Y-108711391D01*
X174737672Y-108763352D01*
X174741409Y-108771536D01*
X174775977Y-108854993D01*
X174775979Y-108854996D01*
X174779139Y-108862625D01*
X174867379Y-108977621D01*
X174982375Y-109065861D01*
X175116291Y-109121330D01*
X175260000Y-109140250D01*
X175403709Y-109121330D01*
X175537625Y-109065861D01*
X175652621Y-108977621D01*
X175740861Y-108862625D01*
X175796330Y-108728709D01*
X175815250Y-108585000D01*
X175796330Y-108441291D01*
X175740861Y-108307375D01*
X175652621Y-108192379D01*
X175537625Y-108104139D01*
X175403709Y-108048670D01*
X175260000Y-108029750D01*
X175116291Y-108048670D01*
X174982375Y-108104139D01*
X174867379Y-108192379D01*
X174779139Y-108307375D01*
X174775980Y-108315002D01*
X174775977Y-108315007D01*
X174741409Y-108398464D01*
X174696861Y-108453746D01*
X174629498Y-108476167D01*
X174560707Y-108458609D01*
X174512328Y-108406648D01*
X174508591Y-108398464D01*
X174474023Y-108315007D01*
X174474020Y-108315002D01*
X174470861Y-108307375D01*
X174382621Y-108192379D01*
X174267625Y-108104139D01*
X174133709Y-108048670D01*
X173990000Y-108029750D01*
X173846291Y-108048670D01*
X173712375Y-108104139D01*
X173597379Y-108192379D01*
X173509139Y-108307375D01*
X173453670Y-108441291D01*
X173434750Y-108585000D01*
X163829123Y-108585000D01*
X163921389Y-108346503D01*
X163922992Y-108342360D01*
X163986162Y-108069826D01*
X164010302Y-107791109D01*
X163994929Y-107511772D01*
X163940350Y-107237387D01*
X163847655Y-106973430D01*
X163718693Y-106725168D01*
X163556037Y-106497552D01*
X163362932Y-106295127D01*
X163307909Y-106251750D01*
X163146727Y-106124684D01*
X163146725Y-106124682D01*
X163143232Y-106121929D01*
X163029253Y-106055725D01*
X162905174Y-105983653D01*
X162905168Y-105983650D01*
X162901320Y-105981415D01*
X162832112Y-105953383D01*
X162646154Y-105878062D01*
X162646146Y-105878059D01*
X162642022Y-105876389D01*
X162370513Y-105808946D01*
X162131923Y-105784500D01*
X161958734Y-105784500D01*
X161750939Y-105799213D01*
X161746584Y-105800151D01*
X161746581Y-105800151D01*
X161481792Y-105857158D01*
X161481790Y-105857158D01*
X161477445Y-105858094D01*
X161214977Y-105954924D01*
X161211059Y-105957038D01*
X161165881Y-105981415D01*
X160968770Y-106087770D01*
X160743738Y-106253981D01*
X160740559Y-106257110D01*
X160740556Y-106257113D01*
X160673648Y-106322979D01*
X160544371Y-106450241D01*
X160541670Y-106453780D01*
X160541664Y-106453787D01*
X160478155Y-106537004D01*
X160374645Y-106672635D01*
X160372467Y-106676523D01*
X160372467Y-106676524D01*
X160315263Y-106778670D01*
X160237948Y-106916725D01*
X160236347Y-106920864D01*
X160236343Y-106920872D01*
X160193807Y-107030822D01*
X160137008Y-107177640D01*
X160136005Y-107181965D01*
X160136004Y-107181970D01*
X160105170Y-107315000D01*
X160073838Y-107450174D01*
X160049698Y-107728891D01*
X154034902Y-107728891D01*
X154062621Y-107707621D01*
X154150861Y-107592625D01*
X154206330Y-107458709D01*
X154225250Y-107315000D01*
X154206330Y-107171291D01*
X154150861Y-107037375D01*
X154062621Y-106922379D01*
X153947625Y-106834139D01*
X153813709Y-106778670D01*
X153670000Y-106759750D01*
X153526291Y-106778670D01*
X153392375Y-106834139D01*
X153277379Y-106922379D01*
X153189139Y-107037375D01*
X153133670Y-107171291D01*
X153114750Y-107315000D01*
X109305105Y-107315000D01*
X109370625Y-107287861D01*
X109485621Y-107199621D01*
X109573861Y-107084625D01*
X109629330Y-106950709D01*
X109648250Y-106807000D01*
X109629330Y-106663291D01*
X109573861Y-106529375D01*
X109485621Y-106414379D01*
X109370625Y-106326139D01*
X109236709Y-106270670D01*
X109093000Y-106251750D01*
X108949291Y-106270670D01*
X108815375Y-106326139D01*
X108700379Y-106414379D01*
X108612139Y-106529375D01*
X108556670Y-106663291D01*
X108537750Y-106807000D01*
X108124250Y-106807000D01*
X108105330Y-106663291D01*
X108049861Y-106529375D01*
X107961621Y-106414379D01*
X107846625Y-106326139D01*
X107712709Y-106270670D01*
X107569000Y-106251750D01*
X107425291Y-106270670D01*
X107291375Y-106326139D01*
X107176379Y-106414379D01*
X107088139Y-106529375D01*
X107032670Y-106663291D01*
X107013750Y-106807000D01*
X101850500Y-106807000D01*
X101850500Y-103886000D01*
X105108750Y-103886000D01*
X105127670Y-104029709D01*
X105183139Y-104163625D01*
X105271379Y-104278621D01*
X105386375Y-104366861D01*
X105520291Y-104422330D01*
X105664000Y-104441250D01*
X105807709Y-104422330D01*
X105941625Y-104366861D01*
X106056621Y-104278621D01*
X106144861Y-104163625D01*
X106200330Y-104029709D01*
X106219250Y-103886000D01*
X106200330Y-103742291D01*
X106144861Y-103608375D01*
X106056621Y-103493379D01*
X105941625Y-103405139D01*
X105807709Y-103349670D01*
X105664000Y-103330750D01*
X105520291Y-103349670D01*
X105386375Y-103405139D01*
X105271379Y-103493379D01*
X105183139Y-103608375D01*
X105127670Y-103742291D01*
X105108750Y-103886000D01*
X101850500Y-103886000D01*
X101850500Y-103028891D01*
X130079698Y-103028891D01*
X130095071Y-103308228D01*
X130149650Y-103582613D01*
X130242345Y-103846570D01*
X130371307Y-104094832D01*
X130411377Y-104150905D01*
X130506236Y-104283647D01*
X130533963Y-104322448D01*
X130727068Y-104524873D01*
X130730564Y-104527629D01*
X130730565Y-104527630D01*
X130782627Y-104568672D01*
X130946768Y-104698071D01*
X131005577Y-104732230D01*
X131184826Y-104836347D01*
X131184832Y-104836350D01*
X131188680Y-104838585D01*
X131192813Y-104840259D01*
X131443846Y-104941938D01*
X131443854Y-104941941D01*
X131447978Y-104943611D01*
X131719487Y-105011054D01*
X131958077Y-105035500D01*
X132131266Y-105035500D01*
X132339061Y-105020787D01*
X132343416Y-105019849D01*
X132343419Y-105019849D01*
X132608208Y-104962842D01*
X132608210Y-104962842D01*
X132612555Y-104961906D01*
X132875023Y-104865076D01*
X132921017Y-104840259D01*
X133117314Y-104734343D01*
X133121230Y-104732230D01*
X133346262Y-104566019D01*
X133388060Y-104524873D01*
X133474101Y-104440172D01*
X133545629Y-104369759D01*
X133548330Y-104366220D01*
X133548336Y-104366213D01*
X133661172Y-104218361D01*
X133715355Y-104147365D01*
X133852052Y-103903275D01*
X133853653Y-103899136D01*
X133853657Y-103899128D01*
X133951389Y-103646503D01*
X133952992Y-103642360D01*
X133960870Y-103608375D01*
X134015156Y-103374165D01*
X134016162Y-103369826D01*
X134040302Y-103091109D01*
X134024929Y-102811772D01*
X133970350Y-102537387D01*
X133877655Y-102273430D01*
X133748693Y-102025168D01*
X133586037Y-101797552D01*
X133392932Y-101595127D01*
X133340739Y-101553981D01*
X133176727Y-101424684D01*
X133176725Y-101424682D01*
X133173232Y-101421929D01*
X133059253Y-101355725D01*
X132935174Y-101283653D01*
X132935168Y-101283650D01*
X132931320Y-101281415D01*
X132862112Y-101253383D01*
X132676154Y-101178062D01*
X132676146Y-101178059D01*
X132672022Y-101176389D01*
X132400513Y-101108946D01*
X132161923Y-101084500D01*
X131988734Y-101084500D01*
X131780939Y-101099213D01*
X131776584Y-101100151D01*
X131776581Y-101100151D01*
X131511792Y-101157158D01*
X131511790Y-101157158D01*
X131507445Y-101158094D01*
X131244977Y-101254924D01*
X131241059Y-101257038D01*
X131195881Y-101281415D01*
X130998770Y-101387770D01*
X130773738Y-101553981D01*
X130770559Y-101557110D01*
X130770556Y-101557113D01*
X130675851Y-101650343D01*
X130574371Y-101750241D01*
X130571670Y-101753780D01*
X130571664Y-101753787D01*
X130458828Y-101901639D01*
X130404645Y-101972635D01*
X130267948Y-102216725D01*
X130266347Y-102220864D01*
X130266343Y-102220872D01*
X130191572Y-102414146D01*
X130167008Y-102477640D01*
X130103838Y-102750174D01*
X130079698Y-103028891D01*
X101850500Y-103028891D01*
X101850500Y-100330000D01*
X111204750Y-100330000D01*
X111223670Y-100473709D01*
X111279139Y-100607625D01*
X111367379Y-100722621D01*
X111482375Y-100810861D01*
X111616291Y-100866330D01*
X111760000Y-100885250D01*
X111903709Y-100866330D01*
X112037625Y-100810861D01*
X112152621Y-100722621D01*
X112240861Y-100607625D01*
X112244021Y-100599996D01*
X112244023Y-100599993D01*
X112278591Y-100516536D01*
X112323139Y-100461254D01*
X112390502Y-100438833D01*
X112459293Y-100456391D01*
X112507672Y-100508352D01*
X112511409Y-100516536D01*
X112545977Y-100599993D01*
X112545979Y-100599996D01*
X112549139Y-100607625D01*
X112637379Y-100722621D01*
X112752375Y-100810861D01*
X112886291Y-100866330D01*
X113030000Y-100885250D01*
X113173709Y-100866330D01*
X113307625Y-100810861D01*
X113422621Y-100722621D01*
X113510861Y-100607625D01*
X113566330Y-100473709D01*
X113585250Y-100330000D01*
X113566330Y-100186291D01*
X113524239Y-100084674D01*
X122169500Y-100084674D01*
X122184034Y-100157740D01*
X122239399Y-100240601D01*
X122322260Y-100295966D01*
X122395326Y-100310500D01*
X124444674Y-100310500D01*
X124517740Y-100295966D01*
X124600601Y-100240601D01*
X124655966Y-100157740D01*
X124670500Y-100084674D01*
X124670500Y-98425000D01*
X139144750Y-98425000D01*
X139163670Y-98568709D01*
X139219139Y-98702625D01*
X139307379Y-98817621D01*
X139422375Y-98905861D01*
X139556291Y-98961330D01*
X139700000Y-98980250D01*
X139843709Y-98961330D01*
X139977625Y-98905861D01*
X140092621Y-98817621D01*
X140180861Y-98702625D01*
X140236330Y-98568709D01*
X140255250Y-98425000D01*
X151133530Y-98425000D01*
X151152450Y-98568709D01*
X151207919Y-98702625D01*
X151296159Y-98817621D01*
X151411155Y-98905861D01*
X151545071Y-98961330D01*
X151688780Y-98980250D01*
X151832489Y-98961330D01*
X151966405Y-98905861D01*
X152081401Y-98817621D01*
X152098085Y-98795878D01*
X168725628Y-98795878D01*
X168744548Y-98939587D01*
X168800017Y-99073503D01*
X168888257Y-99188499D01*
X169003253Y-99276739D01*
X169137169Y-99332208D01*
X169280878Y-99351128D01*
X169424587Y-99332208D01*
X169558503Y-99276739D01*
X169673499Y-99188499D01*
X169761739Y-99073503D01*
X169817208Y-98939587D01*
X169836128Y-98795878D01*
X169817208Y-98652169D01*
X169761739Y-98518253D01*
X169673499Y-98403257D01*
X169558503Y-98315017D01*
X169424587Y-98259548D01*
X169280878Y-98240628D01*
X169137169Y-98259548D01*
X169003253Y-98315017D01*
X168888257Y-98403257D01*
X168800017Y-98518253D01*
X168744548Y-98652169D01*
X168725628Y-98795878D01*
X152098085Y-98795878D01*
X152169641Y-98702625D01*
X152225110Y-98568709D01*
X152244030Y-98425000D01*
X152225110Y-98281291D01*
X152169641Y-98147375D01*
X152081401Y-98032379D01*
X151966405Y-97944139D01*
X151932461Y-97930079D01*
X151913425Y-97922194D01*
X151858144Y-97877646D01*
X151835723Y-97810282D01*
X151853281Y-97741491D01*
X151905243Y-97693113D01*
X151913426Y-97689376D01*
X152034993Y-97639023D01*
X152034998Y-97639020D01*
X152042625Y-97635861D01*
X152157621Y-97547621D01*
X152245861Y-97432625D01*
X152301330Y-97298709D01*
X152320250Y-97155000D01*
X152301330Y-97011291D01*
X152245861Y-96877375D01*
X152157621Y-96762379D01*
X152042625Y-96674139D01*
X152034998Y-96670980D01*
X152034993Y-96670977D01*
X151951536Y-96636409D01*
X151896254Y-96591861D01*
X151873833Y-96524498D01*
X151891391Y-96455707D01*
X151943352Y-96407328D01*
X151951536Y-96403591D01*
X152034993Y-96369023D01*
X152034998Y-96369020D01*
X152042625Y-96365861D01*
X152157621Y-96277621D01*
X152245861Y-96162625D01*
X152301330Y-96028709D01*
X152320250Y-95885000D01*
X152301330Y-95741291D01*
X152245861Y-95607375D01*
X152157621Y-95492379D01*
X152042625Y-95404139D01*
X151908709Y-95348670D01*
X151765000Y-95329750D01*
X151621291Y-95348670D01*
X151487375Y-95404139D01*
X151372379Y-95492379D01*
X151284139Y-95607375D01*
X151228670Y-95741291D01*
X151209750Y-95885000D01*
X151228670Y-96028709D01*
X151284139Y-96162625D01*
X151372379Y-96277621D01*
X151487375Y-96365861D01*
X151495002Y-96369020D01*
X151495007Y-96369023D01*
X151578464Y-96403591D01*
X151633746Y-96448139D01*
X151656167Y-96515502D01*
X151638609Y-96584293D01*
X151586648Y-96632672D01*
X151578464Y-96636409D01*
X151495007Y-96670977D01*
X151495002Y-96670980D01*
X151487375Y-96674139D01*
X151372379Y-96762379D01*
X151284139Y-96877375D01*
X151228670Y-97011291D01*
X151209750Y-97155000D01*
X151228670Y-97298709D01*
X151284139Y-97432625D01*
X151372379Y-97547621D01*
X151487375Y-97635861D01*
X151521319Y-97649921D01*
X151540355Y-97657806D01*
X151595636Y-97702354D01*
X151618057Y-97769718D01*
X151600499Y-97838509D01*
X151548537Y-97886887D01*
X151540354Y-97890624D01*
X151418787Y-97940977D01*
X151418784Y-97940979D01*
X151411155Y-97944139D01*
X151296159Y-98032379D01*
X151207919Y-98147375D01*
X151152450Y-98281291D01*
X151133530Y-98425000D01*
X140255250Y-98425000D01*
X140236330Y-98281291D01*
X140180861Y-98147375D01*
X140092621Y-98032379D01*
X139977625Y-97944139D01*
X139843709Y-97888670D01*
X139700000Y-97869750D01*
X139556291Y-97888670D01*
X139422375Y-97944139D01*
X139307379Y-98032379D01*
X139219139Y-98147375D01*
X139163670Y-98281291D01*
X139144750Y-98425000D01*
X124670500Y-98425000D01*
X124670500Y-98035326D01*
X124655966Y-97962260D01*
X124600601Y-97879399D01*
X124517740Y-97824034D01*
X124444674Y-97809500D01*
X122395326Y-97809500D01*
X122322260Y-97824034D01*
X122239399Y-97879399D01*
X122184034Y-97962260D01*
X122169500Y-98035326D01*
X122169500Y-100084674D01*
X113524239Y-100084674D01*
X113510861Y-100052375D01*
X113422621Y-99937379D01*
X113307625Y-99849139D01*
X113299998Y-99845980D01*
X113299993Y-99845977D01*
X113216536Y-99811409D01*
X113161254Y-99766861D01*
X113138833Y-99699498D01*
X113156391Y-99630707D01*
X113208352Y-99582328D01*
X113216536Y-99578591D01*
X113299993Y-99544023D01*
X113299998Y-99544020D01*
X113307625Y-99540861D01*
X113422621Y-99452621D01*
X113510861Y-99337625D01*
X113566330Y-99203709D01*
X113585250Y-99060000D01*
X113566330Y-98916291D01*
X113510861Y-98782375D01*
X113422621Y-98667379D01*
X113307625Y-98579139D01*
X113173709Y-98523670D01*
X113030000Y-98504750D01*
X112886291Y-98523670D01*
X112752375Y-98579139D01*
X112637379Y-98667379D01*
X112549139Y-98782375D01*
X112545980Y-98790002D01*
X112545977Y-98790007D01*
X112511409Y-98873464D01*
X112466861Y-98928746D01*
X112399498Y-98951167D01*
X112330707Y-98933609D01*
X112282328Y-98881648D01*
X112278591Y-98873464D01*
X112244023Y-98790007D01*
X112244020Y-98790002D01*
X112240861Y-98782375D01*
X112152621Y-98667379D01*
X112037625Y-98579139D01*
X111903709Y-98523670D01*
X111760000Y-98504750D01*
X111616291Y-98523670D01*
X111482375Y-98579139D01*
X111367379Y-98667379D01*
X111279139Y-98782375D01*
X111223670Y-98916291D01*
X111204750Y-99060000D01*
X111223670Y-99203709D01*
X111279139Y-99337625D01*
X111367379Y-99452621D01*
X111482375Y-99540861D01*
X111490002Y-99544020D01*
X111490007Y-99544023D01*
X111573464Y-99578591D01*
X111628746Y-99623139D01*
X111651167Y-99690502D01*
X111633609Y-99759293D01*
X111581648Y-99807672D01*
X111573464Y-99811409D01*
X111490007Y-99845977D01*
X111490002Y-99845980D01*
X111482375Y-99849139D01*
X111367379Y-99937379D01*
X111279139Y-100052375D01*
X111223670Y-100186291D01*
X111204750Y-100330000D01*
X101850500Y-100330000D01*
X101850500Y-93980000D01*
X160099750Y-93980000D01*
X160118670Y-94123709D01*
X160174139Y-94257625D01*
X160262379Y-94372621D01*
X160377375Y-94460861D01*
X160511291Y-94516330D01*
X160655000Y-94535250D01*
X160798709Y-94516330D01*
X160932625Y-94460861D01*
X161047621Y-94372621D01*
X161135861Y-94257625D01*
X161191330Y-94123709D01*
X161210250Y-93980000D01*
X165179750Y-93980000D01*
X165198670Y-94123709D01*
X165254139Y-94257625D01*
X165342379Y-94372621D01*
X165457375Y-94460861D01*
X165591291Y-94516330D01*
X165735000Y-94535250D01*
X165878709Y-94516330D01*
X166012625Y-94460861D01*
X166127621Y-94372621D01*
X166215861Y-94257625D01*
X166271330Y-94123709D01*
X166290250Y-93980000D01*
X166271330Y-93836291D01*
X166215861Y-93702375D01*
X166127621Y-93587379D01*
X166012625Y-93499139D01*
X165878709Y-93443670D01*
X165735000Y-93424750D01*
X165591291Y-93443670D01*
X165457375Y-93499139D01*
X165342379Y-93587379D01*
X165254139Y-93702375D01*
X165198670Y-93836291D01*
X165179750Y-93980000D01*
X161210250Y-93980000D01*
X161191330Y-93836291D01*
X161135861Y-93702375D01*
X161047621Y-93587379D01*
X160932625Y-93499139D01*
X160798709Y-93443670D01*
X160655000Y-93424750D01*
X160511291Y-93443670D01*
X160377375Y-93499139D01*
X160262379Y-93587379D01*
X160174139Y-93702375D01*
X160118670Y-93836291D01*
X160099750Y-93980000D01*
X101850500Y-93980000D01*
X101850500Y-91449500D01*
X145494750Y-91449500D01*
X145513670Y-91593209D01*
X145569139Y-91727125D01*
X145657379Y-91842121D01*
X145772375Y-91930361D01*
X145906291Y-91985830D01*
X146050000Y-92004750D01*
X146193709Y-91985830D01*
X146327625Y-91930361D01*
X146442621Y-91842121D01*
X146530861Y-91727125D01*
X146586330Y-91593209D01*
X146605250Y-91449500D01*
X146603999Y-91440000D01*
X153749750Y-91440000D01*
X153768670Y-91583709D01*
X153824139Y-91717625D01*
X153912379Y-91832621D01*
X154027375Y-91920861D01*
X154161291Y-91976330D01*
X154305000Y-91995250D01*
X154448709Y-91976330D01*
X154582625Y-91920861D01*
X154697621Y-91832621D01*
X154785861Y-91717625D01*
X154789021Y-91709996D01*
X154789023Y-91709993D01*
X154823591Y-91626536D01*
X154868139Y-91571254D01*
X154935502Y-91548833D01*
X155004293Y-91566391D01*
X155052672Y-91618352D01*
X155056409Y-91626536D01*
X155090977Y-91709993D01*
X155090979Y-91709996D01*
X155094139Y-91717625D01*
X155182379Y-91832621D01*
X155297375Y-91920861D01*
X155431291Y-91976330D01*
X155575000Y-91995250D01*
X155718709Y-91976330D01*
X155852625Y-91920861D01*
X155967621Y-91832621D01*
X156055861Y-91717625D01*
X156111330Y-91583709D01*
X156130250Y-91440000D01*
X156111330Y-91296291D01*
X156055861Y-91162375D01*
X155967621Y-91047379D01*
X155852625Y-90959139D01*
X155718709Y-90903670D01*
X155575000Y-90884750D01*
X155431291Y-90903670D01*
X155297375Y-90959139D01*
X155182379Y-91047379D01*
X155094139Y-91162375D01*
X155090980Y-91170002D01*
X155090977Y-91170007D01*
X155056409Y-91253464D01*
X155011861Y-91308746D01*
X154944498Y-91331167D01*
X154875707Y-91313609D01*
X154827328Y-91261648D01*
X154823591Y-91253464D01*
X154789023Y-91170007D01*
X154789020Y-91170002D01*
X154785861Y-91162375D01*
X154697621Y-91047379D01*
X154582625Y-90959139D01*
X154448709Y-90903670D01*
X154305000Y-90884750D01*
X154161291Y-90903670D01*
X154027375Y-90959139D01*
X153912379Y-91047379D01*
X153824139Y-91162375D01*
X153768670Y-91296291D01*
X153749750Y-91440000D01*
X146603999Y-91440000D01*
X146586330Y-91305791D01*
X146530861Y-91171875D01*
X146442621Y-91056879D01*
X146327625Y-90968639D01*
X146193709Y-90913170D01*
X146050000Y-90894250D01*
X145906291Y-90913170D01*
X145772375Y-90968639D01*
X145657379Y-91056879D01*
X145569139Y-91171875D01*
X145513670Y-91305791D01*
X145494750Y-91449500D01*
X101850500Y-91449500D01*
X101850500Y-90464678D01*
X161664428Y-90464678D01*
X161683348Y-90608387D01*
X161738817Y-90742303D01*
X161827057Y-90857299D01*
X161942053Y-90945539D01*
X162075969Y-91001008D01*
X162219678Y-91019928D01*
X162363387Y-91001008D01*
X162497303Y-90945539D01*
X162593641Y-90871616D01*
X162659861Y-90846015D01*
X162729410Y-90860280D01*
X162747044Y-90871612D01*
X162790375Y-90904861D01*
X162924291Y-90960330D01*
X163068000Y-90979250D01*
X163211709Y-90960330D01*
X163345625Y-90904861D01*
X163460621Y-90816621D01*
X163548861Y-90701625D01*
X163604330Y-90567709D01*
X163623250Y-90424000D01*
X163604330Y-90280291D01*
X163548861Y-90146375D01*
X163460621Y-90031379D01*
X163345625Y-89943139D01*
X163211709Y-89887670D01*
X163068000Y-89868750D01*
X162924291Y-89887670D01*
X162790375Y-89943139D01*
X162741481Y-89980657D01*
X162694037Y-90017062D01*
X162627817Y-90042663D01*
X162558268Y-90028398D01*
X162540634Y-90017066D01*
X162497303Y-89983817D01*
X162363387Y-89928348D01*
X162219678Y-89909428D01*
X162075969Y-89928348D01*
X161942053Y-89983817D01*
X161827057Y-90072057D01*
X161738817Y-90187053D01*
X161683348Y-90320969D01*
X161664428Y-90464678D01*
X101850500Y-90464678D01*
X101850500Y-89027000D01*
X105108750Y-89027000D01*
X105127670Y-89170709D01*
X105183139Y-89304625D01*
X105271379Y-89419621D01*
X105386375Y-89507861D01*
X105520291Y-89563330D01*
X105664000Y-89582250D01*
X105807709Y-89563330D01*
X105941625Y-89507861D01*
X106056621Y-89419621D01*
X106144861Y-89304625D01*
X106200330Y-89170709D01*
X106219250Y-89027000D01*
X106200330Y-88883291D01*
X106144861Y-88749375D01*
X106065538Y-88646000D01*
X149431750Y-88646000D01*
X149450670Y-88789709D01*
X149506139Y-88923625D01*
X149594379Y-89038621D01*
X149709375Y-89126861D01*
X149843291Y-89182330D01*
X149987000Y-89201250D01*
X150130709Y-89182330D01*
X150264625Y-89126861D01*
X150379621Y-89038621D01*
X150467861Y-88923625D01*
X150523330Y-88789709D01*
X150542250Y-88646000D01*
X150523330Y-88502291D01*
X150467861Y-88368375D01*
X150379621Y-88253379D01*
X150264625Y-88165139D01*
X150130709Y-88109670D01*
X149987000Y-88090750D01*
X149843291Y-88109670D01*
X149709375Y-88165139D01*
X149594379Y-88253379D01*
X149506139Y-88368375D01*
X149450670Y-88502291D01*
X149431750Y-88646000D01*
X106065538Y-88646000D01*
X106056621Y-88634379D01*
X105941625Y-88546139D01*
X105807709Y-88490670D01*
X105664000Y-88471750D01*
X105520291Y-88490670D01*
X105386375Y-88546139D01*
X105271379Y-88634379D01*
X105183139Y-88749375D01*
X105127670Y-88883291D01*
X105108750Y-89027000D01*
X101850500Y-89027000D01*
X101850500Y-87757000D01*
X154892750Y-87757000D01*
X154911670Y-87900709D01*
X154967139Y-88034625D01*
X155055379Y-88149621D01*
X155170375Y-88237861D01*
X155304291Y-88293330D01*
X155448000Y-88312250D01*
X155591709Y-88293330D01*
X155725625Y-88237861D01*
X155840621Y-88149621D01*
X155928861Y-88034625D01*
X155984330Y-87900709D01*
X156003250Y-87757000D01*
X155984330Y-87613291D01*
X155928861Y-87479375D01*
X155870640Y-87403500D01*
X159464750Y-87403500D01*
X159483670Y-87547209D01*
X159539139Y-87681125D01*
X159627379Y-87796121D01*
X159742375Y-87884361D01*
X159876291Y-87939830D01*
X160020000Y-87958750D01*
X160163709Y-87939830D01*
X160297625Y-87884361D01*
X160412621Y-87796121D01*
X160500861Y-87681125D01*
X160556330Y-87547209D01*
X160575250Y-87403500D01*
X160556330Y-87259791D01*
X160500861Y-87125875D01*
X160412621Y-87010879D01*
X160392527Y-86995460D01*
X160350662Y-86938125D01*
X160346440Y-86867254D01*
X160381204Y-86805351D01*
X160392517Y-86795548D01*
X160412621Y-86780121D01*
X160442640Y-86741000D01*
X168354750Y-86741000D01*
X168373670Y-86884709D01*
X168429139Y-87018625D01*
X168517379Y-87133621D01*
X168632375Y-87221861D01*
X168766291Y-87277330D01*
X168910000Y-87296250D01*
X169053709Y-87277330D01*
X169187625Y-87221861D01*
X169302621Y-87133621D01*
X169381538Y-87030775D01*
X169438876Y-86988908D01*
X169509747Y-86984686D01*
X169571650Y-87019450D01*
X169581462Y-87030775D01*
X169660379Y-87133621D01*
X169775375Y-87221861D01*
X169909291Y-87277330D01*
X170053000Y-87296250D01*
X170196709Y-87277330D01*
X170330625Y-87221861D01*
X170445621Y-87133621D01*
X170533861Y-87018625D01*
X170589330Y-86884709D01*
X170608250Y-86741000D01*
X170589330Y-86597291D01*
X170533861Y-86463375D01*
X170445621Y-86348379D01*
X170330625Y-86260139D01*
X170196709Y-86204670D01*
X170053000Y-86185750D01*
X169909291Y-86204670D01*
X169775375Y-86260139D01*
X169660379Y-86348379D01*
X169655353Y-86354929D01*
X169581462Y-86451225D01*
X169524124Y-86493092D01*
X169453253Y-86497314D01*
X169391350Y-86462550D01*
X169381538Y-86451225D01*
X169307647Y-86354929D01*
X169302621Y-86348379D01*
X169187625Y-86260139D01*
X169053709Y-86204670D01*
X168910000Y-86185750D01*
X168766291Y-86204670D01*
X168632375Y-86260139D01*
X168517379Y-86348379D01*
X168429139Y-86463375D01*
X168373670Y-86597291D01*
X168354750Y-86741000D01*
X160442640Y-86741000D01*
X160500861Y-86665125D01*
X160556330Y-86531209D01*
X160575250Y-86387500D01*
X160556330Y-86243791D01*
X160500861Y-86109875D01*
X160412621Y-85994879D01*
X160392527Y-85979460D01*
X160350662Y-85922125D01*
X160346440Y-85851254D01*
X160381204Y-85789351D01*
X160392517Y-85779548D01*
X160412621Y-85764121D01*
X160500861Y-85649125D01*
X160556330Y-85515209D01*
X160575250Y-85371500D01*
X160556330Y-85227791D01*
X160500861Y-85093875D01*
X160412621Y-84978879D01*
X160297625Y-84890639D01*
X160163709Y-84835170D01*
X160020000Y-84816250D01*
X159876291Y-84835170D01*
X159742375Y-84890639D01*
X159627379Y-84978879D01*
X159539139Y-85093875D01*
X159483670Y-85227791D01*
X159464750Y-85371500D01*
X159483670Y-85515209D01*
X159539139Y-85649125D01*
X159627379Y-85764121D01*
X159647473Y-85779540D01*
X159689338Y-85836875D01*
X159693560Y-85907746D01*
X159658796Y-85969649D01*
X159647483Y-85979452D01*
X159627379Y-85994879D01*
X159539139Y-86109875D01*
X159483670Y-86243791D01*
X159464750Y-86387500D01*
X159483670Y-86531209D01*
X159539139Y-86665125D01*
X159627379Y-86780121D01*
X159647473Y-86795540D01*
X159689338Y-86852875D01*
X159693560Y-86923746D01*
X159658796Y-86985649D01*
X159647483Y-86995452D01*
X159627379Y-87010879D01*
X159539139Y-87125875D01*
X159483670Y-87259791D01*
X159464750Y-87403500D01*
X155870640Y-87403500D01*
X155840621Y-87364379D01*
X155725625Y-87276139D01*
X155591709Y-87220670D01*
X155448000Y-87201750D01*
X155304291Y-87220670D01*
X155170375Y-87276139D01*
X155055379Y-87364379D01*
X154967139Y-87479375D01*
X154911670Y-87613291D01*
X154892750Y-87757000D01*
X101850500Y-87757000D01*
X101850500Y-86614000D01*
X138890750Y-86614000D01*
X138909670Y-86757709D01*
X138965139Y-86891625D01*
X139053379Y-87006621D01*
X139168375Y-87094861D01*
X139302291Y-87150330D01*
X139446000Y-87169250D01*
X139589709Y-87150330D01*
X139723625Y-87094861D01*
X139838621Y-87006621D01*
X139847538Y-86995000D01*
X146129750Y-86995000D01*
X146148670Y-87138709D01*
X146204139Y-87272625D01*
X146292379Y-87387621D01*
X146407375Y-87475861D01*
X146541291Y-87531330D01*
X146685000Y-87550250D01*
X146828709Y-87531330D01*
X146962625Y-87475861D01*
X147077621Y-87387621D01*
X147165861Y-87272625D01*
X147221330Y-87138709D01*
X147240250Y-86995000D01*
X147221330Y-86851291D01*
X147165861Y-86717375D01*
X147077621Y-86602379D01*
X146962625Y-86514139D01*
X146828709Y-86458670D01*
X146685000Y-86439750D01*
X146541291Y-86458670D01*
X146407375Y-86514139D01*
X146292379Y-86602379D01*
X146204139Y-86717375D01*
X146148670Y-86851291D01*
X146129750Y-86995000D01*
X139847538Y-86995000D01*
X139926861Y-86891625D01*
X139982330Y-86757709D01*
X140001250Y-86614000D01*
X139982330Y-86470291D01*
X139926861Y-86336375D01*
X139838621Y-86221379D01*
X139723625Y-86133139D01*
X139589709Y-86077670D01*
X139446000Y-86058750D01*
X139302291Y-86077670D01*
X139168375Y-86133139D01*
X139053379Y-86221379D01*
X138965139Y-86336375D01*
X138909670Y-86470291D01*
X138890750Y-86614000D01*
X101850500Y-86614000D01*
X101850500Y-84328000D01*
X140668750Y-84328000D01*
X140687670Y-84471709D01*
X140743139Y-84605625D01*
X140831379Y-84720621D01*
X140946375Y-84808861D01*
X141080291Y-84864330D01*
X141224000Y-84883250D01*
X141367709Y-84864330D01*
X141501625Y-84808861D01*
X141616621Y-84720621D01*
X141704861Y-84605625D01*
X141760330Y-84471709D01*
X141779250Y-84328000D01*
X141760330Y-84184291D01*
X141704861Y-84050375D01*
X141616621Y-83935379D01*
X141501625Y-83847139D01*
X141367709Y-83791670D01*
X141224000Y-83772750D01*
X141080291Y-83791670D01*
X140946375Y-83847139D01*
X140831379Y-83935379D01*
X140743139Y-84050375D01*
X140687670Y-84184291D01*
X140668750Y-84328000D01*
X101850500Y-84328000D01*
X101850500Y-83312000D01*
X135588750Y-83312000D01*
X135607670Y-83455709D01*
X135663139Y-83589625D01*
X135751379Y-83704621D01*
X135866375Y-83792861D01*
X136000291Y-83848330D01*
X136144000Y-83867250D01*
X136287709Y-83848330D01*
X136421625Y-83792861D01*
X136536621Y-83704621D01*
X136624861Y-83589625D01*
X136680330Y-83455709D01*
X136699250Y-83312000D01*
X142700750Y-83312000D01*
X142719670Y-83455709D01*
X142775139Y-83589625D01*
X142863379Y-83704621D01*
X142978375Y-83792861D01*
X143112291Y-83848330D01*
X143256000Y-83867250D01*
X143399709Y-83848330D01*
X143533625Y-83792861D01*
X143648621Y-83704621D01*
X143736861Y-83589625D01*
X143760108Y-83533500D01*
X160870250Y-83533500D01*
X160889170Y-83677209D01*
X160944639Y-83811125D01*
X161032879Y-83926121D01*
X161147875Y-84014361D01*
X161281791Y-84069830D01*
X161425500Y-84088750D01*
X161569209Y-84069830D01*
X161703125Y-84014361D01*
X161818121Y-83926121D01*
X161906361Y-83811125D01*
X161961830Y-83677209D01*
X161980750Y-83533500D01*
X161961830Y-83389791D01*
X161906361Y-83255875D01*
X161818121Y-83140879D01*
X161703125Y-83052639D01*
X161569209Y-82997170D01*
X161425500Y-82978250D01*
X161281791Y-82997170D01*
X161147875Y-83052639D01*
X161032879Y-83140879D01*
X160944639Y-83255875D01*
X160889170Y-83389791D01*
X160870250Y-83533500D01*
X143760108Y-83533500D01*
X143792330Y-83455709D01*
X143811250Y-83312000D01*
X143792330Y-83168291D01*
X143736861Y-83034375D01*
X143648621Y-82919379D01*
X143533625Y-82831139D01*
X143399709Y-82775670D01*
X143256000Y-82756750D01*
X143112291Y-82775670D01*
X142978375Y-82831139D01*
X142863379Y-82919379D01*
X142775139Y-83034375D01*
X142719670Y-83168291D01*
X142700750Y-83312000D01*
X136699250Y-83312000D01*
X136680330Y-83168291D01*
X136624861Y-83034375D01*
X136536621Y-82919379D01*
X136421625Y-82831139D01*
X136287709Y-82775670D01*
X136144000Y-82756750D01*
X136000291Y-82775670D01*
X135866375Y-82831139D01*
X135751379Y-82919379D01*
X135663139Y-83034375D01*
X135607670Y-83168291D01*
X135588750Y-83312000D01*
X101850500Y-83312000D01*
X101850500Y-82169000D01*
X139525750Y-82169000D01*
X139544670Y-82312709D01*
X139600139Y-82446625D01*
X139688379Y-82561621D01*
X139803375Y-82649861D01*
X139937291Y-82705330D01*
X140081000Y-82724250D01*
X140224709Y-82705330D01*
X140358625Y-82649861D01*
X140473621Y-82561621D01*
X140561861Y-82446625D01*
X140617330Y-82312709D01*
X140636250Y-82169000D01*
X140619530Y-82042000D01*
X156289750Y-82042000D01*
X156308670Y-82185709D01*
X156364139Y-82319625D01*
X156452379Y-82434621D01*
X156567375Y-82522861D01*
X156701291Y-82578330D01*
X156845000Y-82597250D01*
X156988709Y-82578330D01*
X157122625Y-82522861D01*
X157237621Y-82434621D01*
X157325861Y-82319625D01*
X157381330Y-82185709D01*
X157400250Y-82042000D01*
X167211750Y-82042000D01*
X167230670Y-82185709D01*
X167286139Y-82319625D01*
X167374379Y-82434621D01*
X167489375Y-82522861D01*
X167623291Y-82578330D01*
X167767000Y-82597250D01*
X167910709Y-82578330D01*
X168044625Y-82522861D01*
X168159621Y-82434621D01*
X168247861Y-82319625D01*
X168303330Y-82185709D01*
X168322250Y-82042000D01*
X168303330Y-81898291D01*
X168247861Y-81764375D01*
X168159621Y-81649379D01*
X168044625Y-81561139D01*
X167910709Y-81505670D01*
X167767000Y-81486750D01*
X167623291Y-81505670D01*
X167489375Y-81561139D01*
X167374379Y-81649379D01*
X167286139Y-81764375D01*
X167230670Y-81898291D01*
X167211750Y-82042000D01*
X157400250Y-82042000D01*
X157381330Y-81898291D01*
X157325861Y-81764375D01*
X157237621Y-81649379D01*
X157122625Y-81561139D01*
X156988709Y-81505670D01*
X156845000Y-81486750D01*
X156701291Y-81505670D01*
X156567375Y-81561139D01*
X156452379Y-81649379D01*
X156364139Y-81764375D01*
X156308670Y-81898291D01*
X156289750Y-82042000D01*
X140619530Y-82042000D01*
X140617330Y-82025291D01*
X140561861Y-81891375D01*
X140473621Y-81776379D01*
X140358625Y-81688139D01*
X140224709Y-81632670D01*
X140081000Y-81613750D01*
X139937291Y-81632670D01*
X139803375Y-81688139D01*
X139688379Y-81776379D01*
X139600139Y-81891375D01*
X139544670Y-82025291D01*
X139525750Y-82169000D01*
X101850500Y-82169000D01*
X101850500Y-81307500D01*
X161242750Y-81307500D01*
X161261670Y-81451209D01*
X161317139Y-81585125D01*
X161405379Y-81700121D01*
X161520375Y-81788361D01*
X161654291Y-81843830D01*
X161798000Y-81862750D01*
X161941709Y-81843830D01*
X162075625Y-81788361D01*
X162190621Y-81700121D01*
X162278861Y-81585125D01*
X162334330Y-81451209D01*
X162353250Y-81307500D01*
X164075250Y-81307500D01*
X164094170Y-81451209D01*
X164149639Y-81585125D01*
X164237879Y-81700121D01*
X164352875Y-81788361D01*
X164486791Y-81843830D01*
X164630500Y-81862750D01*
X164774209Y-81843830D01*
X164908125Y-81788361D01*
X165023121Y-81700121D01*
X165031732Y-81688899D01*
X165089065Y-81647032D01*
X165159936Y-81642808D01*
X165214900Y-81673246D01*
X165215379Y-81672621D01*
X165330375Y-81760861D01*
X165464291Y-81816330D01*
X165608000Y-81835250D01*
X165751709Y-81816330D01*
X165885625Y-81760861D01*
X166000621Y-81672621D01*
X166088861Y-81557625D01*
X166144330Y-81423709D01*
X166163250Y-81280000D01*
X166144330Y-81136291D01*
X166088861Y-81002375D01*
X166000621Y-80887379D01*
X165885625Y-80799139D01*
X165751709Y-80743670D01*
X165608000Y-80724750D01*
X165464291Y-80743670D01*
X165330375Y-80799139D01*
X165215379Y-80887379D01*
X165206768Y-80898601D01*
X165149435Y-80940468D01*
X165078564Y-80944692D01*
X165023600Y-80914254D01*
X165023121Y-80914879D01*
X165018953Y-80911681D01*
X164908125Y-80826639D01*
X164774209Y-80771170D01*
X164630500Y-80752250D01*
X164486791Y-80771170D01*
X164352875Y-80826639D01*
X164237879Y-80914879D01*
X164149639Y-81029875D01*
X164094170Y-81163791D01*
X164075250Y-81307500D01*
X162353250Y-81307500D01*
X162334330Y-81163791D01*
X162278861Y-81029875D01*
X162190621Y-80914879D01*
X162075625Y-80826639D01*
X161941709Y-80771170D01*
X161798000Y-80752250D01*
X161654291Y-80771170D01*
X161520375Y-80826639D01*
X161405379Y-80914879D01*
X161317139Y-81029875D01*
X161261670Y-81163791D01*
X161242750Y-81307500D01*
X101850500Y-81307500D01*
X101850500Y-79756000D01*
X150320750Y-79756000D01*
X150339670Y-79899709D01*
X150395139Y-80033625D01*
X150483379Y-80148621D01*
X150598375Y-80236861D01*
X150732291Y-80292330D01*
X150876000Y-80311250D01*
X151019709Y-80292330D01*
X151153625Y-80236861D01*
X151268621Y-80148621D01*
X151277538Y-80137000D01*
X160099750Y-80137000D01*
X160118670Y-80280709D01*
X160174139Y-80414625D01*
X160262379Y-80529621D01*
X160377375Y-80617861D01*
X160511291Y-80673330D01*
X160655000Y-80692250D01*
X160798709Y-80673330D01*
X160932625Y-80617861D01*
X161047621Y-80529621D01*
X161135861Y-80414625D01*
X161191330Y-80280709D01*
X161210250Y-80137000D01*
X161191330Y-79993291D01*
X161135861Y-79859375D01*
X161047621Y-79744379D01*
X160932625Y-79656139D01*
X160798709Y-79600670D01*
X160655000Y-79581750D01*
X160511291Y-79600670D01*
X160377375Y-79656139D01*
X160262379Y-79744379D01*
X160174139Y-79859375D01*
X160118670Y-79993291D01*
X160099750Y-80137000D01*
X151277538Y-80137000D01*
X151356861Y-80033625D01*
X151412330Y-79899709D01*
X151431250Y-79756000D01*
X151412330Y-79612291D01*
X151356861Y-79478375D01*
X151268621Y-79363379D01*
X151153625Y-79275139D01*
X151019709Y-79219670D01*
X150876000Y-79200750D01*
X150732291Y-79219670D01*
X150598375Y-79275139D01*
X150483379Y-79363379D01*
X150395139Y-79478375D01*
X150339670Y-79612291D01*
X150320750Y-79756000D01*
X101850500Y-79756000D01*
X101850500Y-78412378D01*
X158121128Y-78412378D01*
X158140048Y-78556087D01*
X158195517Y-78690003D01*
X158283757Y-78804999D01*
X158398753Y-78893239D01*
X158532669Y-78948708D01*
X158676378Y-78967628D01*
X158820087Y-78948708D01*
X158954003Y-78893239D01*
X159068999Y-78804999D01*
X159157239Y-78690003D01*
X159212708Y-78556087D01*
X159231628Y-78412378D01*
X159212708Y-78268669D01*
X159157239Y-78134753D01*
X159068999Y-78019757D01*
X158954003Y-77931517D01*
X158820087Y-77876048D01*
X158676378Y-77857128D01*
X158532669Y-77876048D01*
X158398753Y-77931517D01*
X158283757Y-78019757D01*
X158195517Y-78134753D01*
X158140048Y-78268669D01*
X158121128Y-78412378D01*
X101850500Y-78412378D01*
X101850500Y-73914000D01*
X105108750Y-73914000D01*
X105127670Y-74057709D01*
X105183139Y-74191625D01*
X105271379Y-74306621D01*
X105386375Y-74394861D01*
X105520291Y-74450330D01*
X105664000Y-74469250D01*
X105807709Y-74450330D01*
X105941625Y-74394861D01*
X106056621Y-74306621D01*
X106144861Y-74191625D01*
X106200330Y-74057709D01*
X106219250Y-73914000D01*
X106200330Y-73770291D01*
X106144861Y-73636375D01*
X106056621Y-73521379D01*
X105941625Y-73433139D01*
X105807709Y-73377670D01*
X105664000Y-73358750D01*
X105520291Y-73377670D01*
X105386375Y-73433139D01*
X105271379Y-73521379D01*
X105183139Y-73636375D01*
X105127670Y-73770291D01*
X105108750Y-73914000D01*
X101850500Y-73914000D01*
X101850500Y-69596000D01*
X157178750Y-69596000D01*
X157197670Y-69739709D01*
X157253139Y-69873625D01*
X157341379Y-69988621D01*
X157456375Y-70076861D01*
X157590291Y-70132330D01*
X157734000Y-70151250D01*
X157877709Y-70132330D01*
X158011625Y-70076861D01*
X158126621Y-69988621D01*
X158214861Y-69873625D01*
X158270330Y-69739709D01*
X158289250Y-69596000D01*
X158270330Y-69452291D01*
X158214861Y-69318375D01*
X158126621Y-69203379D01*
X158011625Y-69115139D01*
X157877709Y-69059670D01*
X157734000Y-69040750D01*
X157590291Y-69059670D01*
X157456375Y-69115139D01*
X157341379Y-69203379D01*
X157253139Y-69318375D01*
X157197670Y-69452291D01*
X157178750Y-69596000D01*
X101850500Y-69596000D01*
X101850500Y-65503069D01*
X105834164Y-65503069D01*
X105847392Y-65704894D01*
X105897178Y-65900928D01*
X105981856Y-66084607D01*
X106098588Y-66249780D01*
X106243466Y-66390913D01*
X106411637Y-66503282D01*
X106416940Y-66505560D01*
X106416943Y-66505562D01*
X106505291Y-66543519D01*
X106597470Y-66583122D01*
X106794740Y-66627760D01*
X106800509Y-66627987D01*
X106800512Y-66627987D01*
X106876683Y-66630979D01*
X106996842Y-66635700D01*
X107083132Y-66623189D01*
X107191286Y-66607508D01*
X107191291Y-66607507D01*
X107197007Y-66606678D01*
X107202479Y-66604820D01*
X107202481Y-66604820D01*
X107383067Y-66543519D01*
X107383069Y-66543518D01*
X107388531Y-66541664D01*
X107565001Y-66442837D01*
X107627433Y-66390913D01*
X107716073Y-66317191D01*
X107720505Y-66313505D01*
X107849837Y-66158001D01*
X107948664Y-65981531D01*
X108013678Y-65790007D01*
X108014507Y-65784291D01*
X108014508Y-65784286D01*
X108042167Y-65593516D01*
X108042700Y-65589842D01*
X108044215Y-65532000D01*
X108025708Y-65330591D01*
X107970807Y-65135926D01*
X107881351Y-64954527D01*
X107863079Y-64930057D01*
X107763788Y-64797091D01*
X107763787Y-64797090D01*
X107760335Y-64792467D01*
X107737350Y-64771220D01*
X107616053Y-64659094D01*
X107616051Y-64659092D01*
X107611812Y-64655174D01*
X107584374Y-64637862D01*
X107445637Y-64550325D01*
X107440757Y-64547246D01*
X107252898Y-64472298D01*
X107054526Y-64432839D01*
X107048752Y-64432763D01*
X107048748Y-64432763D01*
X106946257Y-64431422D01*
X106852286Y-64430192D01*
X106846589Y-64431171D01*
X106846588Y-64431171D01*
X106658646Y-64463465D01*
X106658645Y-64463465D01*
X106652949Y-64464444D01*
X106463193Y-64534449D01*
X106289371Y-64637862D01*
X106137305Y-64771220D01*
X106012089Y-64930057D01*
X105917914Y-65109053D01*
X105857937Y-65302213D01*
X105834164Y-65503069D01*
X101850500Y-65503069D01*
X101850500Y-64135000D01*
X130381750Y-64135000D01*
X130400670Y-64278709D01*
X130456139Y-64412625D01*
X130544379Y-64527621D01*
X130659375Y-64615861D01*
X130793291Y-64671330D01*
X130937000Y-64690250D01*
X131080709Y-64671330D01*
X131214625Y-64615861D01*
X131329621Y-64527621D01*
X131417861Y-64412625D01*
X131473330Y-64278709D01*
X131492250Y-64135000D01*
X131473330Y-63991291D01*
X131417861Y-63857375D01*
X131329621Y-63742379D01*
X131214625Y-63654139D01*
X131080709Y-63598670D01*
X130937000Y-63579750D01*
X130793291Y-63598670D01*
X130659375Y-63654139D01*
X130544379Y-63742379D01*
X130456139Y-63857375D01*
X130400670Y-63991291D01*
X130381750Y-64135000D01*
X101850500Y-64135000D01*
X101850500Y-61722000D01*
X123523750Y-61722000D01*
X123542670Y-61865709D01*
X123598139Y-61999625D01*
X123686379Y-62114621D01*
X123801375Y-62202861D01*
X123935291Y-62258330D01*
X124079000Y-62277250D01*
X124222709Y-62258330D01*
X124356625Y-62202861D01*
X124471621Y-62114621D01*
X124559861Y-61999625D01*
X124615330Y-61865709D01*
X124634250Y-61722000D01*
X124615330Y-61578291D01*
X124559861Y-61444375D01*
X124471621Y-61329379D01*
X124356625Y-61241139D01*
X124222709Y-61185670D01*
X124079000Y-61166750D01*
X123935291Y-61185670D01*
X123801375Y-61241139D01*
X123686379Y-61329379D01*
X123598139Y-61444375D01*
X123542670Y-61578291D01*
X123523750Y-61722000D01*
X101850500Y-61722000D01*
X101850500Y-58928000D01*
X105108750Y-58928000D01*
X105127670Y-59071709D01*
X105183139Y-59205625D01*
X105271379Y-59320621D01*
X105386375Y-59408861D01*
X105520291Y-59464330D01*
X105664000Y-59483250D01*
X105807709Y-59464330D01*
X105941625Y-59408861D01*
X106056621Y-59320621D01*
X106144861Y-59205625D01*
X106200330Y-59071709D01*
X106202530Y-59055000D01*
X114379750Y-59055000D01*
X114398670Y-59198709D01*
X114454139Y-59332625D01*
X114542379Y-59447621D01*
X114657375Y-59535861D01*
X114791291Y-59591330D01*
X114935000Y-59610250D01*
X115078709Y-59591330D01*
X115212625Y-59535861D01*
X115327621Y-59447621D01*
X115415861Y-59332625D01*
X115471330Y-59198709D01*
X115490250Y-59055000D01*
X115471330Y-58911291D01*
X115415861Y-58777375D01*
X115327621Y-58662379D01*
X115212625Y-58574139D01*
X115078709Y-58518670D01*
X114935000Y-58499750D01*
X114791291Y-58518670D01*
X114657375Y-58574139D01*
X114542379Y-58662379D01*
X114454139Y-58777375D01*
X114398670Y-58911291D01*
X114379750Y-59055000D01*
X106202530Y-59055000D01*
X106219250Y-58928000D01*
X106200330Y-58784291D01*
X106144861Y-58650375D01*
X106056621Y-58535379D01*
X105941625Y-58447139D01*
X105807709Y-58391670D01*
X105664000Y-58372750D01*
X105520291Y-58391670D01*
X105386375Y-58447139D01*
X105271379Y-58535379D01*
X105183139Y-58650375D01*
X105127670Y-58784291D01*
X105108750Y-58928000D01*
X101850500Y-58928000D01*
X101850500Y-53848000D01*
X103342532Y-53848000D01*
X103362365Y-54074692D01*
X103421261Y-54294496D01*
X103517432Y-54500734D01*
X103647953Y-54687139D01*
X103808861Y-54848047D01*
X103995266Y-54978568D01*
X104000244Y-54980889D01*
X104000247Y-54980891D01*
X104196522Y-55072416D01*
X104201504Y-55074739D01*
X104206812Y-55076161D01*
X104206814Y-55076162D01*
X104415993Y-55132211D01*
X104415995Y-55132211D01*
X104421308Y-55133635D01*
X104520302Y-55142296D01*
X104588492Y-55148262D01*
X104588499Y-55148262D01*
X104591216Y-55148500D01*
X104704784Y-55148500D01*
X104707501Y-55148262D01*
X104707508Y-55148262D01*
X104775698Y-55142296D01*
X104874692Y-55133635D01*
X104880005Y-55132211D01*
X104880007Y-55132211D01*
X105089186Y-55076162D01*
X105089188Y-55076161D01*
X105094496Y-55074739D01*
X105099478Y-55072416D01*
X105295753Y-54980891D01*
X105295756Y-54980889D01*
X105300734Y-54978568D01*
X105487139Y-54848047D01*
X105648047Y-54687139D01*
X105778568Y-54500734D01*
X105874739Y-54294496D01*
X105933635Y-54074692D01*
X105953468Y-53848000D01*
X173446532Y-53848000D01*
X173466365Y-54074692D01*
X173525261Y-54294496D01*
X173621432Y-54500734D01*
X173751953Y-54687139D01*
X173912861Y-54848047D01*
X174099266Y-54978568D01*
X174104244Y-54980889D01*
X174104247Y-54980891D01*
X174300522Y-55072416D01*
X174305504Y-55074739D01*
X174310812Y-55076161D01*
X174310814Y-55076162D01*
X174519993Y-55132211D01*
X174519995Y-55132211D01*
X174525308Y-55133635D01*
X174624302Y-55142296D01*
X174692492Y-55148262D01*
X174692499Y-55148262D01*
X174695216Y-55148500D01*
X174808784Y-55148500D01*
X174811501Y-55148262D01*
X174811508Y-55148262D01*
X174879698Y-55142296D01*
X174978692Y-55133635D01*
X174984005Y-55132211D01*
X174984007Y-55132211D01*
X175193186Y-55076162D01*
X175193188Y-55076161D01*
X175198496Y-55074739D01*
X175203478Y-55072416D01*
X175399753Y-54980891D01*
X175399756Y-54980889D01*
X175404734Y-54978568D01*
X175591139Y-54848047D01*
X175752047Y-54687139D01*
X175882568Y-54500734D01*
X175978739Y-54294496D01*
X176037635Y-54074692D01*
X176057468Y-53848000D01*
X176037635Y-53621308D01*
X175978739Y-53401504D01*
X175882568Y-53195266D01*
X175752047Y-53008861D01*
X175591139Y-52847953D01*
X175404734Y-52717432D01*
X175399756Y-52715111D01*
X175399753Y-52715109D01*
X175203478Y-52623584D01*
X175203476Y-52623583D01*
X175198496Y-52621261D01*
X175193188Y-52619839D01*
X175193186Y-52619838D01*
X174984007Y-52563789D01*
X174984005Y-52563789D01*
X174978692Y-52562365D01*
X174879698Y-52553704D01*
X174811508Y-52547738D01*
X174811501Y-52547738D01*
X174808784Y-52547500D01*
X174695216Y-52547500D01*
X174692499Y-52547738D01*
X174692492Y-52547738D01*
X174624302Y-52553704D01*
X174525308Y-52562365D01*
X174519995Y-52563789D01*
X174519993Y-52563789D01*
X174310814Y-52619838D01*
X174310812Y-52619839D01*
X174305504Y-52621261D01*
X174300524Y-52623583D01*
X174300522Y-52623584D01*
X174104247Y-52715109D01*
X174104244Y-52715111D01*
X174099266Y-52717432D01*
X173912861Y-52847953D01*
X173751953Y-53008861D01*
X173621432Y-53195266D01*
X173525261Y-53401504D01*
X173466365Y-53621308D01*
X173446532Y-53848000D01*
X105953468Y-53848000D01*
X105933635Y-53621308D01*
X105874739Y-53401504D01*
X105778568Y-53195266D01*
X105648047Y-53008861D01*
X105487139Y-52847953D01*
X105300734Y-52717432D01*
X105295756Y-52715111D01*
X105295753Y-52715109D01*
X105099478Y-52623584D01*
X105099476Y-52623583D01*
X105094496Y-52621261D01*
X105089188Y-52619839D01*
X105089186Y-52619838D01*
X104880007Y-52563789D01*
X104880005Y-52563789D01*
X104874692Y-52562365D01*
X104775698Y-52553704D01*
X104707508Y-52547738D01*
X104707501Y-52547738D01*
X104704784Y-52547500D01*
X104591216Y-52547500D01*
X104588499Y-52547738D01*
X104588492Y-52547738D01*
X104520302Y-52553704D01*
X104421308Y-52562365D01*
X104415995Y-52563789D01*
X104415993Y-52563789D01*
X104206814Y-52619838D01*
X104206812Y-52619839D01*
X104201504Y-52621261D01*
X104196524Y-52623583D01*
X104196522Y-52623584D01*
X104000247Y-52715109D01*
X104000244Y-52715111D01*
X103995266Y-52717432D01*
X103808861Y-52847953D01*
X103647953Y-53008861D01*
X103517432Y-53195266D01*
X103421261Y-53401504D01*
X103362365Y-53621308D01*
X103342532Y-53848000D01*
X101850500Y-53848000D01*
X101850500Y-52392624D01*
X163817281Y-52392624D01*
X163856678Y-52530471D01*
X163933180Y-52651720D01*
X164040638Y-52746623D01*
X164170413Y-52807553D01*
X164279259Y-52824500D01*
X164354190Y-52824500D01*
X164395589Y-52818571D01*
X164451282Y-52810596D01*
X164451285Y-52810595D01*
X164460168Y-52809323D01*
X164590678Y-52749984D01*
X164631152Y-52715109D01*
X164692487Y-52662260D01*
X164692490Y-52662257D01*
X164699287Y-52656400D01*
X164777265Y-52536095D01*
X164818343Y-52398739D01*
X164818380Y-52392624D01*
X170417281Y-52392624D01*
X170456678Y-52530471D01*
X170533180Y-52651720D01*
X170640638Y-52746623D01*
X170770413Y-52807553D01*
X170879259Y-52824500D01*
X170954190Y-52824500D01*
X170995589Y-52818571D01*
X171051282Y-52810596D01*
X171051285Y-52810595D01*
X171060168Y-52809323D01*
X171190678Y-52749984D01*
X171231152Y-52715109D01*
X171292487Y-52662260D01*
X171292490Y-52662257D01*
X171299287Y-52656400D01*
X171377265Y-52536095D01*
X171418343Y-52398739D01*
X171419219Y-52255376D01*
X171379822Y-52117529D01*
X171303320Y-51996280D01*
X171195862Y-51901377D01*
X171066087Y-51840447D01*
X170957241Y-51823500D01*
X170882310Y-51823500D01*
X170840911Y-51829429D01*
X170785218Y-51837404D01*
X170785215Y-51837405D01*
X170776332Y-51838677D01*
X170645822Y-51898016D01*
X170639018Y-51903878D01*
X170639019Y-51903878D01*
X170544013Y-51985740D01*
X170544010Y-51985743D01*
X170537213Y-51991600D01*
X170459235Y-52111905D01*
X170418157Y-52249261D01*
X170417281Y-52392624D01*
X164818380Y-52392624D01*
X164819219Y-52255376D01*
X164779822Y-52117529D01*
X164703320Y-51996280D01*
X164595862Y-51901377D01*
X164466087Y-51840447D01*
X164357241Y-51823500D01*
X164282310Y-51823500D01*
X164240911Y-51829429D01*
X164185218Y-51837404D01*
X164185215Y-51837405D01*
X164176332Y-51838677D01*
X164045822Y-51898016D01*
X164039018Y-51903878D01*
X164039019Y-51903878D01*
X163944013Y-51985740D01*
X163944010Y-51985743D01*
X163937213Y-51991600D01*
X163859235Y-52111905D01*
X163818157Y-52249261D01*
X163817281Y-52392624D01*
X101850500Y-52392624D01*
X101850500Y-51176500D01*
X101870502Y-51108379D01*
X101924158Y-51061886D01*
X101976500Y-51050500D01*
X177423500Y-51050500D01*
X177491621Y-51070502D01*
G37*
G04 #@! TD.AperFunction*
M02*
