G04 #@! TF.GenerationSoftware,KiCad,Pcbnew,(6.0.5)*
G04 #@! TF.CreationDate,2023-05-13T13:21:23-04:00*
G04 #@! TF.ProjectId,control_board,636f6e74-726f-46c5-9f62-6f6172642e6b,rev?*
G04 #@! TF.SameCoordinates,Original*
G04 #@! TF.FileFunction,Legend,Bot*
G04 #@! TF.FilePolarity,Positive*
%FSLAX46Y46*%
G04 Gerber Fmt 4.6, Leading zero omitted, Abs format (unit mm)*
G04 Created by KiCad (PCBNEW (6.0.5)) date 2023-05-13 13:21:23*
%MOMM*%
%LPD*%
G01*
G04 APERTURE LIST*
G04 Aperture macros list*
%AMRoundRect*
0 Rectangle with rounded corners*
0 $1 Rounding radius*
0 $2 $3 $4 $5 $6 $7 $8 $9 X,Y pos of 4 corners*
0 Add a 4 corners polygon primitive as box body*
4,1,4,$2,$3,$4,$5,$6,$7,$8,$9,$2,$3,0*
0 Add four circle primitives for the rounded corners*
1,1,$1+$1,$2,$3*
1,1,$1+$1,$4,$5*
1,1,$1+$1,$6,$7*
1,1,$1+$1,$8,$9*
0 Add four rect primitives between the rounded corners*
20,1,$1+$1,$2,$3,$4,$5,0*
20,1,$1+$1,$4,$5,$6,$7,0*
20,1,$1+$1,$6,$7,$8,$9,0*
20,1,$1+$1,$8,$9,$2,$3,0*%
G04 Aperture macros list end*
%ADD10C,0.150000*%
%ADD11C,0.120000*%
%ADD12RoundRect,0.237500X0.300000X0.237500X-0.300000X0.237500X-0.300000X-0.237500X0.300000X-0.237500X0*%
%ADD13RoundRect,0.237500X-0.300000X-0.237500X0.300000X-0.237500X0.300000X0.237500X-0.300000X0.237500X0*%
%ADD14RoundRect,0.237500X-0.237500X0.300000X-0.237500X-0.300000X0.237500X-0.300000X0.237500X0.300000X0*%
%ADD15R,1.500000X1.000000*%
%ADD16R,1.700000X1.700000*%
%ADD17O,1.700000X1.700000*%
%ADD18C,0.500000*%
%ADD19O,0.900000X1.800000*%
%ADD20C,2.100000*%
%ADD21C,3.450000*%
%ADD22R,2.000000X2.000000*%
%ADD23C,2.000000*%
%ADD24RoundRect,0.237500X0.237500X-0.300000X0.237500X0.300000X-0.237500X0.300000X-0.237500X-0.300000X0*%
G04 APERTURE END LIST*
D10*
X146057857Y-101162142D02*
X146105476Y-101209761D01*
X146248333Y-101257380D01*
X146343571Y-101257380D01*
X146486428Y-101209761D01*
X146581666Y-101114523D01*
X146629285Y-101019285D01*
X146676904Y-100828809D01*
X146676904Y-100685952D01*
X146629285Y-100495476D01*
X146581666Y-100400238D01*
X146486428Y-100305000D01*
X146343571Y-100257380D01*
X146248333Y-100257380D01*
X146105476Y-100305000D01*
X146057857Y-100352619D01*
X145200714Y-100590714D02*
X145200714Y-101257380D01*
X145438809Y-100209761D02*
X145676904Y-100924047D01*
X145057857Y-100924047D01*
X144772142Y-100257380D02*
X144105476Y-100257380D01*
X144534047Y-101257380D01*
X161297857Y-56077142D02*
X161345476Y-56124761D01*
X161488333Y-56172380D01*
X161583571Y-56172380D01*
X161726428Y-56124761D01*
X161821666Y-56029523D01*
X161869285Y-55934285D01*
X161916904Y-55743809D01*
X161916904Y-55600952D01*
X161869285Y-55410476D01*
X161821666Y-55315238D01*
X161726428Y-55220000D01*
X161583571Y-55172380D01*
X161488333Y-55172380D01*
X161345476Y-55220000D01*
X161297857Y-55267619D01*
X160440714Y-55505714D02*
X160440714Y-56172380D01*
X160678809Y-55124761D02*
X160916904Y-55839047D01*
X160297857Y-55839047D01*
X159488333Y-55172380D02*
X159678809Y-55172380D01*
X159774047Y-55220000D01*
X159821666Y-55267619D01*
X159916904Y-55410476D01*
X159964523Y-55600952D01*
X159964523Y-55981904D01*
X159916904Y-56077142D01*
X159869285Y-56124761D01*
X159774047Y-56172380D01*
X159583571Y-56172380D01*
X159488333Y-56124761D01*
X159440714Y-56077142D01*
X159393095Y-55981904D01*
X159393095Y-55743809D01*
X159440714Y-55648571D01*
X159488333Y-55600952D01*
X159583571Y-55553333D01*
X159774047Y-55553333D01*
X159869285Y-55600952D01*
X159916904Y-55648571D01*
X159964523Y-55743809D01*
X146692857Y-56077142D02*
X146740476Y-56124761D01*
X146883333Y-56172380D01*
X146978571Y-56172380D01*
X147121428Y-56124761D01*
X147216666Y-56029523D01*
X147264285Y-55934285D01*
X147311904Y-55743809D01*
X147311904Y-55600952D01*
X147264285Y-55410476D01*
X147216666Y-55315238D01*
X147121428Y-55220000D01*
X146978571Y-55172380D01*
X146883333Y-55172380D01*
X146740476Y-55220000D01*
X146692857Y-55267619D01*
X145835714Y-55505714D02*
X145835714Y-56172380D01*
X146073809Y-55124761D02*
X146311904Y-55839047D01*
X145692857Y-55839047D01*
X144835714Y-55172380D02*
X145311904Y-55172380D01*
X145359523Y-55648571D01*
X145311904Y-55600952D01*
X145216666Y-55553333D01*
X144978571Y-55553333D01*
X144883333Y-55600952D01*
X144835714Y-55648571D01*
X144788095Y-55743809D01*
X144788095Y-55981904D01*
X144835714Y-56077142D01*
X144883333Y-56124761D01*
X144978571Y-56172380D01*
X145216666Y-56172380D01*
X145311904Y-56124761D01*
X145359523Y-56077142D01*
X116212857Y-85922142D02*
X116260476Y-85969761D01*
X116403333Y-86017380D01*
X116498571Y-86017380D01*
X116641428Y-85969761D01*
X116736666Y-85874523D01*
X116784285Y-85779285D01*
X116831904Y-85588809D01*
X116831904Y-85445952D01*
X116784285Y-85255476D01*
X116736666Y-85160238D01*
X116641428Y-85065000D01*
X116498571Y-85017380D01*
X116403333Y-85017380D01*
X116260476Y-85065000D01*
X116212857Y-85112619D01*
X115355714Y-85350714D02*
X115355714Y-86017380D01*
X115593809Y-84969761D02*
X115831904Y-85684047D01*
X115212857Y-85684047D01*
X114403333Y-85350714D02*
X114403333Y-86017380D01*
X114641428Y-84969761D02*
X114879523Y-85684047D01*
X114260476Y-85684047D01*
X175902857Y-56077142D02*
X175950476Y-56124761D01*
X176093333Y-56172380D01*
X176188571Y-56172380D01*
X176331428Y-56124761D01*
X176426666Y-56029523D01*
X176474285Y-55934285D01*
X176521904Y-55743809D01*
X176521904Y-55600952D01*
X176474285Y-55410476D01*
X176426666Y-55315238D01*
X176331428Y-55220000D01*
X176188571Y-55172380D01*
X176093333Y-55172380D01*
X175950476Y-55220000D01*
X175902857Y-55267619D01*
X175045714Y-55505714D02*
X175045714Y-56172380D01*
X175283809Y-55124761D02*
X175521904Y-55839047D01*
X174902857Y-55839047D01*
X174617142Y-55172380D02*
X173998095Y-55172380D01*
X174331428Y-55553333D01*
X174188571Y-55553333D01*
X174093333Y-55600952D01*
X174045714Y-55648571D01*
X173998095Y-55743809D01*
X173998095Y-55981904D01*
X174045714Y-56077142D01*
X174093333Y-56124761D01*
X174188571Y-56172380D01*
X174474285Y-56172380D01*
X174569523Y-56124761D01*
X174617142Y-56077142D01*
X130817857Y-71317142D02*
X130865476Y-71364761D01*
X131008333Y-71412380D01*
X131103571Y-71412380D01*
X131246428Y-71364761D01*
X131341666Y-71269523D01*
X131389285Y-71174285D01*
X131436904Y-70983809D01*
X131436904Y-70840952D01*
X131389285Y-70650476D01*
X131341666Y-70555238D01*
X131246428Y-70460000D01*
X131103571Y-70412380D01*
X131008333Y-70412380D01*
X130865476Y-70460000D01*
X130817857Y-70507619D01*
X129960714Y-70745714D02*
X129960714Y-71412380D01*
X130198809Y-70364761D02*
X130436904Y-71079047D01*
X129817857Y-71079047D01*
X129484523Y-70507619D02*
X129436904Y-70460000D01*
X129341666Y-70412380D01*
X129103571Y-70412380D01*
X129008333Y-70460000D01*
X128960714Y-70507619D01*
X128913095Y-70602857D01*
X128913095Y-70698095D01*
X128960714Y-70840952D01*
X129532142Y-71412380D01*
X128913095Y-71412380D01*
X156071590Y-68937142D02*
X156119209Y-68984761D01*
X156262066Y-69032380D01*
X156357304Y-69032380D01*
X156500161Y-68984761D01*
X156595399Y-68889523D01*
X156643018Y-68794285D01*
X156690637Y-68603809D01*
X156690637Y-68460952D01*
X156643018Y-68270476D01*
X156595399Y-68175238D01*
X156500161Y-68080000D01*
X156357304Y-68032380D01*
X156262066Y-68032380D01*
X156119209Y-68080000D01*
X156071590Y-68127619D01*
X155214447Y-68365714D02*
X155214447Y-69032380D01*
X155452542Y-67984761D02*
X155690637Y-68699047D01*
X155071590Y-68699047D01*
X154166828Y-69032380D02*
X154738256Y-69032380D01*
X154452542Y-69032380D02*
X154452542Y-68032380D01*
X154547780Y-68175238D01*
X154643018Y-68270476D01*
X154738256Y-68318095D01*
X161444124Y-119737142D02*
X161491743Y-119784761D01*
X161634600Y-119832380D01*
X161729838Y-119832380D01*
X161872695Y-119784761D01*
X161967933Y-119689523D01*
X162015552Y-119594285D01*
X162063171Y-119403809D01*
X162063171Y-119260952D01*
X162015552Y-119070476D01*
X161967933Y-118975238D01*
X161872695Y-118880000D01*
X161729838Y-118832380D01*
X161634600Y-118832380D01*
X161491743Y-118880000D01*
X161444124Y-118927619D01*
X160586981Y-119165714D02*
X160586981Y-119832380D01*
X160825076Y-118784761D02*
X161063171Y-119499047D01*
X160444124Y-119499047D01*
X159872695Y-118832380D02*
X159777457Y-118832380D01*
X159682219Y-118880000D01*
X159634600Y-118927619D01*
X159586981Y-119022857D01*
X159539362Y-119213333D01*
X159539362Y-119451428D01*
X159586981Y-119641904D01*
X159634600Y-119737142D01*
X159682219Y-119784761D01*
X159777457Y-119832380D01*
X159872695Y-119832380D01*
X159967933Y-119784761D01*
X160015552Y-119737142D01*
X160063171Y-119641904D01*
X160110790Y-119451428D01*
X160110790Y-119213333D01*
X160063171Y-119022857D01*
X160015552Y-118927619D01*
X159967933Y-118880000D01*
X159872695Y-118832380D01*
X156407142Y-82542142D02*
X156454761Y-82494523D01*
X156502380Y-82351666D01*
X156502380Y-82256428D01*
X156454761Y-82113571D01*
X156359523Y-82018333D01*
X156264285Y-81970714D01*
X156073809Y-81923095D01*
X155930952Y-81923095D01*
X155740476Y-81970714D01*
X155645238Y-82018333D01*
X155550000Y-82113571D01*
X155502380Y-82256428D01*
X155502380Y-82351666D01*
X155550000Y-82494523D01*
X155597619Y-82542142D01*
X155502380Y-82875476D02*
X155502380Y-83494523D01*
X155883333Y-83161190D01*
X155883333Y-83304047D01*
X155930952Y-83399285D01*
X155978571Y-83446904D01*
X156073809Y-83494523D01*
X156311904Y-83494523D01*
X156407142Y-83446904D01*
X156454761Y-83399285D01*
X156502380Y-83304047D01*
X156502380Y-83018333D01*
X156454761Y-82923095D01*
X156407142Y-82875476D01*
X156502380Y-83970714D02*
X156502380Y-84161190D01*
X156454761Y-84256428D01*
X156407142Y-84304047D01*
X156264285Y-84399285D01*
X156073809Y-84446904D01*
X155692857Y-84446904D01*
X155597619Y-84399285D01*
X155550000Y-84351666D01*
X155502380Y-84256428D01*
X155502380Y-84065952D01*
X155550000Y-83970714D01*
X155597619Y-83923095D01*
X155692857Y-83875476D01*
X155930952Y-83875476D01*
X156026190Y-83923095D01*
X156073809Y-83970714D01*
X156121428Y-84065952D01*
X156121428Y-84256428D01*
X156073809Y-84351666D01*
X156026190Y-84399285D01*
X155930952Y-84446904D01*
X146057857Y-85922142D02*
X146105476Y-85969761D01*
X146248333Y-86017380D01*
X146343571Y-86017380D01*
X146486428Y-85969761D01*
X146581666Y-85874523D01*
X146629285Y-85779285D01*
X146676904Y-85588809D01*
X146676904Y-85445952D01*
X146629285Y-85255476D01*
X146581666Y-85160238D01*
X146486428Y-85065000D01*
X146343571Y-85017380D01*
X146248333Y-85017380D01*
X146105476Y-85065000D01*
X146057857Y-85112619D01*
X145724523Y-85017380D02*
X145105476Y-85017380D01*
X145438809Y-85398333D01*
X145295952Y-85398333D01*
X145200714Y-85445952D01*
X145153095Y-85493571D01*
X145105476Y-85588809D01*
X145105476Y-85826904D01*
X145153095Y-85922142D01*
X145200714Y-85969761D01*
X145295952Y-86017380D01*
X145581666Y-86017380D01*
X145676904Y-85969761D01*
X145724523Y-85922142D01*
X144534047Y-85445952D02*
X144629285Y-85398333D01*
X144676904Y-85350714D01*
X144724523Y-85255476D01*
X144724523Y-85207857D01*
X144676904Y-85112619D01*
X144629285Y-85065000D01*
X144534047Y-85017380D01*
X144343571Y-85017380D01*
X144248333Y-85065000D01*
X144200714Y-85112619D01*
X144153095Y-85207857D01*
X144153095Y-85255476D01*
X144200714Y-85350714D01*
X144248333Y-85398333D01*
X144343571Y-85445952D01*
X144534047Y-85445952D01*
X144629285Y-85493571D01*
X144676904Y-85541190D01*
X144724523Y-85636428D01*
X144724523Y-85826904D01*
X144676904Y-85922142D01*
X144629285Y-85969761D01*
X144534047Y-86017380D01*
X144343571Y-86017380D01*
X144248333Y-85969761D01*
X144200714Y-85922142D01*
X144153095Y-85826904D01*
X144153095Y-85636428D01*
X144200714Y-85541190D01*
X144248333Y-85493571D01*
X144343571Y-85445952D01*
X130817857Y-85922142D02*
X130865476Y-85969761D01*
X131008333Y-86017380D01*
X131103571Y-86017380D01*
X131246428Y-85969761D01*
X131341666Y-85874523D01*
X131389285Y-85779285D01*
X131436904Y-85588809D01*
X131436904Y-85445952D01*
X131389285Y-85255476D01*
X131341666Y-85160238D01*
X131246428Y-85065000D01*
X131103571Y-85017380D01*
X131008333Y-85017380D01*
X130865476Y-85065000D01*
X130817857Y-85112619D01*
X130484523Y-85017380D02*
X129865476Y-85017380D01*
X130198809Y-85398333D01*
X130055952Y-85398333D01*
X129960714Y-85445952D01*
X129913095Y-85493571D01*
X129865476Y-85588809D01*
X129865476Y-85826904D01*
X129913095Y-85922142D01*
X129960714Y-85969761D01*
X130055952Y-86017380D01*
X130341666Y-86017380D01*
X130436904Y-85969761D01*
X130484523Y-85922142D01*
X129532142Y-85017380D02*
X128865476Y-85017380D01*
X129294047Y-86017380D01*
X116212857Y-71317142D02*
X116260476Y-71364761D01*
X116403333Y-71412380D01*
X116498571Y-71412380D01*
X116641428Y-71364761D01*
X116736666Y-71269523D01*
X116784285Y-71174285D01*
X116831904Y-70983809D01*
X116831904Y-70840952D01*
X116784285Y-70650476D01*
X116736666Y-70555238D01*
X116641428Y-70460000D01*
X116498571Y-70412380D01*
X116403333Y-70412380D01*
X116260476Y-70460000D01*
X116212857Y-70507619D01*
X115879523Y-70412380D02*
X115260476Y-70412380D01*
X115593809Y-70793333D01*
X115450952Y-70793333D01*
X115355714Y-70840952D01*
X115308095Y-70888571D01*
X115260476Y-70983809D01*
X115260476Y-71221904D01*
X115308095Y-71317142D01*
X115355714Y-71364761D01*
X115450952Y-71412380D01*
X115736666Y-71412380D01*
X115831904Y-71364761D01*
X115879523Y-71317142D01*
X114403333Y-70412380D02*
X114593809Y-70412380D01*
X114689047Y-70460000D01*
X114736666Y-70507619D01*
X114831904Y-70650476D01*
X114879523Y-70840952D01*
X114879523Y-71221904D01*
X114831904Y-71317142D01*
X114784285Y-71364761D01*
X114689047Y-71412380D01*
X114498571Y-71412380D01*
X114403333Y-71364761D01*
X114355714Y-71317142D01*
X114308095Y-71221904D01*
X114308095Y-70983809D01*
X114355714Y-70888571D01*
X114403333Y-70840952D01*
X114498571Y-70793333D01*
X114689047Y-70793333D01*
X114784285Y-70840952D01*
X114831904Y-70888571D01*
X114879523Y-70983809D01*
X116212857Y-56077142D02*
X116260476Y-56124761D01*
X116403333Y-56172380D01*
X116498571Y-56172380D01*
X116641428Y-56124761D01*
X116736666Y-56029523D01*
X116784285Y-55934285D01*
X116831904Y-55743809D01*
X116831904Y-55600952D01*
X116784285Y-55410476D01*
X116736666Y-55315238D01*
X116641428Y-55220000D01*
X116498571Y-55172380D01*
X116403333Y-55172380D01*
X116260476Y-55220000D01*
X116212857Y-55267619D01*
X115879523Y-55172380D02*
X115260476Y-55172380D01*
X115593809Y-55553333D01*
X115450952Y-55553333D01*
X115355714Y-55600952D01*
X115308095Y-55648571D01*
X115260476Y-55743809D01*
X115260476Y-55981904D01*
X115308095Y-56077142D01*
X115355714Y-56124761D01*
X115450952Y-56172380D01*
X115736666Y-56172380D01*
X115831904Y-56124761D01*
X115879523Y-56077142D01*
X114355714Y-55172380D02*
X114831904Y-55172380D01*
X114879523Y-55648571D01*
X114831904Y-55600952D01*
X114736666Y-55553333D01*
X114498571Y-55553333D01*
X114403333Y-55600952D01*
X114355714Y-55648571D01*
X114308095Y-55743809D01*
X114308095Y-55981904D01*
X114355714Y-56077142D01*
X114403333Y-56124761D01*
X114498571Y-56172380D01*
X114736666Y-56172380D01*
X114831904Y-56124761D01*
X114879523Y-56077142D01*
X131452857Y-56077142D02*
X131500476Y-56124761D01*
X131643333Y-56172380D01*
X131738571Y-56172380D01*
X131881428Y-56124761D01*
X131976666Y-56029523D01*
X132024285Y-55934285D01*
X132071904Y-55743809D01*
X132071904Y-55600952D01*
X132024285Y-55410476D01*
X131976666Y-55315238D01*
X131881428Y-55220000D01*
X131738571Y-55172380D01*
X131643333Y-55172380D01*
X131500476Y-55220000D01*
X131452857Y-55267619D01*
X131119523Y-55172380D02*
X130500476Y-55172380D01*
X130833809Y-55553333D01*
X130690952Y-55553333D01*
X130595714Y-55600952D01*
X130548095Y-55648571D01*
X130500476Y-55743809D01*
X130500476Y-55981904D01*
X130548095Y-56077142D01*
X130595714Y-56124761D01*
X130690952Y-56172380D01*
X130976666Y-56172380D01*
X131071904Y-56124761D01*
X131119523Y-56077142D01*
X129643333Y-55505714D02*
X129643333Y-56172380D01*
X129881428Y-55124761D02*
X130119523Y-55839047D01*
X129500476Y-55839047D01*
X146692857Y-119737142D02*
X146740476Y-119784761D01*
X146883333Y-119832380D01*
X146978571Y-119832380D01*
X147121428Y-119784761D01*
X147216666Y-119689523D01*
X147264285Y-119594285D01*
X147311904Y-119403809D01*
X147311904Y-119260952D01*
X147264285Y-119070476D01*
X147216666Y-118975238D01*
X147121428Y-118880000D01*
X146978571Y-118832380D01*
X146883333Y-118832380D01*
X146740476Y-118880000D01*
X146692857Y-118927619D01*
X146359523Y-118832380D02*
X145740476Y-118832380D01*
X146073809Y-119213333D01*
X145930952Y-119213333D01*
X145835714Y-119260952D01*
X145788095Y-119308571D01*
X145740476Y-119403809D01*
X145740476Y-119641904D01*
X145788095Y-119737142D01*
X145835714Y-119784761D01*
X145930952Y-119832380D01*
X146216666Y-119832380D01*
X146311904Y-119784761D01*
X146359523Y-119737142D01*
X145407142Y-118832380D02*
X144788095Y-118832380D01*
X145121428Y-119213333D01*
X144978571Y-119213333D01*
X144883333Y-119260952D01*
X144835714Y-119308571D01*
X144788095Y-119403809D01*
X144788095Y-119641904D01*
X144835714Y-119737142D01*
X144883333Y-119784761D01*
X144978571Y-119832380D01*
X145264285Y-119832380D01*
X145359523Y-119784761D01*
X145407142Y-119737142D01*
X132087857Y-119102142D02*
X132135476Y-119149761D01*
X132278333Y-119197380D01*
X132373571Y-119197380D01*
X132516428Y-119149761D01*
X132611666Y-119054523D01*
X132659285Y-118959285D01*
X132706904Y-118768809D01*
X132706904Y-118625952D01*
X132659285Y-118435476D01*
X132611666Y-118340238D01*
X132516428Y-118245000D01*
X132373571Y-118197380D01*
X132278333Y-118197380D01*
X132135476Y-118245000D01*
X132087857Y-118292619D01*
X131754523Y-118197380D02*
X131135476Y-118197380D01*
X131468809Y-118578333D01*
X131325952Y-118578333D01*
X131230714Y-118625952D01*
X131183095Y-118673571D01*
X131135476Y-118768809D01*
X131135476Y-119006904D01*
X131183095Y-119102142D01*
X131230714Y-119149761D01*
X131325952Y-119197380D01*
X131611666Y-119197380D01*
X131706904Y-119149761D01*
X131754523Y-119102142D01*
X130754523Y-118292619D02*
X130706904Y-118245000D01*
X130611666Y-118197380D01*
X130373571Y-118197380D01*
X130278333Y-118245000D01*
X130230714Y-118292619D01*
X130183095Y-118387857D01*
X130183095Y-118483095D01*
X130230714Y-118625952D01*
X130802142Y-119197380D01*
X130183095Y-119197380D01*
X128912857Y-98622142D02*
X128960476Y-98669761D01*
X129103333Y-98717380D01*
X129198571Y-98717380D01*
X129341428Y-98669761D01*
X129436666Y-98574523D01*
X129484285Y-98479285D01*
X129531904Y-98288809D01*
X129531904Y-98145952D01*
X129484285Y-97955476D01*
X129436666Y-97860238D01*
X129341428Y-97765000D01*
X129198571Y-97717380D01*
X129103333Y-97717380D01*
X128960476Y-97765000D01*
X128912857Y-97812619D01*
X128579523Y-97717380D02*
X127960476Y-97717380D01*
X128293809Y-98098333D01*
X128150952Y-98098333D01*
X128055714Y-98145952D01*
X128008095Y-98193571D01*
X127960476Y-98288809D01*
X127960476Y-98526904D01*
X128008095Y-98622142D01*
X128055714Y-98669761D01*
X128150952Y-98717380D01*
X128436666Y-98717380D01*
X128531904Y-98669761D01*
X128579523Y-98622142D01*
X127008095Y-98717380D02*
X127579523Y-98717380D01*
X127293809Y-98717380D02*
X127293809Y-97717380D01*
X127389047Y-97860238D01*
X127484285Y-97955476D01*
X127579523Y-98003095D01*
X159392857Y-98622142D02*
X159440476Y-98669761D01*
X159583333Y-98717380D01*
X159678571Y-98717380D01*
X159821428Y-98669761D01*
X159916666Y-98574523D01*
X159964285Y-98479285D01*
X160011904Y-98288809D01*
X160011904Y-98145952D01*
X159964285Y-97955476D01*
X159916666Y-97860238D01*
X159821428Y-97765000D01*
X159678571Y-97717380D01*
X159583333Y-97717380D01*
X159440476Y-97765000D01*
X159392857Y-97812619D01*
X159059523Y-97717380D02*
X158440476Y-97717380D01*
X158773809Y-98098333D01*
X158630952Y-98098333D01*
X158535714Y-98145952D01*
X158488095Y-98193571D01*
X158440476Y-98288809D01*
X158440476Y-98526904D01*
X158488095Y-98622142D01*
X158535714Y-98669761D01*
X158630952Y-98717380D01*
X158916666Y-98717380D01*
X159011904Y-98669761D01*
X159059523Y-98622142D01*
X157821428Y-97717380D02*
X157726190Y-97717380D01*
X157630952Y-97765000D01*
X157583333Y-97812619D01*
X157535714Y-97907857D01*
X157488095Y-98098333D01*
X157488095Y-98336428D01*
X157535714Y-98526904D01*
X157583333Y-98622142D01*
X157630952Y-98669761D01*
X157726190Y-98717380D01*
X157821428Y-98717380D01*
X157916666Y-98669761D01*
X157964285Y-98622142D01*
X158011904Y-98526904D01*
X158059523Y-98336428D01*
X158059523Y-98098333D01*
X158011904Y-97907857D01*
X157964285Y-97812619D01*
X157916666Y-97765000D01*
X157821428Y-97717380D01*
X116212857Y-118307142D02*
X116260476Y-118354761D01*
X116403333Y-118402380D01*
X116498571Y-118402380D01*
X116641428Y-118354761D01*
X116736666Y-118259523D01*
X116784285Y-118164285D01*
X116831904Y-117973809D01*
X116831904Y-117830952D01*
X116784285Y-117640476D01*
X116736666Y-117545238D01*
X116641428Y-117450000D01*
X116498571Y-117402380D01*
X116403333Y-117402380D01*
X116260476Y-117450000D01*
X116212857Y-117497619D01*
X115831904Y-117497619D02*
X115784285Y-117450000D01*
X115689047Y-117402380D01*
X115450952Y-117402380D01*
X115355714Y-117450000D01*
X115308095Y-117497619D01*
X115260476Y-117592857D01*
X115260476Y-117688095D01*
X115308095Y-117830952D01*
X115879523Y-118402380D01*
X115260476Y-118402380D01*
X114784285Y-118402380D02*
X114593809Y-118402380D01*
X114498571Y-118354761D01*
X114450952Y-118307142D01*
X114355714Y-118164285D01*
X114308095Y-117973809D01*
X114308095Y-117592857D01*
X114355714Y-117497619D01*
X114403333Y-117450000D01*
X114498571Y-117402380D01*
X114689047Y-117402380D01*
X114784285Y-117450000D01*
X114831904Y-117497619D01*
X114879523Y-117592857D01*
X114879523Y-117830952D01*
X114831904Y-117926190D01*
X114784285Y-117973809D01*
X114689047Y-118021428D01*
X114498571Y-118021428D01*
X114403333Y-117973809D01*
X114355714Y-117926190D01*
X114308095Y-117830952D01*
X146057857Y-71317142D02*
X146105476Y-71364761D01*
X146248333Y-71412380D01*
X146343571Y-71412380D01*
X146486428Y-71364761D01*
X146581666Y-71269523D01*
X146629285Y-71174285D01*
X146676904Y-70983809D01*
X146676904Y-70840952D01*
X146629285Y-70650476D01*
X146581666Y-70555238D01*
X146486428Y-70460000D01*
X146343571Y-70412380D01*
X146248333Y-70412380D01*
X146105476Y-70460000D01*
X146057857Y-70507619D01*
X145676904Y-70507619D02*
X145629285Y-70460000D01*
X145534047Y-70412380D01*
X145295952Y-70412380D01*
X145200714Y-70460000D01*
X145153095Y-70507619D01*
X145105476Y-70602857D01*
X145105476Y-70698095D01*
X145153095Y-70840952D01*
X145724523Y-71412380D01*
X145105476Y-71412380D01*
X144534047Y-70840952D02*
X144629285Y-70793333D01*
X144676904Y-70745714D01*
X144724523Y-70650476D01*
X144724523Y-70602857D01*
X144676904Y-70507619D01*
X144629285Y-70460000D01*
X144534047Y-70412380D01*
X144343571Y-70412380D01*
X144248333Y-70460000D01*
X144200714Y-70507619D01*
X144153095Y-70602857D01*
X144153095Y-70650476D01*
X144200714Y-70745714D01*
X144248333Y-70793333D01*
X144343571Y-70840952D01*
X144534047Y-70840952D01*
X144629285Y-70888571D01*
X144676904Y-70936190D01*
X144724523Y-71031428D01*
X144724523Y-71221904D01*
X144676904Y-71317142D01*
X144629285Y-71364761D01*
X144534047Y-71412380D01*
X144343571Y-71412380D01*
X144248333Y-71364761D01*
X144200714Y-71317142D01*
X144153095Y-71221904D01*
X144153095Y-71031428D01*
X144200714Y-70936190D01*
X144248333Y-70888571D01*
X144343571Y-70840952D01*
X176537857Y-71317142D02*
X176585476Y-71364761D01*
X176728333Y-71412380D01*
X176823571Y-71412380D01*
X176966428Y-71364761D01*
X177061666Y-71269523D01*
X177109285Y-71174285D01*
X177156904Y-70983809D01*
X177156904Y-70840952D01*
X177109285Y-70650476D01*
X177061666Y-70555238D01*
X176966428Y-70460000D01*
X176823571Y-70412380D01*
X176728333Y-70412380D01*
X176585476Y-70460000D01*
X176537857Y-70507619D01*
X176156904Y-70507619D02*
X176109285Y-70460000D01*
X176014047Y-70412380D01*
X175775952Y-70412380D01*
X175680714Y-70460000D01*
X175633095Y-70507619D01*
X175585476Y-70602857D01*
X175585476Y-70698095D01*
X175633095Y-70840952D01*
X176204523Y-71412380D01*
X175585476Y-71412380D01*
X175252142Y-70412380D02*
X174585476Y-70412380D01*
X175014047Y-71412380D01*
X170822857Y-98147142D02*
X170870476Y-98194761D01*
X171013333Y-98242380D01*
X171108571Y-98242380D01*
X171251428Y-98194761D01*
X171346666Y-98099523D01*
X171394285Y-98004285D01*
X171441904Y-97813809D01*
X171441904Y-97670952D01*
X171394285Y-97480476D01*
X171346666Y-97385238D01*
X171251428Y-97290000D01*
X171108571Y-97242380D01*
X171013333Y-97242380D01*
X170870476Y-97290000D01*
X170822857Y-97337619D01*
X170441904Y-97337619D02*
X170394285Y-97290000D01*
X170299047Y-97242380D01*
X170060952Y-97242380D01*
X169965714Y-97290000D01*
X169918095Y-97337619D01*
X169870476Y-97432857D01*
X169870476Y-97528095D01*
X169918095Y-97670952D01*
X170489523Y-98242380D01*
X169870476Y-98242380D01*
X169013333Y-97242380D02*
X169203809Y-97242380D01*
X169299047Y-97290000D01*
X169346666Y-97337619D01*
X169441904Y-97480476D01*
X169489523Y-97670952D01*
X169489523Y-98051904D01*
X169441904Y-98147142D01*
X169394285Y-98194761D01*
X169299047Y-98242380D01*
X169108571Y-98242380D01*
X169013333Y-98194761D01*
X168965714Y-98147142D01*
X168918095Y-98051904D01*
X168918095Y-97813809D01*
X168965714Y-97718571D01*
X169013333Y-97670952D01*
X169108571Y-97623333D01*
X169299047Y-97623333D01*
X169394285Y-97670952D01*
X169441904Y-97718571D01*
X169489523Y-97813809D01*
X176049124Y-119737142D02*
X176096743Y-119784761D01*
X176239600Y-119832380D01*
X176334838Y-119832380D01*
X176477695Y-119784761D01*
X176572933Y-119689523D01*
X176620552Y-119594285D01*
X176668171Y-119403809D01*
X176668171Y-119260952D01*
X176620552Y-119070476D01*
X176572933Y-118975238D01*
X176477695Y-118880000D01*
X176334838Y-118832380D01*
X176239600Y-118832380D01*
X176096743Y-118880000D01*
X176049124Y-118927619D01*
X175668171Y-118927619D02*
X175620552Y-118880000D01*
X175525314Y-118832380D01*
X175287219Y-118832380D01*
X175191981Y-118880000D01*
X175144362Y-118927619D01*
X175096743Y-119022857D01*
X175096743Y-119118095D01*
X175144362Y-119260952D01*
X175715790Y-119832380D01*
X175096743Y-119832380D01*
X174191981Y-118832380D02*
X174668171Y-118832380D01*
X174715790Y-119308571D01*
X174668171Y-119260952D01*
X174572933Y-119213333D01*
X174334838Y-119213333D01*
X174239600Y-119260952D01*
X174191981Y-119308571D01*
X174144362Y-119403809D01*
X174144362Y-119641904D01*
X174191981Y-119737142D01*
X174239600Y-119784761D01*
X174334838Y-119832380D01*
X174572933Y-119832380D01*
X174668171Y-119784761D01*
X174715790Y-119737142D01*
X170822857Y-83542142D02*
X170870476Y-83589761D01*
X171013333Y-83637380D01*
X171108571Y-83637380D01*
X171251428Y-83589761D01*
X171346666Y-83494523D01*
X171394285Y-83399285D01*
X171441904Y-83208809D01*
X171441904Y-83065952D01*
X171394285Y-82875476D01*
X171346666Y-82780238D01*
X171251428Y-82685000D01*
X171108571Y-82637380D01*
X171013333Y-82637380D01*
X170870476Y-82685000D01*
X170822857Y-82732619D01*
X170441904Y-82732619D02*
X170394285Y-82685000D01*
X170299047Y-82637380D01*
X170060952Y-82637380D01*
X169965714Y-82685000D01*
X169918095Y-82732619D01*
X169870476Y-82827857D01*
X169870476Y-82923095D01*
X169918095Y-83065952D01*
X170489523Y-83637380D01*
X169870476Y-83637380D01*
X169013333Y-82970714D02*
X169013333Y-83637380D01*
X169251428Y-82589761D02*
X169489523Y-83304047D01*
X168870476Y-83304047D01*
X116212857Y-101162142D02*
X116260476Y-101209761D01*
X116403333Y-101257380D01*
X116498571Y-101257380D01*
X116641428Y-101209761D01*
X116736666Y-101114523D01*
X116784285Y-101019285D01*
X116831904Y-100828809D01*
X116831904Y-100685952D01*
X116784285Y-100495476D01*
X116736666Y-100400238D01*
X116641428Y-100305000D01*
X116498571Y-100257380D01*
X116403333Y-100257380D01*
X116260476Y-100305000D01*
X116212857Y-100352619D01*
X115831904Y-100352619D02*
X115784285Y-100305000D01*
X115689047Y-100257380D01*
X115450952Y-100257380D01*
X115355714Y-100305000D01*
X115308095Y-100352619D01*
X115260476Y-100447857D01*
X115260476Y-100543095D01*
X115308095Y-100685952D01*
X115879523Y-101257380D01*
X115260476Y-101257380D01*
X114927142Y-100257380D02*
X114308095Y-100257380D01*
X114641428Y-100638333D01*
X114498571Y-100638333D01*
X114403333Y-100685952D01*
X114355714Y-100733571D01*
X114308095Y-100828809D01*
X114308095Y-101066904D01*
X114355714Y-101162142D01*
X114403333Y-101209761D01*
X114498571Y-101257380D01*
X114784285Y-101257380D01*
X114879523Y-101209761D01*
X114927142Y-101162142D01*
X170914285Y-115852380D02*
X170914285Y-114852380D01*
X170676190Y-114852380D01*
X170533333Y-114900000D01*
X170438095Y-114995238D01*
X170390476Y-115090476D01*
X170342857Y-115280952D01*
X170342857Y-115423809D01*
X170390476Y-115614285D01*
X170438095Y-115709523D01*
X170533333Y-115804761D01*
X170676190Y-115852380D01*
X170914285Y-115852380D01*
X169961904Y-114947619D02*
X169914285Y-114900000D01*
X169819047Y-114852380D01*
X169580952Y-114852380D01*
X169485714Y-114900000D01*
X169438095Y-114947619D01*
X169390476Y-115042857D01*
X169390476Y-115138095D01*
X169438095Y-115280952D01*
X170009523Y-115852380D01*
X169390476Y-115852380D01*
X168485714Y-114852380D02*
X168961904Y-114852380D01*
X169009523Y-115328571D01*
X168961904Y-115280952D01*
X168866666Y-115233333D01*
X168628571Y-115233333D01*
X168533333Y-115280952D01*
X168485714Y-115328571D01*
X168438095Y-115423809D01*
X168438095Y-115661904D01*
X168485714Y-115757142D01*
X168533333Y-115804761D01*
X168628571Y-115852380D01*
X168866666Y-115852380D01*
X168961904Y-115804761D01*
X169009523Y-115757142D01*
X173064285Y-115387380D02*
X173635714Y-115387380D01*
X173350000Y-115387380D02*
X173350000Y-114387380D01*
X173445238Y-114530238D01*
X173540476Y-114625476D01*
X173635714Y-114673095D01*
X155914285Y-115852380D02*
X155914285Y-114852380D01*
X155676190Y-114852380D01*
X155533333Y-114900000D01*
X155438095Y-114995238D01*
X155390476Y-115090476D01*
X155342857Y-115280952D01*
X155342857Y-115423809D01*
X155390476Y-115614285D01*
X155438095Y-115709523D01*
X155533333Y-115804761D01*
X155676190Y-115852380D01*
X155914285Y-115852380D01*
X154961904Y-114947619D02*
X154914285Y-114900000D01*
X154819047Y-114852380D01*
X154580952Y-114852380D01*
X154485714Y-114900000D01*
X154438095Y-114947619D01*
X154390476Y-115042857D01*
X154390476Y-115138095D01*
X154438095Y-115280952D01*
X155009523Y-115852380D01*
X154390476Y-115852380D01*
X153533333Y-115185714D02*
X153533333Y-115852380D01*
X153771428Y-114804761D02*
X154009523Y-115519047D01*
X153390476Y-115519047D01*
X158064285Y-115387380D02*
X158635714Y-115387380D01*
X158350000Y-115387380D02*
X158350000Y-114387380D01*
X158445238Y-114530238D01*
X158540476Y-114625476D01*
X158635714Y-114673095D01*
X140914285Y-115852380D02*
X140914285Y-114852380D01*
X140676190Y-114852380D01*
X140533333Y-114900000D01*
X140438095Y-114995238D01*
X140390476Y-115090476D01*
X140342857Y-115280952D01*
X140342857Y-115423809D01*
X140390476Y-115614285D01*
X140438095Y-115709523D01*
X140533333Y-115804761D01*
X140676190Y-115852380D01*
X140914285Y-115852380D01*
X139961904Y-114947619D02*
X139914285Y-114900000D01*
X139819047Y-114852380D01*
X139580952Y-114852380D01*
X139485714Y-114900000D01*
X139438095Y-114947619D01*
X139390476Y-115042857D01*
X139390476Y-115138095D01*
X139438095Y-115280952D01*
X140009523Y-115852380D01*
X139390476Y-115852380D01*
X139057142Y-114852380D02*
X138438095Y-114852380D01*
X138771428Y-115233333D01*
X138628571Y-115233333D01*
X138533333Y-115280952D01*
X138485714Y-115328571D01*
X138438095Y-115423809D01*
X138438095Y-115661904D01*
X138485714Y-115757142D01*
X138533333Y-115804761D01*
X138628571Y-115852380D01*
X138914285Y-115852380D01*
X139009523Y-115804761D01*
X139057142Y-115757142D01*
X143064285Y-115387380D02*
X143635714Y-115387380D01*
X143350000Y-115387380D02*
X143350000Y-114387380D01*
X143445238Y-114530238D01*
X143540476Y-114625476D01*
X143635714Y-114673095D01*
X125914285Y-115852380D02*
X125914285Y-114852380D01*
X125676190Y-114852380D01*
X125533333Y-114900000D01*
X125438095Y-114995238D01*
X125390476Y-115090476D01*
X125342857Y-115280952D01*
X125342857Y-115423809D01*
X125390476Y-115614285D01*
X125438095Y-115709523D01*
X125533333Y-115804761D01*
X125676190Y-115852380D01*
X125914285Y-115852380D01*
X124961904Y-114947619D02*
X124914285Y-114900000D01*
X124819047Y-114852380D01*
X124580952Y-114852380D01*
X124485714Y-114900000D01*
X124438095Y-114947619D01*
X124390476Y-115042857D01*
X124390476Y-115138095D01*
X124438095Y-115280952D01*
X125009523Y-115852380D01*
X124390476Y-115852380D01*
X124009523Y-114947619D02*
X123961904Y-114900000D01*
X123866666Y-114852380D01*
X123628571Y-114852380D01*
X123533333Y-114900000D01*
X123485714Y-114947619D01*
X123438095Y-115042857D01*
X123438095Y-115138095D01*
X123485714Y-115280952D01*
X124057142Y-115852380D01*
X123438095Y-115852380D01*
X128064285Y-115387380D02*
X128635714Y-115387380D01*
X128350000Y-115387380D02*
X128350000Y-114387380D01*
X128445238Y-114530238D01*
X128540476Y-114625476D01*
X128635714Y-114673095D01*
X110914285Y-115852380D02*
X110914285Y-114852380D01*
X110676190Y-114852380D01*
X110533333Y-114900000D01*
X110438095Y-114995238D01*
X110390476Y-115090476D01*
X110342857Y-115280952D01*
X110342857Y-115423809D01*
X110390476Y-115614285D01*
X110438095Y-115709523D01*
X110533333Y-115804761D01*
X110676190Y-115852380D01*
X110914285Y-115852380D01*
X109961904Y-114947619D02*
X109914285Y-114900000D01*
X109819047Y-114852380D01*
X109580952Y-114852380D01*
X109485714Y-114900000D01*
X109438095Y-114947619D01*
X109390476Y-115042857D01*
X109390476Y-115138095D01*
X109438095Y-115280952D01*
X110009523Y-115852380D01*
X109390476Y-115852380D01*
X108438095Y-115852380D02*
X109009523Y-115852380D01*
X108723809Y-115852380D02*
X108723809Y-114852380D01*
X108819047Y-114995238D01*
X108914285Y-115090476D01*
X109009523Y-115138095D01*
X113064285Y-115387380D02*
X113635714Y-115387380D01*
X113350000Y-115387380D02*
X113350000Y-114387380D01*
X113445238Y-114530238D01*
X113540476Y-114625476D01*
X113635714Y-114673095D01*
X167584285Y-100782380D02*
X167584285Y-99782380D01*
X167346190Y-99782380D01*
X167203333Y-99830000D01*
X167108095Y-99925238D01*
X167060476Y-100020476D01*
X167012857Y-100210952D01*
X167012857Y-100353809D01*
X167060476Y-100544285D01*
X167108095Y-100639523D01*
X167203333Y-100734761D01*
X167346190Y-100782380D01*
X167584285Y-100782380D01*
X166631904Y-99877619D02*
X166584285Y-99830000D01*
X166489047Y-99782380D01*
X166250952Y-99782380D01*
X166155714Y-99830000D01*
X166108095Y-99877619D01*
X166060476Y-99972857D01*
X166060476Y-100068095D01*
X166108095Y-100210952D01*
X166679523Y-100782380D01*
X166060476Y-100782380D01*
X165441428Y-99782380D02*
X165346190Y-99782380D01*
X165250952Y-99830000D01*
X165203333Y-99877619D01*
X165155714Y-99972857D01*
X165108095Y-100163333D01*
X165108095Y-100401428D01*
X165155714Y-100591904D01*
X165203333Y-100687142D01*
X165250952Y-100734761D01*
X165346190Y-100782380D01*
X165441428Y-100782380D01*
X165536666Y-100734761D01*
X165584285Y-100687142D01*
X165631904Y-100591904D01*
X165679523Y-100401428D01*
X165679523Y-100163333D01*
X165631904Y-99972857D01*
X165584285Y-99877619D01*
X165536666Y-99830000D01*
X165441428Y-99782380D01*
X173564285Y-102752380D02*
X174135714Y-102752380D01*
X173850000Y-102752380D02*
X173850000Y-101752380D01*
X173945238Y-101895238D01*
X174040476Y-101990476D01*
X174135714Y-102038095D01*
X155914285Y-100852380D02*
X155914285Y-99852380D01*
X155676190Y-99852380D01*
X155533333Y-99900000D01*
X155438095Y-99995238D01*
X155390476Y-100090476D01*
X155342857Y-100280952D01*
X155342857Y-100423809D01*
X155390476Y-100614285D01*
X155438095Y-100709523D01*
X155533333Y-100804761D01*
X155676190Y-100852380D01*
X155914285Y-100852380D01*
X154390476Y-100852380D02*
X154961904Y-100852380D01*
X154676190Y-100852380D02*
X154676190Y-99852380D01*
X154771428Y-99995238D01*
X154866666Y-100090476D01*
X154961904Y-100138095D01*
X153914285Y-100852380D02*
X153723809Y-100852380D01*
X153628571Y-100804761D01*
X153580952Y-100757142D01*
X153485714Y-100614285D01*
X153438095Y-100423809D01*
X153438095Y-100042857D01*
X153485714Y-99947619D01*
X153533333Y-99900000D01*
X153628571Y-99852380D01*
X153819047Y-99852380D01*
X153914285Y-99900000D01*
X153961904Y-99947619D01*
X154009523Y-100042857D01*
X154009523Y-100280952D01*
X153961904Y-100376190D01*
X153914285Y-100423809D01*
X153819047Y-100471428D01*
X153628571Y-100471428D01*
X153533333Y-100423809D01*
X153485714Y-100376190D01*
X153438095Y-100280952D01*
X158564285Y-102752380D02*
X159135714Y-102752380D01*
X158850000Y-102752380D02*
X158850000Y-101752380D01*
X158945238Y-101895238D01*
X159040476Y-101990476D01*
X159135714Y-102038095D01*
X140914285Y-100852380D02*
X140914285Y-99852380D01*
X140676190Y-99852380D01*
X140533333Y-99900000D01*
X140438095Y-99995238D01*
X140390476Y-100090476D01*
X140342857Y-100280952D01*
X140342857Y-100423809D01*
X140390476Y-100614285D01*
X140438095Y-100709523D01*
X140533333Y-100804761D01*
X140676190Y-100852380D01*
X140914285Y-100852380D01*
X139390476Y-100852380D02*
X139961904Y-100852380D01*
X139676190Y-100852380D02*
X139676190Y-99852380D01*
X139771428Y-99995238D01*
X139866666Y-100090476D01*
X139961904Y-100138095D01*
X138819047Y-100280952D02*
X138914285Y-100233333D01*
X138961904Y-100185714D01*
X139009523Y-100090476D01*
X139009523Y-100042857D01*
X138961904Y-99947619D01*
X138914285Y-99900000D01*
X138819047Y-99852380D01*
X138628571Y-99852380D01*
X138533333Y-99900000D01*
X138485714Y-99947619D01*
X138438095Y-100042857D01*
X138438095Y-100090476D01*
X138485714Y-100185714D01*
X138533333Y-100233333D01*
X138628571Y-100280952D01*
X138819047Y-100280952D01*
X138914285Y-100328571D01*
X138961904Y-100376190D01*
X139009523Y-100471428D01*
X139009523Y-100661904D01*
X138961904Y-100757142D01*
X138914285Y-100804761D01*
X138819047Y-100852380D01*
X138628571Y-100852380D01*
X138533333Y-100804761D01*
X138485714Y-100757142D01*
X138438095Y-100661904D01*
X138438095Y-100471428D01*
X138485714Y-100376190D01*
X138533333Y-100328571D01*
X138628571Y-100280952D01*
X143064285Y-100782380D02*
X143635714Y-100782380D01*
X143350000Y-100782380D02*
X143350000Y-99782380D01*
X143445238Y-99925238D01*
X143540476Y-100020476D01*
X143635714Y-100068095D01*
X125914285Y-108402380D02*
X125914285Y-107402380D01*
X125676190Y-107402380D01*
X125533333Y-107450000D01*
X125438095Y-107545238D01*
X125390476Y-107640476D01*
X125342857Y-107830952D01*
X125342857Y-107973809D01*
X125390476Y-108164285D01*
X125438095Y-108259523D01*
X125533333Y-108354761D01*
X125676190Y-108402380D01*
X125914285Y-108402380D01*
X124390476Y-108402380D02*
X124961904Y-108402380D01*
X124676190Y-108402380D02*
X124676190Y-107402380D01*
X124771428Y-107545238D01*
X124866666Y-107640476D01*
X124961904Y-107688095D01*
X124057142Y-107402380D02*
X123390476Y-107402380D01*
X123819047Y-108402380D01*
X128564285Y-102752380D02*
X129135714Y-102752380D01*
X128850000Y-102752380D02*
X128850000Y-101752380D01*
X128945238Y-101895238D01*
X129040476Y-101990476D01*
X129135714Y-102038095D01*
X110914285Y-100852380D02*
X110914285Y-99852380D01*
X110676190Y-99852380D01*
X110533333Y-99900000D01*
X110438095Y-99995238D01*
X110390476Y-100090476D01*
X110342857Y-100280952D01*
X110342857Y-100423809D01*
X110390476Y-100614285D01*
X110438095Y-100709523D01*
X110533333Y-100804761D01*
X110676190Y-100852380D01*
X110914285Y-100852380D01*
X109390476Y-100852380D02*
X109961904Y-100852380D01*
X109676190Y-100852380D02*
X109676190Y-99852380D01*
X109771428Y-99995238D01*
X109866666Y-100090476D01*
X109961904Y-100138095D01*
X108533333Y-99852380D02*
X108723809Y-99852380D01*
X108819047Y-99900000D01*
X108866666Y-99947619D01*
X108961904Y-100090476D01*
X109009523Y-100280952D01*
X109009523Y-100661904D01*
X108961904Y-100757142D01*
X108914285Y-100804761D01*
X108819047Y-100852380D01*
X108628571Y-100852380D01*
X108533333Y-100804761D01*
X108485714Y-100757142D01*
X108438095Y-100661904D01*
X108438095Y-100423809D01*
X108485714Y-100328571D01*
X108533333Y-100280952D01*
X108628571Y-100233333D01*
X108819047Y-100233333D01*
X108914285Y-100280952D01*
X108961904Y-100328571D01*
X109009523Y-100423809D01*
X113064285Y-100782380D02*
X113635714Y-100782380D01*
X113350000Y-100782380D02*
X113350000Y-99782380D01*
X113445238Y-99925238D01*
X113540476Y-100020476D01*
X113635714Y-100068095D01*
X167264285Y-85542380D02*
X167264285Y-84542380D01*
X167026190Y-84542380D01*
X166883333Y-84590000D01*
X166788095Y-84685238D01*
X166740476Y-84780476D01*
X166692857Y-84970952D01*
X166692857Y-85113809D01*
X166740476Y-85304285D01*
X166788095Y-85399523D01*
X166883333Y-85494761D01*
X167026190Y-85542380D01*
X167264285Y-85542380D01*
X165740476Y-85542380D02*
X166311904Y-85542380D01*
X166026190Y-85542380D02*
X166026190Y-84542380D01*
X166121428Y-84685238D01*
X166216666Y-84780476D01*
X166311904Y-84828095D01*
X164835714Y-84542380D02*
X165311904Y-84542380D01*
X165359523Y-85018571D01*
X165311904Y-84970952D01*
X165216666Y-84923333D01*
X164978571Y-84923333D01*
X164883333Y-84970952D01*
X164835714Y-85018571D01*
X164788095Y-85113809D01*
X164788095Y-85351904D01*
X164835714Y-85447142D01*
X164883333Y-85494761D01*
X164978571Y-85542380D01*
X165216666Y-85542380D01*
X165311904Y-85494761D01*
X165359523Y-85447142D01*
X173064285Y-85542380D02*
X173635714Y-85542380D01*
X173350000Y-85542380D02*
X173350000Y-84542380D01*
X173445238Y-84685238D01*
X173540476Y-84780476D01*
X173635714Y-84828095D01*
X155914285Y-85852380D02*
X155914285Y-84852380D01*
X155676190Y-84852380D01*
X155533333Y-84900000D01*
X155438095Y-84995238D01*
X155390476Y-85090476D01*
X155342857Y-85280952D01*
X155342857Y-85423809D01*
X155390476Y-85614285D01*
X155438095Y-85709523D01*
X155533333Y-85804761D01*
X155676190Y-85852380D01*
X155914285Y-85852380D01*
X154390476Y-85852380D02*
X154961904Y-85852380D01*
X154676190Y-85852380D02*
X154676190Y-84852380D01*
X154771428Y-84995238D01*
X154866666Y-85090476D01*
X154961904Y-85138095D01*
X153533333Y-85185714D02*
X153533333Y-85852380D01*
X153771428Y-84804761D02*
X154009523Y-85519047D01*
X153390476Y-85519047D01*
X158064285Y-85542380D02*
X158635714Y-85542380D01*
X158350000Y-85542380D02*
X158350000Y-84542380D01*
X158445238Y-84685238D01*
X158540476Y-84780476D01*
X158635714Y-84828095D01*
X140914285Y-85852380D02*
X140914285Y-84852380D01*
X140676190Y-84852380D01*
X140533333Y-84900000D01*
X140438095Y-84995238D01*
X140390476Y-85090476D01*
X140342857Y-85280952D01*
X140342857Y-85423809D01*
X140390476Y-85614285D01*
X140438095Y-85709523D01*
X140533333Y-85804761D01*
X140676190Y-85852380D01*
X140914285Y-85852380D01*
X139390476Y-85852380D02*
X139961904Y-85852380D01*
X139676190Y-85852380D02*
X139676190Y-84852380D01*
X139771428Y-84995238D01*
X139866666Y-85090476D01*
X139961904Y-85138095D01*
X139057142Y-84852380D02*
X138438095Y-84852380D01*
X138771428Y-85233333D01*
X138628571Y-85233333D01*
X138533333Y-85280952D01*
X138485714Y-85328571D01*
X138438095Y-85423809D01*
X138438095Y-85661904D01*
X138485714Y-85757142D01*
X138533333Y-85804761D01*
X138628571Y-85852380D01*
X138914285Y-85852380D01*
X139009523Y-85804761D01*
X139057142Y-85757142D01*
X143064285Y-85542380D02*
X143635714Y-85542380D01*
X143350000Y-85542380D02*
X143350000Y-84542380D01*
X143445238Y-84685238D01*
X143540476Y-84780476D01*
X143635714Y-84828095D01*
X125914285Y-85852380D02*
X125914285Y-84852380D01*
X125676190Y-84852380D01*
X125533333Y-84900000D01*
X125438095Y-84995238D01*
X125390476Y-85090476D01*
X125342857Y-85280952D01*
X125342857Y-85423809D01*
X125390476Y-85614285D01*
X125438095Y-85709523D01*
X125533333Y-85804761D01*
X125676190Y-85852380D01*
X125914285Y-85852380D01*
X124390476Y-85852380D02*
X124961904Y-85852380D01*
X124676190Y-85852380D02*
X124676190Y-84852380D01*
X124771428Y-84995238D01*
X124866666Y-85090476D01*
X124961904Y-85138095D01*
X124009523Y-84947619D02*
X123961904Y-84900000D01*
X123866666Y-84852380D01*
X123628571Y-84852380D01*
X123533333Y-84900000D01*
X123485714Y-84947619D01*
X123438095Y-85042857D01*
X123438095Y-85138095D01*
X123485714Y-85280952D01*
X124057142Y-85852380D01*
X123438095Y-85852380D01*
X128064285Y-85542380D02*
X128635714Y-85542380D01*
X128350000Y-85542380D02*
X128350000Y-84542380D01*
X128445238Y-84685238D01*
X128540476Y-84780476D01*
X128635714Y-84828095D01*
X110914285Y-85852380D02*
X110914285Y-84852380D01*
X110676190Y-84852380D01*
X110533333Y-84900000D01*
X110438095Y-84995238D01*
X110390476Y-85090476D01*
X110342857Y-85280952D01*
X110342857Y-85423809D01*
X110390476Y-85614285D01*
X110438095Y-85709523D01*
X110533333Y-85804761D01*
X110676190Y-85852380D01*
X110914285Y-85852380D01*
X109390476Y-85852380D02*
X109961904Y-85852380D01*
X109676190Y-85852380D02*
X109676190Y-84852380D01*
X109771428Y-84995238D01*
X109866666Y-85090476D01*
X109961904Y-85138095D01*
X108438095Y-85852380D02*
X109009523Y-85852380D01*
X108723809Y-85852380D02*
X108723809Y-84852380D01*
X108819047Y-84995238D01*
X108914285Y-85090476D01*
X109009523Y-85138095D01*
X113064285Y-85542380D02*
X113635714Y-85542380D01*
X113350000Y-85542380D02*
X113350000Y-84542380D01*
X113445238Y-84685238D01*
X113540476Y-84780476D01*
X113635714Y-84828095D01*
X170914285Y-70852380D02*
X170914285Y-69852380D01*
X170676190Y-69852380D01*
X170533333Y-69900000D01*
X170438095Y-69995238D01*
X170390476Y-70090476D01*
X170342857Y-70280952D01*
X170342857Y-70423809D01*
X170390476Y-70614285D01*
X170438095Y-70709523D01*
X170533333Y-70804761D01*
X170676190Y-70852380D01*
X170914285Y-70852380D01*
X169390476Y-70852380D02*
X169961904Y-70852380D01*
X169676190Y-70852380D02*
X169676190Y-69852380D01*
X169771428Y-69995238D01*
X169866666Y-70090476D01*
X169961904Y-70138095D01*
X168771428Y-69852380D02*
X168676190Y-69852380D01*
X168580952Y-69900000D01*
X168533333Y-69947619D01*
X168485714Y-70042857D01*
X168438095Y-70233333D01*
X168438095Y-70471428D01*
X168485714Y-70661904D01*
X168533333Y-70757142D01*
X168580952Y-70804761D01*
X168676190Y-70852380D01*
X168771428Y-70852380D01*
X168866666Y-70804761D01*
X168914285Y-70757142D01*
X168961904Y-70661904D01*
X169009523Y-70471428D01*
X169009523Y-70233333D01*
X168961904Y-70042857D01*
X168914285Y-69947619D01*
X168866666Y-69900000D01*
X168771428Y-69852380D01*
X173064285Y-70302380D02*
X173635714Y-70302380D01*
X173350000Y-70302380D02*
X173350000Y-69302380D01*
X173445238Y-69445238D01*
X173540476Y-69540476D01*
X173635714Y-69588095D01*
X152503095Y-70852380D02*
X152503095Y-69852380D01*
X152265000Y-69852380D01*
X152122142Y-69900000D01*
X152026904Y-69995238D01*
X151979285Y-70090476D01*
X151931666Y-70280952D01*
X151931666Y-70423809D01*
X151979285Y-70614285D01*
X152026904Y-70709523D01*
X152122142Y-70804761D01*
X152265000Y-70852380D01*
X152503095Y-70852380D01*
X151455476Y-70852380D02*
X151265000Y-70852380D01*
X151169761Y-70804761D01*
X151122142Y-70757142D01*
X151026904Y-70614285D01*
X150979285Y-70423809D01*
X150979285Y-70042857D01*
X151026904Y-69947619D01*
X151074523Y-69900000D01*
X151169761Y-69852380D01*
X151360238Y-69852380D01*
X151455476Y-69900000D01*
X151503095Y-69947619D01*
X151550714Y-70042857D01*
X151550714Y-70280952D01*
X151503095Y-70376190D01*
X151455476Y-70423809D01*
X151360238Y-70471428D01*
X151169761Y-70471428D01*
X151074523Y-70423809D01*
X151026904Y-70376190D01*
X150979285Y-70280952D01*
X158064285Y-70302380D02*
X158635714Y-70302380D01*
X158350000Y-70302380D02*
X158350000Y-69302380D01*
X158445238Y-69445238D01*
X158540476Y-69540476D01*
X158635714Y-69588095D01*
X140438095Y-70852380D02*
X140438095Y-69852380D01*
X140200000Y-69852380D01*
X140057142Y-69900000D01*
X139961904Y-69995238D01*
X139914285Y-70090476D01*
X139866666Y-70280952D01*
X139866666Y-70423809D01*
X139914285Y-70614285D01*
X139961904Y-70709523D01*
X140057142Y-70804761D01*
X140200000Y-70852380D01*
X140438095Y-70852380D01*
X139295238Y-70280952D02*
X139390476Y-70233333D01*
X139438095Y-70185714D01*
X139485714Y-70090476D01*
X139485714Y-70042857D01*
X139438095Y-69947619D01*
X139390476Y-69900000D01*
X139295238Y-69852380D01*
X139104761Y-69852380D01*
X139009523Y-69900000D01*
X138961904Y-69947619D01*
X138914285Y-70042857D01*
X138914285Y-70090476D01*
X138961904Y-70185714D01*
X139009523Y-70233333D01*
X139104761Y-70280952D01*
X139295238Y-70280952D01*
X139390476Y-70328571D01*
X139438095Y-70376190D01*
X139485714Y-70471428D01*
X139485714Y-70661904D01*
X139438095Y-70757142D01*
X139390476Y-70804761D01*
X139295238Y-70852380D01*
X139104761Y-70852380D01*
X139009523Y-70804761D01*
X138961904Y-70757142D01*
X138914285Y-70661904D01*
X138914285Y-70471428D01*
X138961904Y-70376190D01*
X139009523Y-70328571D01*
X139104761Y-70280952D01*
X143224285Y-70302380D02*
X143795714Y-70302380D01*
X143510000Y-70302380D02*
X143510000Y-69302380D01*
X143605238Y-69445238D01*
X143700476Y-69540476D01*
X143795714Y-69588095D01*
X125438095Y-70852380D02*
X125438095Y-69852380D01*
X125200000Y-69852380D01*
X125057142Y-69900000D01*
X124961904Y-69995238D01*
X124914285Y-70090476D01*
X124866666Y-70280952D01*
X124866666Y-70423809D01*
X124914285Y-70614285D01*
X124961904Y-70709523D01*
X125057142Y-70804761D01*
X125200000Y-70852380D01*
X125438095Y-70852380D01*
X124533333Y-69852380D02*
X123866666Y-69852380D01*
X124295238Y-70852380D01*
X128064285Y-70302380D02*
X128635714Y-70302380D01*
X128350000Y-70302380D02*
X128350000Y-69302380D01*
X128445238Y-69445238D01*
X128540476Y-69540476D01*
X128635714Y-69588095D01*
X110438095Y-70852380D02*
X110438095Y-69852380D01*
X110200000Y-69852380D01*
X110057142Y-69900000D01*
X109961904Y-69995238D01*
X109914285Y-70090476D01*
X109866666Y-70280952D01*
X109866666Y-70423809D01*
X109914285Y-70614285D01*
X109961904Y-70709523D01*
X110057142Y-70804761D01*
X110200000Y-70852380D01*
X110438095Y-70852380D01*
X109009523Y-69852380D02*
X109200000Y-69852380D01*
X109295238Y-69900000D01*
X109342857Y-69947619D01*
X109438095Y-70090476D01*
X109485714Y-70280952D01*
X109485714Y-70661904D01*
X109438095Y-70757142D01*
X109390476Y-70804761D01*
X109295238Y-70852380D01*
X109104761Y-70852380D01*
X109009523Y-70804761D01*
X108961904Y-70757142D01*
X108914285Y-70661904D01*
X108914285Y-70423809D01*
X108961904Y-70328571D01*
X109009523Y-70280952D01*
X109104761Y-70233333D01*
X109295238Y-70233333D01*
X109390476Y-70280952D01*
X109438095Y-70328571D01*
X109485714Y-70423809D01*
X113064285Y-70302380D02*
X113635714Y-70302380D01*
X113350000Y-70302380D02*
X113350000Y-69302380D01*
X113445238Y-69445238D01*
X113540476Y-69540476D01*
X113635714Y-69588095D01*
X170438095Y-55852380D02*
X170438095Y-54852380D01*
X170200000Y-54852380D01*
X170057142Y-54900000D01*
X169961904Y-54995238D01*
X169914285Y-55090476D01*
X169866666Y-55280952D01*
X169866666Y-55423809D01*
X169914285Y-55614285D01*
X169961904Y-55709523D01*
X170057142Y-55804761D01*
X170200000Y-55852380D01*
X170438095Y-55852380D01*
X168961904Y-54852380D02*
X169438095Y-54852380D01*
X169485714Y-55328571D01*
X169438095Y-55280952D01*
X169342857Y-55233333D01*
X169104761Y-55233333D01*
X169009523Y-55280952D01*
X168961904Y-55328571D01*
X168914285Y-55423809D01*
X168914285Y-55661904D01*
X168961904Y-55757142D01*
X169009523Y-55804761D01*
X169104761Y-55852380D01*
X169342857Y-55852380D01*
X169438095Y-55804761D01*
X169485714Y-55757142D01*
X173064285Y-55697380D02*
X173635714Y-55697380D01*
X173350000Y-55697380D02*
X173350000Y-54697380D01*
X173445238Y-54840238D01*
X173540476Y-54935476D01*
X173635714Y-54983095D01*
X155438095Y-55852380D02*
X155438095Y-54852380D01*
X155200000Y-54852380D01*
X155057142Y-54900000D01*
X154961904Y-54995238D01*
X154914285Y-55090476D01*
X154866666Y-55280952D01*
X154866666Y-55423809D01*
X154914285Y-55614285D01*
X154961904Y-55709523D01*
X155057142Y-55804761D01*
X155200000Y-55852380D01*
X155438095Y-55852380D01*
X154009523Y-55185714D02*
X154009523Y-55852380D01*
X154247619Y-54804761D02*
X154485714Y-55519047D01*
X153866666Y-55519047D01*
X158064285Y-55697380D02*
X158635714Y-55697380D01*
X158350000Y-55697380D02*
X158350000Y-54697380D01*
X158445238Y-54840238D01*
X158540476Y-54935476D01*
X158635714Y-54983095D01*
X140438095Y-55852380D02*
X140438095Y-54852380D01*
X140200000Y-54852380D01*
X140057142Y-54900000D01*
X139961904Y-54995238D01*
X139914285Y-55090476D01*
X139866666Y-55280952D01*
X139866666Y-55423809D01*
X139914285Y-55614285D01*
X139961904Y-55709523D01*
X140057142Y-55804761D01*
X140200000Y-55852380D01*
X140438095Y-55852380D01*
X139533333Y-54852380D02*
X138914285Y-54852380D01*
X139247619Y-55233333D01*
X139104761Y-55233333D01*
X139009523Y-55280952D01*
X138961904Y-55328571D01*
X138914285Y-55423809D01*
X138914285Y-55661904D01*
X138961904Y-55757142D01*
X139009523Y-55804761D01*
X139104761Y-55852380D01*
X139390476Y-55852380D01*
X139485714Y-55804761D01*
X139533333Y-55757142D01*
X143064285Y-55697380D02*
X143635714Y-55697380D01*
X143350000Y-55697380D02*
X143350000Y-54697380D01*
X143445238Y-54840238D01*
X143540476Y-54935476D01*
X143635714Y-54983095D01*
X125438095Y-55852380D02*
X125438095Y-54852380D01*
X125200000Y-54852380D01*
X125057142Y-54900000D01*
X124961904Y-54995238D01*
X124914285Y-55090476D01*
X124866666Y-55280952D01*
X124866666Y-55423809D01*
X124914285Y-55614285D01*
X124961904Y-55709523D01*
X125057142Y-55804761D01*
X125200000Y-55852380D01*
X125438095Y-55852380D01*
X124485714Y-54947619D02*
X124438095Y-54900000D01*
X124342857Y-54852380D01*
X124104761Y-54852380D01*
X124009523Y-54900000D01*
X123961904Y-54947619D01*
X123914285Y-55042857D01*
X123914285Y-55138095D01*
X123961904Y-55280952D01*
X124533333Y-55852380D01*
X123914285Y-55852380D01*
X128064285Y-55697380D02*
X128635714Y-55697380D01*
X128350000Y-55697380D02*
X128350000Y-54697380D01*
X128445238Y-54840238D01*
X128540476Y-54935476D01*
X128635714Y-54983095D01*
X110438095Y-55852380D02*
X110438095Y-54852380D01*
X110200000Y-54852380D01*
X110057142Y-54900000D01*
X109961904Y-54995238D01*
X109914285Y-55090476D01*
X109866666Y-55280952D01*
X109866666Y-55423809D01*
X109914285Y-55614285D01*
X109961904Y-55709523D01*
X110057142Y-55804761D01*
X110200000Y-55852380D01*
X110438095Y-55852380D01*
X108914285Y-55852380D02*
X109485714Y-55852380D01*
X109200000Y-55852380D02*
X109200000Y-54852380D01*
X109295238Y-54995238D01*
X109390476Y-55090476D01*
X109485714Y-55138095D01*
X113064285Y-55697380D02*
X113635714Y-55697380D01*
X113350000Y-55697380D02*
X113350000Y-54697380D01*
X113445238Y-54840238D01*
X113540476Y-54935476D01*
X113635714Y-54983095D01*
X161456666Y-72112142D02*
X161504285Y-72159761D01*
X161647142Y-72207380D01*
X161742380Y-72207380D01*
X161885238Y-72159761D01*
X161980476Y-72064523D01*
X162028095Y-71969285D01*
X162075714Y-71778809D01*
X162075714Y-71635952D01*
X162028095Y-71445476D01*
X161980476Y-71350238D01*
X161885238Y-71255000D01*
X161742380Y-71207380D01*
X161647142Y-71207380D01*
X161504285Y-71255000D01*
X161456666Y-71302619D01*
X160504285Y-72207380D02*
X161075714Y-72207380D01*
X160790000Y-72207380D02*
X160790000Y-71207380D01*
X160885238Y-71350238D01*
X160980476Y-71445476D01*
X161075714Y-71493095D01*
X166060666Y-70074642D02*
X166108285Y-70122261D01*
X166251142Y-70169880D01*
X166346380Y-70169880D01*
X166489238Y-70122261D01*
X166584476Y-70027023D01*
X166632095Y-69931785D01*
X166679714Y-69741309D01*
X166679714Y-69598452D01*
X166632095Y-69407976D01*
X166584476Y-69312738D01*
X166489238Y-69217500D01*
X166346380Y-69169880D01*
X166251142Y-69169880D01*
X166108285Y-69217500D01*
X166060666Y-69265119D01*
X165727333Y-69169880D02*
X165108285Y-69169880D01*
X165441619Y-69550833D01*
X165298761Y-69550833D01*
X165203523Y-69598452D01*
X165155904Y-69646071D01*
X165108285Y-69741309D01*
X165108285Y-69979404D01*
X165155904Y-70074642D01*
X165203523Y-70122261D01*
X165298761Y-70169880D01*
X165584476Y-70169880D01*
X165679714Y-70122261D01*
X165727333Y-70074642D01*
X164020666Y-83284642D02*
X164068285Y-83332261D01*
X164211142Y-83379880D01*
X164306380Y-83379880D01*
X164449238Y-83332261D01*
X164544476Y-83237023D01*
X164592095Y-83141785D01*
X164639714Y-82951309D01*
X164639714Y-82808452D01*
X164592095Y-82617976D01*
X164544476Y-82522738D01*
X164449238Y-82427500D01*
X164306380Y-82379880D01*
X164211142Y-82379880D01*
X164068285Y-82427500D01*
X164020666Y-82475119D01*
X163544476Y-83379880D02*
X163354000Y-83379880D01*
X163258761Y-83332261D01*
X163211142Y-83284642D01*
X163115904Y-83141785D01*
X163068285Y-82951309D01*
X163068285Y-82570357D01*
X163115904Y-82475119D01*
X163163523Y-82427500D01*
X163258761Y-82379880D01*
X163449238Y-82379880D01*
X163544476Y-82427500D01*
X163592095Y-82475119D01*
X163639714Y-82570357D01*
X163639714Y-82808452D01*
X163592095Y-82903690D01*
X163544476Y-82951309D01*
X163449238Y-82998928D01*
X163258761Y-82998928D01*
X163163523Y-82951309D01*
X163115904Y-82903690D01*
X163068285Y-82808452D01*
X158686666Y-80870642D02*
X158734285Y-80918261D01*
X158877142Y-80965880D01*
X158972380Y-80965880D01*
X159115238Y-80918261D01*
X159210476Y-80823023D01*
X159258095Y-80727785D01*
X159305714Y-80537309D01*
X159305714Y-80394452D01*
X159258095Y-80203976D01*
X159210476Y-80108738D01*
X159115238Y-80013500D01*
X158972380Y-79965880D01*
X158877142Y-79965880D01*
X158734285Y-80013500D01*
X158686666Y-80061119D01*
X158305714Y-80061119D02*
X158258095Y-80013500D01*
X158162857Y-79965880D01*
X157924761Y-79965880D01*
X157829523Y-80013500D01*
X157781904Y-80061119D01*
X157734285Y-80156357D01*
X157734285Y-80251595D01*
X157781904Y-80394452D01*
X158353333Y-80965880D01*
X157734285Y-80965880D01*
X163234857Y-66518642D02*
X163282476Y-66566261D01*
X163425333Y-66613880D01*
X163520571Y-66613880D01*
X163663428Y-66566261D01*
X163758666Y-66471023D01*
X163806285Y-66375785D01*
X163853904Y-66185309D01*
X163853904Y-66042452D01*
X163806285Y-65851976D01*
X163758666Y-65756738D01*
X163663428Y-65661500D01*
X163520571Y-65613880D01*
X163425333Y-65613880D01*
X163282476Y-65661500D01*
X163234857Y-65709119D01*
X162282476Y-66613880D02*
X162853904Y-66613880D01*
X162568190Y-66613880D02*
X162568190Y-65613880D01*
X162663428Y-65756738D01*
X162758666Y-65851976D01*
X162853904Y-65899595D01*
X161330095Y-66613880D02*
X161901523Y-66613880D01*
X161615809Y-66613880D02*
X161615809Y-65613880D01*
X161711047Y-65756738D01*
X161806285Y-65851976D01*
X161901523Y-65899595D01*
D11*
X145561267Y-101725000D02*
X145268733Y-101725000D01*
X145561267Y-102745000D02*
X145268733Y-102745000D01*
X160801267Y-56640000D02*
X160508733Y-56640000D01*
X160801267Y-57660000D02*
X160508733Y-57660000D01*
X146196267Y-56640000D02*
X145903733Y-56640000D01*
X146196267Y-57660000D02*
X145903733Y-57660000D01*
X115716267Y-86485000D02*
X115423733Y-86485000D01*
X115716267Y-87505000D02*
X115423733Y-87505000D01*
X175406267Y-57660000D02*
X175113733Y-57660000D01*
X175406267Y-56640000D02*
X175113733Y-56640000D01*
X130321267Y-71880000D02*
X130028733Y-71880000D01*
X130321267Y-72900000D02*
X130028733Y-72900000D01*
X155428733Y-70360000D02*
X155721267Y-70360000D01*
X155428733Y-69340000D02*
X155721267Y-69340000D01*
X160801267Y-116965000D02*
X160508733Y-116965000D01*
X160801267Y-117985000D02*
X160508733Y-117985000D01*
X156970000Y-83038733D02*
X156970000Y-83331267D01*
X157990000Y-83038733D02*
X157990000Y-83331267D01*
X145561267Y-86485000D02*
X145268733Y-86485000D01*
X145561267Y-87505000D02*
X145268733Y-87505000D01*
X130321267Y-86485000D02*
X130028733Y-86485000D01*
X130321267Y-87505000D02*
X130028733Y-87505000D01*
X115716267Y-71880000D02*
X115423733Y-71880000D01*
X115716267Y-72900000D02*
X115423733Y-72900000D01*
X115716267Y-56640000D02*
X115423733Y-56640000D01*
X115716267Y-57660000D02*
X115423733Y-57660000D01*
X130956267Y-56640000D02*
X130663733Y-56640000D01*
X130956267Y-57660000D02*
X130663733Y-57660000D01*
X145561267Y-116965000D02*
X145268733Y-116965000D01*
X145561267Y-117985000D02*
X145268733Y-117985000D01*
X130321267Y-116330000D02*
X130028733Y-116330000D01*
X130321267Y-117350000D02*
X130028733Y-117350000D01*
X128416267Y-99185000D02*
X128123733Y-99185000D01*
X128416267Y-100205000D02*
X128123733Y-100205000D01*
X158896267Y-100205000D02*
X158603733Y-100205000D01*
X158896267Y-99185000D02*
X158603733Y-99185000D01*
X115081267Y-118870000D02*
X114788733Y-118870000D01*
X115081267Y-119890000D02*
X114788733Y-119890000D01*
X145561267Y-71880000D02*
X145268733Y-71880000D01*
X145561267Y-72900000D02*
X145268733Y-72900000D01*
X176041267Y-71880000D02*
X175748733Y-71880000D01*
X176041267Y-72900000D02*
X175748733Y-72900000D01*
X170033733Y-100205000D02*
X170326267Y-100205000D01*
X170033733Y-99185000D02*
X170326267Y-99185000D01*
X175406267Y-116965000D02*
X175113733Y-116965000D01*
X175406267Y-117985000D02*
X175113733Y-117985000D01*
X170033733Y-85600000D02*
X170326267Y-85600000D01*
X170033733Y-84580000D02*
X170326267Y-84580000D01*
X115716267Y-101725000D02*
X115423733Y-101725000D01*
X115716267Y-102745000D02*
X115423733Y-102745000D01*
X173350000Y-116150000D02*
X166050000Y-116150000D01*
X173350000Y-121650000D02*
X166050000Y-121650000D01*
X166050000Y-121650000D02*
X166050000Y-120500000D01*
X158350000Y-116150000D02*
X151050000Y-116150000D01*
X158350000Y-121650000D02*
X151050000Y-121650000D01*
X151050000Y-121650000D02*
X151050000Y-120500000D01*
X143350000Y-116150000D02*
X136050000Y-116150000D01*
X143350000Y-121650000D02*
X136050000Y-121650000D01*
X136050000Y-121650000D02*
X136050000Y-120500000D01*
X128350000Y-116150000D02*
X121050000Y-116150000D01*
X128350000Y-121650000D02*
X121050000Y-121650000D01*
X121050000Y-121650000D02*
X121050000Y-120500000D01*
X113350000Y-116150000D02*
X106050000Y-116150000D01*
X113350000Y-121650000D02*
X106050000Y-121650000D01*
X106050000Y-121650000D02*
X106050000Y-120500000D01*
X173350000Y-101150000D02*
X166050000Y-101150000D01*
X173350000Y-106650000D02*
X166050000Y-106650000D01*
X166050000Y-106650000D02*
X166050000Y-105500000D01*
X158350000Y-101150000D02*
X151050000Y-101150000D01*
X158350000Y-106650000D02*
X151050000Y-106650000D01*
X151050000Y-106650000D02*
X151050000Y-105500000D01*
X143350000Y-101150000D02*
X136050000Y-101150000D01*
X143350000Y-106650000D02*
X136050000Y-106650000D01*
X136050000Y-106650000D02*
X136050000Y-105500000D01*
X128350000Y-101150000D02*
X121050000Y-101150000D01*
X128350000Y-106650000D02*
X121050000Y-106650000D01*
X121050000Y-106650000D02*
X121050000Y-105500000D01*
X113350000Y-101150000D02*
X106050000Y-101150000D01*
X113350000Y-106650000D02*
X106050000Y-106650000D01*
X106050000Y-106650000D02*
X106050000Y-105500000D01*
X173350000Y-86150000D02*
X166050000Y-86150000D01*
X173350000Y-91650000D02*
X166050000Y-91650000D01*
X166050000Y-91650000D02*
X166050000Y-90500000D01*
X158350000Y-86150000D02*
X151050000Y-86150000D01*
X158350000Y-91650000D02*
X151050000Y-91650000D01*
X151050000Y-91650000D02*
X151050000Y-90500000D01*
X143350000Y-86150000D02*
X136050000Y-86150000D01*
X143350000Y-91650000D02*
X136050000Y-91650000D01*
X136050000Y-91650000D02*
X136050000Y-90500000D01*
X128350000Y-86150000D02*
X121050000Y-86150000D01*
X128350000Y-91650000D02*
X121050000Y-91650000D01*
X121050000Y-91650000D02*
X121050000Y-90500000D01*
X113350000Y-86150000D02*
X106050000Y-86150000D01*
X113350000Y-91650000D02*
X106050000Y-91650000D01*
X106050000Y-91650000D02*
X106050000Y-90500000D01*
X173350000Y-71150000D02*
X166050000Y-71150000D01*
X173350000Y-76650000D02*
X166050000Y-76650000D01*
X166050000Y-76650000D02*
X166050000Y-75500000D01*
X158350000Y-71150000D02*
X151050000Y-71150000D01*
X158350000Y-76650000D02*
X151050000Y-76650000D01*
X151050000Y-76650000D02*
X151050000Y-75500000D01*
X143350000Y-71150000D02*
X136050000Y-71150000D01*
X143350000Y-76650000D02*
X136050000Y-76650000D01*
X136050000Y-76650000D02*
X136050000Y-75500000D01*
X128350000Y-71150000D02*
X121050000Y-71150000D01*
X128350000Y-76650000D02*
X121050000Y-76650000D01*
X121050000Y-76650000D02*
X121050000Y-75500000D01*
X113350000Y-71150000D02*
X106050000Y-71150000D01*
X113350000Y-76650000D02*
X106050000Y-76650000D01*
X106050000Y-76650000D02*
X106050000Y-75500000D01*
X173350000Y-56150000D02*
X166050000Y-56150000D01*
X173350000Y-61650000D02*
X166050000Y-61650000D01*
X166050000Y-61650000D02*
X166050000Y-60500000D01*
X158350000Y-56150000D02*
X151050000Y-56150000D01*
X158350000Y-61650000D02*
X151050000Y-61650000D01*
X151050000Y-61650000D02*
X151050000Y-60500000D01*
X143350000Y-56150000D02*
X136050000Y-56150000D01*
X143350000Y-61650000D02*
X136050000Y-61650000D01*
X136050000Y-61650000D02*
X136050000Y-60500000D01*
X128350000Y-56150000D02*
X121050000Y-56150000D01*
X128350000Y-61650000D02*
X121050000Y-61650000D01*
X121050000Y-61650000D02*
X121050000Y-60500000D01*
X106050000Y-61650000D02*
X106050000Y-60500000D01*
X113350000Y-61650000D02*
X106050000Y-61650000D01*
X113350000Y-56150000D02*
X106050000Y-56150000D01*
X161070000Y-68847767D02*
X161070000Y-68555233D01*
X160050000Y-68847767D02*
X160050000Y-68555233D01*
X164626000Y-68847767D02*
X164626000Y-68555233D01*
X163606000Y-68847767D02*
X163606000Y-68555233D01*
X159796000Y-81509233D02*
X159796000Y-81801767D01*
X160816000Y-81509233D02*
X160816000Y-81801767D01*
X162586000Y-81509233D02*
X162586000Y-81801767D01*
X161566000Y-81509233D02*
X161566000Y-81801767D01*
X162848000Y-68847767D02*
X162848000Y-68555233D01*
X161828000Y-68847767D02*
X161828000Y-68555233D01*
%LPC*%
D12*
X146277500Y-102235000D03*
X144552500Y-102235000D03*
X161517500Y-57150000D03*
X159792500Y-57150000D03*
X146912500Y-57150000D03*
X145187500Y-57150000D03*
X116432500Y-86995000D03*
X114707500Y-86995000D03*
X174397500Y-57150000D03*
X176122500Y-57150000D03*
X131037500Y-72390000D03*
X129312500Y-72390000D03*
D13*
X154712500Y-69850000D03*
X156437500Y-69850000D03*
D12*
X161517500Y-117475000D03*
X159792500Y-117475000D03*
D14*
X157480000Y-82322500D03*
X157480000Y-84047500D03*
D12*
X146277500Y-86995000D03*
X144552500Y-86995000D03*
X131037500Y-86995000D03*
X129312500Y-86995000D03*
X116432500Y-72390000D03*
X114707500Y-72390000D03*
X116432500Y-57150000D03*
X114707500Y-57150000D03*
X131672500Y-57150000D03*
X129947500Y-57150000D03*
X146277500Y-117475000D03*
X144552500Y-117475000D03*
X131037500Y-116840000D03*
X129312500Y-116840000D03*
X129132500Y-99695000D03*
X127407500Y-99695000D03*
X157887500Y-99695000D03*
X159612500Y-99695000D03*
X115797500Y-119380000D03*
X114072500Y-119380000D03*
X146277500Y-72390000D03*
X144552500Y-72390000D03*
X176757500Y-72390000D03*
X175032500Y-72390000D03*
D13*
X169317500Y-99695000D03*
X171042500Y-99695000D03*
D12*
X176122500Y-117475000D03*
X174397500Y-117475000D03*
D13*
X169317500Y-85090000D03*
X171042500Y-85090000D03*
D12*
X116432500Y-102235000D03*
X114707500Y-102235000D03*
D15*
X172150000Y-117300000D03*
X172150000Y-120500000D03*
X167250000Y-120500000D03*
X167250000Y-117300000D03*
X157150000Y-117300000D03*
X157150000Y-120500000D03*
X152250000Y-120500000D03*
X152250000Y-117300000D03*
X142150000Y-117300000D03*
X142150000Y-120500000D03*
X137250000Y-120500000D03*
X137250000Y-117300000D03*
X127150000Y-117300000D03*
X127150000Y-120500000D03*
X122250000Y-120500000D03*
X122250000Y-117300000D03*
X112150000Y-117300000D03*
X112150000Y-120500000D03*
X107250000Y-120500000D03*
X107250000Y-117300000D03*
X172150000Y-102300000D03*
X172150000Y-105500000D03*
X167250000Y-105500000D03*
X167250000Y-102300000D03*
X157150000Y-102300000D03*
X157150000Y-105500000D03*
X152250000Y-105500000D03*
X152250000Y-102300000D03*
X142150000Y-102300000D03*
X142150000Y-105500000D03*
X137250000Y-105500000D03*
X137250000Y-102300000D03*
X127150000Y-102300000D03*
X127150000Y-105500000D03*
X122250000Y-105500000D03*
X122250000Y-102300000D03*
X112150000Y-102300000D03*
X112150000Y-105500000D03*
X107250000Y-105500000D03*
X107250000Y-102300000D03*
X172150000Y-87300000D03*
X172150000Y-90500000D03*
X167250000Y-90500000D03*
X167250000Y-87300000D03*
X157150000Y-87300000D03*
X157150000Y-90500000D03*
X152250000Y-90500000D03*
X152250000Y-87300000D03*
X142150000Y-87300000D03*
X142150000Y-90500000D03*
X137250000Y-90500000D03*
X137250000Y-87300000D03*
X127150000Y-87300000D03*
X127150000Y-90500000D03*
X122250000Y-90500000D03*
X122250000Y-87300000D03*
X112150000Y-87300000D03*
X112150000Y-90500000D03*
X107250000Y-90500000D03*
X107250000Y-87300000D03*
X172150000Y-72300000D03*
X172150000Y-75500000D03*
X167250000Y-75500000D03*
X167250000Y-72300000D03*
X157150000Y-72300000D03*
X157150000Y-75500000D03*
X152250000Y-75500000D03*
X152250000Y-72300000D03*
X142150000Y-72300000D03*
X142150000Y-75500000D03*
X137250000Y-75500000D03*
X137250000Y-72300000D03*
X127150000Y-72300000D03*
X127150000Y-75500000D03*
X122250000Y-75500000D03*
X122250000Y-72300000D03*
X112150000Y-72300000D03*
X112150000Y-75500000D03*
X107250000Y-75500000D03*
X107250000Y-72300000D03*
X172150000Y-57300000D03*
X172150000Y-60500000D03*
X167250000Y-60500000D03*
X167250000Y-57300000D03*
X157150000Y-57300000D03*
X157150000Y-60500000D03*
X152250000Y-60500000D03*
X152250000Y-57300000D03*
X142150000Y-57300000D03*
X142150000Y-60500000D03*
X137250000Y-60500000D03*
X137250000Y-57300000D03*
X127150000Y-57300000D03*
X127150000Y-60500000D03*
X122250000Y-60500000D03*
X122250000Y-57300000D03*
X107250000Y-57300000D03*
X107250000Y-60500000D03*
X112150000Y-60500000D03*
X112150000Y-57300000D03*
D16*
X161925000Y-124460000D03*
D17*
X159385000Y-124460000D03*
X156845000Y-124460000D03*
X154305000Y-124460000D03*
D18*
X164318250Y-52324000D03*
X170918250Y-52324000D03*
D19*
X164318250Y-52324000D03*
X170918250Y-52324000D03*
D20*
X174752000Y-53848000D03*
D21*
X162030000Y-107760000D03*
D22*
X123420000Y-99060000D03*
D23*
X123420000Y-111760000D03*
D17*
X125365000Y-124460000D03*
D16*
X122825000Y-124460000D03*
D17*
X120285000Y-124460000D03*
D20*
X104648000Y-123952000D03*
D17*
X146685000Y-124460000D03*
X144145000Y-124460000D03*
X141605000Y-124460000D03*
X139065000Y-124460000D03*
X136525000Y-124460000D03*
X133985000Y-124460000D03*
D16*
X109479000Y-65532000D03*
D17*
X106939000Y-65532000D03*
D20*
X104648000Y-53848000D03*
X174752000Y-123952000D03*
D24*
X160560000Y-69564000D03*
X160560000Y-67839000D03*
X164116000Y-69564000D03*
X164116000Y-67839000D03*
D14*
X160306000Y-80793000D03*
X160306000Y-82518000D03*
X162076000Y-82518000D03*
X162076000Y-80793000D03*
D24*
X162338000Y-69564000D03*
X162338000Y-67839000D03*
M02*
