G04 #@! TF.GenerationSoftware,KiCad,Pcbnew,(6.0.5)*
G04 #@! TF.CreationDate,2023-05-13T13:21:23-04:00*
G04 #@! TF.ProjectId,control_board,636f6e74-726f-46c5-9f62-6f6172642e6b,rev?*
G04 #@! TF.SameCoordinates,Original*
G04 #@! TF.FileFunction,Legend,Top*
G04 #@! TF.FilePolarity,Positive*
%FSLAX46Y46*%
G04 Gerber Fmt 4.6, Leading zero omitted, Abs format (unit mm)*
G04 Created by KiCad (PCBNEW (6.0.5)) date 2023-05-13 13:21:23*
%MOMM*%
%LPD*%
G01*
G04 APERTURE LIST*
G04 Aperture macros list*
%AMRoundRect*
0 Rectangle with rounded corners*
0 $1 Rounding radius*
0 $2 $3 $4 $5 $6 $7 $8 $9 X,Y pos of 4 corners*
0 Add a 4 corners polygon primitive as box body*
4,1,4,$2,$3,$4,$5,$6,$7,$8,$9,$2,$3,0*
0 Add four circle primitives for the rounded corners*
1,1,$1+$1,$2,$3*
1,1,$1+$1,$4,$5*
1,1,$1+$1,$6,$7*
1,1,$1+$1,$8,$9*
0 Add four rect primitives between the rounded corners*
20,1,$1+$1,$2,$3,$4,$5,0*
20,1,$1+$1,$4,$5,$6,$7,0*
20,1,$1+$1,$6,$7,$8,$9,0*
20,1,$1+$1,$8,$9,$2,$3,0*%
%AMFreePoly0*
4,1,9,5.362500,-0.866500,1.237500,-0.866500,1.237500,-0.450000,-1.237500,-0.450000,-1.237500,0.450000,1.237500,0.450000,1.237500,0.866500,5.362500,0.866500,5.362500,-0.866500,5.362500,-0.866500,$1*%
G04 Aperture macros list end*
%ADD10C,0.150000*%
%ADD11C,0.120000*%
%ADD12C,0.127000*%
%ADD13C,0.200000*%
%ADD14C,0.100000*%
%ADD15RoundRect,0.200000X-0.275000X0.200000X-0.275000X-0.200000X0.275000X-0.200000X0.275000X0.200000X0*%
%ADD16RoundRect,0.200000X0.200000X0.275000X-0.200000X0.275000X-0.200000X-0.275000X0.200000X-0.275000X0*%
%ADD17RoundRect,0.200000X-0.200000X-0.275000X0.200000X-0.275000X0.200000X0.275000X-0.200000X0.275000X0*%
%ADD18RoundRect,0.200000X0.275000X-0.200000X0.275000X0.200000X-0.275000X0.200000X-0.275000X-0.200000X0*%
%ADD19RoundRect,0.225000X0.250000X-0.225000X0.250000X0.225000X-0.250000X0.225000X-0.250000X-0.225000X0*%
%ADD20RoundRect,0.225000X-0.225000X-0.250000X0.225000X-0.250000X0.225000X0.250000X-0.225000X0.250000X0*%
%ADD21RoundRect,0.225000X-0.250000X0.225000X-0.250000X-0.225000X0.250000X-0.225000X0.250000X0.225000X0*%
%ADD22RoundRect,0.225000X0.225000X0.250000X-0.225000X0.250000X-0.225000X-0.250000X0.225000X-0.250000X0*%
%ADD23R,4.500000X2.000000*%
%ADD24R,1.700000X1.700000*%
%ADD25O,1.700000X1.700000*%
%ADD26C,0.500000*%
%ADD27R,0.400000X1.350000*%
%ADD28R,1.900000X1.900000*%
%ADD29O,0.900000X1.800000*%
%ADD30R,1.600000X1.400000*%
%ADD31C,2.100000*%
%ADD32R,0.650000X1.560000*%
%ADD33C,3.450000*%
%ADD34R,2.000000X2.000000*%
%ADD35C,2.000000*%
%ADD36R,0.900000X2.300000*%
%ADD37FreePoly0,270.000000*%
%ADD38RoundRect,0.150000X-0.650000X-0.150000X0.650000X-0.150000X0.650000X0.150000X-0.650000X0.150000X0*%
%ADD39RoundRect,0.237500X0.287500X0.237500X-0.287500X0.237500X-0.287500X-0.237500X0.287500X-0.237500X0*%
%ADD40R,0.675000X0.250000*%
%ADD41R,0.250000X0.675000*%
%ADD42O,0.875000X0.200000*%
%ADD43O,0.200000X0.875000*%
%ADD44R,3.200000X3.200000*%
%ADD45RoundRect,0.237500X-0.287500X-0.237500X0.287500X-0.237500X0.287500X0.237500X-0.287500X0.237500X0*%
%ADD46R,1.500000X4.000000*%
%ADD47R,0.700000X0.340000*%
%ADD48R,2.108200X0.558800*%
G04 APERTURE END LIST*
D10*
X141509761Y-121800952D02*
X141414523Y-121753333D01*
X141366904Y-121705714D01*
X141319285Y-121610476D01*
X141319285Y-121562857D01*
X141366904Y-121467619D01*
X141414523Y-121420000D01*
X141509761Y-121372380D01*
X141700238Y-121372380D01*
X141795476Y-121420000D01*
X141843095Y-121467619D01*
X141890714Y-121562857D01*
X141890714Y-121610476D01*
X141843095Y-121705714D01*
X141795476Y-121753333D01*
X141700238Y-121800952D01*
X141509761Y-121800952D01*
X141414523Y-121848571D01*
X141366904Y-121896190D01*
X141319285Y-121991428D01*
X141319285Y-122181904D01*
X141366904Y-122277142D01*
X141414523Y-122324761D01*
X141509761Y-122372380D01*
X141700238Y-122372380D01*
X141795476Y-122324761D01*
X141843095Y-122277142D01*
X141890714Y-122181904D01*
X141890714Y-121991428D01*
X141843095Y-121896190D01*
X141795476Y-121848571D01*
X141700238Y-121800952D01*
X134223095Y-121372380D02*
X133746904Y-121372380D01*
X133699285Y-121848571D01*
X133746904Y-121800952D01*
X133842142Y-121753333D01*
X134080238Y-121753333D01*
X134175476Y-121800952D01*
X134223095Y-121848571D01*
X134270714Y-121943809D01*
X134270714Y-122181904D01*
X134223095Y-122277142D01*
X134175476Y-122324761D01*
X134080238Y-122372380D01*
X133842142Y-122372380D01*
X133746904Y-122324761D01*
X133699285Y-122277142D01*
X136715476Y-121372380D02*
X136525000Y-121372380D01*
X136429761Y-121420000D01*
X136382142Y-121467619D01*
X136286904Y-121610476D01*
X136239285Y-121800952D01*
X136239285Y-122181904D01*
X136286904Y-122277142D01*
X136334523Y-122324761D01*
X136429761Y-122372380D01*
X136620238Y-122372380D01*
X136715476Y-122324761D01*
X136763095Y-122277142D01*
X136810714Y-122181904D01*
X136810714Y-121943809D01*
X136763095Y-121848571D01*
X136715476Y-121800952D01*
X136620238Y-121753333D01*
X136429761Y-121753333D01*
X136334523Y-121800952D01*
X136286904Y-121848571D01*
X136239285Y-121943809D01*
X138731666Y-121372380D02*
X139398333Y-121372380D01*
X138969761Y-122372380D01*
X152329285Y-122372380D02*
X151995952Y-121896190D01*
X151757857Y-122372380D02*
X151757857Y-121372380D01*
X152138809Y-121372380D01*
X152234047Y-121420000D01*
X152281666Y-121467619D01*
X152329285Y-121562857D01*
X152329285Y-121705714D01*
X152281666Y-121800952D01*
X152234047Y-121848571D01*
X152138809Y-121896190D01*
X151757857Y-121896190D01*
X152757857Y-121372380D02*
X152757857Y-122181904D01*
X152805476Y-122277142D01*
X152853095Y-122324761D01*
X152948333Y-122372380D01*
X153138809Y-122372380D01*
X153234047Y-122324761D01*
X153281666Y-122277142D01*
X153329285Y-122181904D01*
X153329285Y-121372380D01*
X153805476Y-122372380D02*
X153805476Y-121372380D01*
X154376904Y-122372380D01*
X154376904Y-121372380D01*
X155567380Y-121324761D02*
X154710238Y-122610476D01*
X155853095Y-122324761D02*
X155995952Y-122372380D01*
X156234047Y-122372380D01*
X156329285Y-122324761D01*
X156376904Y-122277142D01*
X156424523Y-122181904D01*
X156424523Y-122086666D01*
X156376904Y-121991428D01*
X156329285Y-121943809D01*
X156234047Y-121896190D01*
X156043571Y-121848571D01*
X155948333Y-121800952D01*
X155900714Y-121753333D01*
X155853095Y-121658095D01*
X155853095Y-121562857D01*
X155900714Y-121467619D01*
X155948333Y-121420000D01*
X156043571Y-121372380D01*
X156281666Y-121372380D01*
X156424523Y-121420000D01*
X156757857Y-121372380D02*
X156995952Y-122372380D01*
X157186428Y-121658095D01*
X157376904Y-122372380D01*
X157615000Y-121372380D01*
X158567380Y-122277142D02*
X158519761Y-122324761D01*
X158376904Y-122372380D01*
X158281666Y-122372380D01*
X158138809Y-122324761D01*
X158043571Y-122229523D01*
X157995952Y-122134285D01*
X157948333Y-121943809D01*
X157948333Y-121800952D01*
X157995952Y-121610476D01*
X158043571Y-121515238D01*
X158138809Y-121420000D01*
X158281666Y-121372380D01*
X158376904Y-121372380D01*
X158519761Y-121420000D01*
X158567380Y-121467619D01*
X159472142Y-122372380D02*
X158995952Y-122372380D01*
X158995952Y-121372380D01*
X159805476Y-122372380D02*
X159805476Y-121372380D01*
X160376904Y-122372380D02*
X159948333Y-121800952D01*
X160376904Y-121372380D02*
X159805476Y-121943809D01*
X161519761Y-121324761D02*
X160662619Y-122610476D01*
X161805476Y-122324761D02*
X161948333Y-122372380D01*
X162186428Y-122372380D01*
X162281666Y-122324761D01*
X162329285Y-122277142D01*
X162376904Y-122181904D01*
X162376904Y-122086666D01*
X162329285Y-121991428D01*
X162281666Y-121943809D01*
X162186428Y-121896190D01*
X161995952Y-121848571D01*
X161900714Y-121800952D01*
X161853095Y-121753333D01*
X161805476Y-121658095D01*
X161805476Y-121562857D01*
X161853095Y-121467619D01*
X161900714Y-121420000D01*
X161995952Y-121372380D01*
X162234047Y-121372380D01*
X162376904Y-121420000D01*
X162710238Y-121372380D02*
X162948333Y-122372380D01*
X163138809Y-121658095D01*
X163329285Y-122372380D01*
X163567380Y-121372380D01*
X163948333Y-122372380D02*
X163948333Y-121372380D01*
X164186428Y-121372380D01*
X164329285Y-121420000D01*
X164424523Y-121515238D01*
X164472142Y-121610476D01*
X164519761Y-121800952D01*
X164519761Y-121943809D01*
X164472142Y-122134285D01*
X164424523Y-122229523D01*
X164329285Y-122324761D01*
X164186428Y-122372380D01*
X163948333Y-122372380D01*
X113943095Y-124991761D02*
X114085952Y-125039380D01*
X114324047Y-125039380D01*
X114419285Y-124991761D01*
X114466904Y-124944142D01*
X114514523Y-124848904D01*
X114514523Y-124753666D01*
X114466904Y-124658428D01*
X114419285Y-124610809D01*
X114324047Y-124563190D01*
X114133571Y-124515571D01*
X114038333Y-124467952D01*
X113990714Y-124420333D01*
X113943095Y-124325095D01*
X113943095Y-124229857D01*
X113990714Y-124134619D01*
X114038333Y-124087000D01*
X114133571Y-124039380D01*
X114371666Y-124039380D01*
X114514523Y-124087000D01*
X114847857Y-124039380D02*
X115085952Y-125039380D01*
X115276428Y-124325095D01*
X115466904Y-125039380D01*
X115705000Y-124039380D01*
X116657380Y-124944142D02*
X116609761Y-124991761D01*
X116466904Y-125039380D01*
X116371666Y-125039380D01*
X116228809Y-124991761D01*
X116133571Y-124896523D01*
X116085952Y-124801285D01*
X116038333Y-124610809D01*
X116038333Y-124467952D01*
X116085952Y-124277476D01*
X116133571Y-124182238D01*
X116228809Y-124087000D01*
X116371666Y-124039380D01*
X116466904Y-124039380D01*
X116609761Y-124087000D01*
X116657380Y-124134619D01*
X117562142Y-125039380D02*
X117085952Y-125039380D01*
X117085952Y-124039380D01*
X117895476Y-125039380D02*
X117895476Y-124039380D01*
X118466904Y-125039380D02*
X118038333Y-124467952D01*
X118466904Y-124039380D02*
X117895476Y-124610809D01*
X124507857Y-122324761D02*
X124650714Y-122372380D01*
X124888809Y-122372380D01*
X124984047Y-122324761D01*
X125031666Y-122277142D01*
X125079285Y-122181904D01*
X125079285Y-122086666D01*
X125031666Y-121991428D01*
X124984047Y-121943809D01*
X124888809Y-121896190D01*
X124698333Y-121848571D01*
X124603095Y-121800952D01*
X124555476Y-121753333D01*
X124507857Y-121658095D01*
X124507857Y-121562857D01*
X124555476Y-121467619D01*
X124603095Y-121420000D01*
X124698333Y-121372380D01*
X124936428Y-121372380D01*
X125079285Y-121420000D01*
X125412619Y-121372380D02*
X125650714Y-122372380D01*
X125841190Y-121658095D01*
X126031666Y-122372380D01*
X126269761Y-121372380D01*
X126650714Y-122372380D02*
X126650714Y-121372380D01*
X126888809Y-121372380D01*
X127031666Y-121420000D01*
X127126904Y-121515238D01*
X127174523Y-121610476D01*
X127222142Y-121800952D01*
X127222142Y-121943809D01*
X127174523Y-122134285D01*
X127126904Y-122229523D01*
X127031666Y-122324761D01*
X126888809Y-122372380D01*
X126650714Y-122372380D01*
X144311666Y-122364285D02*
X144311666Y-121888095D01*
X144597380Y-122459523D02*
X143597380Y-122126190D01*
X144597380Y-121792857D01*
X144597380Y-121459523D02*
X143597380Y-121459523D01*
X143597380Y-121221428D01*
X143645000Y-121078571D01*
X143740238Y-120983333D01*
X143835476Y-120935714D01*
X144025952Y-120888095D01*
X144168809Y-120888095D01*
X144359285Y-120935714D01*
X144454523Y-120983333D01*
X144549761Y-121078571D01*
X144597380Y-121221428D01*
X144597380Y-121459523D01*
X144502142Y-119888095D02*
X144549761Y-119935714D01*
X144597380Y-120078571D01*
X144597380Y-120173809D01*
X144549761Y-120316666D01*
X144454523Y-120411904D01*
X144359285Y-120459523D01*
X144168809Y-120507142D01*
X144025952Y-120507142D01*
X143835476Y-120459523D01*
X143740238Y-120411904D01*
X143645000Y-120316666D01*
X143597380Y-120173809D01*
X143597380Y-120078571D01*
X143645000Y-119935714D01*
X143692619Y-119888095D01*
X143597380Y-119269047D02*
X143597380Y-119173809D01*
X143645000Y-119078571D01*
X143692619Y-119030952D01*
X143787857Y-118983333D01*
X143978333Y-118935714D01*
X144216428Y-118935714D01*
X144406904Y-118983333D01*
X144502142Y-119030952D01*
X144549761Y-119078571D01*
X144597380Y-119173809D01*
X144597380Y-119269047D01*
X144549761Y-119364285D01*
X144502142Y-119411904D01*
X144406904Y-119459523D01*
X144216428Y-119507142D01*
X143978333Y-119507142D01*
X143787857Y-119459523D01*
X143692619Y-119411904D01*
X143645000Y-119364285D01*
X143597380Y-119269047D01*
X146851666Y-122364285D02*
X146851666Y-121888095D01*
X147137380Y-122459523D02*
X146137380Y-122126190D01*
X147137380Y-121792857D01*
X147137380Y-121459523D02*
X146137380Y-121459523D01*
X146137380Y-121221428D01*
X146185000Y-121078571D01*
X146280238Y-120983333D01*
X146375476Y-120935714D01*
X146565952Y-120888095D01*
X146708809Y-120888095D01*
X146899285Y-120935714D01*
X146994523Y-120983333D01*
X147089761Y-121078571D01*
X147137380Y-121221428D01*
X147137380Y-121459523D01*
X147042142Y-119888095D02*
X147089761Y-119935714D01*
X147137380Y-120078571D01*
X147137380Y-120173809D01*
X147089761Y-120316666D01*
X146994523Y-120411904D01*
X146899285Y-120459523D01*
X146708809Y-120507142D01*
X146565952Y-120507142D01*
X146375476Y-120459523D01*
X146280238Y-120411904D01*
X146185000Y-120316666D01*
X146137380Y-120173809D01*
X146137380Y-120078571D01*
X146185000Y-119935714D01*
X146232619Y-119888095D01*
X147137380Y-118935714D02*
X147137380Y-119507142D01*
X147137380Y-119221428D02*
X146137380Y-119221428D01*
X146280238Y-119316666D01*
X146375476Y-119411904D01*
X146423095Y-119507142D01*
X122786380Y-120816666D02*
X122310190Y-121150000D01*
X122786380Y-121388095D02*
X121786380Y-121388095D01*
X121786380Y-121007142D01*
X121834000Y-120911904D01*
X121881619Y-120864285D01*
X121976857Y-120816666D01*
X122119714Y-120816666D01*
X122214952Y-120864285D01*
X122262571Y-120911904D01*
X122310190Y-121007142D01*
X122310190Y-121388095D01*
X122786380Y-120340476D02*
X122786380Y-120150000D01*
X122738761Y-120054761D01*
X122691142Y-120007142D01*
X122548285Y-119911904D01*
X122357809Y-119864285D01*
X121976857Y-119864285D01*
X121881619Y-119911904D01*
X121834000Y-119959523D01*
X121786380Y-120054761D01*
X121786380Y-120245238D01*
X121834000Y-120340476D01*
X121881619Y-120388095D01*
X121976857Y-120435714D01*
X122214952Y-120435714D01*
X122310190Y-120388095D01*
X122357809Y-120340476D01*
X122405428Y-120245238D01*
X122405428Y-120054761D01*
X122357809Y-119959523D01*
X122310190Y-119911904D01*
X122214952Y-119864285D01*
X145408833Y-63059880D02*
X145075500Y-62583690D01*
X144837404Y-63059880D02*
X144837404Y-62059880D01*
X145218357Y-62059880D01*
X145313595Y-62107500D01*
X145361214Y-62155119D01*
X145408833Y-62250357D01*
X145408833Y-62393214D01*
X145361214Y-62488452D01*
X145313595Y-62536071D01*
X145218357Y-62583690D01*
X144837404Y-62583690D01*
X145980261Y-62488452D02*
X145885023Y-62440833D01*
X145837404Y-62393214D01*
X145789785Y-62297976D01*
X145789785Y-62250357D01*
X145837404Y-62155119D01*
X145885023Y-62107500D01*
X145980261Y-62059880D01*
X146170738Y-62059880D01*
X146265976Y-62107500D01*
X146313595Y-62155119D01*
X146361214Y-62250357D01*
X146361214Y-62297976D01*
X146313595Y-62393214D01*
X146265976Y-62440833D01*
X146170738Y-62488452D01*
X145980261Y-62488452D01*
X145885023Y-62536071D01*
X145837404Y-62583690D01*
X145789785Y-62678928D01*
X145789785Y-62869404D01*
X145837404Y-62964642D01*
X145885023Y-63012261D01*
X145980261Y-63059880D01*
X146170738Y-63059880D01*
X146265976Y-63012261D01*
X146313595Y-62964642D01*
X146361214Y-62869404D01*
X146361214Y-62678928D01*
X146313595Y-62583690D01*
X146265976Y-62536071D01*
X146170738Y-62488452D01*
X153658833Y-57699880D02*
X153325500Y-57223690D01*
X153087404Y-57699880D02*
X153087404Y-56699880D01*
X153468357Y-56699880D01*
X153563595Y-56747500D01*
X153611214Y-56795119D01*
X153658833Y-56890357D01*
X153658833Y-57033214D01*
X153611214Y-57128452D01*
X153563595Y-57176071D01*
X153468357Y-57223690D01*
X153087404Y-57223690D01*
X153992166Y-56699880D02*
X154658833Y-56699880D01*
X154230261Y-57699880D01*
X128364783Y-66492380D02*
X128031450Y-66016190D01*
X127793354Y-66492380D02*
X127793354Y-65492380D01*
X128174307Y-65492380D01*
X128269545Y-65540000D01*
X128317164Y-65587619D01*
X128364783Y-65682857D01*
X128364783Y-65825714D01*
X128317164Y-65920952D01*
X128269545Y-65968571D01*
X128174307Y-66016190D01*
X127793354Y-66016190D01*
X129221926Y-65492380D02*
X129031450Y-65492380D01*
X128936211Y-65540000D01*
X128888592Y-65587619D01*
X128793354Y-65730476D01*
X128745735Y-65920952D01*
X128745735Y-66301904D01*
X128793354Y-66397142D01*
X128840973Y-66444761D01*
X128936211Y-66492380D01*
X129126688Y-66492380D01*
X129221926Y-66444761D01*
X129269545Y-66397142D01*
X129317164Y-66301904D01*
X129317164Y-66063809D01*
X129269545Y-65968571D01*
X129221926Y-65920952D01*
X129126688Y-65873333D01*
X128936211Y-65873333D01*
X128840973Y-65920952D01*
X128793354Y-65968571D01*
X128745735Y-66063809D01*
X151258380Y-75584166D02*
X150782190Y-75917500D01*
X151258380Y-76155595D02*
X150258380Y-76155595D01*
X150258380Y-75774642D01*
X150306000Y-75679404D01*
X150353619Y-75631785D01*
X150448857Y-75584166D01*
X150591714Y-75584166D01*
X150686952Y-75631785D01*
X150734571Y-75679404D01*
X150782190Y-75774642D01*
X150782190Y-76155595D01*
X150258380Y-74679404D02*
X150258380Y-75155595D01*
X150734571Y-75203214D01*
X150686952Y-75155595D01*
X150639333Y-75060357D01*
X150639333Y-74822261D01*
X150686952Y-74727023D01*
X150734571Y-74679404D01*
X150829809Y-74631785D01*
X151067904Y-74631785D01*
X151163142Y-74679404D01*
X151210761Y-74727023D01*
X151258380Y-74822261D01*
X151258380Y-75060357D01*
X151210761Y-75155595D01*
X151163142Y-75203214D01*
X148398380Y-71536166D02*
X147922190Y-71869500D01*
X148398380Y-72107595D02*
X147398380Y-72107595D01*
X147398380Y-71726642D01*
X147446000Y-71631404D01*
X147493619Y-71583785D01*
X147588857Y-71536166D01*
X147731714Y-71536166D01*
X147826952Y-71583785D01*
X147874571Y-71631404D01*
X147922190Y-71726642D01*
X147922190Y-72107595D01*
X147731714Y-70679023D02*
X148398380Y-70679023D01*
X147350761Y-70917119D02*
X148065047Y-71155214D01*
X148065047Y-70536166D01*
X159853333Y-81983380D02*
X159520000Y-81507190D01*
X159281904Y-81983380D02*
X159281904Y-80983380D01*
X159662857Y-80983380D01*
X159758095Y-81031000D01*
X159805714Y-81078619D01*
X159853333Y-81173857D01*
X159853333Y-81316714D01*
X159805714Y-81411952D01*
X159758095Y-81459571D01*
X159662857Y-81507190D01*
X159281904Y-81507190D01*
X160186666Y-80983380D02*
X160805714Y-80983380D01*
X160472380Y-81364333D01*
X160615238Y-81364333D01*
X160710476Y-81411952D01*
X160758095Y-81459571D01*
X160805714Y-81554809D01*
X160805714Y-81792904D01*
X160758095Y-81888142D01*
X160710476Y-81935761D01*
X160615238Y-81983380D01*
X160329523Y-81983380D01*
X160234285Y-81935761D01*
X160186666Y-81888142D01*
X166822380Y-64936666D02*
X166346190Y-65270000D01*
X166822380Y-65508095D02*
X165822380Y-65508095D01*
X165822380Y-65127142D01*
X165870000Y-65031904D01*
X165917619Y-64984285D01*
X166012857Y-64936666D01*
X166155714Y-64936666D01*
X166250952Y-64984285D01*
X166298571Y-65031904D01*
X166346190Y-65127142D01*
X166346190Y-65508095D01*
X165917619Y-64555714D02*
X165870000Y-64508095D01*
X165822380Y-64412857D01*
X165822380Y-64174761D01*
X165870000Y-64079523D01*
X165917619Y-64031904D01*
X166012857Y-63984285D01*
X166108095Y-63984285D01*
X166250952Y-64031904D01*
X166822380Y-64603333D01*
X166822380Y-63984285D01*
X161606380Y-64936666D02*
X161130190Y-65270000D01*
X161606380Y-65508095D02*
X160606380Y-65508095D01*
X160606380Y-65127142D01*
X160654000Y-65031904D01*
X160701619Y-64984285D01*
X160796857Y-64936666D01*
X160939714Y-64936666D01*
X161034952Y-64984285D01*
X161082571Y-65031904D01*
X161130190Y-65127142D01*
X161130190Y-65508095D01*
X161606380Y-63984285D02*
X161606380Y-64555714D01*
X161606380Y-64270000D02*
X160606380Y-64270000D01*
X160749238Y-64365238D01*
X160844476Y-64460476D01*
X160892095Y-64555714D01*
X119737142Y-107322857D02*
X119784761Y-107370476D01*
X119832380Y-107513333D01*
X119832380Y-107608571D01*
X119784761Y-107751428D01*
X119689523Y-107846666D01*
X119594285Y-107894285D01*
X119403809Y-107941904D01*
X119260952Y-107941904D01*
X119070476Y-107894285D01*
X118975238Y-107846666D01*
X118880000Y-107751428D01*
X118832380Y-107608571D01*
X118832380Y-107513333D01*
X118880000Y-107370476D01*
X118927619Y-107322857D01*
X118927619Y-106941904D02*
X118880000Y-106894285D01*
X118832380Y-106799047D01*
X118832380Y-106560952D01*
X118880000Y-106465714D01*
X118927619Y-106418095D01*
X119022857Y-106370476D01*
X119118095Y-106370476D01*
X119260952Y-106418095D01*
X119832380Y-106989523D01*
X119832380Y-106370476D01*
X118927619Y-105989523D02*
X118880000Y-105941904D01*
X118832380Y-105846666D01*
X118832380Y-105608571D01*
X118880000Y-105513333D01*
X118927619Y-105465714D01*
X119022857Y-105418095D01*
X119118095Y-105418095D01*
X119260952Y-105465714D01*
X119832380Y-106037142D01*
X119832380Y-105418095D01*
X111068142Y-110116857D02*
X111115761Y-110164476D01*
X111163380Y-110307333D01*
X111163380Y-110402571D01*
X111115761Y-110545428D01*
X111020523Y-110640666D01*
X110925285Y-110688285D01*
X110734809Y-110735904D01*
X110591952Y-110735904D01*
X110401476Y-110688285D01*
X110306238Y-110640666D01*
X110211000Y-110545428D01*
X110163380Y-110402571D01*
X110163380Y-110307333D01*
X110211000Y-110164476D01*
X110258619Y-110116857D01*
X110258619Y-109735904D02*
X110211000Y-109688285D01*
X110163380Y-109593047D01*
X110163380Y-109354952D01*
X110211000Y-109259714D01*
X110258619Y-109212095D01*
X110353857Y-109164476D01*
X110449095Y-109164476D01*
X110591952Y-109212095D01*
X111163380Y-109783523D01*
X111163380Y-109164476D01*
X111163380Y-108212095D02*
X111163380Y-108783523D01*
X111163380Y-108497809D02*
X110163380Y-108497809D01*
X110306238Y-108593047D01*
X110401476Y-108688285D01*
X110449095Y-108783523D01*
X114657142Y-97455357D02*
X114704761Y-97502976D01*
X114752380Y-97645833D01*
X114752380Y-97741071D01*
X114704761Y-97883928D01*
X114609523Y-97979166D01*
X114514285Y-98026785D01*
X114323809Y-98074404D01*
X114180952Y-98074404D01*
X113990476Y-98026785D01*
X113895238Y-97979166D01*
X113800000Y-97883928D01*
X113752380Y-97741071D01*
X113752380Y-97645833D01*
X113800000Y-97502976D01*
X113847619Y-97455357D01*
X113847619Y-97074404D02*
X113800000Y-97026785D01*
X113752380Y-96931547D01*
X113752380Y-96693452D01*
X113800000Y-96598214D01*
X113847619Y-96550595D01*
X113942857Y-96502976D01*
X114038095Y-96502976D01*
X114180952Y-96550595D01*
X114752380Y-97122023D01*
X114752380Y-96502976D01*
X113752380Y-95883928D02*
X113752380Y-95788690D01*
X113800000Y-95693452D01*
X113847619Y-95645833D01*
X113942857Y-95598214D01*
X114133333Y-95550595D01*
X114371428Y-95550595D01*
X114561904Y-95598214D01*
X114657142Y-95645833D01*
X114704761Y-95693452D01*
X114752380Y-95788690D01*
X114752380Y-95883928D01*
X114704761Y-95979166D01*
X114657142Y-96026785D01*
X114561904Y-96074404D01*
X114371428Y-96122023D01*
X114133333Y-96122023D01*
X113942857Y-96074404D01*
X113847619Y-96026785D01*
X113800000Y-95979166D01*
X113752380Y-95883928D01*
X107307142Y-91489642D02*
X107259523Y-91537261D01*
X107116666Y-91584880D01*
X107021428Y-91584880D01*
X106878571Y-91537261D01*
X106783333Y-91442023D01*
X106735714Y-91346785D01*
X106688095Y-91156309D01*
X106688095Y-91013452D01*
X106735714Y-90822976D01*
X106783333Y-90727738D01*
X106878571Y-90632500D01*
X107021428Y-90584880D01*
X107116666Y-90584880D01*
X107259523Y-90632500D01*
X107307142Y-90680119D01*
X108259523Y-91584880D02*
X107688095Y-91584880D01*
X107973809Y-91584880D02*
X107973809Y-90584880D01*
X107878571Y-90727738D01*
X107783333Y-90822976D01*
X107688095Y-90870595D01*
X108735714Y-91584880D02*
X108926190Y-91584880D01*
X109021428Y-91537261D01*
X109069047Y-91489642D01*
X109164285Y-91346785D01*
X109211904Y-91156309D01*
X109211904Y-90775357D01*
X109164285Y-90680119D01*
X109116666Y-90632500D01*
X109021428Y-90584880D01*
X108830952Y-90584880D01*
X108735714Y-90632500D01*
X108688095Y-90680119D01*
X108640476Y-90775357D01*
X108640476Y-91013452D01*
X108688095Y-91108690D01*
X108735714Y-91156309D01*
X108830952Y-91203928D01*
X109021428Y-91203928D01*
X109116666Y-91156309D01*
X109164285Y-91108690D01*
X109211904Y-91013452D01*
X157682642Y-57854642D02*
X157635023Y-57902261D01*
X157492166Y-57949880D01*
X157396928Y-57949880D01*
X157254071Y-57902261D01*
X157158833Y-57807023D01*
X157111214Y-57711785D01*
X157063595Y-57521309D01*
X157063595Y-57378452D01*
X157111214Y-57187976D01*
X157158833Y-57092738D01*
X157254071Y-56997500D01*
X157396928Y-56949880D01*
X157492166Y-56949880D01*
X157635023Y-56997500D01*
X157682642Y-57045119D01*
X158635023Y-57949880D02*
X158063595Y-57949880D01*
X158349309Y-57949880D02*
X158349309Y-56949880D01*
X158254071Y-57092738D01*
X158158833Y-57187976D01*
X158063595Y-57235595D01*
X159206452Y-57378452D02*
X159111214Y-57330833D01*
X159063595Y-57283214D01*
X159015976Y-57187976D01*
X159015976Y-57140357D01*
X159063595Y-57045119D01*
X159111214Y-56997500D01*
X159206452Y-56949880D01*
X159396928Y-56949880D01*
X159492166Y-56997500D01*
X159539785Y-57045119D01*
X159587404Y-57140357D01*
X159587404Y-57187976D01*
X159539785Y-57283214D01*
X159492166Y-57330833D01*
X159396928Y-57378452D01*
X159206452Y-57378452D01*
X159111214Y-57426071D01*
X159063595Y-57473690D01*
X159015976Y-57568928D01*
X159015976Y-57759404D01*
X159063595Y-57854642D01*
X159111214Y-57902261D01*
X159206452Y-57949880D01*
X159396928Y-57949880D01*
X159492166Y-57902261D01*
X159539785Y-57854642D01*
X159587404Y-57759404D01*
X159587404Y-57568928D01*
X159539785Y-57473690D01*
X159492166Y-57426071D01*
X159396928Y-57378452D01*
X127685392Y-61228142D02*
X127637773Y-61275761D01*
X127494916Y-61323380D01*
X127399678Y-61323380D01*
X127256821Y-61275761D01*
X127161583Y-61180523D01*
X127113964Y-61085285D01*
X127066345Y-60894809D01*
X127066345Y-60751952D01*
X127113964Y-60561476D01*
X127161583Y-60466238D01*
X127256821Y-60371000D01*
X127399678Y-60323380D01*
X127494916Y-60323380D01*
X127637773Y-60371000D01*
X127685392Y-60418619D01*
X128637773Y-61323380D02*
X128066345Y-61323380D01*
X128352059Y-61323380D02*
X128352059Y-60323380D01*
X128256821Y-60466238D01*
X128161583Y-60561476D01*
X128066345Y-60609095D01*
X128971107Y-60323380D02*
X129637773Y-60323380D01*
X129209202Y-61323380D01*
X136882142Y-88018857D02*
X136929761Y-88066476D01*
X136977380Y-88209333D01*
X136977380Y-88304571D01*
X136929761Y-88447428D01*
X136834523Y-88542666D01*
X136739285Y-88590285D01*
X136548809Y-88637904D01*
X136405952Y-88637904D01*
X136215476Y-88590285D01*
X136120238Y-88542666D01*
X136025000Y-88447428D01*
X135977380Y-88304571D01*
X135977380Y-88209333D01*
X136025000Y-88066476D01*
X136072619Y-88018857D01*
X136977380Y-87066476D02*
X136977380Y-87637904D01*
X136977380Y-87352190D02*
X135977380Y-87352190D01*
X136120238Y-87447428D01*
X136215476Y-87542666D01*
X136263095Y-87637904D01*
X135977380Y-86209333D02*
X135977380Y-86399809D01*
X136025000Y-86495047D01*
X136072619Y-86542666D01*
X136215476Y-86637904D01*
X136405952Y-86685523D01*
X136786904Y-86685523D01*
X136882142Y-86637904D01*
X136929761Y-86590285D01*
X136977380Y-86495047D01*
X136977380Y-86304571D01*
X136929761Y-86209333D01*
X136882142Y-86161714D01*
X136786904Y-86114095D01*
X136548809Y-86114095D01*
X136453571Y-86161714D01*
X136405952Y-86209333D01*
X136358333Y-86304571D01*
X136358333Y-86495047D01*
X136405952Y-86590285D01*
X136453571Y-86637904D01*
X136548809Y-86685523D01*
X142597142Y-88018857D02*
X142644761Y-88066476D01*
X142692380Y-88209333D01*
X142692380Y-88304571D01*
X142644761Y-88447428D01*
X142549523Y-88542666D01*
X142454285Y-88590285D01*
X142263809Y-88637904D01*
X142120952Y-88637904D01*
X141930476Y-88590285D01*
X141835238Y-88542666D01*
X141740000Y-88447428D01*
X141692380Y-88304571D01*
X141692380Y-88209333D01*
X141740000Y-88066476D01*
X141787619Y-88018857D01*
X142692380Y-87066476D02*
X142692380Y-87637904D01*
X142692380Y-87352190D02*
X141692380Y-87352190D01*
X141835238Y-87447428D01*
X141930476Y-87542666D01*
X141978095Y-87637904D01*
X141692380Y-86161714D02*
X141692380Y-86637904D01*
X142168571Y-86685523D01*
X142120952Y-86637904D01*
X142073333Y-86542666D01*
X142073333Y-86304571D01*
X142120952Y-86209333D01*
X142168571Y-86161714D01*
X142263809Y-86114095D01*
X142501904Y-86114095D01*
X142597142Y-86161714D01*
X142644761Y-86209333D01*
X142692380Y-86304571D01*
X142692380Y-86542666D01*
X142644761Y-86637904D01*
X142597142Y-86685523D01*
X121335392Y-61228142D02*
X121287773Y-61275761D01*
X121144916Y-61323380D01*
X121049678Y-61323380D01*
X120906821Y-61275761D01*
X120811583Y-61180523D01*
X120763964Y-61085285D01*
X120716345Y-60894809D01*
X120716345Y-60751952D01*
X120763964Y-60561476D01*
X120811583Y-60466238D01*
X120906821Y-60371000D01*
X121049678Y-60323380D01*
X121144916Y-60323380D01*
X121287773Y-60371000D01*
X121335392Y-60418619D01*
X122287773Y-61323380D02*
X121716345Y-61323380D01*
X122002059Y-61323380D02*
X122002059Y-60323380D01*
X121906821Y-60466238D01*
X121811583Y-60561476D01*
X121716345Y-60609095D01*
X123144916Y-60656714D02*
X123144916Y-61323380D01*
X122906821Y-60275761D02*
X122668726Y-60990047D01*
X123287773Y-60990047D01*
X162552142Y-85447142D02*
X162504523Y-85494761D01*
X162361666Y-85542380D01*
X162266428Y-85542380D01*
X162123571Y-85494761D01*
X162028333Y-85399523D01*
X161980714Y-85304285D01*
X161933095Y-85113809D01*
X161933095Y-84970952D01*
X161980714Y-84780476D01*
X162028333Y-84685238D01*
X162123571Y-84590000D01*
X162266428Y-84542380D01*
X162361666Y-84542380D01*
X162504523Y-84590000D01*
X162552142Y-84637619D01*
X163504523Y-85542380D02*
X162933095Y-85542380D01*
X163218809Y-85542380D02*
X163218809Y-84542380D01*
X163123571Y-84685238D01*
X163028333Y-84780476D01*
X162933095Y-84828095D01*
X163837857Y-84542380D02*
X164456904Y-84542380D01*
X164123571Y-84923333D01*
X164266428Y-84923333D01*
X164361666Y-84970952D01*
X164409285Y-85018571D01*
X164456904Y-85113809D01*
X164456904Y-85351904D01*
X164409285Y-85447142D01*
X164361666Y-85494761D01*
X164266428Y-85542380D01*
X163980714Y-85542380D01*
X163885476Y-85494761D01*
X163837857Y-85447142D01*
X155567142Y-83666142D02*
X155519523Y-83713761D01*
X155376666Y-83761380D01*
X155281428Y-83761380D01*
X155138571Y-83713761D01*
X155043333Y-83618523D01*
X154995714Y-83523285D01*
X154948095Y-83332809D01*
X154948095Y-83189952D01*
X154995714Y-82999476D01*
X155043333Y-82904238D01*
X155138571Y-82809000D01*
X155281428Y-82761380D01*
X155376666Y-82761380D01*
X155519523Y-82809000D01*
X155567142Y-82856619D01*
X156519523Y-83761380D02*
X155948095Y-83761380D01*
X156233809Y-83761380D02*
X156233809Y-82761380D01*
X156138571Y-82904238D01*
X156043333Y-82999476D01*
X155948095Y-83047095D01*
X156900476Y-82856619D02*
X156948095Y-82809000D01*
X157043333Y-82761380D01*
X157281428Y-82761380D01*
X157376666Y-82809000D01*
X157424285Y-82856619D01*
X157471904Y-82951857D01*
X157471904Y-83047095D01*
X157424285Y-83189952D01*
X156852857Y-83761380D01*
X157471904Y-83761380D01*
X163973142Y-68237142D02*
X163925523Y-68284761D01*
X163782666Y-68332380D01*
X163687428Y-68332380D01*
X163544571Y-68284761D01*
X163449333Y-68189523D01*
X163401714Y-68094285D01*
X163354095Y-67903809D01*
X163354095Y-67760952D01*
X163401714Y-67570476D01*
X163449333Y-67475238D01*
X163544571Y-67380000D01*
X163687428Y-67332380D01*
X163782666Y-67332380D01*
X163925523Y-67380000D01*
X163973142Y-67427619D01*
X164925523Y-68332380D02*
X164354095Y-68332380D01*
X164639809Y-68332380D02*
X164639809Y-67332380D01*
X164544571Y-67475238D01*
X164449333Y-67570476D01*
X164354095Y-67618095D01*
X165544571Y-67332380D02*
X165639809Y-67332380D01*
X165735047Y-67380000D01*
X165782666Y-67427619D01*
X165830285Y-67522857D01*
X165877904Y-67713333D01*
X165877904Y-67951428D01*
X165830285Y-68141904D01*
X165782666Y-68237142D01*
X165735047Y-68284761D01*
X165639809Y-68332380D01*
X165544571Y-68332380D01*
X165449333Y-68284761D01*
X165401714Y-68237142D01*
X165354095Y-68141904D01*
X165306476Y-67951428D01*
X165306476Y-67713333D01*
X165354095Y-67522857D01*
X165401714Y-67427619D01*
X165449333Y-67380000D01*
X165544571Y-67332380D01*
X154297333Y-77854642D02*
X154249714Y-77902261D01*
X154106857Y-77949880D01*
X154011619Y-77949880D01*
X153868761Y-77902261D01*
X153773523Y-77807023D01*
X153725904Y-77711785D01*
X153678285Y-77521309D01*
X153678285Y-77378452D01*
X153725904Y-77187976D01*
X153773523Y-77092738D01*
X153868761Y-76997500D01*
X154011619Y-76949880D01*
X154106857Y-76949880D01*
X154249714Y-76997500D01*
X154297333Y-77045119D01*
X154868761Y-77378452D02*
X154773523Y-77330833D01*
X154725904Y-77283214D01*
X154678285Y-77187976D01*
X154678285Y-77140357D01*
X154725904Y-77045119D01*
X154773523Y-76997500D01*
X154868761Y-76949880D01*
X155059238Y-76949880D01*
X155154476Y-76997500D01*
X155202095Y-77045119D01*
X155249714Y-77140357D01*
X155249714Y-77187976D01*
X155202095Y-77283214D01*
X155154476Y-77330833D01*
X155059238Y-77378452D01*
X154868761Y-77378452D01*
X154773523Y-77426071D01*
X154725904Y-77473690D01*
X154678285Y-77568928D01*
X154678285Y-77759404D01*
X154725904Y-77854642D01*
X154773523Y-77902261D01*
X154868761Y-77949880D01*
X155059238Y-77949880D01*
X155154476Y-77902261D01*
X155202095Y-77854642D01*
X155249714Y-77759404D01*
X155249714Y-77568928D01*
X155202095Y-77473690D01*
X155154476Y-77426071D01*
X155059238Y-77378452D01*
X159225142Y-68868166D02*
X159272761Y-68915785D01*
X159320380Y-69058642D01*
X159320380Y-69153880D01*
X159272761Y-69296738D01*
X159177523Y-69391976D01*
X159082285Y-69439595D01*
X158891809Y-69487214D01*
X158748952Y-69487214D01*
X158558476Y-69439595D01*
X158463238Y-69391976D01*
X158368000Y-69296738D01*
X158320380Y-69153880D01*
X158320380Y-69058642D01*
X158368000Y-68915785D01*
X158415619Y-68868166D01*
X158320380Y-68534833D02*
X158320380Y-67868166D01*
X159320380Y-68296738D01*
X168181142Y-77124166D02*
X168228761Y-77171785D01*
X168276380Y-77314642D01*
X168276380Y-77409880D01*
X168228761Y-77552738D01*
X168133523Y-77647976D01*
X168038285Y-77695595D01*
X167847809Y-77743214D01*
X167704952Y-77743214D01*
X167514476Y-77695595D01*
X167419238Y-77647976D01*
X167324000Y-77552738D01*
X167276380Y-77409880D01*
X167276380Y-77314642D01*
X167324000Y-77171785D01*
X167371619Y-77124166D01*
X167276380Y-76267023D02*
X167276380Y-76457500D01*
X167324000Y-76552738D01*
X167371619Y-76600357D01*
X167514476Y-76695595D01*
X167704952Y-76743214D01*
X168085904Y-76743214D01*
X168181142Y-76695595D01*
X168228761Y-76647976D01*
X168276380Y-76552738D01*
X168276380Y-76362261D01*
X168228761Y-76267023D01*
X168181142Y-76219404D01*
X168085904Y-76171785D01*
X167847809Y-76171785D01*
X167752571Y-76219404D01*
X167704952Y-76267023D01*
X167657333Y-76362261D01*
X167657333Y-76552738D01*
X167704952Y-76647976D01*
X167752571Y-76695595D01*
X167847809Y-76743214D01*
X166981333Y-71440642D02*
X166933714Y-71488261D01*
X166790857Y-71535880D01*
X166695619Y-71535880D01*
X166552761Y-71488261D01*
X166457523Y-71393023D01*
X166409904Y-71297785D01*
X166362285Y-71107309D01*
X166362285Y-70964452D01*
X166409904Y-70773976D01*
X166457523Y-70678738D01*
X166552761Y-70583500D01*
X166695619Y-70535880D01*
X166790857Y-70535880D01*
X166933714Y-70583500D01*
X166981333Y-70631119D01*
X167886095Y-70535880D02*
X167409904Y-70535880D01*
X167362285Y-71012071D01*
X167409904Y-70964452D01*
X167505142Y-70916833D01*
X167743238Y-70916833D01*
X167838476Y-70964452D01*
X167886095Y-71012071D01*
X167933714Y-71107309D01*
X167933714Y-71345404D01*
X167886095Y-71440642D01*
X167838476Y-71488261D01*
X167743238Y-71535880D01*
X167505142Y-71535880D01*
X167409904Y-71488261D01*
X167362285Y-71440642D01*
X154289333Y-74298642D02*
X154241714Y-74346261D01*
X154098857Y-74393880D01*
X154003619Y-74393880D01*
X153860761Y-74346261D01*
X153765523Y-74251023D01*
X153717904Y-74155785D01*
X153670285Y-73965309D01*
X153670285Y-73822452D01*
X153717904Y-73631976D01*
X153765523Y-73536738D01*
X153860761Y-73441500D01*
X154003619Y-73393880D01*
X154098857Y-73393880D01*
X154241714Y-73441500D01*
X154289333Y-73489119D01*
X155146476Y-73727214D02*
X155146476Y-74393880D01*
X154908380Y-73346261D02*
X154670285Y-74060547D01*
X155289333Y-74060547D01*
X165258809Y-88876190D02*
X165258809Y-89352380D01*
X164925476Y-88352380D02*
X165258809Y-88876190D01*
X165592142Y-88352380D01*
X166449285Y-89352380D02*
X165877857Y-89352380D01*
X166163571Y-89352380D02*
X166163571Y-88352380D01*
X166068333Y-88495238D01*
X165973095Y-88590476D01*
X165877857Y-88638095D01*
X163707380Y-124793333D02*
X164421666Y-124793333D01*
X164564523Y-124840952D01*
X164659761Y-124936190D01*
X164707380Y-125079047D01*
X164707380Y-125174285D01*
X163802619Y-124364761D02*
X163755000Y-124317142D01*
X163707380Y-124221904D01*
X163707380Y-123983809D01*
X163755000Y-123888571D01*
X163802619Y-123840952D01*
X163897857Y-123793333D01*
X163993095Y-123793333D01*
X164135952Y-123840952D01*
X164707380Y-124412380D01*
X164707380Y-123793333D01*
X167964326Y-56265300D02*
X167964326Y-56979586D01*
X167916707Y-57122443D01*
X167821469Y-57217681D01*
X167678612Y-57265300D01*
X167583374Y-57265300D01*
X168869088Y-56598634D02*
X168869088Y-57265300D01*
X168630993Y-56217681D02*
X168392898Y-56931967D01*
X169011945Y-56931967D01*
X173990095Y-56332380D02*
X173990095Y-55332380D01*
X173990095Y-55808571D02*
X174561523Y-55808571D01*
X174561523Y-56332380D02*
X174561523Y-55332380D01*
X174990095Y-55427619D02*
X175037714Y-55380000D01*
X175132952Y-55332380D01*
X175371047Y-55332380D01*
X175466285Y-55380000D01*
X175513904Y-55427619D01*
X175561523Y-55522857D01*
X175561523Y-55618095D01*
X175513904Y-55760952D01*
X174942476Y-56332380D01*
X175561523Y-56332380D01*
X114537695Y-107935780D02*
X114537695Y-108745304D01*
X114585314Y-108840542D01*
X114632933Y-108888161D01*
X114728171Y-108935780D01*
X114918647Y-108935780D01*
X115013885Y-108888161D01*
X115061504Y-108840542D01*
X115109123Y-108745304D01*
X115109123Y-107935780D01*
X116013885Y-107935780D02*
X115823409Y-107935780D01*
X115728171Y-107983400D01*
X115680552Y-108031019D01*
X115585314Y-108173876D01*
X115537695Y-108364352D01*
X115537695Y-108745304D01*
X115585314Y-108840542D01*
X115632933Y-108888161D01*
X115728171Y-108935780D01*
X115918647Y-108935780D01*
X116013885Y-108888161D01*
X116061504Y-108840542D01*
X116109123Y-108745304D01*
X116109123Y-108507209D01*
X116061504Y-108411971D01*
X116013885Y-108364352D01*
X115918647Y-108316733D01*
X115728171Y-108316733D01*
X115632933Y-108364352D01*
X115585314Y-108411971D01*
X115537695Y-108507209D01*
X122634285Y-91988571D02*
X122777142Y-92036190D01*
X122824761Y-92083809D01*
X122872380Y-92179047D01*
X122872380Y-92321904D01*
X122824761Y-92417142D01*
X122777142Y-92464761D01*
X122681904Y-92512380D01*
X122300952Y-92512380D01*
X122300952Y-91512380D01*
X122634285Y-91512380D01*
X122729523Y-91560000D01*
X122777142Y-91607619D01*
X122824761Y-91702857D01*
X122824761Y-91798095D01*
X122777142Y-91893333D01*
X122729523Y-91940952D01*
X122634285Y-91988571D01*
X122300952Y-91988571D01*
X123158095Y-91512380D02*
X123729523Y-91512380D01*
X123443809Y-92512380D02*
X123443809Y-91512380D01*
X124586666Y-92512380D02*
X124015238Y-92512380D01*
X124300952Y-92512380D02*
X124300952Y-91512380D01*
X124205714Y-91655238D01*
X124110476Y-91750476D01*
X124015238Y-91798095D01*
X135548571Y-111867142D02*
X136691428Y-111867142D01*
X119038571Y-111867142D02*
X120181428Y-111867142D01*
X157948571Y-99167142D02*
X159091428Y-99167142D01*
X135548571Y-99167142D02*
X136691428Y-99167142D01*
X136120000Y-99738571D02*
X136120000Y-98595714D01*
X119038571Y-99167142D02*
X120181428Y-99167142D01*
X119610000Y-99738571D02*
X119610000Y-98595714D01*
X157948571Y-111867142D02*
X159091428Y-111867142D01*
X158520000Y-112438571D02*
X158520000Y-111295714D01*
X104652380Y-100574404D02*
X105461904Y-100574404D01*
X105557142Y-100526785D01*
X105604761Y-100479166D01*
X105652380Y-100383928D01*
X105652380Y-100193452D01*
X105604761Y-100098214D01*
X105557142Y-100050595D01*
X105461904Y-100002976D01*
X104652380Y-100002976D01*
X104985714Y-99098214D02*
X105652380Y-99098214D01*
X104604761Y-99336309D02*
X105319047Y-99574404D01*
X105319047Y-98955357D01*
X127147380Y-124793333D02*
X127861666Y-124793333D01*
X128004523Y-124840952D01*
X128099761Y-124936190D01*
X128147380Y-125079047D01*
X128147380Y-125174285D01*
X127147380Y-124412380D02*
X127147380Y-123793333D01*
X127528333Y-124126666D01*
X127528333Y-123983809D01*
X127575952Y-123888571D01*
X127623571Y-123840952D01*
X127718809Y-123793333D01*
X127956904Y-123793333D01*
X128052142Y-123840952D01*
X128099761Y-123888571D01*
X128147380Y-123983809D01*
X128147380Y-124269523D01*
X128099761Y-124364761D01*
X128052142Y-124412380D01*
X103886095Y-122372380D02*
X103886095Y-121372380D01*
X103886095Y-121848571D02*
X104457523Y-121848571D01*
X104457523Y-122372380D02*
X104457523Y-121372380D01*
X104838476Y-121372380D02*
X105457523Y-121372380D01*
X105124190Y-121753333D01*
X105267047Y-121753333D01*
X105362285Y-121800952D01*
X105409904Y-121848571D01*
X105457523Y-121943809D01*
X105457523Y-122181904D01*
X105409904Y-122277142D01*
X105362285Y-122324761D01*
X105267047Y-122372380D01*
X104981333Y-122372380D01*
X104886095Y-122324761D01*
X104838476Y-122277142D01*
X154563595Y-66129880D02*
X154563595Y-66939404D01*
X154611214Y-67034642D01*
X154658833Y-67082261D01*
X154754071Y-67129880D01*
X154944547Y-67129880D01*
X155039785Y-67082261D01*
X155087404Y-67034642D01*
X155135023Y-66939404D01*
X155135023Y-66129880D01*
X156087404Y-66129880D02*
X155611214Y-66129880D01*
X155563595Y-66606071D01*
X155611214Y-66558452D01*
X155706452Y-66510833D01*
X155944547Y-66510833D01*
X156039785Y-66558452D01*
X156087404Y-66606071D01*
X156135023Y-66701309D01*
X156135023Y-66939404D01*
X156087404Y-67034642D01*
X156039785Y-67082261D01*
X155944547Y-67129880D01*
X155706452Y-67129880D01*
X155611214Y-67082261D01*
X155563595Y-67034642D01*
X148467380Y-124793333D02*
X149181666Y-124793333D01*
X149324523Y-124840952D01*
X149419761Y-124936190D01*
X149467380Y-125079047D01*
X149467380Y-125174285D01*
X149467380Y-123793333D02*
X149467380Y-124364761D01*
X149467380Y-124079047D02*
X148467380Y-124079047D01*
X148610238Y-124174285D01*
X148705476Y-124269523D01*
X148753095Y-124364761D01*
X161785714Y-61882380D02*
X161785714Y-60882380D01*
X162023809Y-60882380D01*
X162166666Y-60930000D01*
X162261904Y-61025238D01*
X162309523Y-61120476D01*
X162357142Y-61310952D01*
X162357142Y-61453809D01*
X162309523Y-61644285D01*
X162261904Y-61739523D01*
X162166666Y-61834761D01*
X162023809Y-61882380D01*
X161785714Y-61882380D01*
X162738095Y-60977619D02*
X162785714Y-60930000D01*
X162880952Y-60882380D01*
X163119047Y-60882380D01*
X163214285Y-60930000D01*
X163261904Y-60977619D01*
X163309523Y-61072857D01*
X163309523Y-61168095D01*
X163261904Y-61310952D01*
X162690476Y-61882380D01*
X163309523Y-61882380D01*
X164166666Y-60882380D02*
X163976190Y-60882380D01*
X163880952Y-60930000D01*
X163833333Y-60977619D01*
X163738095Y-61120476D01*
X163690476Y-61310952D01*
X163690476Y-61691904D01*
X163738095Y-61787142D01*
X163785714Y-61834761D01*
X163880952Y-61882380D01*
X164071428Y-61882380D01*
X164166666Y-61834761D01*
X164214285Y-61787142D01*
X164261904Y-61691904D01*
X164261904Y-61453809D01*
X164214285Y-61358571D01*
X164166666Y-61310952D01*
X164071428Y-61263333D01*
X163880952Y-61263333D01*
X163785714Y-61310952D01*
X163738095Y-61358571D01*
X163690476Y-61453809D01*
X135176095Y-84259880D02*
X135176095Y-85069404D01*
X135223714Y-85164642D01*
X135271333Y-85212261D01*
X135366571Y-85259880D01*
X135557047Y-85259880D01*
X135652285Y-85212261D01*
X135699904Y-85164642D01*
X135747523Y-85069404D01*
X135747523Y-84259880D01*
X136176095Y-84355119D02*
X136223714Y-84307500D01*
X136318952Y-84259880D01*
X136557047Y-84259880D01*
X136652285Y-84307500D01*
X136699904Y-84355119D01*
X136747523Y-84450357D01*
X136747523Y-84545595D01*
X136699904Y-84688452D01*
X136128476Y-85259880D01*
X136747523Y-85259880D01*
X111261380Y-65865333D02*
X111975666Y-65865333D01*
X112118523Y-65912952D01*
X112213761Y-66008190D01*
X112261380Y-66151047D01*
X112261380Y-66246285D01*
X111261380Y-64912952D02*
X111261380Y-65389142D01*
X111737571Y-65436761D01*
X111689952Y-65389142D01*
X111642333Y-65293904D01*
X111642333Y-65055809D01*
X111689952Y-64960571D01*
X111737571Y-64912952D01*
X111832809Y-64865333D01*
X112070904Y-64865333D01*
X112166142Y-64912952D01*
X112213761Y-64960571D01*
X112261380Y-65055809D01*
X112261380Y-65293904D01*
X112213761Y-65389142D01*
X112166142Y-65436761D01*
X156242095Y-80091880D02*
X156242095Y-80901404D01*
X156289714Y-80996642D01*
X156337333Y-81044261D01*
X156432571Y-81091880D01*
X156623047Y-81091880D01*
X156718285Y-81044261D01*
X156765904Y-80996642D01*
X156813523Y-80901404D01*
X156813523Y-80091880D01*
X157813523Y-81091880D02*
X157242095Y-81091880D01*
X157527809Y-81091880D02*
X157527809Y-80091880D01*
X157432571Y-80234738D01*
X157337333Y-80329976D01*
X157242095Y-80377595D01*
X165785714Y-59022380D02*
X165785714Y-58022380D01*
X166023809Y-58022380D01*
X166166666Y-58070000D01*
X166261904Y-58165238D01*
X166309523Y-58260476D01*
X166357142Y-58450952D01*
X166357142Y-58593809D01*
X166309523Y-58784285D01*
X166261904Y-58879523D01*
X166166666Y-58974761D01*
X166023809Y-59022380D01*
X165785714Y-59022380D01*
X166738095Y-58117619D02*
X166785714Y-58070000D01*
X166880952Y-58022380D01*
X167119047Y-58022380D01*
X167214285Y-58070000D01*
X167261904Y-58117619D01*
X167309523Y-58212857D01*
X167309523Y-58308095D01*
X167261904Y-58450952D01*
X166690476Y-59022380D01*
X167309523Y-59022380D01*
X167642857Y-58022380D02*
X168309523Y-58022380D01*
X167880952Y-59022380D01*
X103886095Y-56840380D02*
X103886095Y-55840380D01*
X103886095Y-56316571D02*
X104457523Y-56316571D01*
X104457523Y-56840380D02*
X104457523Y-55840380D01*
X105457523Y-56840380D02*
X104886095Y-56840380D01*
X105171809Y-56840380D02*
X105171809Y-55840380D01*
X105076571Y-55983238D01*
X104981333Y-56078476D01*
X104886095Y-56126095D01*
X110833333Y-116452380D02*
X110357142Y-116452380D01*
X110357142Y-115452380D01*
X111690476Y-116452380D02*
X111119047Y-116452380D01*
X111404761Y-116452380D02*
X111404761Y-115452380D01*
X111309523Y-115595238D01*
X111214285Y-115690476D01*
X111119047Y-115738095D01*
X173990095Y-122372380D02*
X173990095Y-121372380D01*
X173990095Y-121848571D02*
X174561523Y-121848571D01*
X174561523Y-122372380D02*
X174561523Y-121372380D01*
X175466285Y-121705714D02*
X175466285Y-122372380D01*
X175228190Y-121324761D02*
X174990095Y-122039047D01*
X175609142Y-122039047D01*
X124391345Y-61323380D02*
X124391345Y-62132904D01*
X124438964Y-62228142D01*
X124486583Y-62275761D01*
X124581821Y-62323380D01*
X124772297Y-62323380D01*
X124867535Y-62275761D01*
X124915154Y-62228142D01*
X124962773Y-62132904D01*
X124962773Y-61323380D01*
X125343726Y-61323380D02*
X125962773Y-61323380D01*
X125629440Y-61704333D01*
X125772297Y-61704333D01*
X125867535Y-61751952D01*
X125915154Y-61799571D01*
X125962773Y-61894809D01*
X125962773Y-62132904D01*
X125915154Y-62228142D01*
X125867535Y-62275761D01*
X125772297Y-62323380D01*
X125486583Y-62323380D01*
X125391345Y-62275761D01*
X125343726Y-62228142D01*
X148516166Y-58880261D02*
X148659023Y-58927880D01*
X148897119Y-58927880D01*
X148992357Y-58880261D01*
X149039976Y-58832642D01*
X149087595Y-58737404D01*
X149087595Y-58642166D01*
X149039976Y-58546928D01*
X148992357Y-58499309D01*
X148897119Y-58451690D01*
X148706642Y-58404071D01*
X148611404Y-58356452D01*
X148563785Y-58308833D01*
X148516166Y-58213595D01*
X148516166Y-58118357D01*
X148563785Y-58023119D01*
X148611404Y-57975500D01*
X148706642Y-57927880D01*
X148944738Y-57927880D01*
X149087595Y-57975500D01*
X149420928Y-57927880D02*
X149659023Y-58927880D01*
X149849500Y-58213595D01*
X150039976Y-58927880D01*
X150278071Y-57927880D01*
X151182833Y-58927880D02*
X150611404Y-58927880D01*
X150897119Y-58927880D02*
X150897119Y-57927880D01*
X150801880Y-58070738D01*
X150706642Y-58165976D01*
X150611404Y-58213595D01*
D11*
X120381500Y-120412742D02*
X120381500Y-120887258D01*
X121426500Y-120412742D02*
X121426500Y-120887258D01*
X145812758Y-60655000D02*
X145338242Y-60655000D01*
X145812758Y-61700000D02*
X145338242Y-61700000D01*
X153588242Y-59200000D02*
X154062758Y-59200000D01*
X153588242Y-58155000D02*
X154062758Y-58155000D01*
X128294192Y-63683500D02*
X128768708Y-63683500D01*
X128294192Y-64728500D02*
X128768708Y-64728500D01*
X148853500Y-75180242D02*
X148853500Y-75654758D01*
X149898500Y-75180242D02*
X149898500Y-75654758D01*
X149898500Y-71606758D02*
X149898500Y-71132242D01*
X148853500Y-71606758D02*
X148853500Y-71132242D01*
X159782742Y-83483500D02*
X160257258Y-83483500D01*
X159782742Y-82438500D02*
X160257258Y-82438500D01*
X165138500Y-65007258D02*
X165138500Y-64532742D01*
X164093500Y-65007258D02*
X164093500Y-64532742D01*
X163106500Y-65007258D02*
X163106500Y-64532742D01*
X162061500Y-65007258D02*
X162061500Y-64532742D01*
X119509000Y-109768080D02*
X119509000Y-109486920D01*
X118489000Y-109768080D02*
X118489000Y-109486920D01*
X112651000Y-109614580D02*
X112651000Y-109333420D01*
X111631000Y-109614580D02*
X111631000Y-109333420D01*
X112710000Y-96953080D02*
X112710000Y-96671920D01*
X111690000Y-96953080D02*
X111690000Y-96671920D01*
X107809420Y-93072500D02*
X108090580Y-93072500D01*
X107809420Y-92052500D02*
X108090580Y-92052500D01*
X158184920Y-59437500D02*
X158466080Y-59437500D01*
X158184920Y-58417500D02*
X158466080Y-58417500D01*
X128187670Y-61791000D02*
X128468830Y-61791000D01*
X128187670Y-62811000D02*
X128468830Y-62811000D01*
X137920000Y-87235420D02*
X137920000Y-87516580D01*
X138940000Y-87235420D02*
X138940000Y-87516580D01*
X140972000Y-87516580D02*
X140972000Y-87235420D01*
X139952000Y-87516580D02*
X139952000Y-87235420D01*
X121837670Y-61791000D02*
X122118830Y-61791000D01*
X121837670Y-62811000D02*
X122118830Y-62811000D01*
X159879420Y-85249000D02*
X160160580Y-85249000D01*
X159879420Y-84229000D02*
X160160580Y-84229000D01*
X156069420Y-85249000D02*
X156350580Y-85249000D01*
X156069420Y-84229000D02*
X156350580Y-84229000D01*
X164475420Y-69820000D02*
X164756580Y-69820000D01*
X164475420Y-68800000D02*
X164756580Y-68800000D01*
X154604580Y-75557500D02*
X154323420Y-75557500D01*
X154604580Y-76577500D02*
X154323420Y-76577500D01*
X160808000Y-68842080D02*
X160808000Y-68560920D01*
X159788000Y-68842080D02*
X159788000Y-68560920D01*
X165884000Y-76816920D02*
X165884000Y-77098080D01*
X166904000Y-76816920D02*
X166904000Y-77098080D01*
X167007420Y-73023500D02*
X167288580Y-73023500D01*
X167007420Y-72003500D02*
X167288580Y-72003500D01*
X154596580Y-72001500D02*
X154315420Y-72001500D01*
X154596580Y-73021500D02*
X154315420Y-73021500D01*
X151580000Y-91450000D02*
X164180000Y-91450000D01*
X164180000Y-91450000D02*
X164180000Y-86350000D01*
X164180000Y-86350000D02*
X151580000Y-86350000D01*
X152975000Y-123130000D02*
X152975000Y-125790000D01*
X160655000Y-123130000D02*
X152975000Y-123130000D01*
X160655000Y-125790000D02*
X152975000Y-125790000D01*
X163255000Y-123130000D02*
X163255000Y-124460000D01*
X160655000Y-123130000D02*
X160655000Y-125790000D01*
X161925000Y-123130000D02*
X163255000Y-123130000D01*
D12*
X163818250Y-51224000D02*
X163818250Y-50924000D01*
X171418250Y-53824000D02*
X171418250Y-53424000D01*
X163818250Y-53424000D02*
X163818250Y-53824000D01*
X171418250Y-50874000D02*
X163818250Y-50874000D01*
X171418250Y-51224000D02*
X171418250Y-50924000D01*
D13*
X169718250Y-55824000D02*
G75*
G03*
X169718250Y-55824000I-100000J0D01*
G01*
D11*
X113833000Y-110606000D02*
X113833000Y-113056000D01*
X117053000Y-112406000D02*
X117053000Y-110606000D01*
X124690000Y-115570000D02*
X137390000Y-115570000D01*
X145010000Y-105060000D02*
X145010000Y-105760000D01*
X138660000Y-96520000D02*
X157250000Y-96520000D01*
X122150000Y-93980000D02*
X122150000Y-116840000D01*
X138660000Y-100330000D02*
X137390000Y-100330000D01*
X137390000Y-115570000D02*
X137390000Y-116840000D01*
X145010000Y-105760000D02*
X122150000Y-105760000D01*
X173920000Y-93005000D02*
X120720000Y-93005000D01*
X137390000Y-116840000D02*
X157250000Y-116840000D01*
X155980000Y-114300000D02*
X137390000Y-114300000D01*
X120720000Y-117815000D02*
X173920000Y-117815000D01*
X138660000Y-101600000D02*
X138660000Y-100330000D01*
X173920000Y-117810000D02*
X173920000Y-93010000D01*
X124690000Y-95250000D02*
X124690000Y-93980000D01*
X169950000Y-116840000D02*
X169950000Y-115570000D01*
X172490000Y-105060000D02*
X152170000Y-105060000D01*
X172490000Y-93980000D02*
X169950000Y-93980000D01*
X152170000Y-105760000D02*
X172490000Y-105760000D01*
X157250000Y-110490000D02*
X157250000Y-113030000D01*
X169950000Y-95250000D02*
X157250000Y-95250000D01*
X124690000Y-116840000D02*
X124690000Y-115570000D01*
X155980000Y-109220000D02*
X155980000Y-110490000D01*
X124690000Y-93980000D02*
X122150000Y-93980000D01*
X169950000Y-93980000D02*
X169950000Y-95250000D01*
X138660000Y-97790000D02*
X138660000Y-96520000D01*
X122150000Y-116840000D02*
X124690000Y-116840000D01*
X124690000Y-95250000D02*
X137390000Y-95250000D01*
X137390000Y-109220000D02*
X155980000Y-109220000D01*
X155980000Y-110490000D02*
X157250000Y-110490000D01*
X137390000Y-93980000D02*
X137390000Y-95250000D01*
X157250000Y-95250000D02*
X157250000Y-93980000D01*
X157250000Y-93980000D02*
X137390000Y-93980000D01*
X157250000Y-96520000D02*
X157250000Y-101600000D01*
X172490000Y-93980000D02*
X172490000Y-116840000D01*
X152170000Y-105060000D02*
X152170000Y-105760000D01*
X137390000Y-100330000D02*
X137390000Y-97790000D01*
X122150000Y-105060000D02*
X145010000Y-105060000D01*
X169950000Y-115570000D02*
X157250000Y-115570000D01*
X157250000Y-113030000D02*
X155980000Y-113030000D01*
X137390000Y-114300000D02*
X137390000Y-109220000D01*
X172490000Y-116840000D02*
X169950000Y-116840000D01*
X157250000Y-101600000D02*
X138660000Y-101600000D01*
X157250000Y-116840000D02*
X157250000Y-115570000D01*
X120720000Y-93010000D02*
X120720000Y-117810000D01*
X137390000Y-97790000D02*
X138660000Y-97790000D01*
X155980000Y-113030000D02*
X155980000Y-114300000D01*
X106340000Y-98972500D02*
X106340000Y-96252500D01*
X106340000Y-96252500D02*
X106570000Y-96252500D01*
X111060000Y-96252500D02*
X111060000Y-98972500D01*
X111060000Y-98972500D02*
X109750000Y-98972500D01*
X107650000Y-98972500D02*
X106340000Y-98972500D01*
X111060000Y-96252500D02*
X110830000Y-96252500D01*
X110830000Y-95112500D02*
X110830000Y-96252500D01*
X124095000Y-123130000D02*
X118955000Y-123130000D01*
X125365000Y-123130000D02*
X126695000Y-123130000D01*
X118955000Y-123130000D02*
X118955000Y-125790000D01*
X124095000Y-125790000D02*
X118955000Y-125790000D01*
X126695000Y-123130000D02*
X126695000Y-124460000D01*
X124095000Y-123130000D02*
X124095000Y-125790000D01*
X153575500Y-60202500D02*
X156300500Y-60202500D01*
X150850500Y-60462500D02*
X149175500Y-60462500D01*
X156300500Y-65652500D02*
X156300500Y-65392500D01*
X156300500Y-60202500D02*
X156300500Y-60462500D01*
X153575500Y-60202500D02*
X150850500Y-60202500D01*
X153575500Y-65652500D02*
X150850500Y-65652500D01*
X150850500Y-60202500D02*
X150850500Y-60462500D01*
X150850500Y-65652500D02*
X150850500Y-65392500D01*
X153575500Y-65652500D02*
X156300500Y-65652500D01*
X145415000Y-123130000D02*
X145415000Y-125790000D01*
X145415000Y-123130000D02*
X132655000Y-123130000D01*
X148015000Y-123130000D02*
X148015000Y-124460000D01*
X132655000Y-123130000D02*
X132655000Y-125790000D01*
X146685000Y-123130000D02*
X148015000Y-123130000D01*
X145415000Y-125790000D02*
X132655000Y-125790000D01*
X164660000Y-59265000D02*
X162200000Y-59265000D01*
X162200000Y-60735000D02*
X164660000Y-60735000D01*
X164660000Y-60735000D02*
X164660000Y-59265000D01*
D14*
X140538000Y-85170000D02*
X139818000Y-85170000D01*
X140538000Y-84950000D02*
X140538000Y-85170000D01*
X140538000Y-82470000D02*
X140538000Y-82690000D01*
X137338000Y-85170000D02*
X137338000Y-84950000D01*
X137338000Y-85170000D02*
X138058000Y-85170000D01*
X139818000Y-82470000D02*
X140538000Y-82470000D01*
X137238000Y-82470000D02*
X138058000Y-82470000D01*
D11*
X108209000Y-64202000D02*
X105609000Y-64202000D01*
X108209000Y-64202000D02*
X108209000Y-66862000D01*
X108209000Y-66862000D02*
X105609000Y-66862000D01*
X109479000Y-64202000D02*
X110809000Y-64202000D01*
X110809000Y-64202000D02*
X110809000Y-65532000D01*
X105609000Y-64202000D02*
X105609000Y-66862000D01*
X164831000Y-79204500D02*
X164831000Y-78179500D01*
X157806000Y-71154500D02*
X156493500Y-71154500D01*
X157806000Y-79204500D02*
X156781000Y-79204500D01*
X156781000Y-79204500D02*
X156781000Y-78179500D01*
X163806000Y-71154500D02*
X164831000Y-71154500D01*
X163806000Y-79204500D02*
X164831000Y-79204500D01*
X164831000Y-71154500D02*
X164831000Y-72179500D01*
X165340000Y-60735000D02*
X167800000Y-60735000D01*
X165340000Y-59265000D02*
X165340000Y-60735000D01*
X167800000Y-59265000D02*
X165340000Y-59265000D01*
X124253250Y-62671000D02*
X125803250Y-62671000D01*
X125803250Y-64471000D02*
X124503250Y-64471000D01*
X145048900Y-57510300D02*
X151602100Y-57510300D01*
X145048900Y-53344700D02*
X145048900Y-54815360D01*
X151602100Y-54815360D02*
X151602100Y-53344700D01*
X151602100Y-57510300D02*
X151602100Y-56039640D01*
X145048900Y-56039640D02*
X145048900Y-57510300D01*
X151602100Y-53344700D02*
X145048900Y-53344700D01*
%LPC*%
D15*
X120904000Y-119825000D03*
X120904000Y-121475000D03*
D16*
X146400500Y-61177500D03*
X144750500Y-61177500D03*
D17*
X153000500Y-58677500D03*
X154650500Y-58677500D03*
X129356450Y-64206000D03*
X127706450Y-64206000D03*
D15*
X149376000Y-74592500D03*
X149376000Y-76242500D03*
D18*
X149376000Y-72194500D03*
X149376000Y-70544500D03*
D17*
X159195000Y-82961000D03*
X160845000Y-82961000D03*
D18*
X164616000Y-65595000D03*
X164616000Y-63945000D03*
X162584000Y-65595000D03*
X162584000Y-63945000D03*
D19*
X118999000Y-110402500D03*
X118999000Y-108852500D03*
X112141000Y-110249000D03*
X112141000Y-108699000D03*
X112200000Y-97587500D03*
X112200000Y-96037500D03*
D20*
X107175000Y-92562500D03*
X108725000Y-92562500D03*
X157550500Y-58927500D03*
X159100500Y-58927500D03*
X129103250Y-62301000D03*
X127553250Y-62301000D03*
D21*
X138430000Y-86601000D03*
X138430000Y-88151000D03*
D19*
X140462000Y-88151000D03*
X140462000Y-86601000D03*
D20*
X122753250Y-62301000D03*
X121203250Y-62301000D03*
X159245000Y-84739000D03*
X160795000Y-84739000D03*
X155435000Y-84739000D03*
X156985000Y-84739000D03*
X163841000Y-69310000D03*
X165391000Y-69310000D03*
D22*
X155239000Y-76067500D03*
X153689000Y-76067500D03*
D19*
X160298000Y-69476500D03*
X160298000Y-67926500D03*
D21*
X166394000Y-76182500D03*
X166394000Y-77732500D03*
D20*
X166373000Y-72513500D03*
X167923000Y-72513500D03*
D22*
X155231000Y-72511500D03*
X153681000Y-72511500D03*
D23*
X161730000Y-88900000D03*
X153230000Y-88900000D03*
D24*
X161925000Y-124460000D03*
D25*
X159385000Y-124460000D03*
X156845000Y-124460000D03*
X154305000Y-124460000D03*
D26*
X164318250Y-52324000D03*
X170918250Y-52324000D03*
D27*
X168918250Y-54999000D03*
X168268250Y-54999000D03*
X167618250Y-54999000D03*
X166968250Y-54999000D03*
X166318250Y-54999000D03*
D28*
X166418250Y-52324000D03*
D29*
X164318250Y-52324000D03*
D30*
X164418250Y-54774000D03*
D29*
X170918250Y-52324000D03*
D28*
X168818250Y-52324000D03*
D30*
X170818250Y-54774000D03*
D31*
X174752000Y-53848000D03*
D32*
X114493000Y-112856000D03*
X115443000Y-112856000D03*
X116393000Y-112856000D03*
X116393000Y-110156000D03*
X114493000Y-110156000D03*
D33*
X162030000Y-107760000D03*
D34*
X123420000Y-99060000D03*
D35*
X123420000Y-111760000D03*
D36*
X110200000Y-95162500D03*
D37*
X108700000Y-95250000D03*
D36*
X107200000Y-95162500D03*
D25*
X125365000Y-124460000D03*
D24*
X122825000Y-124460000D03*
D25*
X120285000Y-124460000D03*
D31*
X104648000Y-123952000D03*
D38*
X157175500Y-61022500D03*
X157175500Y-62292500D03*
X157175500Y-63562500D03*
X157175500Y-64832500D03*
X149975500Y-64832500D03*
X149975500Y-63562500D03*
X149975500Y-62292500D03*
X149975500Y-61022500D03*
D25*
X146685000Y-124460000D03*
X144145000Y-124460000D03*
X141605000Y-124460000D03*
X139065000Y-124460000D03*
X136525000Y-124460000D03*
X133985000Y-124460000D03*
D39*
X163875000Y-60000000D03*
X162125000Y-60000000D03*
D40*
X137675500Y-83070000D03*
X137675500Y-83570000D03*
X137675500Y-84070000D03*
X137675500Y-84570000D03*
D41*
X138438000Y-84832500D03*
X138938000Y-84832500D03*
X139438000Y-84832500D03*
D40*
X140200500Y-84570000D03*
X140200500Y-84070000D03*
X140200500Y-83570000D03*
X140200500Y-83070000D03*
D41*
X139438000Y-82807500D03*
X138938000Y-82807500D03*
X138438000Y-82807500D03*
D24*
X109479000Y-65532000D03*
D25*
X106939000Y-65532000D03*
D42*
X157368500Y-72579500D03*
X157368500Y-72979500D03*
X157368500Y-73379500D03*
X157368500Y-73779500D03*
X157368500Y-74179500D03*
X157368500Y-74579500D03*
X157368500Y-74979500D03*
X157368500Y-75379500D03*
X157368500Y-75779500D03*
X157368500Y-76179500D03*
X157368500Y-76579500D03*
X157368500Y-76979500D03*
X157368500Y-77379500D03*
X157368500Y-77779500D03*
D43*
X158206000Y-78617000D03*
X158606000Y-78617000D03*
X159006000Y-78617000D03*
X159406000Y-78617000D03*
X159806000Y-78617000D03*
X160206000Y-78617000D03*
X160606000Y-78617000D03*
X161006000Y-78617000D03*
X161406000Y-78617000D03*
X161806000Y-78617000D03*
X162206000Y-78617000D03*
X162606000Y-78617000D03*
X163006000Y-78617000D03*
X163406000Y-78617000D03*
D42*
X164243500Y-77779500D03*
X164243500Y-77379500D03*
X164243500Y-76979500D03*
X164243500Y-76579500D03*
X164243500Y-76179500D03*
X164243500Y-75779500D03*
X164243500Y-75379500D03*
X164243500Y-74979500D03*
X164243500Y-74579500D03*
X164243500Y-74179500D03*
X164243500Y-73779500D03*
X164243500Y-73379500D03*
X164243500Y-72979500D03*
X164243500Y-72579500D03*
D43*
X163406000Y-71742000D03*
X163006000Y-71742000D03*
X162606000Y-71742000D03*
X162206000Y-71742000D03*
X161806000Y-71742000D03*
X161406000Y-71742000D03*
X161006000Y-71742000D03*
X160606000Y-71742000D03*
X160206000Y-71742000D03*
X159806000Y-71742000D03*
X159406000Y-71742000D03*
X159006000Y-71742000D03*
X158606000Y-71742000D03*
X158206000Y-71742000D03*
D44*
X160806000Y-75179500D03*
D45*
X166125000Y-60000000D03*
X167875000Y-60000000D03*
D31*
X104648000Y-53848000D03*
D46*
X116963600Y-116484400D03*
X113363600Y-116484400D03*
D31*
X174752000Y-123952000D03*
D47*
X125903250Y-63071000D03*
X125903250Y-63571000D03*
X125903250Y-64071000D03*
X124403250Y-64071000D03*
X124403250Y-63571000D03*
X124403250Y-63071000D03*
D48*
X145024800Y-55427500D03*
X151626200Y-55427500D03*
M02*
