G04 #@! TF.GenerationSoftware,KiCad,Pcbnew,(6.0.5)*
G04 #@! TF.CreationDate,2023-05-13T13:21:23-04:00*
G04 #@! TF.ProjectId,control_board,636f6e74-726f-46c5-9f62-6f6172642e6b,rev?*
G04 #@! TF.SameCoordinates,Original*
G04 #@! TF.FileFunction,Copper,L3,Inr*
G04 #@! TF.FilePolarity,Positive*
%FSLAX46Y46*%
G04 Gerber Fmt 4.6, Leading zero omitted, Abs format (unit mm)*
G04 Created by KiCad (PCBNEW (6.0.5)) date 2023-05-13 13:21:23*
%MOMM*%
%LPD*%
G01*
G04 APERTURE LIST*
G04 #@! TA.AperFunction,ComponentPad*
%ADD10R,1.700000X1.700000*%
G04 #@! TD*
G04 #@! TA.AperFunction,ComponentPad*
%ADD11O,1.700000X1.700000*%
G04 #@! TD*
G04 #@! TA.AperFunction,ComponentPad*
%ADD12O,0.900000X1.800000*%
G04 #@! TD*
G04 #@! TA.AperFunction,ComponentPad*
%ADD13R,2.000000X2.000000*%
G04 #@! TD*
G04 #@! TA.AperFunction,ComponentPad*
%ADD14C,2.000000*%
G04 #@! TD*
G04 #@! TA.AperFunction,ViaPad*
%ADD15C,0.600000*%
G04 #@! TD*
G04 APERTURE END LIST*
D10*
X161925000Y-124460000D03*
D11*
X159385000Y-124460000D03*
X156845000Y-124460000D03*
X154305000Y-124460000D03*
D12*
X164318250Y-52324000D03*
X170918250Y-52324000D03*
D13*
X123420000Y-99060000D03*
D14*
X123420000Y-111760000D03*
D11*
X125365000Y-124460000D03*
D10*
X122825000Y-124460000D03*
D11*
X120285000Y-124460000D03*
X146685000Y-124460000D03*
X144145000Y-124460000D03*
X141605000Y-124460000D03*
X139065000Y-124460000D03*
X136525000Y-124460000D03*
X133985000Y-124460000D03*
D10*
X109479000Y-65532000D03*
D11*
X106939000Y-65532000D03*
D15*
X176530000Y-58420000D03*
X152400000Y-61595000D03*
X163195000Y-57150000D03*
X147955000Y-56515000D03*
X135255000Y-60325000D03*
X133350000Y-56515000D03*
X120650000Y-60325000D03*
X118110000Y-57150000D03*
X107315000Y-61595000D03*
X118110000Y-72390000D03*
X108585000Y-74930000D03*
X108585000Y-90170000D03*
X118110000Y-86995000D03*
X121920000Y-89535000D03*
X132715000Y-86995000D03*
X146685000Y-88265000D03*
X138430000Y-90805000D03*
X168910000Y-83820000D03*
X158750000Y-81915000D03*
X153405255Y-90982193D03*
X168910000Y-90170000D03*
X168910000Y-100965000D03*
X167005000Y-106680000D03*
X160020000Y-98425000D03*
X152400000Y-106680000D03*
X145415000Y-100965000D03*
X137160000Y-106680000D03*
X121920000Y-106680000D03*
X130175000Y-99695000D03*
X117475000Y-102235000D03*
X105410000Y-105410000D03*
X106680000Y-121920000D03*
X117475000Y-119380000D03*
X132715000Y-116840000D03*
X123825000Y-120650000D03*
X135890000Y-120015000D03*
X147320000Y-117475000D03*
X162560000Y-117475000D03*
X153670000Y-120650000D03*
X168910000Y-120650000D03*
X176530000Y-118745000D03*
X144780000Y-95885000D03*
X105410000Y-79375000D03*
X106680000Y-79375000D03*
X106680000Y-78105000D03*
X105410000Y-78105000D03*
X173990000Y-84455000D03*
X161925000Y-90805000D03*
X155575000Y-90874002D03*
X174040800Y-105562400D03*
X164033200Y-112725200D03*
X150418800Y-121920000D03*
X166319200Y-112572800D03*
X113334800Y-124663200D03*
X135229600Y-120751600D03*
X174498000Y-87833200D03*
X154940000Y-95250000D03*
X144881600Y-94386400D03*
X124917200Y-95250000D03*
X109728000Y-102412800D03*
X117551200Y-97637600D03*
X167640000Y-99923600D03*
X174193200Y-75438000D03*
X162763200Y-95453200D03*
X144729200Y-97180400D03*
X109220000Y-87426800D03*
X154940000Y-96875600D03*
X145948400Y-66192400D03*
X125018800Y-67310000D03*
X115417600Y-69342000D03*
X109524800Y-69291200D03*
X166014400Y-100634800D03*
X165506400Y-86360000D03*
X165862000Y-96062800D03*
X166827200Y-82296000D03*
X164084000Y-123190000D03*
X108762800Y-62738000D03*
X121361200Y-65938400D03*
X113792000Y-62738000D03*
X144475200Y-91024500D03*
X154305000Y-90349502D03*
X159867600Y-87020400D03*
X165912800Y-79197200D03*
X154940000Y-105410000D03*
X149860000Y-85090000D03*
X147320000Y-85090000D03*
X140970000Y-81280000D03*
X135890000Y-82550000D03*
X165608000Y-56350498D03*
X160298000Y-70607500D03*
X161568000Y-79724000D03*
X153529980Y-83723000D03*
X138938000Y-83820000D03*
X130429000Y-62357000D03*
X168000000Y-62000000D03*
X153567000Y-71342000D03*
X160529261Y-59411654D03*
X161441000Y-67024000D03*
X169315000Y-72612000D03*
X152948500Y-77057000D03*
X167156000Y-79216000D03*
X165174000Y-84739000D03*
X112141000Y-94742000D03*
X139446000Y-87630000D03*
X166648000Y-69310000D03*
X159155000Y-67786000D03*
X112141000Y-111633000D03*
X149503000Y-65627000D03*
X123063000Y-63500000D03*
X119761000Y-62230000D03*
X110236000Y-91948000D03*
X153948000Y-77057000D03*
X155000000Y-61000000D03*
X148487000Y-77946000D03*
X111760000Y-100330000D03*
X163130500Y-70607500D03*
X164108000Y-70580000D03*
X139446000Y-86614000D03*
X130937000Y-64135000D03*
X165130149Y-76559841D03*
X113030000Y-100330000D03*
X113030000Y-99060000D03*
X155345000Y-71342000D03*
X111760000Y-99060000D03*
X124079000Y-61722000D03*
X159155000Y-69437000D03*
X166267000Y-71342000D03*
X150495000Y-70485000D03*
X140081000Y-82169000D03*
X160719678Y-79764678D03*
X158520000Y-76703500D03*
X158520000Y-75687500D03*
X144018000Y-84226400D03*
X158547243Y-73988938D03*
X157480000Y-68580000D03*
X159925500Y-72833500D03*
X119380000Y-115000000D03*
X117475000Y-108712000D03*
X118250000Y-117650980D03*
X116459000Y-108712000D03*
X119380000Y-117650980D03*
X118250000Y-115000000D03*
G04 #@! TA.AperFunction,Conductor*
G36*
X163935649Y-51070502D02*
G01*
X163982142Y-51124158D01*
X163992246Y-51194432D01*
X163962752Y-51259012D01*
X163933989Y-51281642D01*
X163934653Y-51282620D01*
X163928366Y-51286892D01*
X163921619Y-51290375D01*
X163793854Y-51401831D01*
X163696363Y-51540547D01*
X163634774Y-51698513D01*
X163617750Y-51827826D01*
X163617750Y-52816516D01*
X163632974Y-52942320D01*
X163692905Y-53100923D01*
X163697206Y-53107181D01*
X163757746Y-53195266D01*
X163788938Y-53240651D01*
X163794608Y-53245703D01*
X163794609Y-53245704D01*
X163909858Y-53348388D01*
X163909862Y-53348390D01*
X163915529Y-53353440D01*
X164065369Y-53432776D01*
X164229809Y-53474081D01*
X164237407Y-53474121D01*
X164237409Y-53474121D01*
X164314582Y-53474525D01*
X164399355Y-53474969D01*
X164406742Y-53473195D01*
X164406746Y-53473195D01*
X164556833Y-53437161D01*
X164564218Y-53435388D01*
X164570962Y-53431907D01*
X164570965Y-53431906D01*
X164708133Y-53361108D01*
X164708134Y-53361108D01*
X164714881Y-53357625D01*
X164842646Y-53246169D01*
X164940137Y-53107453D01*
X165001726Y-52949487D01*
X165018750Y-52820174D01*
X165018750Y-51831484D01*
X165003526Y-51705680D01*
X164943595Y-51547077D01*
X164847562Y-51407349D01*
X164835764Y-51396837D01*
X164726642Y-51299612D01*
X164726638Y-51299610D01*
X164720971Y-51294560D01*
X164714266Y-51291010D01*
X164714256Y-51291003D01*
X164708309Y-51287855D01*
X164657465Y-51238303D01*
X164641482Y-51169129D01*
X164665435Y-51102295D01*
X164721718Y-51059021D01*
X164767266Y-51050500D01*
X170467528Y-51050500D01*
X170535649Y-51070502D01*
X170582142Y-51124158D01*
X170592246Y-51194432D01*
X170562752Y-51259012D01*
X170533989Y-51281642D01*
X170534653Y-51282620D01*
X170528366Y-51286892D01*
X170521619Y-51290375D01*
X170393854Y-51401831D01*
X170296363Y-51540547D01*
X170234774Y-51698513D01*
X170217750Y-51827826D01*
X170217750Y-52816516D01*
X170232974Y-52942320D01*
X170292905Y-53100923D01*
X170297206Y-53107181D01*
X170357746Y-53195266D01*
X170388938Y-53240651D01*
X170394608Y-53245703D01*
X170394609Y-53245704D01*
X170509858Y-53348388D01*
X170509862Y-53348390D01*
X170515529Y-53353440D01*
X170665369Y-53432776D01*
X170829809Y-53474081D01*
X170837407Y-53474121D01*
X170837409Y-53474121D01*
X170914582Y-53474525D01*
X170999355Y-53474969D01*
X171006742Y-53473195D01*
X171006746Y-53473195D01*
X171156833Y-53437161D01*
X171164218Y-53435388D01*
X171170962Y-53431907D01*
X171170965Y-53431906D01*
X171308133Y-53361108D01*
X171308134Y-53361108D01*
X171314881Y-53357625D01*
X171442646Y-53246169D01*
X171540137Y-53107453D01*
X171601726Y-52949487D01*
X171618750Y-52820174D01*
X171618750Y-51831484D01*
X171603526Y-51705680D01*
X171543595Y-51547077D01*
X171447562Y-51407349D01*
X171435764Y-51396837D01*
X171326642Y-51299612D01*
X171326638Y-51299610D01*
X171320971Y-51294560D01*
X171314266Y-51291010D01*
X171314256Y-51291003D01*
X171308309Y-51287855D01*
X171257465Y-51238303D01*
X171241482Y-51169129D01*
X171265435Y-51102295D01*
X171321718Y-51059021D01*
X171367266Y-51050500D01*
X177423500Y-51050500D01*
X177491621Y-51070502D01*
X177538114Y-51124158D01*
X177549500Y-51176500D01*
X177549500Y-126623500D01*
X177529498Y-126691621D01*
X177475842Y-126738114D01*
X177423500Y-126749500D01*
X101976500Y-126749500D01*
X101908379Y-126729498D01*
X101861886Y-126675842D01*
X101850500Y-126623500D01*
X101850500Y-123952000D01*
X103342532Y-123952000D01*
X103362365Y-124178692D01*
X103421261Y-124398496D01*
X103423583Y-124403476D01*
X103423584Y-124403478D01*
X103478627Y-124521516D01*
X103517432Y-124604734D01*
X103647953Y-124791139D01*
X103808861Y-124952047D01*
X103995266Y-125082568D01*
X104000244Y-125084889D01*
X104000247Y-125084891D01*
X104189325Y-125173060D01*
X104201504Y-125178739D01*
X104206812Y-125180161D01*
X104206814Y-125180162D01*
X104415993Y-125236211D01*
X104415995Y-125236211D01*
X104421308Y-125237635D01*
X104507674Y-125245191D01*
X104588492Y-125252262D01*
X104588499Y-125252262D01*
X104591216Y-125252500D01*
X104704784Y-125252500D01*
X104707501Y-125252262D01*
X104707508Y-125252262D01*
X104788326Y-125245191D01*
X104874692Y-125237635D01*
X104880005Y-125236211D01*
X104880007Y-125236211D01*
X105089186Y-125180162D01*
X105089188Y-125180161D01*
X105094496Y-125178739D01*
X105106675Y-125173060D01*
X105295753Y-125084891D01*
X105295756Y-125084889D01*
X105300734Y-125082568D01*
X105487139Y-124952047D01*
X105648047Y-124791139D01*
X105737630Y-124663200D01*
X112779550Y-124663200D01*
X112798470Y-124806909D01*
X112853939Y-124940825D01*
X112942179Y-125055821D01*
X113057175Y-125144061D01*
X113191091Y-125199530D01*
X113334800Y-125218450D01*
X113478509Y-125199530D01*
X113612425Y-125144061D01*
X113727421Y-125055821D01*
X113815661Y-124940825D01*
X113871130Y-124806909D01*
X113890050Y-124663200D01*
X113871130Y-124519491D01*
X113834505Y-124431069D01*
X119180164Y-124431069D01*
X119193392Y-124632894D01*
X119243178Y-124828928D01*
X119327856Y-125012607D01*
X119331189Y-125017323D01*
X119375070Y-125079413D01*
X119444588Y-125177780D01*
X119589466Y-125318913D01*
X119757637Y-125431282D01*
X119762940Y-125433560D01*
X119762943Y-125433562D01*
X119938163Y-125508842D01*
X119943470Y-125511122D01*
X120140740Y-125555760D01*
X120146509Y-125555987D01*
X120146512Y-125555987D01*
X120222683Y-125558979D01*
X120342842Y-125563700D01*
X120429132Y-125551189D01*
X120537286Y-125535508D01*
X120537291Y-125535507D01*
X120543007Y-125534678D01*
X120548479Y-125532820D01*
X120548481Y-125532820D01*
X120729067Y-125471519D01*
X120729069Y-125471518D01*
X120734531Y-125469664D01*
X120911001Y-125370837D01*
X120954482Y-125334674D01*
X121724500Y-125334674D01*
X121739034Y-125407740D01*
X121794399Y-125490601D01*
X121877260Y-125545966D01*
X121950326Y-125560500D01*
X123699674Y-125560500D01*
X123772740Y-125545966D01*
X123855601Y-125490601D01*
X123910966Y-125407740D01*
X123925500Y-125334674D01*
X123925500Y-124431069D01*
X124260164Y-124431069D01*
X124273392Y-124632894D01*
X124323178Y-124828928D01*
X124407856Y-125012607D01*
X124411189Y-125017323D01*
X124455070Y-125079413D01*
X124524588Y-125177780D01*
X124669466Y-125318913D01*
X124837637Y-125431282D01*
X124842940Y-125433560D01*
X124842943Y-125433562D01*
X125018163Y-125508842D01*
X125023470Y-125511122D01*
X125220740Y-125555760D01*
X125226509Y-125555987D01*
X125226512Y-125555987D01*
X125302683Y-125558979D01*
X125422842Y-125563700D01*
X125509132Y-125551189D01*
X125617286Y-125535508D01*
X125617291Y-125535507D01*
X125623007Y-125534678D01*
X125628479Y-125532820D01*
X125628481Y-125532820D01*
X125809067Y-125471519D01*
X125809069Y-125471518D01*
X125814531Y-125469664D01*
X125991001Y-125370837D01*
X126053433Y-125318913D01*
X126142073Y-125245191D01*
X126146505Y-125241505D01*
X126275837Y-125086001D01*
X126279527Y-125079413D01*
X126353469Y-124947378D01*
X126374664Y-124909531D01*
X126412280Y-124798720D01*
X126437820Y-124723481D01*
X126437820Y-124723479D01*
X126439678Y-124718007D01*
X126440507Y-124712291D01*
X126440508Y-124712286D01*
X126457809Y-124592956D01*
X126468700Y-124517842D01*
X126470215Y-124460000D01*
X126467557Y-124431069D01*
X132880164Y-124431069D01*
X132893392Y-124632894D01*
X132943178Y-124828928D01*
X133027856Y-125012607D01*
X133031189Y-125017323D01*
X133075070Y-125079413D01*
X133144588Y-125177780D01*
X133289466Y-125318913D01*
X133457637Y-125431282D01*
X133462940Y-125433560D01*
X133462943Y-125433562D01*
X133638163Y-125508842D01*
X133643470Y-125511122D01*
X133840740Y-125555760D01*
X133846509Y-125555987D01*
X133846512Y-125555987D01*
X133922683Y-125558979D01*
X134042842Y-125563700D01*
X134129132Y-125551189D01*
X134237286Y-125535508D01*
X134237291Y-125535507D01*
X134243007Y-125534678D01*
X134248479Y-125532820D01*
X134248481Y-125532820D01*
X134429067Y-125471519D01*
X134429069Y-125471518D01*
X134434531Y-125469664D01*
X134611001Y-125370837D01*
X134673433Y-125318913D01*
X134762073Y-125245191D01*
X134766505Y-125241505D01*
X134895837Y-125086001D01*
X134899527Y-125079413D01*
X134973469Y-124947378D01*
X134994664Y-124909531D01*
X135032280Y-124798720D01*
X135057820Y-124723481D01*
X135057820Y-124723479D01*
X135059678Y-124718007D01*
X135060507Y-124712291D01*
X135060508Y-124712286D01*
X135077809Y-124592956D01*
X135088700Y-124517842D01*
X135090215Y-124460000D01*
X135087557Y-124431069D01*
X135420164Y-124431069D01*
X135433392Y-124632894D01*
X135483178Y-124828928D01*
X135567856Y-125012607D01*
X135571189Y-125017323D01*
X135615070Y-125079413D01*
X135684588Y-125177780D01*
X135829466Y-125318913D01*
X135997637Y-125431282D01*
X136002940Y-125433560D01*
X136002943Y-125433562D01*
X136178163Y-125508842D01*
X136183470Y-125511122D01*
X136380740Y-125555760D01*
X136386509Y-125555987D01*
X136386512Y-125555987D01*
X136462683Y-125558979D01*
X136582842Y-125563700D01*
X136669132Y-125551189D01*
X136777286Y-125535508D01*
X136777291Y-125535507D01*
X136783007Y-125534678D01*
X136788479Y-125532820D01*
X136788481Y-125532820D01*
X136969067Y-125471519D01*
X136969069Y-125471518D01*
X136974531Y-125469664D01*
X137151001Y-125370837D01*
X137213433Y-125318913D01*
X137302073Y-125245191D01*
X137306505Y-125241505D01*
X137435837Y-125086001D01*
X137439527Y-125079413D01*
X137513469Y-124947378D01*
X137534664Y-124909531D01*
X137572280Y-124798720D01*
X137597820Y-124723481D01*
X137597820Y-124723479D01*
X137599678Y-124718007D01*
X137600507Y-124712291D01*
X137600508Y-124712286D01*
X137617809Y-124592956D01*
X137628700Y-124517842D01*
X137630215Y-124460000D01*
X137627557Y-124431069D01*
X137960164Y-124431069D01*
X137973392Y-124632894D01*
X138023178Y-124828928D01*
X138107856Y-125012607D01*
X138111189Y-125017323D01*
X138155070Y-125079413D01*
X138224588Y-125177780D01*
X138369466Y-125318913D01*
X138537637Y-125431282D01*
X138542940Y-125433560D01*
X138542943Y-125433562D01*
X138718163Y-125508842D01*
X138723470Y-125511122D01*
X138920740Y-125555760D01*
X138926509Y-125555987D01*
X138926512Y-125555987D01*
X139002683Y-125558979D01*
X139122842Y-125563700D01*
X139209132Y-125551189D01*
X139317286Y-125535508D01*
X139317291Y-125535507D01*
X139323007Y-125534678D01*
X139328479Y-125532820D01*
X139328481Y-125532820D01*
X139509067Y-125471519D01*
X139509069Y-125471518D01*
X139514531Y-125469664D01*
X139691001Y-125370837D01*
X139753433Y-125318913D01*
X139842073Y-125245191D01*
X139846505Y-125241505D01*
X139975837Y-125086001D01*
X139979527Y-125079413D01*
X140053469Y-124947378D01*
X140074664Y-124909531D01*
X140112280Y-124798720D01*
X140137820Y-124723481D01*
X140137820Y-124723479D01*
X140139678Y-124718007D01*
X140140507Y-124712291D01*
X140140508Y-124712286D01*
X140157809Y-124592956D01*
X140168700Y-124517842D01*
X140170215Y-124460000D01*
X140167557Y-124431069D01*
X140500164Y-124431069D01*
X140513392Y-124632894D01*
X140563178Y-124828928D01*
X140647856Y-125012607D01*
X140651189Y-125017323D01*
X140695070Y-125079413D01*
X140764588Y-125177780D01*
X140909466Y-125318913D01*
X141077637Y-125431282D01*
X141082940Y-125433560D01*
X141082943Y-125433562D01*
X141258163Y-125508842D01*
X141263470Y-125511122D01*
X141460740Y-125555760D01*
X141466509Y-125555987D01*
X141466512Y-125555987D01*
X141542683Y-125558979D01*
X141662842Y-125563700D01*
X141749132Y-125551189D01*
X141857286Y-125535508D01*
X141857291Y-125535507D01*
X141863007Y-125534678D01*
X141868479Y-125532820D01*
X141868481Y-125532820D01*
X142049067Y-125471519D01*
X142049069Y-125471518D01*
X142054531Y-125469664D01*
X142231001Y-125370837D01*
X142293433Y-125318913D01*
X142382073Y-125245191D01*
X142386505Y-125241505D01*
X142515837Y-125086001D01*
X142519527Y-125079413D01*
X142593469Y-124947378D01*
X142614664Y-124909531D01*
X142652280Y-124798720D01*
X142677820Y-124723481D01*
X142677820Y-124723479D01*
X142679678Y-124718007D01*
X142680507Y-124712291D01*
X142680508Y-124712286D01*
X142697809Y-124592956D01*
X142708700Y-124517842D01*
X142710215Y-124460000D01*
X142707557Y-124431069D01*
X143040164Y-124431069D01*
X143053392Y-124632894D01*
X143103178Y-124828928D01*
X143187856Y-125012607D01*
X143191189Y-125017323D01*
X143235070Y-125079413D01*
X143304588Y-125177780D01*
X143449466Y-125318913D01*
X143617637Y-125431282D01*
X143622940Y-125433560D01*
X143622943Y-125433562D01*
X143798163Y-125508842D01*
X143803470Y-125511122D01*
X144000740Y-125555760D01*
X144006509Y-125555987D01*
X144006512Y-125555987D01*
X144082683Y-125558979D01*
X144202842Y-125563700D01*
X144289132Y-125551189D01*
X144397286Y-125535508D01*
X144397291Y-125535507D01*
X144403007Y-125534678D01*
X144408479Y-125532820D01*
X144408481Y-125532820D01*
X144589067Y-125471519D01*
X144589069Y-125471518D01*
X144594531Y-125469664D01*
X144771001Y-125370837D01*
X144833433Y-125318913D01*
X144922073Y-125245191D01*
X144926505Y-125241505D01*
X145055837Y-125086001D01*
X145059527Y-125079413D01*
X145133469Y-124947378D01*
X145154664Y-124909531D01*
X145192280Y-124798720D01*
X145217820Y-124723481D01*
X145217820Y-124723479D01*
X145219678Y-124718007D01*
X145220507Y-124712291D01*
X145220508Y-124712286D01*
X145237809Y-124592956D01*
X145248700Y-124517842D01*
X145250215Y-124460000D01*
X145247557Y-124431069D01*
X145580164Y-124431069D01*
X145593392Y-124632894D01*
X145643178Y-124828928D01*
X145727856Y-125012607D01*
X145731189Y-125017323D01*
X145775070Y-125079413D01*
X145844588Y-125177780D01*
X145989466Y-125318913D01*
X146157637Y-125431282D01*
X146162940Y-125433560D01*
X146162943Y-125433562D01*
X146338163Y-125508842D01*
X146343470Y-125511122D01*
X146540740Y-125555760D01*
X146546509Y-125555987D01*
X146546512Y-125555987D01*
X146622683Y-125558979D01*
X146742842Y-125563700D01*
X146829132Y-125551189D01*
X146937286Y-125535508D01*
X146937291Y-125535507D01*
X146943007Y-125534678D01*
X146948479Y-125532820D01*
X146948481Y-125532820D01*
X147129067Y-125471519D01*
X147129069Y-125471518D01*
X147134531Y-125469664D01*
X147311001Y-125370837D01*
X147373433Y-125318913D01*
X147462073Y-125245191D01*
X147466505Y-125241505D01*
X147595837Y-125086001D01*
X147599527Y-125079413D01*
X147673469Y-124947378D01*
X147694664Y-124909531D01*
X147732280Y-124798720D01*
X147757820Y-124723481D01*
X147757820Y-124723479D01*
X147759678Y-124718007D01*
X147760507Y-124712291D01*
X147760508Y-124712286D01*
X147777809Y-124592956D01*
X147788700Y-124517842D01*
X147790215Y-124460000D01*
X147787557Y-124431069D01*
X153200164Y-124431069D01*
X153213392Y-124632894D01*
X153263178Y-124828928D01*
X153347856Y-125012607D01*
X153351189Y-125017323D01*
X153395070Y-125079413D01*
X153464588Y-125177780D01*
X153609466Y-125318913D01*
X153777637Y-125431282D01*
X153782940Y-125433560D01*
X153782943Y-125433562D01*
X153958163Y-125508842D01*
X153963470Y-125511122D01*
X154160740Y-125555760D01*
X154166509Y-125555987D01*
X154166512Y-125555987D01*
X154242683Y-125558979D01*
X154362842Y-125563700D01*
X154449132Y-125551189D01*
X154557286Y-125535508D01*
X154557291Y-125535507D01*
X154563007Y-125534678D01*
X154568479Y-125532820D01*
X154568481Y-125532820D01*
X154749067Y-125471519D01*
X154749069Y-125471518D01*
X154754531Y-125469664D01*
X154931001Y-125370837D01*
X154993433Y-125318913D01*
X155082073Y-125245191D01*
X155086505Y-125241505D01*
X155215837Y-125086001D01*
X155219527Y-125079413D01*
X155293469Y-124947378D01*
X155314664Y-124909531D01*
X155352280Y-124798720D01*
X155377820Y-124723481D01*
X155377820Y-124723479D01*
X155379678Y-124718007D01*
X155380507Y-124712291D01*
X155380508Y-124712286D01*
X155397809Y-124592956D01*
X155408700Y-124517842D01*
X155410215Y-124460000D01*
X155407557Y-124431069D01*
X155740164Y-124431069D01*
X155753392Y-124632894D01*
X155803178Y-124828928D01*
X155887856Y-125012607D01*
X155891189Y-125017323D01*
X155935070Y-125079413D01*
X156004588Y-125177780D01*
X156149466Y-125318913D01*
X156317637Y-125431282D01*
X156322940Y-125433560D01*
X156322943Y-125433562D01*
X156498163Y-125508842D01*
X156503470Y-125511122D01*
X156700740Y-125555760D01*
X156706509Y-125555987D01*
X156706512Y-125555987D01*
X156782683Y-125558979D01*
X156902842Y-125563700D01*
X156989132Y-125551189D01*
X157097286Y-125535508D01*
X157097291Y-125535507D01*
X157103007Y-125534678D01*
X157108479Y-125532820D01*
X157108481Y-125532820D01*
X157289067Y-125471519D01*
X157289069Y-125471518D01*
X157294531Y-125469664D01*
X157471001Y-125370837D01*
X157533433Y-125318913D01*
X157622073Y-125245191D01*
X157626505Y-125241505D01*
X157755837Y-125086001D01*
X157759527Y-125079413D01*
X157833469Y-124947378D01*
X157854664Y-124909531D01*
X157892280Y-124798720D01*
X157917820Y-124723481D01*
X157917820Y-124723479D01*
X157919678Y-124718007D01*
X157920507Y-124712291D01*
X157920508Y-124712286D01*
X157937809Y-124592956D01*
X157948700Y-124517842D01*
X157950215Y-124460000D01*
X157947557Y-124431069D01*
X158280164Y-124431069D01*
X158293392Y-124632894D01*
X158343178Y-124828928D01*
X158427856Y-125012607D01*
X158431189Y-125017323D01*
X158475070Y-125079413D01*
X158544588Y-125177780D01*
X158689466Y-125318913D01*
X158857637Y-125431282D01*
X158862940Y-125433560D01*
X158862943Y-125433562D01*
X159038163Y-125508842D01*
X159043470Y-125511122D01*
X159240740Y-125555760D01*
X159246509Y-125555987D01*
X159246512Y-125555987D01*
X159322683Y-125558979D01*
X159442842Y-125563700D01*
X159529132Y-125551189D01*
X159637286Y-125535508D01*
X159637291Y-125535507D01*
X159643007Y-125534678D01*
X159648479Y-125532820D01*
X159648481Y-125532820D01*
X159829067Y-125471519D01*
X159829069Y-125471518D01*
X159834531Y-125469664D01*
X160011001Y-125370837D01*
X160054482Y-125334674D01*
X160824500Y-125334674D01*
X160839034Y-125407740D01*
X160894399Y-125490601D01*
X160977260Y-125545966D01*
X161050326Y-125560500D01*
X162799674Y-125560500D01*
X162872740Y-125545966D01*
X162955601Y-125490601D01*
X163010966Y-125407740D01*
X163025500Y-125334674D01*
X163025500Y-123952000D01*
X173446532Y-123952000D01*
X173466365Y-124178692D01*
X173525261Y-124398496D01*
X173527583Y-124403476D01*
X173527584Y-124403478D01*
X173582627Y-124521516D01*
X173621432Y-124604734D01*
X173751953Y-124791139D01*
X173912861Y-124952047D01*
X174099266Y-125082568D01*
X174104244Y-125084889D01*
X174104247Y-125084891D01*
X174293325Y-125173060D01*
X174305504Y-125178739D01*
X174310812Y-125180161D01*
X174310814Y-125180162D01*
X174519993Y-125236211D01*
X174519995Y-125236211D01*
X174525308Y-125237635D01*
X174611674Y-125245191D01*
X174692492Y-125252262D01*
X174692499Y-125252262D01*
X174695216Y-125252500D01*
X174808784Y-125252500D01*
X174811501Y-125252262D01*
X174811508Y-125252262D01*
X174892326Y-125245191D01*
X174978692Y-125237635D01*
X174984005Y-125236211D01*
X174984007Y-125236211D01*
X175193186Y-125180162D01*
X175193188Y-125180161D01*
X175198496Y-125178739D01*
X175210675Y-125173060D01*
X175399753Y-125084891D01*
X175399756Y-125084889D01*
X175404734Y-125082568D01*
X175591139Y-124952047D01*
X175752047Y-124791139D01*
X175882568Y-124604734D01*
X175921374Y-124521516D01*
X175976416Y-124403478D01*
X175976417Y-124403476D01*
X175978739Y-124398496D01*
X176037635Y-124178692D01*
X176057468Y-123952000D01*
X176037635Y-123725308D01*
X176030645Y-123699220D01*
X175980162Y-123510814D01*
X175980161Y-123510812D01*
X175978739Y-123505504D01*
X175966065Y-123478325D01*
X175884891Y-123304247D01*
X175884889Y-123304244D01*
X175882568Y-123299266D01*
X175752047Y-123112861D01*
X175591139Y-122951953D01*
X175404734Y-122821432D01*
X175399756Y-122819111D01*
X175399753Y-122819109D01*
X175203478Y-122727584D01*
X175203476Y-122727583D01*
X175198496Y-122725261D01*
X175193188Y-122723839D01*
X175193186Y-122723838D01*
X174984007Y-122667789D01*
X174984005Y-122667789D01*
X174978692Y-122666365D01*
X174869718Y-122656831D01*
X174811508Y-122651738D01*
X174811501Y-122651738D01*
X174808784Y-122651500D01*
X174695216Y-122651500D01*
X174692499Y-122651738D01*
X174692492Y-122651738D01*
X174634282Y-122656831D01*
X174525308Y-122666365D01*
X174519995Y-122667789D01*
X174519993Y-122667789D01*
X174310814Y-122723838D01*
X174310812Y-122723839D01*
X174305504Y-122725261D01*
X174300524Y-122727583D01*
X174300522Y-122727584D01*
X174104247Y-122819109D01*
X174104244Y-122819111D01*
X174099266Y-122821432D01*
X173912861Y-122951953D01*
X173751953Y-123112861D01*
X173621432Y-123299266D01*
X173619111Y-123304244D01*
X173619109Y-123304247D01*
X173537935Y-123478325D01*
X173525261Y-123505504D01*
X173523839Y-123510812D01*
X173523838Y-123510814D01*
X173473355Y-123699220D01*
X173466365Y-123725308D01*
X173446532Y-123952000D01*
X163025500Y-123952000D01*
X163025500Y-123585326D01*
X163010966Y-123512260D01*
X162955601Y-123429399D01*
X162872740Y-123374034D01*
X162799674Y-123359500D01*
X161050326Y-123359500D01*
X160977260Y-123374034D01*
X160894399Y-123429399D01*
X160839034Y-123512260D01*
X160824500Y-123585326D01*
X160824500Y-125334674D01*
X160054482Y-125334674D01*
X160073433Y-125318913D01*
X160162073Y-125245191D01*
X160166505Y-125241505D01*
X160295837Y-125086001D01*
X160299527Y-125079413D01*
X160373469Y-124947378D01*
X160394664Y-124909531D01*
X160432280Y-124798720D01*
X160457820Y-124723481D01*
X160457820Y-124723479D01*
X160459678Y-124718007D01*
X160460507Y-124712291D01*
X160460508Y-124712286D01*
X160477809Y-124592956D01*
X160488700Y-124517842D01*
X160490215Y-124460000D01*
X160471708Y-124258591D01*
X160416807Y-124063926D01*
X160327351Y-123882527D01*
X160309079Y-123858057D01*
X160209788Y-123725091D01*
X160209787Y-123725090D01*
X160206335Y-123720467D01*
X160183350Y-123699220D01*
X160062053Y-123587094D01*
X160062051Y-123587092D01*
X160057812Y-123583174D01*
X160051607Y-123579259D01*
X159891637Y-123478325D01*
X159886757Y-123475246D01*
X159698898Y-123400298D01*
X159500526Y-123360839D01*
X159494752Y-123360763D01*
X159494748Y-123360763D01*
X159392257Y-123359422D01*
X159298286Y-123358192D01*
X159292589Y-123359171D01*
X159292588Y-123359171D01*
X159104646Y-123391465D01*
X159104645Y-123391465D01*
X159098949Y-123392444D01*
X158909193Y-123462449D01*
X158904232Y-123465401D01*
X158904231Y-123465401D01*
X158827899Y-123510814D01*
X158735371Y-123565862D01*
X158583305Y-123699220D01*
X158458089Y-123858057D01*
X158363914Y-124037053D01*
X158303937Y-124230213D01*
X158280164Y-124431069D01*
X157947557Y-124431069D01*
X157931708Y-124258591D01*
X157876807Y-124063926D01*
X157787351Y-123882527D01*
X157769079Y-123858057D01*
X157669788Y-123725091D01*
X157669787Y-123725090D01*
X157666335Y-123720467D01*
X157643350Y-123699220D01*
X157522053Y-123587094D01*
X157522051Y-123587092D01*
X157517812Y-123583174D01*
X157511607Y-123579259D01*
X157351637Y-123478325D01*
X157346757Y-123475246D01*
X157158898Y-123400298D01*
X156960526Y-123360839D01*
X156954752Y-123360763D01*
X156954748Y-123360763D01*
X156852257Y-123359422D01*
X156758286Y-123358192D01*
X156752589Y-123359171D01*
X156752588Y-123359171D01*
X156564646Y-123391465D01*
X156564645Y-123391465D01*
X156558949Y-123392444D01*
X156369193Y-123462449D01*
X156364232Y-123465401D01*
X156364231Y-123465401D01*
X156287899Y-123510814D01*
X156195371Y-123565862D01*
X156043305Y-123699220D01*
X155918089Y-123858057D01*
X155823914Y-124037053D01*
X155763937Y-124230213D01*
X155740164Y-124431069D01*
X155407557Y-124431069D01*
X155391708Y-124258591D01*
X155336807Y-124063926D01*
X155247351Y-123882527D01*
X155229079Y-123858057D01*
X155129788Y-123725091D01*
X155129787Y-123725090D01*
X155126335Y-123720467D01*
X155103350Y-123699220D01*
X154982053Y-123587094D01*
X154982051Y-123587092D01*
X154977812Y-123583174D01*
X154971607Y-123579259D01*
X154811637Y-123478325D01*
X154806757Y-123475246D01*
X154618898Y-123400298D01*
X154420526Y-123360839D01*
X154414752Y-123360763D01*
X154414748Y-123360763D01*
X154312257Y-123359422D01*
X154218286Y-123358192D01*
X154212589Y-123359171D01*
X154212588Y-123359171D01*
X154024646Y-123391465D01*
X154024645Y-123391465D01*
X154018949Y-123392444D01*
X153829193Y-123462449D01*
X153824232Y-123465401D01*
X153824231Y-123465401D01*
X153747899Y-123510814D01*
X153655371Y-123565862D01*
X153503305Y-123699220D01*
X153378089Y-123858057D01*
X153283914Y-124037053D01*
X153223937Y-124230213D01*
X153200164Y-124431069D01*
X147787557Y-124431069D01*
X147771708Y-124258591D01*
X147716807Y-124063926D01*
X147627351Y-123882527D01*
X147609079Y-123858057D01*
X147509788Y-123725091D01*
X147509787Y-123725090D01*
X147506335Y-123720467D01*
X147483350Y-123699220D01*
X147362053Y-123587094D01*
X147362051Y-123587092D01*
X147357812Y-123583174D01*
X147351607Y-123579259D01*
X147191637Y-123478325D01*
X147186757Y-123475246D01*
X146998898Y-123400298D01*
X146800526Y-123360839D01*
X146794752Y-123360763D01*
X146794748Y-123360763D01*
X146692257Y-123359422D01*
X146598286Y-123358192D01*
X146592589Y-123359171D01*
X146592588Y-123359171D01*
X146404646Y-123391465D01*
X146404645Y-123391465D01*
X146398949Y-123392444D01*
X146209193Y-123462449D01*
X146204232Y-123465401D01*
X146204231Y-123465401D01*
X146127899Y-123510814D01*
X146035371Y-123565862D01*
X145883305Y-123699220D01*
X145758089Y-123858057D01*
X145663914Y-124037053D01*
X145603937Y-124230213D01*
X145580164Y-124431069D01*
X145247557Y-124431069D01*
X145231708Y-124258591D01*
X145176807Y-124063926D01*
X145087351Y-123882527D01*
X145069079Y-123858057D01*
X144969788Y-123725091D01*
X144969787Y-123725090D01*
X144966335Y-123720467D01*
X144943350Y-123699220D01*
X144822053Y-123587094D01*
X144822051Y-123587092D01*
X144817812Y-123583174D01*
X144811607Y-123579259D01*
X144651637Y-123478325D01*
X144646757Y-123475246D01*
X144458898Y-123400298D01*
X144260526Y-123360839D01*
X144254752Y-123360763D01*
X144254748Y-123360763D01*
X144152257Y-123359422D01*
X144058286Y-123358192D01*
X144052589Y-123359171D01*
X144052588Y-123359171D01*
X143864646Y-123391465D01*
X143864645Y-123391465D01*
X143858949Y-123392444D01*
X143669193Y-123462449D01*
X143664232Y-123465401D01*
X143664231Y-123465401D01*
X143587899Y-123510814D01*
X143495371Y-123565862D01*
X143343305Y-123699220D01*
X143218089Y-123858057D01*
X143123914Y-124037053D01*
X143063937Y-124230213D01*
X143040164Y-124431069D01*
X142707557Y-124431069D01*
X142691708Y-124258591D01*
X142636807Y-124063926D01*
X142547351Y-123882527D01*
X142529079Y-123858057D01*
X142429788Y-123725091D01*
X142429787Y-123725090D01*
X142426335Y-123720467D01*
X142403350Y-123699220D01*
X142282053Y-123587094D01*
X142282051Y-123587092D01*
X142277812Y-123583174D01*
X142271607Y-123579259D01*
X142111637Y-123478325D01*
X142106757Y-123475246D01*
X141918898Y-123400298D01*
X141720526Y-123360839D01*
X141714752Y-123360763D01*
X141714748Y-123360763D01*
X141612257Y-123359422D01*
X141518286Y-123358192D01*
X141512589Y-123359171D01*
X141512588Y-123359171D01*
X141324646Y-123391465D01*
X141324645Y-123391465D01*
X141318949Y-123392444D01*
X141129193Y-123462449D01*
X141124232Y-123465401D01*
X141124231Y-123465401D01*
X141047899Y-123510814D01*
X140955371Y-123565862D01*
X140803305Y-123699220D01*
X140678089Y-123858057D01*
X140583914Y-124037053D01*
X140523937Y-124230213D01*
X140500164Y-124431069D01*
X140167557Y-124431069D01*
X140151708Y-124258591D01*
X140096807Y-124063926D01*
X140007351Y-123882527D01*
X139989079Y-123858057D01*
X139889788Y-123725091D01*
X139889787Y-123725090D01*
X139886335Y-123720467D01*
X139863350Y-123699220D01*
X139742053Y-123587094D01*
X139742051Y-123587092D01*
X139737812Y-123583174D01*
X139731607Y-123579259D01*
X139571637Y-123478325D01*
X139566757Y-123475246D01*
X139378898Y-123400298D01*
X139180526Y-123360839D01*
X139174752Y-123360763D01*
X139174748Y-123360763D01*
X139072257Y-123359422D01*
X138978286Y-123358192D01*
X138972589Y-123359171D01*
X138972588Y-123359171D01*
X138784646Y-123391465D01*
X138784645Y-123391465D01*
X138778949Y-123392444D01*
X138589193Y-123462449D01*
X138584232Y-123465401D01*
X138584231Y-123465401D01*
X138507899Y-123510814D01*
X138415371Y-123565862D01*
X138263305Y-123699220D01*
X138138089Y-123858057D01*
X138043914Y-124037053D01*
X137983937Y-124230213D01*
X137960164Y-124431069D01*
X137627557Y-124431069D01*
X137611708Y-124258591D01*
X137556807Y-124063926D01*
X137467351Y-123882527D01*
X137449079Y-123858057D01*
X137349788Y-123725091D01*
X137349787Y-123725090D01*
X137346335Y-123720467D01*
X137323350Y-123699220D01*
X137202053Y-123587094D01*
X137202051Y-123587092D01*
X137197812Y-123583174D01*
X137191607Y-123579259D01*
X137031637Y-123478325D01*
X137026757Y-123475246D01*
X136838898Y-123400298D01*
X136640526Y-123360839D01*
X136634752Y-123360763D01*
X136634748Y-123360763D01*
X136532257Y-123359422D01*
X136438286Y-123358192D01*
X136432589Y-123359171D01*
X136432588Y-123359171D01*
X136244646Y-123391465D01*
X136244645Y-123391465D01*
X136238949Y-123392444D01*
X136049193Y-123462449D01*
X136044232Y-123465401D01*
X136044231Y-123465401D01*
X135967899Y-123510814D01*
X135875371Y-123565862D01*
X135723305Y-123699220D01*
X135598089Y-123858057D01*
X135503914Y-124037053D01*
X135443937Y-124230213D01*
X135420164Y-124431069D01*
X135087557Y-124431069D01*
X135071708Y-124258591D01*
X135016807Y-124063926D01*
X134927351Y-123882527D01*
X134909079Y-123858057D01*
X134809788Y-123725091D01*
X134809787Y-123725090D01*
X134806335Y-123720467D01*
X134783350Y-123699220D01*
X134662053Y-123587094D01*
X134662051Y-123587092D01*
X134657812Y-123583174D01*
X134651607Y-123579259D01*
X134491637Y-123478325D01*
X134486757Y-123475246D01*
X134298898Y-123400298D01*
X134100526Y-123360839D01*
X134094752Y-123360763D01*
X134094748Y-123360763D01*
X133992257Y-123359422D01*
X133898286Y-123358192D01*
X133892589Y-123359171D01*
X133892588Y-123359171D01*
X133704646Y-123391465D01*
X133704645Y-123391465D01*
X133698949Y-123392444D01*
X133509193Y-123462449D01*
X133504232Y-123465401D01*
X133504231Y-123465401D01*
X133427899Y-123510814D01*
X133335371Y-123565862D01*
X133183305Y-123699220D01*
X133058089Y-123858057D01*
X132963914Y-124037053D01*
X132903937Y-124230213D01*
X132880164Y-124431069D01*
X126467557Y-124431069D01*
X126451708Y-124258591D01*
X126396807Y-124063926D01*
X126307351Y-123882527D01*
X126289079Y-123858057D01*
X126189788Y-123725091D01*
X126189787Y-123725090D01*
X126186335Y-123720467D01*
X126163350Y-123699220D01*
X126042053Y-123587094D01*
X126042051Y-123587092D01*
X126037812Y-123583174D01*
X126031607Y-123579259D01*
X125871637Y-123478325D01*
X125866757Y-123475246D01*
X125678898Y-123400298D01*
X125480526Y-123360839D01*
X125474752Y-123360763D01*
X125474748Y-123360763D01*
X125372257Y-123359422D01*
X125278286Y-123358192D01*
X125272589Y-123359171D01*
X125272588Y-123359171D01*
X125084646Y-123391465D01*
X125084645Y-123391465D01*
X125078949Y-123392444D01*
X124889193Y-123462449D01*
X124884232Y-123465401D01*
X124884231Y-123465401D01*
X124807899Y-123510814D01*
X124715371Y-123565862D01*
X124563305Y-123699220D01*
X124438089Y-123858057D01*
X124343914Y-124037053D01*
X124283937Y-124230213D01*
X124260164Y-124431069D01*
X123925500Y-124431069D01*
X123925500Y-123585326D01*
X123910966Y-123512260D01*
X123855601Y-123429399D01*
X123772740Y-123374034D01*
X123699674Y-123359500D01*
X121950326Y-123359500D01*
X121877260Y-123374034D01*
X121794399Y-123429399D01*
X121739034Y-123512260D01*
X121724500Y-123585326D01*
X121724500Y-125334674D01*
X120954482Y-125334674D01*
X120973433Y-125318913D01*
X121062073Y-125245191D01*
X121066505Y-125241505D01*
X121195837Y-125086001D01*
X121199527Y-125079413D01*
X121273469Y-124947378D01*
X121294664Y-124909531D01*
X121332280Y-124798720D01*
X121357820Y-124723481D01*
X121357820Y-124723479D01*
X121359678Y-124718007D01*
X121360507Y-124712291D01*
X121360508Y-124712286D01*
X121377809Y-124592956D01*
X121388700Y-124517842D01*
X121390215Y-124460000D01*
X121371708Y-124258591D01*
X121316807Y-124063926D01*
X121227351Y-123882527D01*
X121209079Y-123858057D01*
X121109788Y-123725091D01*
X121109787Y-123725090D01*
X121106335Y-123720467D01*
X121083350Y-123699220D01*
X120962053Y-123587094D01*
X120962051Y-123587092D01*
X120957812Y-123583174D01*
X120951607Y-123579259D01*
X120791637Y-123478325D01*
X120786757Y-123475246D01*
X120598898Y-123400298D01*
X120400526Y-123360839D01*
X120394752Y-123360763D01*
X120394748Y-123360763D01*
X120292257Y-123359422D01*
X120198286Y-123358192D01*
X120192589Y-123359171D01*
X120192588Y-123359171D01*
X120004646Y-123391465D01*
X120004645Y-123391465D01*
X119998949Y-123392444D01*
X119809193Y-123462449D01*
X119804232Y-123465401D01*
X119804231Y-123465401D01*
X119727899Y-123510814D01*
X119635371Y-123565862D01*
X119483305Y-123699220D01*
X119358089Y-123858057D01*
X119263914Y-124037053D01*
X119203937Y-124230213D01*
X119180164Y-124431069D01*
X113834505Y-124431069D01*
X113815661Y-124385575D01*
X113727421Y-124270579D01*
X113612425Y-124182339D01*
X113478509Y-124126870D01*
X113334800Y-124107950D01*
X113191091Y-124126870D01*
X113057175Y-124182339D01*
X112942179Y-124270579D01*
X112853939Y-124385575D01*
X112798470Y-124519491D01*
X112779550Y-124663200D01*
X105737630Y-124663200D01*
X105778568Y-124604734D01*
X105817374Y-124521516D01*
X105872416Y-124403478D01*
X105872417Y-124403476D01*
X105874739Y-124398496D01*
X105933635Y-124178692D01*
X105953468Y-123952000D01*
X105933635Y-123725308D01*
X105926645Y-123699220D01*
X105876162Y-123510814D01*
X105876161Y-123510812D01*
X105874739Y-123505504D01*
X105862065Y-123478325D01*
X105780891Y-123304247D01*
X105780889Y-123304244D01*
X105778568Y-123299266D01*
X105702060Y-123190000D01*
X163528750Y-123190000D01*
X163547670Y-123333709D01*
X163603139Y-123467625D01*
X163691379Y-123582621D01*
X163806375Y-123670861D01*
X163940291Y-123726330D01*
X164084000Y-123745250D01*
X164227709Y-123726330D01*
X164361625Y-123670861D01*
X164476621Y-123582621D01*
X164564861Y-123467625D01*
X164620330Y-123333709D01*
X164639250Y-123190000D01*
X164620330Y-123046291D01*
X164564861Y-122912375D01*
X164476621Y-122797379D01*
X164361625Y-122709139D01*
X164227709Y-122653670D01*
X164084000Y-122634750D01*
X163940291Y-122653670D01*
X163806375Y-122709139D01*
X163691379Y-122797379D01*
X163603139Y-122912375D01*
X163547670Y-123046291D01*
X163528750Y-123190000D01*
X105702060Y-123190000D01*
X105648047Y-123112861D01*
X105487139Y-122951953D01*
X105300734Y-122821432D01*
X105295756Y-122819111D01*
X105295753Y-122819109D01*
X105099478Y-122727584D01*
X105099476Y-122727583D01*
X105094496Y-122725261D01*
X105089188Y-122723839D01*
X105089186Y-122723838D01*
X104880007Y-122667789D01*
X104880005Y-122667789D01*
X104874692Y-122666365D01*
X104765718Y-122656831D01*
X104707508Y-122651738D01*
X104707501Y-122651738D01*
X104704784Y-122651500D01*
X104591216Y-122651500D01*
X104588499Y-122651738D01*
X104588492Y-122651738D01*
X104530282Y-122656831D01*
X104421308Y-122666365D01*
X104415995Y-122667789D01*
X104415993Y-122667789D01*
X104206814Y-122723838D01*
X104206812Y-122723839D01*
X104201504Y-122725261D01*
X104196524Y-122727583D01*
X104196522Y-122727584D01*
X104000247Y-122819109D01*
X104000244Y-122819111D01*
X103995266Y-122821432D01*
X103808861Y-122951953D01*
X103647953Y-123112861D01*
X103517432Y-123299266D01*
X103515111Y-123304244D01*
X103515109Y-123304247D01*
X103433935Y-123478325D01*
X103421261Y-123505504D01*
X103419839Y-123510812D01*
X103419838Y-123510814D01*
X103369355Y-123699220D01*
X103362365Y-123725308D01*
X103342532Y-123952000D01*
X101850500Y-123952000D01*
X101850500Y-121920000D01*
X106124750Y-121920000D01*
X106143670Y-122063709D01*
X106199139Y-122197625D01*
X106287379Y-122312621D01*
X106402375Y-122400861D01*
X106536291Y-122456330D01*
X106680000Y-122475250D01*
X106823709Y-122456330D01*
X106957625Y-122400861D01*
X107072621Y-122312621D01*
X107160861Y-122197625D01*
X107216330Y-122063709D01*
X107235250Y-121920000D01*
X149863550Y-121920000D01*
X149882470Y-122063709D01*
X149937939Y-122197625D01*
X150026179Y-122312621D01*
X150141175Y-122400861D01*
X150275091Y-122456330D01*
X150418800Y-122475250D01*
X150562509Y-122456330D01*
X150696425Y-122400861D01*
X150811421Y-122312621D01*
X150899661Y-122197625D01*
X150955130Y-122063709D01*
X150974050Y-121920000D01*
X150955130Y-121776291D01*
X150899661Y-121642375D01*
X150811421Y-121527379D01*
X150696425Y-121439139D01*
X150562509Y-121383670D01*
X150418800Y-121364750D01*
X150275091Y-121383670D01*
X150141175Y-121439139D01*
X150026179Y-121527379D01*
X149937939Y-121642375D01*
X149882470Y-121776291D01*
X149863550Y-121920000D01*
X107235250Y-121920000D01*
X107216330Y-121776291D01*
X107160861Y-121642375D01*
X107072621Y-121527379D01*
X106957625Y-121439139D01*
X106823709Y-121383670D01*
X106680000Y-121364750D01*
X106536291Y-121383670D01*
X106402375Y-121439139D01*
X106287379Y-121527379D01*
X106199139Y-121642375D01*
X106143670Y-121776291D01*
X106124750Y-121920000D01*
X101850500Y-121920000D01*
X101850500Y-120650000D01*
X123269750Y-120650000D01*
X123288670Y-120793709D01*
X123344139Y-120927625D01*
X123432379Y-121042621D01*
X123547375Y-121130861D01*
X123681291Y-121186330D01*
X123825000Y-121205250D01*
X123968709Y-121186330D01*
X124102625Y-121130861D01*
X124217621Y-121042621D01*
X124305861Y-120927625D01*
X124361330Y-120793709D01*
X124366874Y-120751600D01*
X134674350Y-120751600D01*
X134693270Y-120895309D01*
X134748739Y-121029225D01*
X134836979Y-121144221D01*
X134951975Y-121232461D01*
X135085891Y-121287930D01*
X135229600Y-121306850D01*
X135373309Y-121287930D01*
X135507225Y-121232461D01*
X135622221Y-121144221D01*
X135710461Y-121029225D01*
X135765930Y-120895309D01*
X135784850Y-120751600D01*
X135779586Y-120711618D01*
X135789195Y-120650000D01*
X153114750Y-120650000D01*
X153133670Y-120793709D01*
X153189139Y-120927625D01*
X153277379Y-121042621D01*
X153392375Y-121130861D01*
X153526291Y-121186330D01*
X153670000Y-121205250D01*
X153813709Y-121186330D01*
X153947625Y-121130861D01*
X154062621Y-121042621D01*
X154150861Y-120927625D01*
X154206330Y-120793709D01*
X154225250Y-120650000D01*
X168354750Y-120650000D01*
X168373670Y-120793709D01*
X168429139Y-120927625D01*
X168517379Y-121042621D01*
X168632375Y-121130861D01*
X168766291Y-121186330D01*
X168910000Y-121205250D01*
X169053709Y-121186330D01*
X169187625Y-121130861D01*
X169302621Y-121042621D01*
X169390861Y-120927625D01*
X169446330Y-120793709D01*
X169465250Y-120650000D01*
X169446330Y-120506291D01*
X169390861Y-120372375D01*
X169302621Y-120257379D01*
X169187625Y-120169139D01*
X169053709Y-120113670D01*
X168910000Y-120094750D01*
X168766291Y-120113670D01*
X168632375Y-120169139D01*
X168517379Y-120257379D01*
X168429139Y-120372375D01*
X168373670Y-120506291D01*
X168354750Y-120650000D01*
X154225250Y-120650000D01*
X154206330Y-120506291D01*
X154150861Y-120372375D01*
X154062621Y-120257379D01*
X153947625Y-120169139D01*
X153813709Y-120113670D01*
X153670000Y-120094750D01*
X153526291Y-120113670D01*
X153392375Y-120169139D01*
X153277379Y-120257379D01*
X153189139Y-120372375D01*
X153133670Y-120506291D01*
X153114750Y-120650000D01*
X135789195Y-120650000D01*
X135790525Y-120641471D01*
X135837652Y-120588372D01*
X135890392Y-120573226D01*
X135890000Y-120570250D01*
X136033709Y-120551330D01*
X136167625Y-120495861D01*
X136282621Y-120407621D01*
X136370861Y-120292625D01*
X136426330Y-120158709D01*
X136445250Y-120015000D01*
X136426330Y-119871291D01*
X136370861Y-119737375D01*
X136282621Y-119622379D01*
X136167625Y-119534139D01*
X136033709Y-119478670D01*
X135890000Y-119459750D01*
X135746291Y-119478670D01*
X135612375Y-119534139D01*
X135497379Y-119622379D01*
X135409139Y-119737375D01*
X135353670Y-119871291D01*
X135334750Y-120015000D01*
X135335828Y-120023187D01*
X135340014Y-120054980D01*
X135329075Y-120125129D01*
X135281948Y-120178228D01*
X135229208Y-120193374D01*
X135229600Y-120196350D01*
X135085891Y-120215270D01*
X134951975Y-120270739D01*
X134836979Y-120358979D01*
X134748739Y-120473975D01*
X134693270Y-120607891D01*
X134674350Y-120751600D01*
X124366874Y-120751600D01*
X124380250Y-120650000D01*
X124361330Y-120506291D01*
X124305861Y-120372375D01*
X124217621Y-120257379D01*
X124102625Y-120169139D01*
X123968709Y-120113670D01*
X123825000Y-120094750D01*
X123681291Y-120113670D01*
X123547375Y-120169139D01*
X123432379Y-120257379D01*
X123344139Y-120372375D01*
X123288670Y-120506291D01*
X123269750Y-120650000D01*
X101850500Y-120650000D01*
X101850500Y-119380000D01*
X116919750Y-119380000D01*
X116938670Y-119523709D01*
X116994139Y-119657625D01*
X117082379Y-119772621D01*
X117197375Y-119860861D01*
X117331291Y-119916330D01*
X117475000Y-119935250D01*
X117618709Y-119916330D01*
X117752625Y-119860861D01*
X117867621Y-119772621D01*
X117955861Y-119657625D01*
X118011330Y-119523709D01*
X118030250Y-119380000D01*
X118011330Y-119236291D01*
X117955861Y-119102375D01*
X117867621Y-118987379D01*
X117752625Y-118899139D01*
X117618709Y-118843670D01*
X117475000Y-118824750D01*
X117331291Y-118843670D01*
X117197375Y-118899139D01*
X117082379Y-118987379D01*
X116994139Y-119102375D01*
X116938670Y-119236291D01*
X116919750Y-119380000D01*
X101850500Y-119380000D01*
X101850500Y-118745000D01*
X175974750Y-118745000D01*
X175993670Y-118888709D01*
X176049139Y-119022625D01*
X176137379Y-119137621D01*
X176252375Y-119225861D01*
X176386291Y-119281330D01*
X176530000Y-119300250D01*
X176673709Y-119281330D01*
X176807625Y-119225861D01*
X176922621Y-119137621D01*
X177010861Y-119022625D01*
X177066330Y-118888709D01*
X177085250Y-118745000D01*
X177066330Y-118601291D01*
X177010861Y-118467375D01*
X176922621Y-118352379D01*
X176807625Y-118264139D01*
X176673709Y-118208670D01*
X176530000Y-118189750D01*
X176386291Y-118208670D01*
X176252375Y-118264139D01*
X176137379Y-118352379D01*
X176049139Y-118467375D01*
X175993670Y-118601291D01*
X175974750Y-118745000D01*
X101850500Y-118745000D01*
X101850500Y-118250000D01*
X112500000Y-118250000D01*
X117750000Y-118250000D01*
X117750000Y-118216709D01*
X117770002Y-118148588D01*
X117823658Y-118102095D01*
X117893932Y-118091991D01*
X117952702Y-118116745D01*
X117972375Y-118131841D01*
X118106291Y-118187310D01*
X118250000Y-118206230D01*
X118393709Y-118187310D01*
X118527625Y-118131841D01*
X118642621Y-118043601D01*
X118715038Y-117949226D01*
X118772376Y-117907359D01*
X118843247Y-117903137D01*
X118905150Y-117937901D01*
X118914962Y-117949226D01*
X118987379Y-118043601D01*
X119102375Y-118131841D01*
X119236291Y-118187310D01*
X119380000Y-118206230D01*
X119523709Y-118187310D01*
X119657625Y-118131841D01*
X119772621Y-118043601D01*
X119860861Y-117928605D01*
X119916330Y-117794689D01*
X119935250Y-117650980D01*
X119916330Y-117507271D01*
X119902963Y-117475000D01*
X146764750Y-117475000D01*
X146783670Y-117618709D01*
X146839139Y-117752625D01*
X146927379Y-117867621D01*
X147042375Y-117955861D01*
X147176291Y-118011330D01*
X147320000Y-118030250D01*
X147463709Y-118011330D01*
X147597625Y-117955861D01*
X147712621Y-117867621D01*
X147800861Y-117752625D01*
X147856330Y-117618709D01*
X147875250Y-117475000D01*
X162004750Y-117475000D01*
X162023670Y-117618709D01*
X162079139Y-117752625D01*
X162167379Y-117867621D01*
X162282375Y-117955861D01*
X162416291Y-118011330D01*
X162560000Y-118030250D01*
X162703709Y-118011330D01*
X162837625Y-117955861D01*
X162952621Y-117867621D01*
X163040861Y-117752625D01*
X163096330Y-117618709D01*
X163115250Y-117475000D01*
X163096330Y-117331291D01*
X163040861Y-117197375D01*
X162952621Y-117082379D01*
X162837625Y-116994139D01*
X162703709Y-116938670D01*
X162560000Y-116919750D01*
X162416291Y-116938670D01*
X162282375Y-116994139D01*
X162167379Y-117082379D01*
X162079139Y-117197375D01*
X162023670Y-117331291D01*
X162004750Y-117475000D01*
X147875250Y-117475000D01*
X147856330Y-117331291D01*
X147800861Y-117197375D01*
X147712621Y-117082379D01*
X147597625Y-116994139D01*
X147463709Y-116938670D01*
X147320000Y-116919750D01*
X147176291Y-116938670D01*
X147042375Y-116994139D01*
X146927379Y-117082379D01*
X146839139Y-117197375D01*
X146783670Y-117331291D01*
X146764750Y-117475000D01*
X119902963Y-117475000D01*
X119860861Y-117373355D01*
X119772621Y-117258359D01*
X119657625Y-117170119D01*
X119523709Y-117114650D01*
X119380000Y-117095730D01*
X119236291Y-117114650D01*
X119102375Y-117170119D01*
X118987379Y-117258359D01*
X118982353Y-117264909D01*
X118914962Y-117352734D01*
X118857624Y-117394601D01*
X118786753Y-117398823D01*
X118724850Y-117364059D01*
X118715038Y-117352734D01*
X118647647Y-117264909D01*
X118642621Y-117258359D01*
X118527625Y-117170119D01*
X118393709Y-117114650D01*
X118250000Y-117095730D01*
X118106291Y-117114650D01*
X117972375Y-117170119D01*
X117952702Y-117185215D01*
X117886483Y-117210814D01*
X117816935Y-117196549D01*
X117766139Y-117146948D01*
X117750000Y-117085251D01*
X117750000Y-116840000D01*
X132159750Y-116840000D01*
X132178670Y-116983709D01*
X132234139Y-117117625D01*
X132322379Y-117232621D01*
X132437375Y-117320861D01*
X132571291Y-117376330D01*
X132715000Y-117395250D01*
X132858709Y-117376330D01*
X132992625Y-117320861D01*
X133107621Y-117232621D01*
X133195861Y-117117625D01*
X133251330Y-116983709D01*
X133270250Y-116840000D01*
X133251330Y-116696291D01*
X133195861Y-116562375D01*
X133107621Y-116447379D01*
X132992625Y-116359139D01*
X132858709Y-116303670D01*
X132715000Y-116284750D01*
X132571291Y-116303670D01*
X132437375Y-116359139D01*
X132322379Y-116447379D01*
X132234139Y-116562375D01*
X132178670Y-116696291D01*
X132159750Y-116840000D01*
X117750000Y-116840000D01*
X117750000Y-115565729D01*
X117770002Y-115497608D01*
X117823658Y-115451115D01*
X117893932Y-115441011D01*
X117952702Y-115465765D01*
X117972375Y-115480861D01*
X118106291Y-115536330D01*
X118250000Y-115555250D01*
X118393709Y-115536330D01*
X118527625Y-115480861D01*
X118642621Y-115392621D01*
X118715038Y-115298246D01*
X118772376Y-115256379D01*
X118843247Y-115252157D01*
X118905150Y-115286921D01*
X118914962Y-115298246D01*
X118987379Y-115392621D01*
X119102375Y-115480861D01*
X119236291Y-115536330D01*
X119380000Y-115555250D01*
X119523709Y-115536330D01*
X119657625Y-115480861D01*
X119772621Y-115392621D01*
X119860861Y-115277625D01*
X119916330Y-115143709D01*
X119935250Y-115000000D01*
X119916330Y-114856291D01*
X119860861Y-114722375D01*
X119772621Y-114607379D01*
X119657625Y-114519139D01*
X119523709Y-114463670D01*
X119380000Y-114444750D01*
X119236291Y-114463670D01*
X119102375Y-114519139D01*
X118987379Y-114607379D01*
X118982353Y-114613929D01*
X118914962Y-114701754D01*
X118857624Y-114743621D01*
X118786753Y-114747843D01*
X118724850Y-114713079D01*
X118715038Y-114701754D01*
X118647647Y-114613929D01*
X118642621Y-114607379D01*
X118527625Y-114519139D01*
X118393709Y-114463670D01*
X118250000Y-114444750D01*
X118106291Y-114463670D01*
X117972375Y-114519139D01*
X117952702Y-114534235D01*
X117886483Y-114559834D01*
X117816935Y-114545569D01*
X117766139Y-114495968D01*
X117750000Y-114434271D01*
X117750000Y-113500000D01*
X112500000Y-113500000D01*
X112500000Y-118250000D01*
X101850500Y-118250000D01*
X101850500Y-111633000D01*
X111585750Y-111633000D01*
X111604670Y-111776709D01*
X111660139Y-111910625D01*
X111748379Y-112025621D01*
X111863375Y-112113861D01*
X111997291Y-112169330D01*
X112141000Y-112188250D01*
X112284709Y-112169330D01*
X112418625Y-112113861D01*
X112533621Y-112025621D01*
X112621861Y-111910625D01*
X112677330Y-111776709D01*
X112679530Y-111760000D01*
X122164723Y-111760000D01*
X122183793Y-111977977D01*
X122240425Y-112189330D01*
X122242747Y-112194310D01*
X122242748Y-112194312D01*
X122310278Y-112339129D01*
X122332898Y-112387638D01*
X122458402Y-112566877D01*
X122613123Y-112721598D01*
X122617631Y-112724755D01*
X122617634Y-112724757D01*
X122786211Y-112842796D01*
X122792361Y-112847102D01*
X122797343Y-112849425D01*
X122797348Y-112849428D01*
X122985688Y-112937252D01*
X122990670Y-112939575D01*
X122995978Y-112940997D01*
X122995980Y-112940998D01*
X123061745Y-112958620D01*
X123202023Y-112996207D01*
X123420000Y-113015277D01*
X123637977Y-112996207D01*
X123778255Y-112958620D01*
X123844020Y-112940998D01*
X123844022Y-112940997D01*
X123849330Y-112939575D01*
X123854312Y-112937252D01*
X124042652Y-112849428D01*
X124042657Y-112849425D01*
X124047639Y-112847102D01*
X124053789Y-112842796D01*
X124221733Y-112725200D01*
X163477950Y-112725200D01*
X163496870Y-112868909D01*
X163552339Y-113002825D01*
X163640579Y-113117821D01*
X163755575Y-113206061D01*
X163889491Y-113261530D01*
X164033200Y-113280450D01*
X164176909Y-113261530D01*
X164310825Y-113206061D01*
X164425821Y-113117821D01*
X164514061Y-113002825D01*
X164569530Y-112868909D01*
X164588450Y-112725200D01*
X164569530Y-112581491D01*
X164565930Y-112572800D01*
X165763950Y-112572800D01*
X165782870Y-112716509D01*
X165838339Y-112850425D01*
X165926579Y-112965421D01*
X166041575Y-113053661D01*
X166175491Y-113109130D01*
X166319200Y-113128050D01*
X166462909Y-113109130D01*
X166596825Y-113053661D01*
X166711821Y-112965421D01*
X166800061Y-112850425D01*
X166855530Y-112716509D01*
X166874450Y-112572800D01*
X166855530Y-112429091D01*
X166800061Y-112295175D01*
X166711821Y-112180179D01*
X166596825Y-112091939D01*
X166462909Y-112036470D01*
X166319200Y-112017550D01*
X166175491Y-112036470D01*
X166041575Y-112091939D01*
X165926579Y-112180179D01*
X165838339Y-112295175D01*
X165782870Y-112429091D01*
X165763950Y-112572800D01*
X164565930Y-112572800D01*
X164514061Y-112447575D01*
X164425821Y-112332579D01*
X164310825Y-112244339D01*
X164176909Y-112188870D01*
X164033200Y-112169950D01*
X163889491Y-112188870D01*
X163755575Y-112244339D01*
X163640579Y-112332579D01*
X163552339Y-112447575D01*
X163496870Y-112581491D01*
X163477950Y-112725200D01*
X124221733Y-112725200D01*
X124222366Y-112724757D01*
X124222369Y-112724755D01*
X124226877Y-112721598D01*
X124381598Y-112566877D01*
X124507102Y-112387638D01*
X124529723Y-112339129D01*
X124597252Y-112194312D01*
X124597253Y-112194310D01*
X124599575Y-112189330D01*
X124656207Y-111977977D01*
X124675277Y-111760000D01*
X124656207Y-111542023D01*
X124599575Y-111330670D01*
X124560526Y-111246929D01*
X124509425Y-111137343D01*
X124509423Y-111137340D01*
X124507102Y-111132362D01*
X124381598Y-110953123D01*
X124226877Y-110798402D01*
X124222369Y-110795245D01*
X124222366Y-110795243D01*
X124052148Y-110676055D01*
X124052145Y-110676053D01*
X124047639Y-110672898D01*
X124042657Y-110670575D01*
X124042652Y-110670572D01*
X123854312Y-110582748D01*
X123854311Y-110582747D01*
X123849330Y-110580425D01*
X123844022Y-110579003D01*
X123844020Y-110579002D01*
X123778255Y-110561380D01*
X123637977Y-110523793D01*
X123420000Y-110504723D01*
X123202023Y-110523793D01*
X123061745Y-110561380D01*
X122995980Y-110579002D01*
X122995978Y-110579003D01*
X122990670Y-110580425D01*
X122985690Y-110582747D01*
X122985688Y-110582748D01*
X122797343Y-110670575D01*
X122797340Y-110670577D01*
X122792362Y-110672898D01*
X122613123Y-110798402D01*
X122458402Y-110953123D01*
X122332898Y-111132362D01*
X122330577Y-111137340D01*
X122330575Y-111137343D01*
X122279474Y-111246929D01*
X122240425Y-111330670D01*
X122183793Y-111542023D01*
X122164723Y-111760000D01*
X112679530Y-111760000D01*
X112696250Y-111633000D01*
X112677330Y-111489291D01*
X112621861Y-111355375D01*
X112533621Y-111240379D01*
X112418625Y-111152139D01*
X112284709Y-111096670D01*
X112141000Y-111077750D01*
X111997291Y-111096670D01*
X111863375Y-111152139D01*
X111748379Y-111240379D01*
X111660139Y-111355375D01*
X111604670Y-111489291D01*
X111585750Y-111633000D01*
X101850500Y-111633000D01*
X101850500Y-108712000D01*
X115903750Y-108712000D01*
X115922670Y-108855709D01*
X115978139Y-108989625D01*
X116066379Y-109104621D01*
X116181375Y-109192861D01*
X116315291Y-109248330D01*
X116459000Y-109267250D01*
X116602709Y-109248330D01*
X116736625Y-109192861D01*
X116851621Y-109104621D01*
X116867040Y-109084527D01*
X116924375Y-109042662D01*
X116995246Y-109038440D01*
X117057149Y-109073204D01*
X117066952Y-109084517D01*
X117082379Y-109104621D01*
X117197375Y-109192861D01*
X117331291Y-109248330D01*
X117475000Y-109267250D01*
X117618709Y-109248330D01*
X117752625Y-109192861D01*
X117867621Y-109104621D01*
X117955861Y-108989625D01*
X118011330Y-108855709D01*
X118030250Y-108712000D01*
X118011330Y-108568291D01*
X117955861Y-108434375D01*
X117867621Y-108319379D01*
X117752625Y-108231139D01*
X117618709Y-108175670D01*
X117475000Y-108156750D01*
X117331291Y-108175670D01*
X117197375Y-108231139D01*
X117082379Y-108319379D01*
X117066960Y-108339473D01*
X117009625Y-108381338D01*
X116938754Y-108385560D01*
X116876851Y-108350796D01*
X116867048Y-108339483D01*
X116851621Y-108319379D01*
X116736625Y-108231139D01*
X116602709Y-108175670D01*
X116459000Y-108156750D01*
X116315291Y-108175670D01*
X116181375Y-108231139D01*
X116066379Y-108319379D01*
X115978139Y-108434375D01*
X115922670Y-108568291D01*
X115903750Y-108712000D01*
X101850500Y-108712000D01*
X101850500Y-107728891D01*
X160049698Y-107728891D01*
X160065071Y-108008228D01*
X160065939Y-108012591D01*
X160065939Y-108012592D01*
X160108783Y-108227979D01*
X160119650Y-108282613D01*
X160212345Y-108546570D01*
X160341307Y-108794832D01*
X160378958Y-108847520D01*
X160475056Y-108981996D01*
X160503963Y-109022448D01*
X160697068Y-109224873D01*
X160700564Y-109227629D01*
X160700565Y-109227630D01*
X160752627Y-109268672D01*
X160916768Y-109398071D01*
X160975577Y-109432230D01*
X161154826Y-109536347D01*
X161154832Y-109536350D01*
X161158680Y-109538585D01*
X161162813Y-109540259D01*
X161413846Y-109641938D01*
X161413854Y-109641941D01*
X161417978Y-109643611D01*
X161689487Y-109711054D01*
X161928077Y-109735500D01*
X162101266Y-109735500D01*
X162309061Y-109720787D01*
X162313416Y-109719849D01*
X162313419Y-109719849D01*
X162578208Y-109662842D01*
X162578210Y-109662842D01*
X162582555Y-109661906D01*
X162845023Y-109565076D01*
X162891017Y-109540259D01*
X163087314Y-109434343D01*
X163091230Y-109432230D01*
X163316262Y-109266019D01*
X163358060Y-109224873D01*
X163414149Y-109169657D01*
X163515629Y-109069759D01*
X163518330Y-109066220D01*
X163518336Y-109066213D01*
X163682653Y-108850905D01*
X163685355Y-108847365D01*
X163822052Y-108603275D01*
X163823653Y-108599136D01*
X163823657Y-108599128D01*
X163921389Y-108346503D01*
X163922992Y-108342360D01*
X163986162Y-108069826D01*
X164010302Y-107791109D01*
X163994929Y-107511772D01*
X163940350Y-107237387D01*
X163847655Y-106973430D01*
X163718693Y-106725168D01*
X163686416Y-106680000D01*
X166449750Y-106680000D01*
X166468670Y-106823709D01*
X166524139Y-106957625D01*
X166612379Y-107072621D01*
X166727375Y-107160861D01*
X166861291Y-107216330D01*
X167005000Y-107235250D01*
X167148709Y-107216330D01*
X167282625Y-107160861D01*
X167397621Y-107072621D01*
X167485861Y-106957625D01*
X167541330Y-106823709D01*
X167560250Y-106680000D01*
X167541330Y-106536291D01*
X167485861Y-106402375D01*
X167397621Y-106287379D01*
X167282625Y-106199139D01*
X167148709Y-106143670D01*
X167005000Y-106124750D01*
X166861291Y-106143670D01*
X166727375Y-106199139D01*
X166612379Y-106287379D01*
X166524139Y-106402375D01*
X166468670Y-106536291D01*
X166449750Y-106680000D01*
X163686416Y-106680000D01*
X163556037Y-106497552D01*
X163362932Y-106295127D01*
X163353104Y-106287379D01*
X163146727Y-106124684D01*
X163146725Y-106124682D01*
X163143232Y-106121929D01*
X163013236Y-106046421D01*
X162905174Y-105983653D01*
X162905168Y-105983650D01*
X162901320Y-105981415D01*
X162819985Y-105948471D01*
X162646154Y-105878062D01*
X162646146Y-105878059D01*
X162642022Y-105876389D01*
X162370513Y-105808946D01*
X162131923Y-105784500D01*
X161958734Y-105784500D01*
X161750939Y-105799213D01*
X161746584Y-105800151D01*
X161746581Y-105800151D01*
X161481792Y-105857158D01*
X161481790Y-105857158D01*
X161477445Y-105858094D01*
X161214977Y-105954924D01*
X161211059Y-105957038D01*
X161165881Y-105981415D01*
X160968770Y-106087770D01*
X160743738Y-106253981D01*
X160740559Y-106257110D01*
X160740556Y-106257113D01*
X160645851Y-106350343D01*
X160544371Y-106450241D01*
X160541670Y-106453780D01*
X160541664Y-106453787D01*
X160472450Y-106544480D01*
X160374645Y-106672635D01*
X160372467Y-106676523D01*
X160372467Y-106676524D01*
X160294626Y-106815520D01*
X160237948Y-106916725D01*
X160236347Y-106920864D01*
X160236343Y-106920872D01*
X160175692Y-107077647D01*
X160137008Y-107177640D01*
X160136005Y-107181965D01*
X160136004Y-107181970D01*
X160123159Y-107237387D01*
X160073838Y-107450174D01*
X160049698Y-107728891D01*
X101850500Y-107728891D01*
X101850500Y-106680000D01*
X121364750Y-106680000D01*
X121383670Y-106823709D01*
X121439139Y-106957625D01*
X121527379Y-107072621D01*
X121642375Y-107160861D01*
X121776291Y-107216330D01*
X121920000Y-107235250D01*
X122063709Y-107216330D01*
X122197625Y-107160861D01*
X122312621Y-107072621D01*
X122400861Y-106957625D01*
X122456330Y-106823709D01*
X122475250Y-106680000D01*
X136604750Y-106680000D01*
X136623670Y-106823709D01*
X136679139Y-106957625D01*
X136767379Y-107072621D01*
X136882375Y-107160861D01*
X137016291Y-107216330D01*
X137160000Y-107235250D01*
X137303709Y-107216330D01*
X137437625Y-107160861D01*
X137552621Y-107072621D01*
X137640861Y-106957625D01*
X137696330Y-106823709D01*
X137715250Y-106680000D01*
X151844750Y-106680000D01*
X151863670Y-106823709D01*
X151919139Y-106957625D01*
X152007379Y-107072621D01*
X152122375Y-107160861D01*
X152256291Y-107216330D01*
X152400000Y-107235250D01*
X152543709Y-107216330D01*
X152677625Y-107160861D01*
X152792621Y-107072621D01*
X152880861Y-106957625D01*
X152936330Y-106823709D01*
X152955250Y-106680000D01*
X152936330Y-106536291D01*
X152880861Y-106402375D01*
X152792621Y-106287379D01*
X152677625Y-106199139D01*
X152543709Y-106143670D01*
X152400000Y-106124750D01*
X152256291Y-106143670D01*
X152122375Y-106199139D01*
X152007379Y-106287379D01*
X151919139Y-106402375D01*
X151863670Y-106536291D01*
X151844750Y-106680000D01*
X137715250Y-106680000D01*
X137696330Y-106536291D01*
X137640861Y-106402375D01*
X137552621Y-106287379D01*
X137437625Y-106199139D01*
X137303709Y-106143670D01*
X137160000Y-106124750D01*
X137016291Y-106143670D01*
X136882375Y-106199139D01*
X136767379Y-106287379D01*
X136679139Y-106402375D01*
X136623670Y-106536291D01*
X136604750Y-106680000D01*
X122475250Y-106680000D01*
X122456330Y-106536291D01*
X122400861Y-106402375D01*
X122312621Y-106287379D01*
X122197625Y-106199139D01*
X122063709Y-106143670D01*
X121920000Y-106124750D01*
X121776291Y-106143670D01*
X121642375Y-106199139D01*
X121527379Y-106287379D01*
X121439139Y-106402375D01*
X121383670Y-106536291D01*
X121364750Y-106680000D01*
X101850500Y-106680000D01*
X101850500Y-105410000D01*
X104854750Y-105410000D01*
X104873670Y-105553709D01*
X104929139Y-105687625D01*
X105017379Y-105802621D01*
X105132375Y-105890861D01*
X105266291Y-105946330D01*
X105410000Y-105965250D01*
X105553709Y-105946330D01*
X105687625Y-105890861D01*
X105802621Y-105802621D01*
X105890861Y-105687625D01*
X105946330Y-105553709D01*
X105965250Y-105410000D01*
X154384750Y-105410000D01*
X154403670Y-105553709D01*
X154459139Y-105687625D01*
X154547379Y-105802621D01*
X154662375Y-105890861D01*
X154796291Y-105946330D01*
X154940000Y-105965250D01*
X155083709Y-105946330D01*
X155217625Y-105890861D01*
X155332621Y-105802621D01*
X155420861Y-105687625D01*
X155472730Y-105562400D01*
X173485550Y-105562400D01*
X173504470Y-105706109D01*
X173559939Y-105840025D01*
X173648179Y-105955021D01*
X173763175Y-106043261D01*
X173897091Y-106098730D01*
X174040800Y-106117650D01*
X174184509Y-106098730D01*
X174318425Y-106043261D01*
X174433421Y-105955021D01*
X174521661Y-105840025D01*
X174577130Y-105706109D01*
X174596050Y-105562400D01*
X174577130Y-105418691D01*
X174521661Y-105284775D01*
X174433421Y-105169779D01*
X174318425Y-105081539D01*
X174184509Y-105026070D01*
X174040800Y-105007150D01*
X173897091Y-105026070D01*
X173763175Y-105081539D01*
X173648179Y-105169779D01*
X173559939Y-105284775D01*
X173504470Y-105418691D01*
X173485550Y-105562400D01*
X155472730Y-105562400D01*
X155476330Y-105553709D01*
X155495250Y-105410000D01*
X155476330Y-105266291D01*
X155420861Y-105132375D01*
X155332621Y-105017379D01*
X155217625Y-104929139D01*
X155083709Y-104873670D01*
X154940000Y-104854750D01*
X154796291Y-104873670D01*
X154662375Y-104929139D01*
X154547379Y-105017379D01*
X154459139Y-105132375D01*
X154403670Y-105266291D01*
X154384750Y-105410000D01*
X105965250Y-105410000D01*
X105946330Y-105266291D01*
X105890861Y-105132375D01*
X105802621Y-105017379D01*
X105687625Y-104929139D01*
X105553709Y-104873670D01*
X105410000Y-104854750D01*
X105266291Y-104873670D01*
X105132375Y-104929139D01*
X105017379Y-105017379D01*
X104929139Y-105132375D01*
X104873670Y-105266291D01*
X104854750Y-105410000D01*
X101850500Y-105410000D01*
X101850500Y-103028891D01*
X130079698Y-103028891D01*
X130095071Y-103308228D01*
X130149650Y-103582613D01*
X130242345Y-103846570D01*
X130371307Y-104094832D01*
X130533963Y-104322448D01*
X130727068Y-104524873D01*
X130730564Y-104527629D01*
X130730565Y-104527630D01*
X130782627Y-104568672D01*
X130946768Y-104698071D01*
X131005577Y-104732230D01*
X131184826Y-104836347D01*
X131184832Y-104836350D01*
X131188680Y-104838585D01*
X131192813Y-104840259D01*
X131443846Y-104941938D01*
X131443854Y-104941941D01*
X131447978Y-104943611D01*
X131719487Y-105011054D01*
X131958077Y-105035500D01*
X132131266Y-105035500D01*
X132339061Y-105020787D01*
X132343416Y-105019849D01*
X132343419Y-105019849D01*
X132608208Y-104962842D01*
X132608210Y-104962842D01*
X132612555Y-104961906D01*
X132875023Y-104865076D01*
X132892163Y-104855828D01*
X133117314Y-104734343D01*
X133121230Y-104732230D01*
X133346262Y-104566019D01*
X133388060Y-104524873D01*
X133542448Y-104372890D01*
X133545629Y-104369759D01*
X133548330Y-104366220D01*
X133548336Y-104366213D01*
X133712653Y-104150905D01*
X133715355Y-104147365D01*
X133852052Y-103903275D01*
X133853653Y-103899136D01*
X133853657Y-103899128D01*
X133951389Y-103646503D01*
X133952992Y-103642360D01*
X134016162Y-103369826D01*
X134040302Y-103091109D01*
X134024929Y-102811772D01*
X133970350Y-102537387D01*
X133877655Y-102273430D01*
X133748693Y-102025168D01*
X133641662Y-101875392D01*
X133588625Y-101801173D01*
X133588622Y-101801169D01*
X133586037Y-101797552D01*
X133392932Y-101595127D01*
X133340739Y-101553981D01*
X133176727Y-101424684D01*
X133176725Y-101424682D01*
X133173232Y-101421929D01*
X133051241Y-101351071D01*
X132935174Y-101283653D01*
X132935168Y-101283650D01*
X132931320Y-101281415D01*
X132862112Y-101253383D01*
X132676154Y-101178062D01*
X132676146Y-101178059D01*
X132672022Y-101176389D01*
X132400513Y-101108946D01*
X132161923Y-101084500D01*
X131988734Y-101084500D01*
X131780939Y-101099213D01*
X131776584Y-101100151D01*
X131776581Y-101100151D01*
X131511792Y-101157158D01*
X131511790Y-101157158D01*
X131507445Y-101158094D01*
X131244977Y-101254924D01*
X131241059Y-101257038D01*
X131195881Y-101281415D01*
X130998770Y-101387770D01*
X130773738Y-101553981D01*
X130770559Y-101557110D01*
X130770556Y-101557113D01*
X130675851Y-101650343D01*
X130574371Y-101750241D01*
X130571670Y-101753780D01*
X130571664Y-101753787D01*
X130458828Y-101901639D01*
X130404645Y-101972635D01*
X130267948Y-102216725D01*
X130266347Y-102220864D01*
X130266343Y-102220872D01*
X130208449Y-102370520D01*
X130167008Y-102477640D01*
X130103838Y-102750174D01*
X130079698Y-103028891D01*
X101850500Y-103028891D01*
X101850500Y-102412800D01*
X109172750Y-102412800D01*
X109191670Y-102556509D01*
X109247139Y-102690425D01*
X109335379Y-102805421D01*
X109450375Y-102893661D01*
X109584291Y-102949130D01*
X109728000Y-102968050D01*
X109871709Y-102949130D01*
X110005625Y-102893661D01*
X110120621Y-102805421D01*
X110208861Y-102690425D01*
X110264330Y-102556509D01*
X110283250Y-102412800D01*
X110264330Y-102269091D01*
X110250209Y-102235000D01*
X116919750Y-102235000D01*
X116938670Y-102378709D01*
X116994139Y-102512625D01*
X117082379Y-102627621D01*
X117197375Y-102715861D01*
X117331291Y-102771330D01*
X117475000Y-102790250D01*
X117618709Y-102771330D01*
X117752625Y-102715861D01*
X117867621Y-102627621D01*
X117955861Y-102512625D01*
X118011330Y-102378709D01*
X118030250Y-102235000D01*
X118011330Y-102091291D01*
X117955861Y-101957375D01*
X117867621Y-101842379D01*
X117752625Y-101754139D01*
X117618709Y-101698670D01*
X117475000Y-101679750D01*
X117331291Y-101698670D01*
X117197375Y-101754139D01*
X117082379Y-101842379D01*
X116994139Y-101957375D01*
X116938670Y-102091291D01*
X116919750Y-102235000D01*
X110250209Y-102235000D01*
X110208861Y-102135175D01*
X110120621Y-102020179D01*
X110005625Y-101931939D01*
X109871709Y-101876470D01*
X109728000Y-101857550D01*
X109584291Y-101876470D01*
X109450375Y-101931939D01*
X109335379Y-102020179D01*
X109247139Y-102135175D01*
X109191670Y-102269091D01*
X109172750Y-102412800D01*
X101850500Y-102412800D01*
X101850500Y-100965000D01*
X144859750Y-100965000D01*
X144878670Y-101108709D01*
X144934139Y-101242625D01*
X145022379Y-101357621D01*
X145137375Y-101445861D01*
X145271291Y-101501330D01*
X145415000Y-101520250D01*
X145558709Y-101501330D01*
X145692625Y-101445861D01*
X145807621Y-101357621D01*
X145895861Y-101242625D01*
X145951330Y-101108709D01*
X145970250Y-100965000D01*
X145951330Y-100821291D01*
X145895861Y-100687375D01*
X145855519Y-100634800D01*
X165459150Y-100634800D01*
X165478070Y-100778509D01*
X165533539Y-100912425D01*
X165621779Y-101027421D01*
X165736775Y-101115661D01*
X165870691Y-101171130D01*
X166014400Y-101190050D01*
X166158109Y-101171130D01*
X166292025Y-101115661D01*
X166407021Y-101027421D01*
X166454919Y-100965000D01*
X168354750Y-100965000D01*
X168373670Y-101108709D01*
X168429139Y-101242625D01*
X168517379Y-101357621D01*
X168632375Y-101445861D01*
X168766291Y-101501330D01*
X168910000Y-101520250D01*
X169053709Y-101501330D01*
X169187625Y-101445861D01*
X169302621Y-101357621D01*
X169390861Y-101242625D01*
X169446330Y-101108709D01*
X169465250Y-100965000D01*
X169446330Y-100821291D01*
X169390861Y-100687375D01*
X169302621Y-100572379D01*
X169187625Y-100484139D01*
X169053709Y-100428670D01*
X168910000Y-100409750D01*
X168766291Y-100428670D01*
X168632375Y-100484139D01*
X168517379Y-100572379D01*
X168429139Y-100687375D01*
X168373670Y-100821291D01*
X168354750Y-100965000D01*
X166454919Y-100965000D01*
X166495261Y-100912425D01*
X166550730Y-100778509D01*
X166569650Y-100634800D01*
X166550730Y-100491091D01*
X166495261Y-100357175D01*
X166407021Y-100242179D01*
X166292025Y-100153939D01*
X166158109Y-100098470D01*
X166014400Y-100079550D01*
X165870691Y-100098470D01*
X165736775Y-100153939D01*
X165621779Y-100242179D01*
X165533539Y-100357175D01*
X165478070Y-100491091D01*
X165459150Y-100634800D01*
X145855519Y-100634800D01*
X145807621Y-100572379D01*
X145692625Y-100484139D01*
X145558709Y-100428670D01*
X145415000Y-100409750D01*
X145271291Y-100428670D01*
X145137375Y-100484139D01*
X145022379Y-100572379D01*
X144934139Y-100687375D01*
X144878670Y-100821291D01*
X144859750Y-100965000D01*
X101850500Y-100965000D01*
X101850500Y-100084674D01*
X122169500Y-100084674D01*
X122184034Y-100157740D01*
X122239399Y-100240601D01*
X122322260Y-100295966D01*
X122395326Y-100310500D01*
X124444674Y-100310500D01*
X124517740Y-100295966D01*
X124600601Y-100240601D01*
X124655966Y-100157740D01*
X124670500Y-100084674D01*
X124670500Y-99695000D01*
X129619750Y-99695000D01*
X129638670Y-99838709D01*
X129694139Y-99972625D01*
X129782379Y-100087621D01*
X129897375Y-100175861D01*
X130031291Y-100231330D01*
X130175000Y-100250250D01*
X130318709Y-100231330D01*
X130452625Y-100175861D01*
X130567621Y-100087621D01*
X130655861Y-99972625D01*
X130676168Y-99923600D01*
X167084750Y-99923600D01*
X167103670Y-100067309D01*
X167159139Y-100201225D01*
X167247379Y-100316221D01*
X167362375Y-100404461D01*
X167496291Y-100459930D01*
X167640000Y-100478850D01*
X167783709Y-100459930D01*
X167917625Y-100404461D01*
X168032621Y-100316221D01*
X168120861Y-100201225D01*
X168176330Y-100067309D01*
X168195250Y-99923600D01*
X168176330Y-99779891D01*
X168120861Y-99645975D01*
X168032621Y-99530979D01*
X167917625Y-99442739D01*
X167783709Y-99387270D01*
X167640000Y-99368350D01*
X167496291Y-99387270D01*
X167362375Y-99442739D01*
X167247379Y-99530979D01*
X167159139Y-99645975D01*
X167103670Y-99779891D01*
X167084750Y-99923600D01*
X130676168Y-99923600D01*
X130711330Y-99838709D01*
X130730250Y-99695000D01*
X130711330Y-99551291D01*
X130655861Y-99417375D01*
X130567621Y-99302379D01*
X130452625Y-99214139D01*
X130318709Y-99158670D01*
X130175000Y-99139750D01*
X130031291Y-99158670D01*
X129897375Y-99214139D01*
X129782379Y-99302379D01*
X129694139Y-99417375D01*
X129638670Y-99551291D01*
X129619750Y-99695000D01*
X124670500Y-99695000D01*
X124670500Y-98425000D01*
X159464750Y-98425000D01*
X159483670Y-98568709D01*
X159539139Y-98702625D01*
X159627379Y-98817621D01*
X159742375Y-98905861D01*
X159876291Y-98961330D01*
X160020000Y-98980250D01*
X160163709Y-98961330D01*
X160297625Y-98905861D01*
X160412621Y-98817621D01*
X160500861Y-98702625D01*
X160556330Y-98568709D01*
X160575250Y-98425000D01*
X160556330Y-98281291D01*
X160500861Y-98147375D01*
X160412621Y-98032379D01*
X160297625Y-97944139D01*
X160163709Y-97888670D01*
X160020000Y-97869750D01*
X159876291Y-97888670D01*
X159742375Y-97944139D01*
X159627379Y-98032379D01*
X159539139Y-98147375D01*
X159483670Y-98281291D01*
X159464750Y-98425000D01*
X124670500Y-98425000D01*
X124670500Y-98035326D01*
X124655966Y-97962260D01*
X124600601Y-97879399D01*
X124517740Y-97824034D01*
X124444674Y-97809500D01*
X122395326Y-97809500D01*
X122322260Y-97824034D01*
X122239399Y-97879399D01*
X122184034Y-97962260D01*
X122169500Y-98035326D01*
X122169500Y-100084674D01*
X101850500Y-100084674D01*
X101850500Y-97637600D01*
X116995950Y-97637600D01*
X117014870Y-97781309D01*
X117070339Y-97915225D01*
X117158579Y-98030221D01*
X117273575Y-98118461D01*
X117407491Y-98173930D01*
X117551200Y-98192850D01*
X117694909Y-98173930D01*
X117828825Y-98118461D01*
X117943821Y-98030221D01*
X118032061Y-97915225D01*
X118087530Y-97781309D01*
X118106450Y-97637600D01*
X118087530Y-97493891D01*
X118032061Y-97359975D01*
X117943821Y-97244979D01*
X117859660Y-97180400D01*
X144173950Y-97180400D01*
X144192870Y-97324109D01*
X144248339Y-97458025D01*
X144336579Y-97573021D01*
X144451575Y-97661261D01*
X144585491Y-97716730D01*
X144729200Y-97735650D01*
X144872909Y-97716730D01*
X145006825Y-97661261D01*
X145121821Y-97573021D01*
X145210061Y-97458025D01*
X145265530Y-97324109D01*
X145284450Y-97180400D01*
X145265530Y-97036691D01*
X145210061Y-96902775D01*
X145189209Y-96875600D01*
X154384750Y-96875600D01*
X154403670Y-97019309D01*
X154459139Y-97153225D01*
X154547379Y-97268221D01*
X154662375Y-97356461D01*
X154796291Y-97411930D01*
X154940000Y-97430850D01*
X155083709Y-97411930D01*
X155217625Y-97356461D01*
X155332621Y-97268221D01*
X155420861Y-97153225D01*
X155476330Y-97019309D01*
X155495250Y-96875600D01*
X155476330Y-96731891D01*
X155420861Y-96597975D01*
X155332621Y-96482979D01*
X155217625Y-96394739D01*
X155083709Y-96339270D01*
X154940000Y-96320350D01*
X154796291Y-96339270D01*
X154662375Y-96394739D01*
X154547379Y-96482979D01*
X154459139Y-96597975D01*
X154403670Y-96731891D01*
X154384750Y-96875600D01*
X145189209Y-96875600D01*
X145121821Y-96787779D01*
X145006825Y-96699539D01*
X144999196Y-96696379D01*
X144999193Y-96696377D01*
X144907638Y-96658455D01*
X144852357Y-96613908D01*
X144829935Y-96546544D01*
X144847493Y-96477753D01*
X144899454Y-96429374D01*
X144919002Y-96421950D01*
X144923709Y-96421330D01*
X144931336Y-96418171D01*
X144931339Y-96418170D01*
X145049996Y-96369021D01*
X145057625Y-96365861D01*
X145172621Y-96277621D01*
X145260861Y-96162625D01*
X145302209Y-96062800D01*
X165306750Y-96062800D01*
X165325670Y-96206509D01*
X165381139Y-96340425D01*
X165469379Y-96455421D01*
X165584375Y-96543661D01*
X165718291Y-96599130D01*
X165862000Y-96618050D01*
X166005709Y-96599130D01*
X166139625Y-96543661D01*
X166254621Y-96455421D01*
X166342861Y-96340425D01*
X166398330Y-96206509D01*
X166417250Y-96062800D01*
X166398330Y-95919091D01*
X166342861Y-95785175D01*
X166254621Y-95670179D01*
X166139625Y-95581939D01*
X166005709Y-95526470D01*
X165862000Y-95507550D01*
X165718291Y-95526470D01*
X165584375Y-95581939D01*
X165469379Y-95670179D01*
X165381139Y-95785175D01*
X165325670Y-95919091D01*
X165306750Y-96062800D01*
X145302209Y-96062800D01*
X145316330Y-96028709D01*
X145335250Y-95885000D01*
X145316330Y-95741291D01*
X145260861Y-95607375D01*
X145172621Y-95492379D01*
X145057625Y-95404139D01*
X144923709Y-95348670D01*
X144780000Y-95329750D01*
X144636291Y-95348670D01*
X144502375Y-95404139D01*
X144387379Y-95492379D01*
X144299139Y-95607375D01*
X144243670Y-95741291D01*
X144224750Y-95885000D01*
X144243670Y-96028709D01*
X144299139Y-96162625D01*
X144387379Y-96277621D01*
X144502375Y-96365861D01*
X144510002Y-96369020D01*
X144510007Y-96369023D01*
X144601562Y-96406945D01*
X144656843Y-96451492D01*
X144679265Y-96518856D01*
X144661707Y-96587647D01*
X144609746Y-96636026D01*
X144590198Y-96643450D01*
X144585491Y-96644070D01*
X144577864Y-96647229D01*
X144577861Y-96647230D01*
X144459209Y-96696377D01*
X144451575Y-96699539D01*
X144336579Y-96787779D01*
X144248339Y-96902775D01*
X144192870Y-97036691D01*
X144173950Y-97180400D01*
X117859660Y-97180400D01*
X117828825Y-97156739D01*
X117694909Y-97101270D01*
X117551200Y-97082350D01*
X117407491Y-97101270D01*
X117273575Y-97156739D01*
X117158579Y-97244979D01*
X117070339Y-97359975D01*
X117014870Y-97493891D01*
X116995950Y-97637600D01*
X101850500Y-97637600D01*
X101850500Y-94742000D01*
X111585750Y-94742000D01*
X111604670Y-94885709D01*
X111660139Y-95019625D01*
X111748379Y-95134621D01*
X111863375Y-95222861D01*
X111997291Y-95278330D01*
X112141000Y-95297250D01*
X112284709Y-95278330D01*
X112353105Y-95250000D01*
X124361950Y-95250000D01*
X124380870Y-95393709D01*
X124436339Y-95527625D01*
X124524579Y-95642621D01*
X124639575Y-95730861D01*
X124773491Y-95786330D01*
X124917200Y-95805250D01*
X125060909Y-95786330D01*
X125194825Y-95730861D01*
X125309821Y-95642621D01*
X125398061Y-95527625D01*
X125453530Y-95393709D01*
X125472450Y-95250000D01*
X154384750Y-95250000D01*
X154403670Y-95393709D01*
X154459139Y-95527625D01*
X154547379Y-95642621D01*
X154662375Y-95730861D01*
X154796291Y-95786330D01*
X154940000Y-95805250D01*
X155083709Y-95786330D01*
X155217625Y-95730861D01*
X155332621Y-95642621D01*
X155420861Y-95527625D01*
X155451688Y-95453200D01*
X162207950Y-95453200D01*
X162226870Y-95596909D01*
X162282339Y-95730825D01*
X162370579Y-95845821D01*
X162485575Y-95934061D01*
X162619491Y-95989530D01*
X162763200Y-96008450D01*
X162906909Y-95989530D01*
X163040825Y-95934061D01*
X163155821Y-95845821D01*
X163244061Y-95730825D01*
X163299530Y-95596909D01*
X163318450Y-95453200D01*
X163299530Y-95309491D01*
X163244061Y-95175575D01*
X163155821Y-95060579D01*
X163040825Y-94972339D01*
X162906909Y-94916870D01*
X162763200Y-94897950D01*
X162619491Y-94916870D01*
X162485575Y-94972339D01*
X162370579Y-95060579D01*
X162282339Y-95175575D01*
X162226870Y-95309491D01*
X162207950Y-95453200D01*
X155451688Y-95453200D01*
X155476330Y-95393709D01*
X155495250Y-95250000D01*
X155476330Y-95106291D01*
X155420861Y-94972375D01*
X155332621Y-94857379D01*
X155217625Y-94769139D01*
X155083709Y-94713670D01*
X154940000Y-94694750D01*
X154796291Y-94713670D01*
X154662375Y-94769139D01*
X154547379Y-94857379D01*
X154459139Y-94972375D01*
X154403670Y-95106291D01*
X154384750Y-95250000D01*
X125472450Y-95250000D01*
X125453530Y-95106291D01*
X125398061Y-94972375D01*
X125309821Y-94857379D01*
X125194825Y-94769139D01*
X125060909Y-94713670D01*
X124917200Y-94694750D01*
X124773491Y-94713670D01*
X124639575Y-94769139D01*
X124524579Y-94857379D01*
X124436339Y-94972375D01*
X124380870Y-95106291D01*
X124361950Y-95250000D01*
X112353105Y-95250000D01*
X112418625Y-95222861D01*
X112533621Y-95134621D01*
X112621861Y-95019625D01*
X112677330Y-94885709D01*
X112696250Y-94742000D01*
X112677330Y-94598291D01*
X112621861Y-94464375D01*
X112562028Y-94386400D01*
X144326350Y-94386400D01*
X144345270Y-94530109D01*
X144400739Y-94664025D01*
X144488979Y-94779021D01*
X144603975Y-94867261D01*
X144737891Y-94922730D01*
X144881600Y-94941650D01*
X145025309Y-94922730D01*
X145159225Y-94867261D01*
X145274221Y-94779021D01*
X145362461Y-94664025D01*
X145417930Y-94530109D01*
X145436850Y-94386400D01*
X145417930Y-94242691D01*
X145362461Y-94108775D01*
X145274221Y-93993779D01*
X145159225Y-93905539D01*
X145025309Y-93850070D01*
X144881600Y-93831150D01*
X144737891Y-93850070D01*
X144603975Y-93905539D01*
X144488979Y-93993779D01*
X144400739Y-94108775D01*
X144345270Y-94242691D01*
X144326350Y-94386400D01*
X112562028Y-94386400D01*
X112533621Y-94349379D01*
X112418625Y-94261139D01*
X112284709Y-94205670D01*
X112141000Y-94186750D01*
X111997291Y-94205670D01*
X111863375Y-94261139D01*
X111748379Y-94349379D01*
X111660139Y-94464375D01*
X111604670Y-94598291D01*
X111585750Y-94742000D01*
X101850500Y-94742000D01*
X101850500Y-91948000D01*
X109680750Y-91948000D01*
X109699670Y-92091709D01*
X109755139Y-92225625D01*
X109843379Y-92340621D01*
X109958375Y-92428861D01*
X110092291Y-92484330D01*
X110236000Y-92503250D01*
X110379709Y-92484330D01*
X110513625Y-92428861D01*
X110628621Y-92340621D01*
X110716861Y-92225625D01*
X110772330Y-92091709D01*
X110791250Y-91948000D01*
X110772330Y-91804291D01*
X110716861Y-91670375D01*
X110628621Y-91555379D01*
X110513625Y-91467139D01*
X110379709Y-91411670D01*
X110236000Y-91392750D01*
X110092291Y-91411670D01*
X109958375Y-91467139D01*
X109843379Y-91555379D01*
X109755139Y-91670375D01*
X109699670Y-91804291D01*
X109680750Y-91948000D01*
X101850500Y-91948000D01*
X101850500Y-90805000D01*
X137874750Y-90805000D01*
X137893670Y-90948709D01*
X137949139Y-91082625D01*
X138037379Y-91197621D01*
X138152375Y-91285861D01*
X138286291Y-91341330D01*
X138430000Y-91360250D01*
X138573709Y-91341330D01*
X138707625Y-91285861D01*
X138822621Y-91197621D01*
X138910861Y-91082625D01*
X138934937Y-91024500D01*
X143919950Y-91024500D01*
X143938870Y-91168209D01*
X143994339Y-91302125D01*
X144082579Y-91417121D01*
X144197575Y-91505361D01*
X144331491Y-91560830D01*
X144475200Y-91579750D01*
X144618909Y-91560830D01*
X144752825Y-91505361D01*
X144867821Y-91417121D01*
X144956061Y-91302125D01*
X145011530Y-91168209D01*
X145030450Y-91024500D01*
X145024880Y-90982193D01*
X152850005Y-90982193D01*
X152868925Y-91125902D01*
X152924394Y-91259818D01*
X153012634Y-91374814D01*
X153127630Y-91463054D01*
X153261546Y-91518523D01*
X153405255Y-91537443D01*
X153548964Y-91518523D01*
X153682880Y-91463054D01*
X153797876Y-91374814D01*
X153886116Y-91259818D01*
X153941585Y-91125902D01*
X153960505Y-90982193D01*
X153961897Y-90982376D01*
X153979429Y-90922669D01*
X154033085Y-90876176D01*
X154103359Y-90866072D01*
X154133644Y-90874381D01*
X154152498Y-90882190D01*
X154161291Y-90885832D01*
X154305000Y-90904752D01*
X154448709Y-90885832D01*
X154477270Y-90874002D01*
X155019750Y-90874002D01*
X155038670Y-91017711D01*
X155094139Y-91151627D01*
X155182379Y-91266623D01*
X155297375Y-91354863D01*
X155431291Y-91410332D01*
X155575000Y-91429252D01*
X155718709Y-91410332D01*
X155852625Y-91354863D01*
X155967621Y-91266623D01*
X156055861Y-91151627D01*
X156111330Y-91017711D01*
X156130250Y-90874002D01*
X156121166Y-90805000D01*
X161369750Y-90805000D01*
X161388670Y-90948709D01*
X161444139Y-91082625D01*
X161532379Y-91197621D01*
X161647375Y-91285861D01*
X161781291Y-91341330D01*
X161925000Y-91360250D01*
X162068709Y-91341330D01*
X162202625Y-91285861D01*
X162317621Y-91197621D01*
X162405861Y-91082625D01*
X162461330Y-90948709D01*
X162480250Y-90805000D01*
X162461330Y-90661291D01*
X162405861Y-90527375D01*
X162317621Y-90412379D01*
X162202625Y-90324139D01*
X162068709Y-90268670D01*
X161925000Y-90249750D01*
X161781291Y-90268670D01*
X161647375Y-90324139D01*
X161532379Y-90412379D01*
X161444139Y-90527375D01*
X161388670Y-90661291D01*
X161369750Y-90805000D01*
X156121166Y-90805000D01*
X156111330Y-90730293D01*
X156055861Y-90596377D01*
X155967621Y-90481381D01*
X155852625Y-90393141D01*
X155718709Y-90337672D01*
X155575000Y-90318752D01*
X155431291Y-90337672D01*
X155297375Y-90393141D01*
X155182379Y-90481381D01*
X155094139Y-90596377D01*
X155038670Y-90730293D01*
X155019750Y-90874002D01*
X154477270Y-90874002D01*
X154582625Y-90830363D01*
X154697621Y-90742123D01*
X154785861Y-90627127D01*
X154841330Y-90493211D01*
X154860250Y-90349502D01*
X154841330Y-90205793D01*
X154826504Y-90170000D01*
X168354750Y-90170000D01*
X168373670Y-90313709D01*
X168429139Y-90447625D01*
X168517379Y-90562621D01*
X168632375Y-90650861D01*
X168766291Y-90706330D01*
X168910000Y-90725250D01*
X169053709Y-90706330D01*
X169187625Y-90650861D01*
X169302621Y-90562621D01*
X169390861Y-90447625D01*
X169446330Y-90313709D01*
X169465250Y-90170000D01*
X169446330Y-90026291D01*
X169390861Y-89892375D01*
X169302621Y-89777379D01*
X169187625Y-89689139D01*
X169053709Y-89633670D01*
X168910000Y-89614750D01*
X168766291Y-89633670D01*
X168632375Y-89689139D01*
X168517379Y-89777379D01*
X168429139Y-89892375D01*
X168373670Y-90026291D01*
X168354750Y-90170000D01*
X154826504Y-90170000D01*
X154785861Y-90071877D01*
X154697621Y-89956881D01*
X154582625Y-89868641D01*
X154448709Y-89813172D01*
X154305000Y-89794252D01*
X154161291Y-89813172D01*
X154027375Y-89868641D01*
X153912379Y-89956881D01*
X153824139Y-90071877D01*
X153768670Y-90205793D01*
X153749750Y-90349502D01*
X153748358Y-90349319D01*
X153730826Y-90409026D01*
X153677170Y-90455519D01*
X153606896Y-90465623D01*
X153576611Y-90457314D01*
X153556598Y-90449025D01*
X153548964Y-90445863D01*
X153405255Y-90426943D01*
X153261546Y-90445863D01*
X153127630Y-90501332D01*
X153012634Y-90589572D01*
X152924394Y-90704568D01*
X152868925Y-90838484D01*
X152850005Y-90982193D01*
X145024880Y-90982193D01*
X145011530Y-90880791D01*
X144956061Y-90746875D01*
X144867821Y-90631879D01*
X144752825Y-90543639D01*
X144618909Y-90488170D01*
X144475200Y-90469250D01*
X144331491Y-90488170D01*
X144197575Y-90543639D01*
X144082579Y-90631879D01*
X143994339Y-90746875D01*
X143938870Y-90880791D01*
X143919950Y-91024500D01*
X138934937Y-91024500D01*
X138966330Y-90948709D01*
X138985250Y-90805000D01*
X138966330Y-90661291D01*
X138910861Y-90527375D01*
X138822621Y-90412379D01*
X138707625Y-90324139D01*
X138573709Y-90268670D01*
X138430000Y-90249750D01*
X138286291Y-90268670D01*
X138152375Y-90324139D01*
X138037379Y-90412379D01*
X137949139Y-90527375D01*
X137893670Y-90661291D01*
X137874750Y-90805000D01*
X101850500Y-90805000D01*
X101850500Y-90170000D01*
X108029750Y-90170000D01*
X108048670Y-90313709D01*
X108104139Y-90447625D01*
X108192379Y-90562621D01*
X108307375Y-90650861D01*
X108441291Y-90706330D01*
X108585000Y-90725250D01*
X108728709Y-90706330D01*
X108862625Y-90650861D01*
X108977621Y-90562621D01*
X109065861Y-90447625D01*
X109121330Y-90313709D01*
X109140250Y-90170000D01*
X109121330Y-90026291D01*
X109065861Y-89892375D01*
X108977621Y-89777379D01*
X108862625Y-89689139D01*
X108728709Y-89633670D01*
X108585000Y-89614750D01*
X108441291Y-89633670D01*
X108307375Y-89689139D01*
X108192379Y-89777379D01*
X108104139Y-89892375D01*
X108048670Y-90026291D01*
X108029750Y-90170000D01*
X101850500Y-90170000D01*
X101850500Y-89535000D01*
X121364750Y-89535000D01*
X121383670Y-89678709D01*
X121439139Y-89812625D01*
X121527379Y-89927621D01*
X121642375Y-90015861D01*
X121776291Y-90071330D01*
X121920000Y-90090250D01*
X122063709Y-90071330D01*
X122197625Y-90015861D01*
X122312621Y-89927621D01*
X122400861Y-89812625D01*
X122456330Y-89678709D01*
X122475250Y-89535000D01*
X122456330Y-89391291D01*
X122400861Y-89257375D01*
X122312621Y-89142379D01*
X122197625Y-89054139D01*
X122063709Y-88998670D01*
X121920000Y-88979750D01*
X121776291Y-88998670D01*
X121642375Y-89054139D01*
X121527379Y-89142379D01*
X121439139Y-89257375D01*
X121383670Y-89391291D01*
X121364750Y-89535000D01*
X101850500Y-89535000D01*
X101850500Y-88265000D01*
X146129750Y-88265000D01*
X146148670Y-88408709D01*
X146204139Y-88542625D01*
X146292379Y-88657621D01*
X146407375Y-88745861D01*
X146541291Y-88801330D01*
X146685000Y-88820250D01*
X146828709Y-88801330D01*
X146962625Y-88745861D01*
X147077621Y-88657621D01*
X147165861Y-88542625D01*
X147221330Y-88408709D01*
X147240250Y-88265000D01*
X147221330Y-88121291D01*
X147165861Y-87987375D01*
X147077621Y-87872379D01*
X147026562Y-87833200D01*
X173942750Y-87833200D01*
X173961670Y-87976909D01*
X174017139Y-88110825D01*
X174105379Y-88225821D01*
X174220375Y-88314061D01*
X174354291Y-88369530D01*
X174498000Y-88388450D01*
X174641709Y-88369530D01*
X174775625Y-88314061D01*
X174890621Y-88225821D01*
X174978861Y-88110825D01*
X175034330Y-87976909D01*
X175053250Y-87833200D01*
X175034330Y-87689491D01*
X174978861Y-87555575D01*
X174890621Y-87440579D01*
X174775625Y-87352339D01*
X174641709Y-87296870D01*
X174498000Y-87277950D01*
X174354291Y-87296870D01*
X174220375Y-87352339D01*
X174105379Y-87440579D01*
X174017139Y-87555575D01*
X173961670Y-87689491D01*
X173942750Y-87833200D01*
X147026562Y-87833200D01*
X146962625Y-87784139D01*
X146828709Y-87728670D01*
X146685000Y-87709750D01*
X146541291Y-87728670D01*
X146407375Y-87784139D01*
X146292379Y-87872379D01*
X146204139Y-87987375D01*
X146148670Y-88121291D01*
X146129750Y-88265000D01*
X101850500Y-88265000D01*
X101850500Y-87426800D01*
X108664750Y-87426800D01*
X108683670Y-87570509D01*
X108739139Y-87704425D01*
X108827379Y-87819421D01*
X108942375Y-87907661D01*
X109076291Y-87963130D01*
X109220000Y-87982050D01*
X109363709Y-87963130D01*
X109497625Y-87907661D01*
X109612621Y-87819421D01*
X109700861Y-87704425D01*
X109731688Y-87630000D01*
X138890750Y-87630000D01*
X138909670Y-87773709D01*
X138965139Y-87907625D01*
X139053379Y-88022621D01*
X139168375Y-88110861D01*
X139302291Y-88166330D01*
X139446000Y-88185250D01*
X139589709Y-88166330D01*
X139723625Y-88110861D01*
X139838621Y-88022621D01*
X139926861Y-87907625D01*
X139982330Y-87773709D01*
X140001250Y-87630000D01*
X139982330Y-87486291D01*
X139926861Y-87352375D01*
X139838621Y-87237379D01*
X139723625Y-87149139D01*
X139589709Y-87093670D01*
X139446000Y-87074750D01*
X139302291Y-87093670D01*
X139168375Y-87149139D01*
X139053379Y-87237379D01*
X138965139Y-87352375D01*
X138909670Y-87486291D01*
X138890750Y-87630000D01*
X109731688Y-87630000D01*
X109756330Y-87570509D01*
X109775250Y-87426800D01*
X109756330Y-87283091D01*
X109700861Y-87149175D01*
X109612621Y-87034179D01*
X109561562Y-86995000D01*
X117554750Y-86995000D01*
X117573670Y-87138709D01*
X117629139Y-87272625D01*
X117717379Y-87387621D01*
X117832375Y-87475861D01*
X117966291Y-87531330D01*
X118110000Y-87550250D01*
X118253709Y-87531330D01*
X118387625Y-87475861D01*
X118502621Y-87387621D01*
X118590861Y-87272625D01*
X118646330Y-87138709D01*
X118665250Y-86995000D01*
X132159750Y-86995000D01*
X132178670Y-87138709D01*
X132234139Y-87272625D01*
X132322379Y-87387621D01*
X132437375Y-87475861D01*
X132571291Y-87531330D01*
X132715000Y-87550250D01*
X132858709Y-87531330D01*
X132992625Y-87475861D01*
X133107621Y-87387621D01*
X133195861Y-87272625D01*
X133251330Y-87138709D01*
X133266906Y-87020400D01*
X159312350Y-87020400D01*
X159331270Y-87164109D01*
X159386739Y-87298025D01*
X159474979Y-87413021D01*
X159589975Y-87501261D01*
X159723891Y-87556730D01*
X159867600Y-87575650D01*
X160011309Y-87556730D01*
X160145225Y-87501261D01*
X160260221Y-87413021D01*
X160348461Y-87298025D01*
X160403930Y-87164109D01*
X160422850Y-87020400D01*
X160403930Y-86876691D01*
X160348461Y-86742775D01*
X160260221Y-86627779D01*
X160145225Y-86539539D01*
X160011309Y-86484070D01*
X159867600Y-86465150D01*
X159723891Y-86484070D01*
X159589975Y-86539539D01*
X159474979Y-86627779D01*
X159386739Y-86742775D01*
X159331270Y-86876691D01*
X159312350Y-87020400D01*
X133266906Y-87020400D01*
X133270250Y-86995000D01*
X133251330Y-86851291D01*
X133195861Y-86717375D01*
X133107621Y-86602379D01*
X132992625Y-86514139D01*
X132858709Y-86458670D01*
X132715000Y-86439750D01*
X132571291Y-86458670D01*
X132437375Y-86514139D01*
X132322379Y-86602379D01*
X132234139Y-86717375D01*
X132178670Y-86851291D01*
X132159750Y-86995000D01*
X118665250Y-86995000D01*
X118646330Y-86851291D01*
X118590861Y-86717375D01*
X118502621Y-86602379D01*
X118387625Y-86514139D01*
X118253709Y-86458670D01*
X118110000Y-86439750D01*
X117966291Y-86458670D01*
X117832375Y-86514139D01*
X117717379Y-86602379D01*
X117629139Y-86717375D01*
X117573670Y-86851291D01*
X117554750Y-86995000D01*
X109561562Y-86995000D01*
X109497625Y-86945939D01*
X109363709Y-86890470D01*
X109220000Y-86871550D01*
X109076291Y-86890470D01*
X108942375Y-86945939D01*
X108827379Y-87034179D01*
X108739139Y-87149175D01*
X108683670Y-87283091D01*
X108664750Y-87426800D01*
X101850500Y-87426800D01*
X101850500Y-86360000D01*
X164951150Y-86360000D01*
X164970070Y-86503709D01*
X165025539Y-86637625D01*
X165113779Y-86752621D01*
X165228775Y-86840861D01*
X165362691Y-86896330D01*
X165506400Y-86915250D01*
X165650109Y-86896330D01*
X165784025Y-86840861D01*
X165899021Y-86752621D01*
X165987261Y-86637625D01*
X166042730Y-86503709D01*
X166061650Y-86360000D01*
X166042730Y-86216291D01*
X165987261Y-86082375D01*
X165899021Y-85967379D01*
X165784025Y-85879139D01*
X165650109Y-85823670D01*
X165506400Y-85804750D01*
X165362691Y-85823670D01*
X165228775Y-85879139D01*
X165113779Y-85967379D01*
X165025539Y-86082375D01*
X164970070Y-86216291D01*
X164951150Y-86360000D01*
X101850500Y-86360000D01*
X101850500Y-85090000D01*
X146764750Y-85090000D01*
X146783670Y-85233709D01*
X146839139Y-85367625D01*
X146927379Y-85482621D01*
X147042375Y-85570861D01*
X147176291Y-85626330D01*
X147320000Y-85645250D01*
X147463709Y-85626330D01*
X147597625Y-85570861D01*
X147712621Y-85482621D01*
X147800861Y-85367625D01*
X147856330Y-85233709D01*
X147875250Y-85090000D01*
X149304750Y-85090000D01*
X149323670Y-85233709D01*
X149379139Y-85367625D01*
X149467379Y-85482621D01*
X149582375Y-85570861D01*
X149716291Y-85626330D01*
X149860000Y-85645250D01*
X150003709Y-85626330D01*
X150137625Y-85570861D01*
X150252621Y-85482621D01*
X150340861Y-85367625D01*
X150396330Y-85233709D01*
X150415250Y-85090000D01*
X150396330Y-84946291D01*
X150340861Y-84812375D01*
X150284558Y-84739000D01*
X164618750Y-84739000D01*
X164637670Y-84882709D01*
X164693139Y-85016625D01*
X164781379Y-85131621D01*
X164896375Y-85219861D01*
X165030291Y-85275330D01*
X165174000Y-85294250D01*
X165317709Y-85275330D01*
X165451625Y-85219861D01*
X165566621Y-85131621D01*
X165654861Y-85016625D01*
X165710330Y-84882709D01*
X165729250Y-84739000D01*
X165710330Y-84595291D01*
X165654861Y-84461375D01*
X165649969Y-84455000D01*
X173434750Y-84455000D01*
X173453670Y-84598709D01*
X173509139Y-84732625D01*
X173597379Y-84847621D01*
X173712375Y-84935861D01*
X173846291Y-84991330D01*
X173990000Y-85010250D01*
X174133709Y-84991330D01*
X174267625Y-84935861D01*
X174382621Y-84847621D01*
X174470861Y-84732625D01*
X174526330Y-84598709D01*
X174545250Y-84455000D01*
X174526330Y-84311291D01*
X174470861Y-84177375D01*
X174382621Y-84062379D01*
X174267625Y-83974139D01*
X174133709Y-83918670D01*
X173990000Y-83899750D01*
X173846291Y-83918670D01*
X173712375Y-83974139D01*
X173597379Y-84062379D01*
X173509139Y-84177375D01*
X173453670Y-84311291D01*
X173434750Y-84455000D01*
X165649969Y-84455000D01*
X165566621Y-84346379D01*
X165451625Y-84258139D01*
X165317709Y-84202670D01*
X165174000Y-84183750D01*
X165030291Y-84202670D01*
X164896375Y-84258139D01*
X164781379Y-84346379D01*
X164693139Y-84461375D01*
X164637670Y-84595291D01*
X164618750Y-84739000D01*
X150284558Y-84739000D01*
X150252621Y-84697379D01*
X150137625Y-84609139D01*
X150003709Y-84553670D01*
X149860000Y-84534750D01*
X149716291Y-84553670D01*
X149582375Y-84609139D01*
X149467379Y-84697379D01*
X149379139Y-84812375D01*
X149323670Y-84946291D01*
X149304750Y-85090000D01*
X147875250Y-85090000D01*
X147856330Y-84946291D01*
X147800861Y-84812375D01*
X147712621Y-84697379D01*
X147597625Y-84609139D01*
X147463709Y-84553670D01*
X147320000Y-84534750D01*
X147176291Y-84553670D01*
X147042375Y-84609139D01*
X146927379Y-84697379D01*
X146839139Y-84812375D01*
X146783670Y-84946291D01*
X146764750Y-85090000D01*
X101850500Y-85090000D01*
X101850500Y-83820000D01*
X138382750Y-83820000D01*
X138401670Y-83963709D01*
X138457139Y-84097625D01*
X138545379Y-84212621D01*
X138660375Y-84300861D01*
X138794291Y-84356330D01*
X138938000Y-84375250D01*
X139081709Y-84356330D01*
X139215625Y-84300861D01*
X139312664Y-84226400D01*
X143462750Y-84226400D01*
X143481670Y-84370109D01*
X143537139Y-84504025D01*
X143625379Y-84619021D01*
X143740375Y-84707261D01*
X143874291Y-84762730D01*
X144018000Y-84781650D01*
X144161709Y-84762730D01*
X144295625Y-84707261D01*
X144410621Y-84619021D01*
X144498861Y-84504025D01*
X144554330Y-84370109D01*
X144573250Y-84226400D01*
X144554330Y-84082691D01*
X144498861Y-83948775D01*
X144410621Y-83833779D01*
X144295625Y-83745539D01*
X144241210Y-83723000D01*
X152974730Y-83723000D01*
X152993650Y-83866709D01*
X153049119Y-84000625D01*
X153137359Y-84115621D01*
X153252355Y-84203861D01*
X153386271Y-84259330D01*
X153529980Y-84278250D01*
X153673689Y-84259330D01*
X153807605Y-84203861D01*
X153922601Y-84115621D01*
X154010841Y-84000625D01*
X154066310Y-83866709D01*
X154072459Y-83820000D01*
X168354750Y-83820000D01*
X168373670Y-83963709D01*
X168429139Y-84097625D01*
X168517379Y-84212621D01*
X168632375Y-84300861D01*
X168766291Y-84356330D01*
X168910000Y-84375250D01*
X169053709Y-84356330D01*
X169187625Y-84300861D01*
X169302621Y-84212621D01*
X169390861Y-84097625D01*
X169446330Y-83963709D01*
X169465250Y-83820000D01*
X169446330Y-83676291D01*
X169390861Y-83542375D01*
X169302621Y-83427379D01*
X169187625Y-83339139D01*
X169053709Y-83283670D01*
X168910000Y-83264750D01*
X168766291Y-83283670D01*
X168632375Y-83339139D01*
X168517379Y-83427379D01*
X168429139Y-83542375D01*
X168373670Y-83676291D01*
X168354750Y-83820000D01*
X154072459Y-83820000D01*
X154085230Y-83723000D01*
X154066310Y-83579291D01*
X154010841Y-83445375D01*
X153922601Y-83330379D01*
X153807605Y-83242139D01*
X153673689Y-83186670D01*
X153529980Y-83167750D01*
X153386271Y-83186670D01*
X153252355Y-83242139D01*
X153137359Y-83330379D01*
X153049119Y-83445375D01*
X152993650Y-83579291D01*
X152974730Y-83723000D01*
X144241210Y-83723000D01*
X144161709Y-83690070D01*
X144018000Y-83671150D01*
X143874291Y-83690070D01*
X143740375Y-83745539D01*
X143625379Y-83833779D01*
X143537139Y-83948775D01*
X143481670Y-84082691D01*
X143462750Y-84226400D01*
X139312664Y-84226400D01*
X139330621Y-84212621D01*
X139418861Y-84097625D01*
X139474330Y-83963709D01*
X139493250Y-83820000D01*
X139474330Y-83676291D01*
X139418861Y-83542375D01*
X139330621Y-83427379D01*
X139215625Y-83339139D01*
X139081709Y-83283670D01*
X138938000Y-83264750D01*
X138794291Y-83283670D01*
X138660375Y-83339139D01*
X138545379Y-83427379D01*
X138457139Y-83542375D01*
X138401670Y-83676291D01*
X138382750Y-83820000D01*
X101850500Y-83820000D01*
X101850500Y-82550000D01*
X135334750Y-82550000D01*
X135353670Y-82693709D01*
X135409139Y-82827625D01*
X135497379Y-82942621D01*
X135612375Y-83030861D01*
X135746291Y-83086330D01*
X135890000Y-83105250D01*
X136033709Y-83086330D01*
X136167625Y-83030861D01*
X136282621Y-82942621D01*
X136370861Y-82827625D01*
X136426330Y-82693709D01*
X136445250Y-82550000D01*
X136426330Y-82406291D01*
X136370861Y-82272375D01*
X136282621Y-82157379D01*
X136167625Y-82069139D01*
X136033709Y-82013670D01*
X135890000Y-81994750D01*
X135746291Y-82013670D01*
X135612375Y-82069139D01*
X135497379Y-82157379D01*
X135409139Y-82272375D01*
X135353670Y-82406291D01*
X135334750Y-82550000D01*
X101850500Y-82550000D01*
X101850500Y-81915000D01*
X158194750Y-81915000D01*
X158213670Y-82058709D01*
X158269139Y-82192625D01*
X158357379Y-82307621D01*
X158472375Y-82395861D01*
X158606291Y-82451330D01*
X158750000Y-82470250D01*
X158893709Y-82451330D01*
X159027625Y-82395861D01*
X159142621Y-82307621D01*
X159151538Y-82296000D01*
X166271950Y-82296000D01*
X166290870Y-82439709D01*
X166346339Y-82573625D01*
X166434579Y-82688621D01*
X166549575Y-82776861D01*
X166683491Y-82832330D01*
X166827200Y-82851250D01*
X166970909Y-82832330D01*
X167104825Y-82776861D01*
X167219821Y-82688621D01*
X167308061Y-82573625D01*
X167363530Y-82439709D01*
X167382450Y-82296000D01*
X167363530Y-82152291D01*
X167308061Y-82018375D01*
X167219821Y-81903379D01*
X167104825Y-81815139D01*
X166970909Y-81759670D01*
X166827200Y-81740750D01*
X166683491Y-81759670D01*
X166549575Y-81815139D01*
X166434579Y-81903379D01*
X166346339Y-82018375D01*
X166290870Y-82152291D01*
X166271950Y-82296000D01*
X159151538Y-82296000D01*
X159230861Y-82192625D01*
X159286330Y-82058709D01*
X159305250Y-81915000D01*
X159286330Y-81771291D01*
X159230861Y-81637375D01*
X159142621Y-81522379D01*
X159027625Y-81434139D01*
X158893709Y-81378670D01*
X158750000Y-81359750D01*
X158606291Y-81378670D01*
X158472375Y-81434139D01*
X158357379Y-81522379D01*
X158269139Y-81637375D01*
X158213670Y-81771291D01*
X158194750Y-81915000D01*
X101850500Y-81915000D01*
X101850500Y-81280000D01*
X140414750Y-81280000D01*
X140433670Y-81423709D01*
X140489139Y-81557625D01*
X140577379Y-81672621D01*
X140692375Y-81760861D01*
X140826291Y-81816330D01*
X140970000Y-81835250D01*
X141113709Y-81816330D01*
X141247625Y-81760861D01*
X141362621Y-81672621D01*
X141450861Y-81557625D01*
X141506330Y-81423709D01*
X141525250Y-81280000D01*
X141506330Y-81136291D01*
X141450861Y-81002375D01*
X141362621Y-80887379D01*
X141247625Y-80799139D01*
X141113709Y-80743670D01*
X140970000Y-80724750D01*
X140826291Y-80743670D01*
X140692375Y-80799139D01*
X140577379Y-80887379D01*
X140489139Y-81002375D01*
X140433670Y-81136291D01*
X140414750Y-81280000D01*
X101850500Y-81280000D01*
X101850500Y-79375000D01*
X104854750Y-79375000D01*
X104873670Y-79518709D01*
X104929139Y-79652625D01*
X105017379Y-79767621D01*
X105132375Y-79855861D01*
X105266291Y-79911330D01*
X105410000Y-79930250D01*
X105553709Y-79911330D01*
X105687625Y-79855861D01*
X105802621Y-79767621D01*
X105890861Y-79652625D01*
X105894021Y-79644996D01*
X105894023Y-79644993D01*
X105928591Y-79561536D01*
X105973139Y-79506254D01*
X106040502Y-79483833D01*
X106109293Y-79501391D01*
X106157672Y-79553352D01*
X106161409Y-79561536D01*
X106195977Y-79644993D01*
X106195979Y-79644996D01*
X106199139Y-79652625D01*
X106287379Y-79767621D01*
X106402375Y-79855861D01*
X106536291Y-79911330D01*
X106680000Y-79930250D01*
X106823709Y-79911330D01*
X106957625Y-79855861D01*
X107072621Y-79767621D01*
X107106093Y-79724000D01*
X161012750Y-79724000D01*
X161031670Y-79867709D01*
X161087139Y-80001625D01*
X161175379Y-80116621D01*
X161290375Y-80204861D01*
X161424291Y-80260330D01*
X161568000Y-80279250D01*
X161711709Y-80260330D01*
X161845625Y-80204861D01*
X161960621Y-80116621D01*
X162048861Y-80001625D01*
X162104330Y-79867709D01*
X162123250Y-79724000D01*
X162104330Y-79580291D01*
X162048861Y-79446375D01*
X161960621Y-79331379D01*
X161845625Y-79243139D01*
X161734717Y-79197200D01*
X165357550Y-79197200D01*
X165376470Y-79340909D01*
X165431939Y-79474825D01*
X165520179Y-79589821D01*
X165635175Y-79678061D01*
X165769091Y-79733530D01*
X165912800Y-79752450D01*
X166056509Y-79733530D01*
X166190425Y-79678061D01*
X166305421Y-79589821D01*
X166393661Y-79474825D01*
X166414098Y-79425486D01*
X166458644Y-79370206D01*
X166526007Y-79347784D01*
X166594798Y-79365341D01*
X166643178Y-79417303D01*
X166646915Y-79425486D01*
X166675139Y-79493625D01*
X166763379Y-79608621D01*
X166878375Y-79696861D01*
X167012291Y-79752330D01*
X167156000Y-79771250D01*
X167299709Y-79752330D01*
X167433625Y-79696861D01*
X167548621Y-79608621D01*
X167636861Y-79493625D01*
X167692330Y-79359709D01*
X167711250Y-79216000D01*
X167692330Y-79072291D01*
X167636861Y-78938375D01*
X167548621Y-78823379D01*
X167433625Y-78735139D01*
X167299709Y-78679670D01*
X167156000Y-78660750D01*
X167012291Y-78679670D01*
X166878375Y-78735139D01*
X166763379Y-78823379D01*
X166675139Y-78938375D01*
X166654702Y-78987714D01*
X166610156Y-79042994D01*
X166542793Y-79065416D01*
X166474002Y-79047859D01*
X166425622Y-78995897D01*
X166421885Y-78987714D01*
X166404608Y-78946004D01*
X166393661Y-78919575D01*
X166305421Y-78804579D01*
X166190425Y-78716339D01*
X166056509Y-78660870D01*
X165912800Y-78641950D01*
X165769091Y-78660870D01*
X165635175Y-78716339D01*
X165520179Y-78804579D01*
X165431939Y-78919575D01*
X165376470Y-79053491D01*
X165357550Y-79197200D01*
X161734717Y-79197200D01*
X161711709Y-79187670D01*
X161568000Y-79168750D01*
X161424291Y-79187670D01*
X161290375Y-79243139D01*
X161175379Y-79331379D01*
X161087139Y-79446375D01*
X161031670Y-79580291D01*
X161012750Y-79724000D01*
X107106093Y-79724000D01*
X107160861Y-79652625D01*
X107216330Y-79518709D01*
X107235250Y-79375000D01*
X107216330Y-79231291D01*
X107160861Y-79097375D01*
X107072621Y-78982379D01*
X106957625Y-78894139D01*
X106949998Y-78890980D01*
X106949993Y-78890977D01*
X106866536Y-78856409D01*
X106811254Y-78811861D01*
X106788833Y-78744498D01*
X106806391Y-78675707D01*
X106858352Y-78627328D01*
X106866536Y-78623591D01*
X106949993Y-78589023D01*
X106949998Y-78589020D01*
X106957625Y-78585861D01*
X107072621Y-78497621D01*
X107160861Y-78382625D01*
X107216330Y-78248709D01*
X107235250Y-78105000D01*
X107216330Y-77961291D01*
X107160861Y-77827375D01*
X107072621Y-77712379D01*
X106957625Y-77624139D01*
X106823709Y-77568670D01*
X106680000Y-77549750D01*
X106536291Y-77568670D01*
X106402375Y-77624139D01*
X106287379Y-77712379D01*
X106199139Y-77827375D01*
X106195980Y-77835002D01*
X106195977Y-77835007D01*
X106161409Y-77918464D01*
X106116861Y-77973746D01*
X106049498Y-77996167D01*
X105980707Y-77978609D01*
X105932328Y-77926648D01*
X105928591Y-77918464D01*
X105894023Y-77835007D01*
X105894020Y-77835002D01*
X105890861Y-77827375D01*
X105802621Y-77712379D01*
X105687625Y-77624139D01*
X105553709Y-77568670D01*
X105410000Y-77549750D01*
X105266291Y-77568670D01*
X105132375Y-77624139D01*
X105017379Y-77712379D01*
X104929139Y-77827375D01*
X104873670Y-77961291D01*
X104854750Y-78105000D01*
X104873670Y-78248709D01*
X104929139Y-78382625D01*
X105017379Y-78497621D01*
X105132375Y-78585861D01*
X105140002Y-78589020D01*
X105140007Y-78589023D01*
X105223464Y-78623591D01*
X105278746Y-78668139D01*
X105301167Y-78735502D01*
X105283609Y-78804293D01*
X105231648Y-78852672D01*
X105223464Y-78856409D01*
X105140007Y-78890977D01*
X105140002Y-78890980D01*
X105132375Y-78894139D01*
X105017379Y-78982379D01*
X104929139Y-79097375D01*
X104873670Y-79231291D01*
X104854750Y-79375000D01*
X101850500Y-79375000D01*
X101850500Y-77057000D01*
X152393250Y-77057000D01*
X152412170Y-77200709D01*
X152467639Y-77334625D01*
X152555879Y-77449621D01*
X152670875Y-77537861D01*
X152804791Y-77593330D01*
X152948500Y-77612250D01*
X153092209Y-77593330D01*
X153226125Y-77537861D01*
X153341121Y-77449621D01*
X153429361Y-77334625D01*
X153484830Y-77200709D01*
X153503750Y-77057000D01*
X153484830Y-76913291D01*
X153429361Y-76779375D01*
X153371140Y-76703500D01*
X157964750Y-76703500D01*
X157983670Y-76847209D01*
X158039139Y-76981125D01*
X158127379Y-77096121D01*
X158242375Y-77184361D01*
X158376291Y-77239830D01*
X158520000Y-77258750D01*
X158663709Y-77239830D01*
X158797625Y-77184361D01*
X158912621Y-77096121D01*
X159000861Y-76981125D01*
X159056330Y-76847209D01*
X159075250Y-76703500D01*
X159056330Y-76559791D01*
X159000861Y-76425875D01*
X158912621Y-76310879D01*
X158892527Y-76295460D01*
X158850662Y-76238125D01*
X158846440Y-76167254D01*
X158881204Y-76105351D01*
X158892517Y-76095548D01*
X158912621Y-76080121D01*
X159000861Y-75965125D01*
X159056330Y-75831209D01*
X159075250Y-75687500D01*
X159056330Y-75543791D01*
X159012511Y-75438000D01*
X173637950Y-75438000D01*
X173656870Y-75581709D01*
X173712339Y-75715625D01*
X173800579Y-75830621D01*
X173915575Y-75918861D01*
X174049491Y-75974330D01*
X174193200Y-75993250D01*
X174336909Y-75974330D01*
X174470825Y-75918861D01*
X174585821Y-75830621D01*
X174674061Y-75715625D01*
X174729530Y-75581709D01*
X174748450Y-75438000D01*
X174729530Y-75294291D01*
X174674061Y-75160375D01*
X174585821Y-75045379D01*
X174470825Y-74957139D01*
X174336909Y-74901670D01*
X174193200Y-74882750D01*
X174049491Y-74901670D01*
X173915575Y-74957139D01*
X173800579Y-75045379D01*
X173712339Y-75160375D01*
X173656870Y-75294291D01*
X173637950Y-75438000D01*
X159012511Y-75438000D01*
X159000861Y-75409875D01*
X158912621Y-75294879D01*
X158797625Y-75206639D01*
X158663709Y-75151170D01*
X158520000Y-75132250D01*
X158376291Y-75151170D01*
X158242375Y-75206639D01*
X158127379Y-75294879D01*
X158039139Y-75409875D01*
X157983670Y-75543791D01*
X157964750Y-75687500D01*
X157983670Y-75831209D01*
X158039139Y-75965125D01*
X158127379Y-76080121D01*
X158147473Y-76095540D01*
X158189338Y-76152875D01*
X158193560Y-76223746D01*
X158158796Y-76285649D01*
X158147483Y-76295452D01*
X158127379Y-76310879D01*
X158039139Y-76425875D01*
X157983670Y-76559791D01*
X157964750Y-76703500D01*
X153371140Y-76703500D01*
X153341121Y-76664379D01*
X153226125Y-76576139D01*
X153092209Y-76520670D01*
X152948500Y-76501750D01*
X152804791Y-76520670D01*
X152670875Y-76576139D01*
X152555879Y-76664379D01*
X152467639Y-76779375D01*
X152412170Y-76913291D01*
X152393250Y-77057000D01*
X101850500Y-77057000D01*
X101850500Y-74930000D01*
X108029750Y-74930000D01*
X108048670Y-75073709D01*
X108104139Y-75207625D01*
X108192379Y-75322621D01*
X108307375Y-75410861D01*
X108441291Y-75466330D01*
X108585000Y-75485250D01*
X108728709Y-75466330D01*
X108862625Y-75410861D01*
X108977621Y-75322621D01*
X109065861Y-75207625D01*
X109121330Y-75073709D01*
X109140250Y-74930000D01*
X109121330Y-74786291D01*
X109065861Y-74652375D01*
X108977621Y-74537379D01*
X108862625Y-74449139D01*
X108728709Y-74393670D01*
X108585000Y-74374750D01*
X108441291Y-74393670D01*
X108307375Y-74449139D01*
X108192379Y-74537379D01*
X108104139Y-74652375D01*
X108048670Y-74786291D01*
X108029750Y-74930000D01*
X101850500Y-74930000D01*
X101850500Y-73988938D01*
X157991993Y-73988938D01*
X158010913Y-74132647D01*
X158066382Y-74266563D01*
X158154622Y-74381559D01*
X158269618Y-74469799D01*
X158403534Y-74525268D01*
X158547243Y-74544188D01*
X158690952Y-74525268D01*
X158824868Y-74469799D01*
X158939864Y-74381559D01*
X159028104Y-74266563D01*
X159083573Y-74132647D01*
X159102493Y-73988938D01*
X159083573Y-73845229D01*
X159028104Y-73711313D01*
X158939864Y-73596317D01*
X158824868Y-73508077D01*
X158690952Y-73452608D01*
X158547243Y-73433688D01*
X158403534Y-73452608D01*
X158269618Y-73508077D01*
X158154622Y-73596317D01*
X158066382Y-73711313D01*
X158010913Y-73845229D01*
X157991993Y-73988938D01*
X101850500Y-73988938D01*
X101850500Y-72390000D01*
X117554750Y-72390000D01*
X117573670Y-72533709D01*
X117629139Y-72667625D01*
X117717379Y-72782621D01*
X117832375Y-72870861D01*
X117966291Y-72926330D01*
X118110000Y-72945250D01*
X118253709Y-72926330D01*
X118387625Y-72870861D01*
X118436315Y-72833500D01*
X159370250Y-72833500D01*
X159389170Y-72977209D01*
X159444639Y-73111125D01*
X159532879Y-73226121D01*
X159647875Y-73314361D01*
X159781791Y-73369830D01*
X159925500Y-73388750D01*
X160069209Y-73369830D01*
X160203125Y-73314361D01*
X160318121Y-73226121D01*
X160406361Y-73111125D01*
X160461830Y-72977209D01*
X160480750Y-72833500D01*
X160461830Y-72689791D01*
X160429608Y-72612000D01*
X168759750Y-72612000D01*
X168778670Y-72755709D01*
X168834139Y-72889625D01*
X168922379Y-73004621D01*
X169037375Y-73092861D01*
X169171291Y-73148330D01*
X169315000Y-73167250D01*
X169458709Y-73148330D01*
X169592625Y-73092861D01*
X169707621Y-73004621D01*
X169795861Y-72889625D01*
X169851330Y-72755709D01*
X169870250Y-72612000D01*
X169851330Y-72468291D01*
X169795861Y-72334375D01*
X169707621Y-72219379D01*
X169592625Y-72131139D01*
X169458709Y-72075670D01*
X169315000Y-72056750D01*
X169171291Y-72075670D01*
X169037375Y-72131139D01*
X168922379Y-72219379D01*
X168834139Y-72334375D01*
X168778670Y-72468291D01*
X168759750Y-72612000D01*
X160429608Y-72612000D01*
X160406361Y-72555875D01*
X160318121Y-72440879D01*
X160203125Y-72352639D01*
X160069209Y-72297170D01*
X159925500Y-72278250D01*
X159781791Y-72297170D01*
X159647875Y-72352639D01*
X159532879Y-72440879D01*
X159444639Y-72555875D01*
X159389170Y-72689791D01*
X159370250Y-72833500D01*
X118436315Y-72833500D01*
X118502621Y-72782621D01*
X118590861Y-72667625D01*
X118646330Y-72533709D01*
X118665250Y-72390000D01*
X118646330Y-72246291D01*
X118590861Y-72112375D01*
X118502621Y-71997379D01*
X118387625Y-71909139D01*
X118253709Y-71853670D01*
X118110000Y-71834750D01*
X117966291Y-71853670D01*
X117832375Y-71909139D01*
X117717379Y-71997379D01*
X117629139Y-72112375D01*
X117573670Y-72246291D01*
X117554750Y-72390000D01*
X101850500Y-72390000D01*
X101850500Y-71342000D01*
X153011750Y-71342000D01*
X153030670Y-71485709D01*
X153086139Y-71619625D01*
X153174379Y-71734621D01*
X153289375Y-71822861D01*
X153423291Y-71878330D01*
X153567000Y-71897250D01*
X153710709Y-71878330D01*
X153844625Y-71822861D01*
X153959621Y-71734621D01*
X154047861Y-71619625D01*
X154103330Y-71485709D01*
X154122250Y-71342000D01*
X154103330Y-71198291D01*
X154047861Y-71064375D01*
X153959621Y-70949379D01*
X153844625Y-70861139D01*
X153710709Y-70805670D01*
X153567000Y-70786750D01*
X153423291Y-70805670D01*
X153289375Y-70861139D01*
X153174379Y-70949379D01*
X153086139Y-71064375D01*
X153030670Y-71198291D01*
X153011750Y-71342000D01*
X101850500Y-71342000D01*
X101850500Y-70607500D01*
X159742750Y-70607500D01*
X159761670Y-70751209D01*
X159817139Y-70885125D01*
X159905379Y-71000121D01*
X160020375Y-71088361D01*
X160154291Y-71143830D01*
X160298000Y-71162750D01*
X160441709Y-71143830D01*
X160575625Y-71088361D01*
X160690621Y-71000121D01*
X160778861Y-70885125D01*
X160834330Y-70751209D01*
X160853250Y-70607500D01*
X160834330Y-70463791D01*
X160778861Y-70329875D01*
X160690621Y-70214879D01*
X160575625Y-70126639D01*
X160441709Y-70071170D01*
X160298000Y-70052250D01*
X160154291Y-70071170D01*
X160020375Y-70126639D01*
X159905379Y-70214879D01*
X159817139Y-70329875D01*
X159761670Y-70463791D01*
X159742750Y-70607500D01*
X101850500Y-70607500D01*
X101850500Y-69291200D01*
X108969550Y-69291200D01*
X108988470Y-69434909D01*
X109043939Y-69568825D01*
X109132179Y-69683821D01*
X109247175Y-69772061D01*
X109381091Y-69827530D01*
X109524800Y-69846450D01*
X109668509Y-69827530D01*
X109802425Y-69772061D01*
X109917421Y-69683821D01*
X110005661Y-69568825D01*
X110061130Y-69434909D01*
X110073362Y-69342000D01*
X114862350Y-69342000D01*
X114881270Y-69485709D01*
X114936739Y-69619625D01*
X115024979Y-69734621D01*
X115139975Y-69822861D01*
X115273891Y-69878330D01*
X115417600Y-69897250D01*
X115561309Y-69878330D01*
X115695225Y-69822861D01*
X115810221Y-69734621D01*
X115898461Y-69619625D01*
X115953930Y-69485709D01*
X115972850Y-69342000D01*
X115968637Y-69310000D01*
X166092750Y-69310000D01*
X166111670Y-69453709D01*
X166167139Y-69587625D01*
X166255379Y-69702621D01*
X166370375Y-69790861D01*
X166504291Y-69846330D01*
X166648000Y-69865250D01*
X166791709Y-69846330D01*
X166925625Y-69790861D01*
X167040621Y-69702621D01*
X167128861Y-69587625D01*
X167184330Y-69453709D01*
X167203250Y-69310000D01*
X167184330Y-69166291D01*
X167128861Y-69032375D01*
X167040621Y-68917379D01*
X166925625Y-68829139D01*
X166791709Y-68773670D01*
X166648000Y-68754750D01*
X166504291Y-68773670D01*
X166370375Y-68829139D01*
X166255379Y-68917379D01*
X166167139Y-69032375D01*
X166111670Y-69166291D01*
X166092750Y-69310000D01*
X115968637Y-69310000D01*
X115953930Y-69198291D01*
X115898461Y-69064375D01*
X115810221Y-68949379D01*
X115695225Y-68861139D01*
X115561309Y-68805670D01*
X115417600Y-68786750D01*
X115273891Y-68805670D01*
X115139975Y-68861139D01*
X115024979Y-68949379D01*
X114936739Y-69064375D01*
X114881270Y-69198291D01*
X114862350Y-69342000D01*
X110073362Y-69342000D01*
X110080050Y-69291200D01*
X110061130Y-69147491D01*
X110005661Y-69013575D01*
X109917421Y-68898579D01*
X109802425Y-68810339D01*
X109668509Y-68754870D01*
X109524800Y-68735950D01*
X109381091Y-68754870D01*
X109247175Y-68810339D01*
X109132179Y-68898579D01*
X109043939Y-69013575D01*
X108988470Y-69147491D01*
X108969550Y-69291200D01*
X101850500Y-69291200D01*
X101850500Y-68580000D01*
X156924750Y-68580000D01*
X156943670Y-68723709D01*
X156999139Y-68857625D01*
X157087379Y-68972621D01*
X157202375Y-69060861D01*
X157336291Y-69116330D01*
X157480000Y-69135250D01*
X157623709Y-69116330D01*
X157757625Y-69060861D01*
X157872621Y-68972621D01*
X157960861Y-68857625D01*
X158016330Y-68723709D01*
X158035250Y-68580000D01*
X158016330Y-68436291D01*
X157960861Y-68302375D01*
X157872621Y-68187379D01*
X157757625Y-68099139D01*
X157623709Y-68043670D01*
X157480000Y-68024750D01*
X157336291Y-68043670D01*
X157202375Y-68099139D01*
X157087379Y-68187379D01*
X156999139Y-68302375D01*
X156943670Y-68436291D01*
X156924750Y-68580000D01*
X101850500Y-68580000D01*
X101850500Y-67310000D01*
X124463550Y-67310000D01*
X124482470Y-67453709D01*
X124537939Y-67587625D01*
X124626179Y-67702621D01*
X124741175Y-67790861D01*
X124875091Y-67846330D01*
X125018800Y-67865250D01*
X125162509Y-67846330D01*
X125296425Y-67790861D01*
X125302760Y-67786000D01*
X158599750Y-67786000D01*
X158618670Y-67929709D01*
X158674139Y-68063625D01*
X158762379Y-68178621D01*
X158877375Y-68266861D01*
X159011291Y-68322330D01*
X159155000Y-68341250D01*
X159298709Y-68322330D01*
X159432625Y-68266861D01*
X159547621Y-68178621D01*
X159635861Y-68063625D01*
X159691330Y-67929709D01*
X159710250Y-67786000D01*
X159691330Y-67642291D01*
X159635861Y-67508375D01*
X159547621Y-67393379D01*
X159432625Y-67305139D01*
X159298709Y-67249670D01*
X159155000Y-67230750D01*
X159011291Y-67249670D01*
X158877375Y-67305139D01*
X158762379Y-67393379D01*
X158674139Y-67508375D01*
X158618670Y-67642291D01*
X158599750Y-67786000D01*
X125302760Y-67786000D01*
X125411421Y-67702621D01*
X125499661Y-67587625D01*
X125555130Y-67453709D01*
X125574050Y-67310000D01*
X125555130Y-67166291D01*
X125499661Y-67032375D01*
X125493235Y-67024000D01*
X160885750Y-67024000D01*
X160904670Y-67167709D01*
X160960139Y-67301625D01*
X161048379Y-67416621D01*
X161163375Y-67504861D01*
X161297291Y-67560330D01*
X161441000Y-67579250D01*
X161584709Y-67560330D01*
X161718625Y-67504861D01*
X161833621Y-67416621D01*
X161921861Y-67301625D01*
X161977330Y-67167709D01*
X161996250Y-67024000D01*
X161977330Y-66880291D01*
X161921861Y-66746375D01*
X161833621Y-66631379D01*
X161718625Y-66543139D01*
X161584709Y-66487670D01*
X161441000Y-66468750D01*
X161297291Y-66487670D01*
X161163375Y-66543139D01*
X161048379Y-66631379D01*
X160960139Y-66746375D01*
X160904670Y-66880291D01*
X160885750Y-67024000D01*
X125493235Y-67024000D01*
X125411421Y-66917379D01*
X125296425Y-66829139D01*
X125162509Y-66773670D01*
X125018800Y-66754750D01*
X124875091Y-66773670D01*
X124741175Y-66829139D01*
X124626179Y-66917379D01*
X124537939Y-67032375D01*
X124482470Y-67166291D01*
X124463550Y-67310000D01*
X101850500Y-67310000D01*
X101850500Y-65503069D01*
X105834164Y-65503069D01*
X105847392Y-65704894D01*
X105897178Y-65900928D01*
X105981856Y-66084607D01*
X105985189Y-66089323D01*
X106079364Y-66222578D01*
X106098588Y-66249780D01*
X106243466Y-66390913D01*
X106248270Y-66394123D01*
X106290621Y-66422421D01*
X106411637Y-66503282D01*
X106416940Y-66505560D01*
X106416943Y-66505562D01*
X106586644Y-66578471D01*
X106597470Y-66583122D01*
X106794740Y-66627760D01*
X106800509Y-66627987D01*
X106800512Y-66627987D01*
X106876683Y-66630979D01*
X106996842Y-66635700D01*
X107083132Y-66623189D01*
X107191286Y-66607508D01*
X107191291Y-66607507D01*
X107197007Y-66606678D01*
X107202479Y-66604820D01*
X107202481Y-66604820D01*
X107383067Y-66543519D01*
X107383069Y-66543518D01*
X107388531Y-66541664D01*
X107565001Y-66442837D01*
X107608482Y-66406674D01*
X108378500Y-66406674D01*
X108393034Y-66479740D01*
X108399928Y-66490057D01*
X108399928Y-66490058D01*
X108401608Y-66492572D01*
X108448399Y-66562601D01*
X108531260Y-66617966D01*
X108604326Y-66632500D01*
X110353674Y-66632500D01*
X110426740Y-66617966D01*
X110509601Y-66562601D01*
X110556392Y-66492572D01*
X110558072Y-66490058D01*
X110558072Y-66490057D01*
X110564966Y-66479740D01*
X110579500Y-66406674D01*
X110579500Y-65938400D01*
X120805950Y-65938400D01*
X120824870Y-66082109D01*
X120880339Y-66216025D01*
X120968579Y-66331021D01*
X121083575Y-66419261D01*
X121217491Y-66474730D01*
X121361200Y-66493650D01*
X121504909Y-66474730D01*
X121638825Y-66419261D01*
X121753821Y-66331021D01*
X121842061Y-66216025D01*
X121851847Y-66192400D01*
X145393150Y-66192400D01*
X145412070Y-66336109D01*
X145467539Y-66470025D01*
X145555779Y-66585021D01*
X145670775Y-66673261D01*
X145804691Y-66728730D01*
X145948400Y-66747650D01*
X146092109Y-66728730D01*
X146226025Y-66673261D01*
X146341021Y-66585021D01*
X146429261Y-66470025D01*
X146484730Y-66336109D01*
X146503650Y-66192400D01*
X146484730Y-66048691D01*
X146429261Y-65914775D01*
X146341021Y-65799779D01*
X146226025Y-65711539D01*
X146092109Y-65656070D01*
X145948400Y-65637150D01*
X145804691Y-65656070D01*
X145670775Y-65711539D01*
X145555779Y-65799779D01*
X145467539Y-65914775D01*
X145412070Y-66048691D01*
X145393150Y-66192400D01*
X121851847Y-66192400D01*
X121897530Y-66082109D01*
X121916450Y-65938400D01*
X121897530Y-65794691D01*
X121842061Y-65660775D01*
X121816144Y-65627000D01*
X148947750Y-65627000D01*
X148966670Y-65770709D01*
X149022139Y-65904625D01*
X149110379Y-66019621D01*
X149225375Y-66107861D01*
X149359291Y-66163330D01*
X149503000Y-66182250D01*
X149646709Y-66163330D01*
X149780625Y-66107861D01*
X149895621Y-66019621D01*
X149983861Y-65904625D01*
X150039330Y-65770709D01*
X150058250Y-65627000D01*
X150039330Y-65483291D01*
X149983861Y-65349375D01*
X149895621Y-65234379D01*
X149780625Y-65146139D01*
X149646709Y-65090670D01*
X149503000Y-65071750D01*
X149359291Y-65090670D01*
X149225375Y-65146139D01*
X149110379Y-65234379D01*
X149022139Y-65349375D01*
X148966670Y-65483291D01*
X148947750Y-65627000D01*
X121816144Y-65627000D01*
X121753821Y-65545779D01*
X121638825Y-65457539D01*
X121504909Y-65402070D01*
X121361200Y-65383150D01*
X121217491Y-65402070D01*
X121083575Y-65457539D01*
X120968579Y-65545779D01*
X120880339Y-65660775D01*
X120824870Y-65794691D01*
X120805950Y-65938400D01*
X110579500Y-65938400D01*
X110579500Y-64657326D01*
X110564966Y-64584260D01*
X110509601Y-64501399D01*
X110426740Y-64446034D01*
X110353674Y-64431500D01*
X108604326Y-64431500D01*
X108531260Y-64446034D01*
X108448399Y-64501399D01*
X108393034Y-64584260D01*
X108378500Y-64657326D01*
X108378500Y-66406674D01*
X107608482Y-66406674D01*
X107627433Y-66390913D01*
X107716073Y-66317191D01*
X107720505Y-66313505D01*
X107849837Y-66158001D01*
X107948664Y-65981531D01*
X108008138Y-65806329D01*
X108011820Y-65795481D01*
X108011820Y-65795479D01*
X108013678Y-65790007D01*
X108014507Y-65784291D01*
X108014508Y-65784286D01*
X108033254Y-65654992D01*
X108042700Y-65589842D01*
X108044215Y-65532000D01*
X108025708Y-65330591D01*
X107970807Y-65135926D01*
X107881351Y-64954527D01*
X107863079Y-64930057D01*
X107763788Y-64797091D01*
X107763787Y-64797090D01*
X107760335Y-64792467D01*
X107737350Y-64771220D01*
X107616053Y-64659094D01*
X107616051Y-64659092D01*
X107611812Y-64655174D01*
X107584374Y-64637862D01*
X107445637Y-64550325D01*
X107440757Y-64547246D01*
X107252898Y-64472298D01*
X107054526Y-64432839D01*
X107048752Y-64432763D01*
X107048748Y-64432763D01*
X106946257Y-64431422D01*
X106852286Y-64430192D01*
X106846589Y-64431171D01*
X106846588Y-64431171D01*
X106658646Y-64463465D01*
X106658645Y-64463465D01*
X106652949Y-64464444D01*
X106463193Y-64534449D01*
X106289371Y-64637862D01*
X106137305Y-64771220D01*
X106012089Y-64930057D01*
X105917914Y-65109053D01*
X105857937Y-65302213D01*
X105834164Y-65503069D01*
X101850500Y-65503069D01*
X101850500Y-63500000D01*
X122507750Y-63500000D01*
X122526670Y-63643709D01*
X122582139Y-63777625D01*
X122670379Y-63892621D01*
X122785375Y-63980861D01*
X122919291Y-64036330D01*
X123063000Y-64055250D01*
X123206709Y-64036330D01*
X123340625Y-63980861D01*
X123455621Y-63892621D01*
X123543861Y-63777625D01*
X123599330Y-63643709D01*
X123618250Y-63500000D01*
X123599330Y-63356291D01*
X123543861Y-63222375D01*
X123455621Y-63107379D01*
X123340625Y-63019139D01*
X123206709Y-62963670D01*
X123063000Y-62944750D01*
X122919291Y-62963670D01*
X122785375Y-63019139D01*
X122670379Y-63107379D01*
X122582139Y-63222375D01*
X122526670Y-63356291D01*
X122507750Y-63500000D01*
X101850500Y-63500000D01*
X101850500Y-62738000D01*
X108207550Y-62738000D01*
X108226470Y-62881709D01*
X108281939Y-63015625D01*
X108370179Y-63130621D01*
X108485175Y-63218861D01*
X108619091Y-63274330D01*
X108762800Y-63293250D01*
X108906509Y-63274330D01*
X109040425Y-63218861D01*
X109155421Y-63130621D01*
X109243661Y-63015625D01*
X109299130Y-62881709D01*
X109318050Y-62738000D01*
X113236750Y-62738000D01*
X113255670Y-62881709D01*
X113311139Y-63015625D01*
X113399379Y-63130621D01*
X113514375Y-63218861D01*
X113648291Y-63274330D01*
X113792000Y-63293250D01*
X113935709Y-63274330D01*
X114069625Y-63218861D01*
X114184621Y-63130621D01*
X114272861Y-63015625D01*
X114328330Y-62881709D01*
X114347250Y-62738000D01*
X114328330Y-62594291D01*
X114272861Y-62460375D01*
X114184621Y-62345379D01*
X114069625Y-62257139D01*
X114004105Y-62230000D01*
X119205750Y-62230000D01*
X119224670Y-62373709D01*
X119280139Y-62507625D01*
X119368379Y-62622621D01*
X119483375Y-62710861D01*
X119617291Y-62766330D01*
X119761000Y-62785250D01*
X119904709Y-62766330D01*
X120038625Y-62710861D01*
X120153621Y-62622621D01*
X120241861Y-62507625D01*
X120297330Y-62373709D01*
X120299530Y-62357000D01*
X129873750Y-62357000D01*
X129892670Y-62500709D01*
X129948139Y-62634625D01*
X130036379Y-62749621D01*
X130151375Y-62837861D01*
X130285291Y-62893330D01*
X130429000Y-62912250D01*
X130572709Y-62893330D01*
X130706625Y-62837861D01*
X130821621Y-62749621D01*
X130909861Y-62634625D01*
X130965330Y-62500709D01*
X130984250Y-62357000D01*
X130965330Y-62213291D01*
X130909861Y-62079375D01*
X130821621Y-61964379D01*
X130706625Y-61876139D01*
X130572709Y-61820670D01*
X130429000Y-61801750D01*
X130285291Y-61820670D01*
X130151375Y-61876139D01*
X130036379Y-61964379D01*
X129948139Y-62079375D01*
X129892670Y-62213291D01*
X129873750Y-62357000D01*
X120299530Y-62357000D01*
X120316250Y-62230000D01*
X120297330Y-62086291D01*
X120241861Y-61952375D01*
X120153621Y-61837379D01*
X120038625Y-61749139D01*
X119904709Y-61693670D01*
X119761000Y-61674750D01*
X119617291Y-61693670D01*
X119483375Y-61749139D01*
X119368379Y-61837379D01*
X119280139Y-61952375D01*
X119224670Y-62086291D01*
X119205750Y-62230000D01*
X114004105Y-62230000D01*
X113935709Y-62201670D01*
X113792000Y-62182750D01*
X113648291Y-62201670D01*
X113514375Y-62257139D01*
X113399379Y-62345379D01*
X113311139Y-62460375D01*
X113255670Y-62594291D01*
X113236750Y-62738000D01*
X109318050Y-62738000D01*
X109299130Y-62594291D01*
X109243661Y-62460375D01*
X109155421Y-62345379D01*
X109040425Y-62257139D01*
X108906509Y-62201670D01*
X108762800Y-62182750D01*
X108619091Y-62201670D01*
X108485175Y-62257139D01*
X108370179Y-62345379D01*
X108281939Y-62460375D01*
X108226470Y-62594291D01*
X108207550Y-62738000D01*
X101850500Y-62738000D01*
X101850500Y-61595000D01*
X106759750Y-61595000D01*
X106778670Y-61738709D01*
X106834139Y-61872625D01*
X106922379Y-61987621D01*
X107037375Y-62075861D01*
X107171291Y-62131330D01*
X107315000Y-62150250D01*
X107458709Y-62131330D01*
X107592625Y-62075861D01*
X107707621Y-61987621D01*
X107795861Y-61872625D01*
X107851330Y-61738709D01*
X107870250Y-61595000D01*
X151844750Y-61595000D01*
X151863670Y-61738709D01*
X151919139Y-61872625D01*
X152007379Y-61987621D01*
X152122375Y-62075861D01*
X152256291Y-62131330D01*
X152400000Y-62150250D01*
X152543709Y-62131330D01*
X152677625Y-62075861D01*
X152776488Y-62000000D01*
X167444750Y-62000000D01*
X167463670Y-62143709D01*
X167519139Y-62277625D01*
X167607379Y-62392621D01*
X167722375Y-62480861D01*
X167856291Y-62536330D01*
X168000000Y-62555250D01*
X168143709Y-62536330D01*
X168277625Y-62480861D01*
X168392621Y-62392621D01*
X168480861Y-62277625D01*
X168536330Y-62143709D01*
X168555250Y-62000000D01*
X168536330Y-61856291D01*
X168480861Y-61722375D01*
X168392621Y-61607379D01*
X168277625Y-61519139D01*
X168143709Y-61463670D01*
X168000000Y-61444750D01*
X167856291Y-61463670D01*
X167722375Y-61519139D01*
X167607379Y-61607379D01*
X167519139Y-61722375D01*
X167463670Y-61856291D01*
X167444750Y-62000000D01*
X152776488Y-62000000D01*
X152792621Y-61987621D01*
X152880861Y-61872625D01*
X152936330Y-61738709D01*
X152955250Y-61595000D01*
X152936330Y-61451291D01*
X152880861Y-61317375D01*
X152792621Y-61202379D01*
X152677625Y-61114139D01*
X152543709Y-61058670D01*
X152400000Y-61039750D01*
X152256291Y-61058670D01*
X152122375Y-61114139D01*
X152007379Y-61202379D01*
X151919139Y-61317375D01*
X151863670Y-61451291D01*
X151844750Y-61595000D01*
X107870250Y-61595000D01*
X107851330Y-61451291D01*
X107795861Y-61317375D01*
X107707621Y-61202379D01*
X107592625Y-61114139D01*
X107458709Y-61058670D01*
X107315000Y-61039750D01*
X107171291Y-61058670D01*
X107037375Y-61114139D01*
X106922379Y-61202379D01*
X106834139Y-61317375D01*
X106778670Y-61451291D01*
X106759750Y-61595000D01*
X101850500Y-61595000D01*
X101850500Y-60325000D01*
X120094750Y-60325000D01*
X120113670Y-60468709D01*
X120169139Y-60602625D01*
X120257379Y-60717621D01*
X120372375Y-60805861D01*
X120506291Y-60861330D01*
X120650000Y-60880250D01*
X120793709Y-60861330D01*
X120927625Y-60805861D01*
X121042621Y-60717621D01*
X121130861Y-60602625D01*
X121186330Y-60468709D01*
X121205250Y-60325000D01*
X134699750Y-60325000D01*
X134718670Y-60468709D01*
X134774139Y-60602625D01*
X134862379Y-60717621D01*
X134977375Y-60805861D01*
X135111291Y-60861330D01*
X135255000Y-60880250D01*
X135398709Y-60861330D01*
X135532625Y-60805861D01*
X135647621Y-60717621D01*
X135735861Y-60602625D01*
X135791330Y-60468709D01*
X135810250Y-60325000D01*
X135791330Y-60181291D01*
X135735861Y-60047375D01*
X135647621Y-59932379D01*
X135532625Y-59844139D01*
X135398709Y-59788670D01*
X135255000Y-59769750D01*
X135111291Y-59788670D01*
X134977375Y-59844139D01*
X134862379Y-59932379D01*
X134774139Y-60047375D01*
X134718670Y-60181291D01*
X134699750Y-60325000D01*
X121205250Y-60325000D01*
X121186330Y-60181291D01*
X121130861Y-60047375D01*
X121042621Y-59932379D01*
X120927625Y-59844139D01*
X120793709Y-59788670D01*
X120650000Y-59769750D01*
X120506291Y-59788670D01*
X120372375Y-59844139D01*
X120257379Y-59932379D01*
X120169139Y-60047375D01*
X120113670Y-60181291D01*
X120094750Y-60325000D01*
X101850500Y-60325000D01*
X101850500Y-59411654D01*
X159974011Y-59411654D01*
X159992931Y-59555363D01*
X160048400Y-59689279D01*
X160136640Y-59804275D01*
X160251636Y-59892515D01*
X160385552Y-59947984D01*
X160529261Y-59966904D01*
X160672970Y-59947984D01*
X160806886Y-59892515D01*
X160921882Y-59804275D01*
X161010122Y-59689279D01*
X161065591Y-59555363D01*
X161084511Y-59411654D01*
X161065591Y-59267945D01*
X161010122Y-59134029D01*
X160921882Y-59019033D01*
X160806886Y-58930793D01*
X160672970Y-58875324D01*
X160529261Y-58856404D01*
X160385552Y-58875324D01*
X160251636Y-58930793D01*
X160136640Y-59019033D01*
X160048400Y-59134029D01*
X159992931Y-59267945D01*
X159974011Y-59411654D01*
X101850500Y-59411654D01*
X101850500Y-58420000D01*
X175974750Y-58420000D01*
X175993670Y-58563709D01*
X176049139Y-58697625D01*
X176137379Y-58812621D01*
X176252375Y-58900861D01*
X176386291Y-58956330D01*
X176530000Y-58975250D01*
X176673709Y-58956330D01*
X176807625Y-58900861D01*
X176922621Y-58812621D01*
X177010861Y-58697625D01*
X177066330Y-58563709D01*
X177085250Y-58420000D01*
X177066330Y-58276291D01*
X177010861Y-58142375D01*
X176922621Y-58027379D01*
X176807625Y-57939139D01*
X176673709Y-57883670D01*
X176530000Y-57864750D01*
X176386291Y-57883670D01*
X176252375Y-57939139D01*
X176137379Y-58027379D01*
X176049139Y-58142375D01*
X175993670Y-58276291D01*
X175974750Y-58420000D01*
X101850500Y-58420000D01*
X101850500Y-57150000D01*
X117554750Y-57150000D01*
X117573670Y-57293709D01*
X117629139Y-57427625D01*
X117717379Y-57542621D01*
X117832375Y-57630861D01*
X117966291Y-57686330D01*
X118110000Y-57705250D01*
X118253709Y-57686330D01*
X118387625Y-57630861D01*
X118502621Y-57542621D01*
X118590861Y-57427625D01*
X118646330Y-57293709D01*
X118665250Y-57150000D01*
X162639750Y-57150000D01*
X162658670Y-57293709D01*
X162714139Y-57427625D01*
X162802379Y-57542621D01*
X162917375Y-57630861D01*
X163051291Y-57686330D01*
X163195000Y-57705250D01*
X163338709Y-57686330D01*
X163472625Y-57630861D01*
X163587621Y-57542621D01*
X163675861Y-57427625D01*
X163731330Y-57293709D01*
X163750250Y-57150000D01*
X163731330Y-57006291D01*
X163675861Y-56872375D01*
X163587621Y-56757379D01*
X163472625Y-56669139D01*
X163338709Y-56613670D01*
X163195000Y-56594750D01*
X163051291Y-56613670D01*
X162917375Y-56669139D01*
X162802379Y-56757379D01*
X162714139Y-56872375D01*
X162658670Y-57006291D01*
X162639750Y-57150000D01*
X118665250Y-57150000D01*
X118646330Y-57006291D01*
X118590861Y-56872375D01*
X118502621Y-56757379D01*
X118387625Y-56669139D01*
X118253709Y-56613670D01*
X118110000Y-56594750D01*
X117966291Y-56613670D01*
X117832375Y-56669139D01*
X117717379Y-56757379D01*
X117629139Y-56872375D01*
X117573670Y-57006291D01*
X117554750Y-57150000D01*
X101850500Y-57150000D01*
X101850500Y-56515000D01*
X132794750Y-56515000D01*
X132813670Y-56658709D01*
X132869139Y-56792625D01*
X132957379Y-56907621D01*
X133072375Y-56995861D01*
X133206291Y-57051330D01*
X133350000Y-57070250D01*
X133493709Y-57051330D01*
X133627625Y-56995861D01*
X133742621Y-56907621D01*
X133830861Y-56792625D01*
X133886330Y-56658709D01*
X133905250Y-56515000D01*
X147399750Y-56515000D01*
X147418670Y-56658709D01*
X147474139Y-56792625D01*
X147562379Y-56907621D01*
X147677375Y-56995861D01*
X147811291Y-57051330D01*
X147955000Y-57070250D01*
X148098709Y-57051330D01*
X148232625Y-56995861D01*
X148347621Y-56907621D01*
X148435861Y-56792625D01*
X148491330Y-56658709D01*
X148510250Y-56515000D01*
X148491330Y-56371291D01*
X148482717Y-56350498D01*
X165052750Y-56350498D01*
X165071670Y-56494207D01*
X165127139Y-56628123D01*
X165215379Y-56743119D01*
X165330375Y-56831359D01*
X165464291Y-56886828D01*
X165608000Y-56905748D01*
X165751709Y-56886828D01*
X165885625Y-56831359D01*
X166000621Y-56743119D01*
X166088861Y-56628123D01*
X166144330Y-56494207D01*
X166163250Y-56350498D01*
X166144330Y-56206789D01*
X166088861Y-56072873D01*
X166000621Y-55957877D01*
X165885625Y-55869637D01*
X165751709Y-55814168D01*
X165608000Y-55795248D01*
X165464291Y-55814168D01*
X165330375Y-55869637D01*
X165215379Y-55957877D01*
X165127139Y-56072873D01*
X165071670Y-56206789D01*
X165052750Y-56350498D01*
X148482717Y-56350498D01*
X148435861Y-56237375D01*
X148347621Y-56122379D01*
X148232625Y-56034139D01*
X148098709Y-55978670D01*
X147955000Y-55959750D01*
X147811291Y-55978670D01*
X147677375Y-56034139D01*
X147562379Y-56122379D01*
X147474139Y-56237375D01*
X147418670Y-56371291D01*
X147399750Y-56515000D01*
X133905250Y-56515000D01*
X133886330Y-56371291D01*
X133830861Y-56237375D01*
X133742621Y-56122379D01*
X133627625Y-56034139D01*
X133493709Y-55978670D01*
X133350000Y-55959750D01*
X133206291Y-55978670D01*
X133072375Y-56034139D01*
X132957379Y-56122379D01*
X132869139Y-56237375D01*
X132813670Y-56371291D01*
X132794750Y-56515000D01*
X101850500Y-56515000D01*
X101850500Y-53848000D01*
X103342532Y-53848000D01*
X103362365Y-54074692D01*
X103421261Y-54294496D01*
X103517432Y-54500734D01*
X103647953Y-54687139D01*
X103808861Y-54848047D01*
X103995266Y-54978568D01*
X104000244Y-54980889D01*
X104000247Y-54980891D01*
X104196522Y-55072416D01*
X104201504Y-55074739D01*
X104206812Y-55076161D01*
X104206814Y-55076162D01*
X104415993Y-55132211D01*
X104415995Y-55132211D01*
X104421308Y-55133635D01*
X104520302Y-55142296D01*
X104588492Y-55148262D01*
X104588499Y-55148262D01*
X104591216Y-55148500D01*
X104704784Y-55148500D01*
X104707501Y-55148262D01*
X104707508Y-55148262D01*
X104775698Y-55142296D01*
X104874692Y-55133635D01*
X104880005Y-55132211D01*
X104880007Y-55132211D01*
X105089186Y-55076162D01*
X105089188Y-55076161D01*
X105094496Y-55074739D01*
X105099478Y-55072416D01*
X105295753Y-54980891D01*
X105295756Y-54980889D01*
X105300734Y-54978568D01*
X105487139Y-54848047D01*
X105648047Y-54687139D01*
X105778568Y-54500734D01*
X105874739Y-54294496D01*
X105933635Y-54074692D01*
X105953468Y-53848000D01*
X173446532Y-53848000D01*
X173466365Y-54074692D01*
X173525261Y-54294496D01*
X173621432Y-54500734D01*
X173751953Y-54687139D01*
X173912861Y-54848047D01*
X174099266Y-54978568D01*
X174104244Y-54980889D01*
X174104247Y-54980891D01*
X174300522Y-55072416D01*
X174305504Y-55074739D01*
X174310812Y-55076161D01*
X174310814Y-55076162D01*
X174519993Y-55132211D01*
X174519995Y-55132211D01*
X174525308Y-55133635D01*
X174624302Y-55142296D01*
X174692492Y-55148262D01*
X174692499Y-55148262D01*
X174695216Y-55148500D01*
X174808784Y-55148500D01*
X174811501Y-55148262D01*
X174811508Y-55148262D01*
X174879698Y-55142296D01*
X174978692Y-55133635D01*
X174984005Y-55132211D01*
X174984007Y-55132211D01*
X175193186Y-55076162D01*
X175193188Y-55076161D01*
X175198496Y-55074739D01*
X175203478Y-55072416D01*
X175399753Y-54980891D01*
X175399756Y-54980889D01*
X175404734Y-54978568D01*
X175591139Y-54848047D01*
X175752047Y-54687139D01*
X175882568Y-54500734D01*
X175978739Y-54294496D01*
X176037635Y-54074692D01*
X176057468Y-53848000D01*
X176037635Y-53621308D01*
X175998186Y-53474081D01*
X175980162Y-53406814D01*
X175980161Y-53406812D01*
X175978739Y-53401504D01*
X175956326Y-53353440D01*
X175884891Y-53200247D01*
X175884889Y-53200244D01*
X175882568Y-53195266D01*
X175752047Y-53008861D01*
X175591139Y-52847953D01*
X175404734Y-52717432D01*
X175399756Y-52715111D01*
X175399753Y-52715109D01*
X175203478Y-52623584D01*
X175203476Y-52623583D01*
X175198496Y-52621261D01*
X175193188Y-52619839D01*
X175193186Y-52619838D01*
X174984007Y-52563789D01*
X174984005Y-52563789D01*
X174978692Y-52562365D01*
X174879698Y-52553704D01*
X174811508Y-52547738D01*
X174811501Y-52547738D01*
X174808784Y-52547500D01*
X174695216Y-52547500D01*
X174692499Y-52547738D01*
X174692492Y-52547738D01*
X174624302Y-52553704D01*
X174525308Y-52562365D01*
X174519995Y-52563789D01*
X174519993Y-52563789D01*
X174310814Y-52619838D01*
X174310812Y-52619839D01*
X174305504Y-52621261D01*
X174300524Y-52623583D01*
X174300522Y-52623584D01*
X174104247Y-52715109D01*
X174104244Y-52715111D01*
X174099266Y-52717432D01*
X173912861Y-52847953D01*
X173751953Y-53008861D01*
X173621432Y-53195266D01*
X173619111Y-53200244D01*
X173619109Y-53200247D01*
X173547674Y-53353440D01*
X173525261Y-53401504D01*
X173523839Y-53406812D01*
X173523838Y-53406814D01*
X173505814Y-53474081D01*
X173466365Y-53621308D01*
X173446532Y-53848000D01*
X105953468Y-53848000D01*
X105933635Y-53621308D01*
X105894186Y-53474081D01*
X105876162Y-53406814D01*
X105876161Y-53406812D01*
X105874739Y-53401504D01*
X105852326Y-53353440D01*
X105780891Y-53200247D01*
X105780889Y-53200244D01*
X105778568Y-53195266D01*
X105648047Y-53008861D01*
X105487139Y-52847953D01*
X105300734Y-52717432D01*
X105295756Y-52715111D01*
X105295753Y-52715109D01*
X105099478Y-52623584D01*
X105099476Y-52623583D01*
X105094496Y-52621261D01*
X105089188Y-52619839D01*
X105089186Y-52619838D01*
X104880007Y-52563789D01*
X104880005Y-52563789D01*
X104874692Y-52562365D01*
X104775698Y-52553704D01*
X104707508Y-52547738D01*
X104707501Y-52547738D01*
X104704784Y-52547500D01*
X104591216Y-52547500D01*
X104588499Y-52547738D01*
X104588492Y-52547738D01*
X104520302Y-52553704D01*
X104421308Y-52562365D01*
X104415995Y-52563789D01*
X104415993Y-52563789D01*
X104206814Y-52619838D01*
X104206812Y-52619839D01*
X104201504Y-52621261D01*
X104196524Y-52623583D01*
X104196522Y-52623584D01*
X104000247Y-52715109D01*
X104000244Y-52715111D01*
X103995266Y-52717432D01*
X103808861Y-52847953D01*
X103647953Y-53008861D01*
X103517432Y-53195266D01*
X103515111Y-53200244D01*
X103515109Y-53200247D01*
X103443674Y-53353440D01*
X103421261Y-53401504D01*
X103419839Y-53406812D01*
X103419838Y-53406814D01*
X103401814Y-53474081D01*
X103362365Y-53621308D01*
X103342532Y-53848000D01*
X101850500Y-53848000D01*
X101850500Y-51176500D01*
X101870502Y-51108379D01*
X101924158Y-51061886D01*
X101976500Y-51050500D01*
X163867528Y-51050500D01*
X163935649Y-51070502D01*
G37*
G04 #@! TD.AperFunction*
M02*
