G04 #@! TF.GenerationSoftware,KiCad,Pcbnew,(6.0.5)*
G04 #@! TF.CreationDate,2023-05-13T13:21:23-04:00*
G04 #@! TF.ProjectId,control_board,636f6e74-726f-46c5-9f62-6f6172642e6b,rev?*
G04 #@! TF.SameCoordinates,Original*
G04 #@! TF.FileFunction,Paste,Top*
G04 #@! TF.FilePolarity,Positive*
%FSLAX46Y46*%
G04 Gerber Fmt 4.6, Leading zero omitted, Abs format (unit mm)*
G04 Created by KiCad (PCBNEW (6.0.5)) date 2023-05-13 13:21:23*
%MOMM*%
%LPD*%
G01*
G04 APERTURE LIST*
G04 Aperture macros list*
%AMRoundRect*
0 Rectangle with rounded corners*
0 $1 Rounding radius*
0 $2 $3 $4 $5 $6 $7 $8 $9 X,Y pos of 4 corners*
0 Add a 4 corners polygon primitive as box body*
4,1,4,$2,$3,$4,$5,$6,$7,$8,$9,$2,$3,0*
0 Add four circle primitives for the rounded corners*
1,1,$1+$1,$2,$3*
1,1,$1+$1,$4,$5*
1,1,$1+$1,$6,$7*
1,1,$1+$1,$8,$9*
0 Add four rect primitives between the rounded corners*
20,1,$1+$1,$2,$3,$4,$5,0*
20,1,$1+$1,$4,$5,$6,$7,0*
20,1,$1+$1,$6,$7,$8,$9,0*
20,1,$1+$1,$8,$9,$2,$3,0*%
%AMFreePoly0*
4,1,9,5.362500,-0.866500,1.237500,-0.866500,1.237500,-0.450000,-1.237500,-0.450000,-1.237500,0.450000,1.237500,0.450000,1.237500,0.866500,5.362500,0.866500,5.362500,-0.866500,5.362500,-0.866500,$1*%
G04 Aperture macros list end*
%ADD10RoundRect,0.200000X-0.275000X0.200000X-0.275000X-0.200000X0.275000X-0.200000X0.275000X0.200000X0*%
%ADD11RoundRect,0.200000X0.200000X0.275000X-0.200000X0.275000X-0.200000X-0.275000X0.200000X-0.275000X0*%
%ADD12RoundRect,0.200000X-0.200000X-0.275000X0.200000X-0.275000X0.200000X0.275000X-0.200000X0.275000X0*%
%ADD13RoundRect,0.200000X0.275000X-0.200000X0.275000X0.200000X-0.275000X0.200000X-0.275000X-0.200000X0*%
%ADD14RoundRect,0.225000X0.250000X-0.225000X0.250000X0.225000X-0.250000X0.225000X-0.250000X-0.225000X0*%
%ADD15RoundRect,0.225000X-0.225000X-0.250000X0.225000X-0.250000X0.225000X0.250000X-0.225000X0.250000X0*%
%ADD16RoundRect,0.225000X-0.250000X0.225000X-0.250000X-0.225000X0.250000X-0.225000X0.250000X0.225000X0*%
%ADD17RoundRect,0.225000X0.225000X0.250000X-0.225000X0.250000X-0.225000X-0.250000X0.225000X-0.250000X0*%
%ADD18R,4.500000X2.000000*%
%ADD19R,0.400000X1.350000*%
%ADD20R,1.900000X1.900000*%
%ADD21R,1.600000X1.400000*%
%ADD22R,0.650000X1.560000*%
%ADD23R,0.900000X2.300000*%
%ADD24FreePoly0,270.000000*%
%ADD25RoundRect,0.150000X-0.650000X-0.150000X0.650000X-0.150000X0.650000X0.150000X-0.650000X0.150000X0*%
%ADD26RoundRect,0.237500X0.287500X0.237500X-0.287500X0.237500X-0.287500X-0.237500X0.287500X-0.237500X0*%
%ADD27R,0.675000X0.250000*%
%ADD28R,0.250000X0.675000*%
%ADD29O,0.875000X0.200000*%
%ADD30O,0.200000X0.875000*%
%ADD31R,3.200000X3.200000*%
%ADD32RoundRect,0.237500X-0.287500X-0.237500X0.287500X-0.237500X0.287500X0.237500X-0.287500X0.237500X0*%
%ADD33R,1.500000X4.000000*%
%ADD34R,0.700000X0.340000*%
%ADD35R,2.108200X0.558800*%
G04 APERTURE END LIST*
D10*
X120904000Y-119825000D03*
X120904000Y-121475000D03*
D11*
X146400500Y-61177500D03*
X144750500Y-61177500D03*
D12*
X153000500Y-58677500D03*
X154650500Y-58677500D03*
X129356450Y-64206000D03*
X127706450Y-64206000D03*
D10*
X149376000Y-74592500D03*
X149376000Y-76242500D03*
D13*
X149376000Y-72194500D03*
X149376000Y-70544500D03*
D12*
X159195000Y-82961000D03*
X160845000Y-82961000D03*
D13*
X164616000Y-65595000D03*
X164616000Y-63945000D03*
X162584000Y-65595000D03*
X162584000Y-63945000D03*
D14*
X118999000Y-110402500D03*
X118999000Y-108852500D03*
X112141000Y-110249000D03*
X112141000Y-108699000D03*
X112200000Y-97587500D03*
X112200000Y-96037500D03*
D15*
X107175000Y-92562500D03*
X108725000Y-92562500D03*
X157550500Y-58927500D03*
X159100500Y-58927500D03*
X129103250Y-62301000D03*
X127553250Y-62301000D03*
D16*
X138430000Y-86601000D03*
X138430000Y-88151000D03*
D14*
X140462000Y-88151000D03*
X140462000Y-86601000D03*
D15*
X122753250Y-62301000D03*
X121203250Y-62301000D03*
X159245000Y-84739000D03*
X160795000Y-84739000D03*
X155435000Y-84739000D03*
X156985000Y-84739000D03*
X163841000Y-69310000D03*
X165391000Y-69310000D03*
D17*
X155239000Y-76067500D03*
X153689000Y-76067500D03*
D14*
X160298000Y-69476500D03*
X160298000Y-67926500D03*
D16*
X166394000Y-76182500D03*
X166394000Y-77732500D03*
D15*
X166373000Y-72513500D03*
X167923000Y-72513500D03*
D17*
X155231000Y-72511500D03*
X153681000Y-72511500D03*
D18*
X161730000Y-88900000D03*
X153230000Y-88900000D03*
D19*
X168918250Y-54999000D03*
X168268250Y-54999000D03*
X167618250Y-54999000D03*
X166968250Y-54999000D03*
X166318250Y-54999000D03*
D20*
X166418250Y-52324000D03*
D21*
X164418250Y-54774000D03*
D20*
X168818250Y-52324000D03*
D21*
X170818250Y-54774000D03*
D22*
X114493000Y-112856000D03*
X115443000Y-112856000D03*
X116393000Y-112856000D03*
X116393000Y-110156000D03*
X114493000Y-110156000D03*
D23*
X110200000Y-95162500D03*
D24*
X108700000Y-95250000D03*
D23*
X107200000Y-95162500D03*
D25*
X157175500Y-61022500D03*
X157175500Y-62292500D03*
X157175500Y-63562500D03*
X157175500Y-64832500D03*
X149975500Y-64832500D03*
X149975500Y-63562500D03*
X149975500Y-62292500D03*
X149975500Y-61022500D03*
D26*
X163875000Y-60000000D03*
X162125000Y-60000000D03*
D27*
X137675500Y-83070000D03*
X137675500Y-83570000D03*
X137675500Y-84070000D03*
X137675500Y-84570000D03*
D28*
X138438000Y-84832500D03*
X138938000Y-84832500D03*
X139438000Y-84832500D03*
D27*
X140200500Y-84570000D03*
X140200500Y-84070000D03*
X140200500Y-83570000D03*
X140200500Y-83070000D03*
D28*
X139438000Y-82807500D03*
X138938000Y-82807500D03*
X138438000Y-82807500D03*
D29*
X157368500Y-72579500D03*
X157368500Y-72979500D03*
X157368500Y-73379500D03*
X157368500Y-73779500D03*
X157368500Y-74179500D03*
X157368500Y-74579500D03*
X157368500Y-74979500D03*
X157368500Y-75379500D03*
X157368500Y-75779500D03*
X157368500Y-76179500D03*
X157368500Y-76579500D03*
X157368500Y-76979500D03*
X157368500Y-77379500D03*
X157368500Y-77779500D03*
D30*
X158206000Y-78617000D03*
X158606000Y-78617000D03*
X159006000Y-78617000D03*
X159406000Y-78617000D03*
X159806000Y-78617000D03*
X160206000Y-78617000D03*
X160606000Y-78617000D03*
X161006000Y-78617000D03*
X161406000Y-78617000D03*
X161806000Y-78617000D03*
X162206000Y-78617000D03*
X162606000Y-78617000D03*
X163006000Y-78617000D03*
X163406000Y-78617000D03*
D29*
X164243500Y-77779500D03*
X164243500Y-77379500D03*
X164243500Y-76979500D03*
X164243500Y-76579500D03*
X164243500Y-76179500D03*
X164243500Y-75779500D03*
X164243500Y-75379500D03*
X164243500Y-74979500D03*
X164243500Y-74579500D03*
X164243500Y-74179500D03*
X164243500Y-73779500D03*
X164243500Y-73379500D03*
X164243500Y-72979500D03*
X164243500Y-72579500D03*
D30*
X163406000Y-71742000D03*
X163006000Y-71742000D03*
X162606000Y-71742000D03*
X162206000Y-71742000D03*
X161806000Y-71742000D03*
X161406000Y-71742000D03*
X161006000Y-71742000D03*
X160606000Y-71742000D03*
X160206000Y-71742000D03*
X159806000Y-71742000D03*
X159406000Y-71742000D03*
X159006000Y-71742000D03*
X158606000Y-71742000D03*
X158206000Y-71742000D03*
D31*
X160806000Y-75179500D03*
D32*
X166125000Y-60000000D03*
X167875000Y-60000000D03*
D33*
X116963600Y-116484400D03*
X113363600Y-116484400D03*
D34*
X125903250Y-63071000D03*
X125903250Y-63571000D03*
X125903250Y-64071000D03*
X124403250Y-64071000D03*
X124403250Y-63571000D03*
X124403250Y-63071000D03*
D35*
X145024800Y-55427500D03*
X151626200Y-55427500D03*
M02*
