%FSLAX45Y45*%
G04 Gerber Fmt 4.5, Leading zero omitted, Abs format (unit mm)*
G04 Created by KiCad (PCBNEW (6.0.5)) date 2023-03-01 16:27:35*
%MOMM*%
%LPD*%
G01*
G04 APERTURE LIST*
%TA.AperFunction,Profile*%
%ADD10C,0.100000*%
%TD*%
%ADD11C,0.200000*%
%ADD12C,0.030000*%
%ADD13C,0.050000*%
%ADD14C,0.080000*%
%ADD15C,0.100000*%
%ADD16C,0.102000*%
G04 APERTURE END LIST*
D10*
X10160000Y-12700000D02*
X17780000Y-12700000D01*
X17780000Y-12700000D02*
X17780000Y-5080000D01*
X17780000Y-5080000D02*
X10160000Y-5080000D01*
X10160000Y-5080000D02*
X10160000Y-12700000D01*
D11*
D12*
X10487900Y-11884900D02*
X10517900Y-11914900D01*
X10517900Y-11884900D02*
X10487900Y-11914900D01*
X10551400Y-5877800D02*
X10581400Y-5907800D01*
X10581400Y-5877800D02*
X10551400Y-5907800D01*
X10551400Y-7376400D02*
X10581400Y-7406400D01*
X10581400Y-7376400D02*
X10551400Y-7406400D01*
X10551400Y-8887700D02*
X10581400Y-8917700D01*
X10581400Y-8887700D02*
X10551400Y-8917700D01*
X10551400Y-10373600D02*
X10581400Y-10403600D01*
X10581400Y-10373600D02*
X10551400Y-10403600D01*
X10741900Y-10665700D02*
X10771900Y-10695700D01*
X10771900Y-10665700D02*
X10741900Y-10695700D01*
X10741900Y-10843500D02*
X10771900Y-10873500D01*
X10771900Y-10843500D02*
X10741900Y-10873500D01*
X10843500Y-7224000D02*
X10873500Y-7254000D01*
X10873500Y-7224000D02*
X10843500Y-7254000D01*
X10843500Y-8709900D02*
X10873500Y-8739900D01*
X10873500Y-8709900D02*
X10843500Y-8739900D01*
X10843500Y-10221200D02*
X10873500Y-10251200D01*
X10873500Y-10221200D02*
X10843500Y-10251200D01*
X10843500Y-11719800D02*
X10873500Y-11749800D01*
X10873500Y-11719800D02*
X10843500Y-11749800D01*
X10843762Y-5712247D02*
X10873762Y-5742247D01*
X10873762Y-5712247D02*
X10843762Y-5742247D01*
X10894300Y-10665700D02*
X10924300Y-10695700D01*
X10924300Y-10665700D02*
X10894300Y-10695700D01*
X10894300Y-10843500D02*
X10924300Y-10873500D01*
X10924300Y-10843500D02*
X10894300Y-10873500D01*
X10995900Y-9243300D02*
X11025900Y-9273300D01*
X11025900Y-9243300D02*
X10995900Y-9273300D01*
X11161000Y-9891000D02*
X11191000Y-9921000D01*
X11191000Y-9891000D02*
X11161000Y-9921000D01*
X11161000Y-10018000D02*
X11191000Y-10048000D01*
X11191000Y-10018000D02*
X11161000Y-10048000D01*
X11199100Y-9459200D02*
X11229100Y-9489200D01*
X11229100Y-9459200D02*
X11199100Y-9489200D01*
X11199100Y-11148300D02*
X11229100Y-11178300D01*
X11229100Y-11148300D02*
X11199100Y-11178300D01*
X11288000Y-9891000D02*
X11318000Y-9921000D01*
X11318000Y-9891000D02*
X11288000Y-9921000D01*
X11288000Y-10018000D02*
X11318000Y-10048000D01*
X11318000Y-10018000D02*
X11288000Y-10048000D01*
X11478500Y-5890500D02*
X11508500Y-5920500D01*
X11508500Y-5890500D02*
X11478500Y-5920500D01*
X11630900Y-10856200D02*
X11660900Y-10886200D01*
X11660900Y-10856200D02*
X11630900Y-10886200D01*
X11719800Y-11580100D02*
X11749800Y-11610100D01*
X11749800Y-11580100D02*
X11719800Y-11610100D01*
X11719800Y-11681700D02*
X11749800Y-11711700D01*
X11749800Y-11681700D02*
X11719800Y-11711700D01*
X11732500Y-10856200D02*
X11762500Y-10886200D01*
X11762500Y-10856200D02*
X11732500Y-10886200D01*
X11821400Y-11580100D02*
X11851400Y-11610100D01*
X11851400Y-11580100D02*
X11821400Y-11610100D01*
X11821400Y-11681700D02*
X11851400Y-11711700D01*
X11851400Y-11681700D02*
X11821400Y-11711700D01*
X11961100Y-6208000D02*
X11991100Y-6238000D01*
X11991100Y-6208000D02*
X11961100Y-6238000D01*
X12062700Y-10221200D02*
X12092700Y-10251200D01*
X12092700Y-10221200D02*
X12062700Y-10251200D01*
X12062700Y-11719800D02*
X12092700Y-11749800D01*
X12092700Y-11719800D02*
X12062700Y-11749800D01*
X12291300Y-6335000D02*
X12321300Y-6365000D01*
X12321300Y-6335000D02*
X12291300Y-6365000D01*
X12338628Y-5712247D02*
X12368628Y-5742247D01*
X12368628Y-5712247D02*
X12338628Y-5742247D01*
X12342100Y-8709900D02*
X12372100Y-8739900D01*
X12372100Y-8709900D02*
X12342100Y-8739900D01*
X12354800Y-7211300D02*
X12384800Y-7241300D01*
X12384800Y-7211300D02*
X12354800Y-7241300D01*
X12392900Y-6157200D02*
X12422900Y-6187200D01*
X12422900Y-6157200D02*
X12392900Y-6187200D01*
X12570700Y-7363700D02*
X12600700Y-7393700D01*
X12600700Y-7363700D02*
X12570700Y-7393700D01*
X12659600Y-8544800D02*
X12689600Y-8574800D01*
X12689600Y-8544800D02*
X12659600Y-8574800D01*
X13027900Y-6220700D02*
X13057900Y-6250700D01*
X13057900Y-6220700D02*
X13027900Y-6250700D01*
X13078700Y-6398500D02*
X13108700Y-6428500D01*
X13108700Y-6398500D02*
X13078700Y-6428500D01*
X13535900Y-11719800D02*
X13565900Y-11749800D01*
X13565900Y-11719800D02*
X13535900Y-11749800D01*
X13561300Y-10208500D02*
X13591300Y-10238500D01*
X13591300Y-10208500D02*
X13561300Y-10238500D01*
X13599400Y-8316200D02*
X13629400Y-8346200D01*
X13629400Y-8316200D02*
X13599400Y-8346200D01*
X13841444Y-7214439D02*
X13871444Y-7244439D01*
X13871444Y-7214439D02*
X13841444Y-7244439D01*
X13843045Y-5712247D02*
X13873045Y-5742247D01*
X13873045Y-5712247D02*
X13843045Y-5742247D01*
X13878800Y-8367000D02*
X13908800Y-8397000D01*
X13908800Y-8367000D02*
X13878800Y-8397000D01*
X13929600Y-8646400D02*
X13959600Y-8676400D01*
X13959600Y-8646400D02*
X13929600Y-8676400D01*
X13929600Y-8748000D02*
X13959600Y-8778000D01*
X13959600Y-8748000D02*
X13929600Y-8778000D01*
X13955000Y-9827500D02*
X13985000Y-9857500D01*
X13985000Y-9827500D02*
X13955000Y-9857500D01*
X13993100Y-8201900D02*
X14023100Y-8231900D01*
X14023100Y-8201900D02*
X13993100Y-8231900D01*
X14107400Y-8417800D02*
X14137400Y-8447800D01*
X14137400Y-8417800D02*
X14107400Y-8447800D01*
X14310600Y-8316200D02*
X14340600Y-8346200D01*
X14340600Y-8316200D02*
X14310600Y-8346200D01*
X14590000Y-9129950D02*
X14620000Y-9159950D01*
X14620000Y-9129950D02*
X14590000Y-9159950D01*
X14653500Y-8684500D02*
X14683500Y-8714500D01*
X14683500Y-8684500D02*
X14653500Y-8714500D01*
X14920200Y-8722600D02*
X14950200Y-8752600D01*
X14950200Y-8722600D02*
X14920200Y-8752600D01*
X14983700Y-8849600D02*
X15013700Y-8879600D01*
X15013700Y-8849600D02*
X14983700Y-8879600D01*
X15047200Y-11719800D02*
X15077200Y-11749800D01*
X15077200Y-11719800D02*
X15047200Y-11749800D01*
X15059900Y-10208500D02*
X15089900Y-10238500D01*
X15089900Y-10208500D02*
X15059900Y-10238500D01*
X15072600Y-7960600D02*
X15102600Y-7990600D01*
X15102600Y-7960600D02*
X15072600Y-7990600D01*
X15085300Y-7617700D02*
X15115300Y-7647700D01*
X15115300Y-7617700D02*
X15085300Y-7647700D01*
X15153878Y-9827500D02*
X15183878Y-9857500D01*
X15183878Y-9827500D02*
X15153878Y-9857500D01*
X15161500Y-9573500D02*
X15191500Y-9603500D01*
X15191500Y-9573500D02*
X15161500Y-9603500D01*
X15161500Y-9700500D02*
X15191500Y-9730500D01*
X15191500Y-9700500D02*
X15161500Y-9730500D01*
X15352000Y-5712700D02*
X15382000Y-5742700D01*
X15382000Y-5712700D02*
X15352000Y-5742700D01*
X15352000Y-7224000D02*
X15382000Y-7254000D01*
X15382000Y-7224000D02*
X15352000Y-7254000D01*
X15352000Y-10716500D02*
X15382000Y-10746500D01*
X15382000Y-10716500D02*
X15352000Y-10746500D01*
X15352000Y-11034000D02*
X15382000Y-11064000D01*
X15382000Y-11034000D02*
X15352000Y-11064000D01*
X15415500Y-9129000D02*
X15445500Y-9159000D01*
X15445500Y-9129000D02*
X15415500Y-9159000D01*
X15429850Y-8760700D02*
X15459850Y-8790700D01*
X15459850Y-8760700D02*
X15429850Y-8790700D01*
X15491700Y-8189200D02*
X15521700Y-8219200D01*
X15521700Y-8189200D02*
X15491700Y-8219200D01*
X15529800Y-8760700D02*
X15559800Y-8790700D01*
X15559800Y-8760700D02*
X15529800Y-8790700D01*
X15542500Y-9129000D02*
X15572500Y-9159000D01*
X15572500Y-9129000D02*
X15542500Y-9159000D01*
X15669500Y-8189200D02*
X15699500Y-8219200D01*
X15699500Y-8189200D02*
X15669500Y-8219200D01*
X15758400Y-6944600D02*
X15788400Y-6974600D01*
X15788400Y-6944600D02*
X15758400Y-6974600D01*
X15852638Y-7826238D02*
X15882638Y-7856238D01*
X15882638Y-7826238D02*
X15852638Y-7856238D01*
X15987000Y-8522150D02*
X16017000Y-8552150D01*
X16017000Y-8522150D02*
X15987000Y-8552150D01*
X15987000Y-8623750D02*
X16017000Y-8653750D01*
X16017000Y-8623750D02*
X15987000Y-8653750D01*
X15987000Y-8725350D02*
X16017000Y-8755350D01*
X16017000Y-8725350D02*
X15987000Y-8755350D01*
X16050500Y-7833600D02*
X16080500Y-7863600D01*
X16080500Y-7833600D02*
X16050500Y-7863600D01*
X16050500Y-7998700D02*
X16080500Y-8028700D01*
X16080500Y-7998700D02*
X16050500Y-8028700D01*
X16050500Y-9383000D02*
X16080500Y-9413000D01*
X16080500Y-9383000D02*
X16050500Y-9413000D01*
X16095000Y-8455000D02*
X16125000Y-8485000D01*
X16125000Y-8455000D02*
X16095000Y-8485000D01*
X16095000Y-8555000D02*
X16125000Y-8585000D01*
X16125000Y-8555000D02*
X16095000Y-8585000D01*
X16095000Y-8665000D02*
X16125000Y-8695000D01*
X16125000Y-8665000D02*
X16095000Y-8695000D01*
X16127550Y-8338350D02*
X16157550Y-8368350D01*
X16157550Y-8338350D02*
X16127550Y-8368350D01*
X16164800Y-8115750D02*
X16194800Y-8145750D01*
X16194800Y-8115750D02*
X16164800Y-8145750D01*
X16206968Y-9031468D02*
X16236968Y-9061468D01*
X16236968Y-9031468D02*
X16206968Y-9061468D01*
X16215000Y-8455000D02*
X16245000Y-8485000D01*
X16245000Y-8455000D02*
X16215000Y-8485000D01*
X16215000Y-8555000D02*
X16245000Y-8585000D01*
X16245000Y-8555000D02*
X16215000Y-8585000D01*
X16215000Y-8665000D02*
X16245000Y-8695000D01*
X16245000Y-8665000D02*
X16215000Y-8695000D01*
X16279100Y-7757400D02*
X16309100Y-7787400D01*
X16309100Y-7757400D02*
X16279100Y-7787400D01*
X16291800Y-9027400D02*
X16321800Y-9057400D01*
X16321800Y-9027400D02*
X16291800Y-9057400D01*
X16335000Y-8455000D02*
X16365000Y-8485000D01*
X16365000Y-8455000D02*
X16335000Y-8485000D01*
X16335000Y-8555000D02*
X16365000Y-8585000D01*
X16365000Y-8555000D02*
X16335000Y-8585000D01*
X16448050Y-8115750D02*
X16478050Y-8145750D01*
X16478050Y-8115750D02*
X16448050Y-8145750D01*
X16495000Y-5839901D02*
X16525000Y-5869901D01*
X16525000Y-5839901D02*
X16495000Y-5869901D01*
X16545800Y-5620050D02*
X16575800Y-5650050D01*
X16575800Y-5620050D02*
X16545800Y-5650050D01*
X16545800Y-8113000D02*
X16575800Y-8143000D01*
X16575800Y-8113000D02*
X16545800Y-8143000D01*
X16558500Y-9383000D02*
X16588500Y-9413000D01*
X16588500Y-9383000D02*
X16558500Y-9413000D01*
X16558500Y-11719800D02*
X16588500Y-11749800D01*
X16588500Y-11719800D02*
X16558500Y-11749800D01*
X16571200Y-10221200D02*
X16601200Y-10251200D01*
X16601200Y-10221200D02*
X16571200Y-10251200D01*
X16660100Y-8608300D02*
X16690100Y-8638300D01*
X16690100Y-8608300D02*
X16660100Y-8638300D01*
X16761700Y-8189200D02*
X16791700Y-8219200D01*
X16791700Y-8189200D02*
X16761700Y-8219200D01*
X16799800Y-7986000D02*
X16829800Y-8016000D01*
X16829800Y-7986000D02*
X16799800Y-8016000D01*
X16850600Y-7224000D02*
X16880600Y-7254000D01*
X16880600Y-7224000D02*
X16850600Y-7254000D01*
X16850600Y-8976600D02*
X16880600Y-9006600D01*
X16880600Y-8976600D02*
X16850600Y-9006600D01*
X16876000Y-8659100D02*
X16906000Y-8689100D01*
X16906000Y-8659100D02*
X16876000Y-8689100D01*
X16913088Y-9864588D02*
X16943088Y-9894588D01*
X16943088Y-9864588D02*
X16913088Y-9894588D01*
X16990300Y-8659100D02*
X17020300Y-8689100D01*
X17020300Y-8659100D02*
X16990300Y-8689100D01*
X17066500Y-5839901D02*
X17096500Y-5869901D01*
X17096500Y-5839901D02*
X17066500Y-5869901D01*
X17066500Y-8316200D02*
X17096500Y-8346200D01*
X17096500Y-8316200D02*
X17066500Y-8346200D01*
X17384000Y-10843500D02*
X17414000Y-10873500D01*
X17414000Y-10843500D02*
X17384000Y-10873500D01*
X17511000Y-10843500D02*
X17541000Y-10873500D01*
X17541000Y-10843500D02*
X17511000Y-10873500D01*
D13*
X16456825Y-5232400D02*
G75*
G03*
X16456825Y-5232400I-25000J0D01*
G01*
D11*
X16446825Y-5267400D02*
X16446825Y-5197400D01*
X16416825Y-5267400D02*
X16416825Y-5197400D01*
X16446825Y-5197400D02*
G75*
G03*
X16416825Y-5197400I-15000J0D01*
G01*
X16416825Y-5267400D02*
G75*
G03*
X16446825Y-5267400I15000J0D01*
G01*
D13*
X17116825Y-5232400D02*
G75*
G03*
X17116825Y-5232400I-25000J0D01*
G01*
D11*
X17106825Y-5267400D02*
X17106825Y-5197400D01*
X17076825Y-5267400D02*
X17076825Y-5197400D01*
X17106825Y-5197400D02*
G75*
G03*
X17076825Y-5197400I-15000J0D01*
G01*
X17076825Y-5267400D02*
G75*
G03*
X17106825Y-5267400I15000J0D01*
G01*
D14*
X12334700Y-7725000D02*
X12334700Y-7805000D01*
X12294700Y-7765000D02*
X12374700Y-7765000D01*
X12334700Y-8215000D02*
X12334700Y-8295000D01*
X12294700Y-8255000D02*
X12374700Y-8255000D01*
D15*
X10729256Y-6436156D02*
X10729256Y-6365444D01*
X10658544Y-6365444D01*
X10658544Y-6436156D01*
X10729256Y-6436156D01*
X10983256Y-6436156D02*
X10983256Y-6365444D01*
X10912544Y-6365444D01*
X10912544Y-6436156D01*
X10983256Y-6436156D01*
X12063856Y-12481356D02*
X12063856Y-12410644D01*
X11993144Y-12410644D01*
X11993144Y-12481356D01*
X12063856Y-12481356D01*
X12317856Y-12481356D02*
X12317856Y-12410644D01*
X12247144Y-12410644D01*
X12247144Y-12481356D01*
X12317856Y-12481356D01*
X12571856Y-12481356D02*
X12571856Y-12410644D01*
X12501144Y-12410644D01*
X12501144Y-12481356D01*
X12571856Y-12481356D01*
X13433856Y-12481356D02*
X13433856Y-12410644D01*
X13363144Y-12410644D01*
X13363144Y-12481356D01*
X13433856Y-12481356D01*
X13687856Y-12481356D02*
X13687856Y-12410644D01*
X13617144Y-12410644D01*
X13617144Y-12481356D01*
X13687856Y-12481356D01*
X13941856Y-12481356D02*
X13941856Y-12410644D01*
X13871144Y-12410644D01*
X13871144Y-12481356D01*
X13941856Y-12481356D01*
X14195856Y-12481356D02*
X14195856Y-12410644D01*
X14125144Y-12410644D01*
X14125144Y-12481356D01*
X14195856Y-12481356D01*
X14449856Y-12481356D02*
X14449856Y-12410644D01*
X14379144Y-12410644D01*
X14379144Y-12481356D01*
X14449856Y-12481356D01*
X14703856Y-12481356D02*
X14703856Y-12410644D01*
X14633144Y-12410644D01*
X14633144Y-12481356D01*
X14703856Y-12481356D01*
X15465856Y-12481356D02*
X15465856Y-12410644D01*
X15395144Y-12410644D01*
X15395144Y-12481356D01*
X15465856Y-12481356D01*
X15719856Y-12481356D02*
X15719856Y-12410644D01*
X15649144Y-12410644D01*
X15649144Y-12481356D01*
X15719856Y-12481356D01*
X15973856Y-12481356D02*
X15973856Y-12410644D01*
X15903144Y-12410644D01*
X15903144Y-12481356D01*
X15973856Y-12481356D01*
X16227856Y-12481356D02*
X16227856Y-12410644D01*
X16157144Y-12410644D01*
X16157144Y-12481356D01*
X16227856Y-12481356D01*
D16*
X12342000Y-9957000D02*
X12393000Y-9906000D01*
X12342000Y-9855000D01*
X12291000Y-9906000D01*
X12342000Y-9957000D01*
X12342000Y-11227000D02*
X12393000Y-11176000D01*
X12342000Y-11125000D01*
X12291000Y-11176000D01*
X12342000Y-11227000D01*
D11*
X10412619Y-13015476D02*
X10412619Y-12815476D01*
X10460238Y-12815476D01*
X10488810Y-12825000D01*
X10507857Y-12844048D01*
X10517381Y-12863095D01*
X10526905Y-12901190D01*
X10526905Y-12929762D01*
X10517381Y-12967857D01*
X10507857Y-12986905D01*
X10488810Y-13005952D01*
X10460238Y-13015476D01*
X10412619Y-13015476D01*
X10612619Y-13015476D02*
X10612619Y-12882143D01*
X10612619Y-12920238D02*
X10622143Y-12901190D01*
X10631667Y-12891667D01*
X10650714Y-12882143D01*
X10669762Y-12882143D01*
X10736429Y-13015476D02*
X10736429Y-12882143D01*
X10736429Y-12815476D02*
X10726905Y-12825000D01*
X10736429Y-12834524D01*
X10745952Y-12825000D01*
X10736429Y-12815476D01*
X10736429Y-12834524D01*
X10860238Y-13015476D02*
X10841190Y-13005952D01*
X10831667Y-12986905D01*
X10831667Y-12815476D01*
X10965000Y-13015476D02*
X10945952Y-13005952D01*
X10936429Y-12986905D01*
X10936429Y-12815476D01*
X11193571Y-13015476D02*
X11193571Y-12815476D01*
X11260238Y-12958333D01*
X11326905Y-12815476D01*
X11326905Y-13015476D01*
X11507857Y-13015476D02*
X11507857Y-12910714D01*
X11498333Y-12891667D01*
X11479286Y-12882143D01*
X11441190Y-12882143D01*
X11422143Y-12891667D01*
X11507857Y-13005952D02*
X11488809Y-13015476D01*
X11441190Y-13015476D01*
X11422143Y-13005952D01*
X11412619Y-12986905D01*
X11412619Y-12967857D01*
X11422143Y-12948809D01*
X11441190Y-12939286D01*
X11488809Y-12939286D01*
X11507857Y-12929762D01*
X11603095Y-12882143D02*
X11603095Y-13082143D01*
X11603095Y-12891667D02*
X11622143Y-12882143D01*
X11660238Y-12882143D01*
X11679286Y-12891667D01*
X11688809Y-12901190D01*
X11698333Y-12920238D01*
X11698333Y-12977381D01*
X11688809Y-12996428D01*
X11679286Y-13005952D01*
X11660238Y-13015476D01*
X11622143Y-13015476D01*
X11603095Y-13005952D01*
X11784048Y-12996428D02*
X11793571Y-13005952D01*
X11784048Y-13015476D01*
X11774524Y-13005952D01*
X11784048Y-12996428D01*
X11784048Y-13015476D01*
X11784048Y-12891667D02*
X11793571Y-12901190D01*
X11784048Y-12910714D01*
X11774524Y-12901190D01*
X11784048Y-12891667D01*
X11784048Y-12910714D01*
D12*
X10125000Y-13330000D02*
X10155000Y-13360000D01*
X10155000Y-13330000D02*
X10125000Y-13360000D01*
D11*
X10450714Y-13235476D02*
X10469762Y-13235476D01*
X10488810Y-13245000D01*
X10498333Y-13254524D01*
X10507857Y-13273571D01*
X10517381Y-13311667D01*
X10517381Y-13359286D01*
X10507857Y-13397381D01*
X10498333Y-13416428D01*
X10488810Y-13425952D01*
X10469762Y-13435476D01*
X10450714Y-13435476D01*
X10431667Y-13425952D01*
X10422143Y-13416428D01*
X10412619Y-13397381D01*
X10403095Y-13359286D01*
X10403095Y-13311667D01*
X10412619Y-13273571D01*
X10422143Y-13254524D01*
X10431667Y-13245000D01*
X10450714Y-13235476D01*
X10603095Y-13416428D02*
X10612619Y-13425952D01*
X10603095Y-13435476D01*
X10593571Y-13425952D01*
X10603095Y-13416428D01*
X10603095Y-13435476D01*
X10679286Y-13235476D02*
X10803095Y-13235476D01*
X10736429Y-13311667D01*
X10765000Y-13311667D01*
X10784048Y-13321190D01*
X10793571Y-13330714D01*
X10803095Y-13349762D01*
X10803095Y-13397381D01*
X10793571Y-13416428D01*
X10784048Y-13425952D01*
X10765000Y-13435476D01*
X10707857Y-13435476D01*
X10688810Y-13425952D01*
X10679286Y-13416428D01*
X10926905Y-13235476D02*
X10945952Y-13235476D01*
X10965000Y-13245000D01*
X10974524Y-13254524D01*
X10984048Y-13273571D01*
X10993571Y-13311667D01*
X10993571Y-13359286D01*
X10984048Y-13397381D01*
X10974524Y-13416428D01*
X10965000Y-13425952D01*
X10945952Y-13435476D01*
X10926905Y-13435476D01*
X10907857Y-13425952D01*
X10898333Y-13416428D01*
X10888810Y-13397381D01*
X10879286Y-13359286D01*
X10879286Y-13311667D01*
X10888810Y-13273571D01*
X10898333Y-13254524D01*
X10907857Y-13245000D01*
X10926905Y-13235476D01*
X11117381Y-13235476D02*
X11136429Y-13235476D01*
X11155476Y-13245000D01*
X11165000Y-13254524D01*
X11174524Y-13273571D01*
X11184048Y-13311667D01*
X11184048Y-13359286D01*
X11174524Y-13397381D01*
X11165000Y-13416428D01*
X11155476Y-13425952D01*
X11136429Y-13435476D01*
X11117381Y-13435476D01*
X11098333Y-13425952D01*
X11088810Y-13416428D01*
X11079286Y-13397381D01*
X11069762Y-13359286D01*
X11069762Y-13311667D01*
X11079286Y-13273571D01*
X11088810Y-13254524D01*
X11098333Y-13245000D01*
X11117381Y-13235476D01*
X11269762Y-13435476D02*
X11269762Y-13302143D01*
X11269762Y-13321190D02*
X11279286Y-13311667D01*
X11298333Y-13302143D01*
X11326905Y-13302143D01*
X11345952Y-13311667D01*
X11355476Y-13330714D01*
X11355476Y-13435476D01*
X11355476Y-13330714D02*
X11365000Y-13311667D01*
X11384048Y-13302143D01*
X11412619Y-13302143D01*
X11431667Y-13311667D01*
X11441190Y-13330714D01*
X11441190Y-13435476D01*
X11536428Y-13435476D02*
X11536428Y-13302143D01*
X11536428Y-13321190D02*
X11545952Y-13311667D01*
X11565000Y-13302143D01*
X11593571Y-13302143D01*
X11612619Y-13311667D01*
X11622143Y-13330714D01*
X11622143Y-13435476D01*
X11622143Y-13330714D02*
X11631667Y-13311667D01*
X11650714Y-13302143D01*
X11679286Y-13302143D01*
X11698333Y-13311667D01*
X11707857Y-13330714D01*
X11707857Y-13435476D01*
X12098333Y-13225952D02*
X11926905Y-13483095D01*
X12355476Y-13235476D02*
X12374524Y-13235476D01*
X12393571Y-13245000D01*
X12403095Y-13254524D01*
X12412619Y-13273571D01*
X12422143Y-13311667D01*
X12422143Y-13359286D01*
X12412619Y-13397381D01*
X12403095Y-13416428D01*
X12393571Y-13425952D01*
X12374524Y-13435476D01*
X12355476Y-13435476D01*
X12336428Y-13425952D01*
X12326905Y-13416428D01*
X12317381Y-13397381D01*
X12307857Y-13359286D01*
X12307857Y-13311667D01*
X12317381Y-13273571D01*
X12326905Y-13254524D01*
X12336428Y-13245000D01*
X12355476Y-13235476D01*
X12507857Y-13416428D02*
X12517381Y-13425952D01*
X12507857Y-13435476D01*
X12498333Y-13425952D01*
X12507857Y-13416428D01*
X12507857Y-13435476D01*
X12641190Y-13235476D02*
X12660238Y-13235476D01*
X12679286Y-13245000D01*
X12688809Y-13254524D01*
X12698333Y-13273571D01*
X12707857Y-13311667D01*
X12707857Y-13359286D01*
X12698333Y-13397381D01*
X12688809Y-13416428D01*
X12679286Y-13425952D01*
X12660238Y-13435476D01*
X12641190Y-13435476D01*
X12622143Y-13425952D01*
X12612619Y-13416428D01*
X12603095Y-13397381D01*
X12593571Y-13359286D01*
X12593571Y-13311667D01*
X12603095Y-13273571D01*
X12612619Y-13254524D01*
X12622143Y-13245000D01*
X12641190Y-13235476D01*
X12898333Y-13435476D02*
X12784048Y-13435476D01*
X12841190Y-13435476D02*
X12841190Y-13235476D01*
X12822143Y-13264048D01*
X12803095Y-13283095D01*
X12784048Y-13292619D01*
X13088809Y-13435476D02*
X12974524Y-13435476D01*
X13031667Y-13435476D02*
X13031667Y-13235476D01*
X13012619Y-13264048D01*
X12993571Y-13283095D01*
X12974524Y-13292619D01*
X13203095Y-13321190D02*
X13184048Y-13311667D01*
X13174524Y-13302143D01*
X13165000Y-13283095D01*
X13165000Y-13273571D01*
X13174524Y-13254524D01*
X13184048Y-13245000D01*
X13203095Y-13235476D01*
X13241190Y-13235476D01*
X13260238Y-13245000D01*
X13269762Y-13254524D01*
X13279286Y-13273571D01*
X13279286Y-13283095D01*
X13269762Y-13302143D01*
X13260238Y-13311667D01*
X13241190Y-13321190D01*
X13203095Y-13321190D01*
X13184048Y-13330714D01*
X13174524Y-13340238D01*
X13165000Y-13359286D01*
X13165000Y-13397381D01*
X13174524Y-13416428D01*
X13184048Y-13425952D01*
X13203095Y-13435476D01*
X13241190Y-13435476D01*
X13260238Y-13425952D01*
X13269762Y-13416428D01*
X13279286Y-13397381D01*
X13279286Y-13359286D01*
X13269762Y-13340238D01*
X13260238Y-13330714D01*
X13241190Y-13321190D01*
X13355476Y-13235476D02*
X13355476Y-13273571D01*
X13431667Y-13235476D02*
X13431667Y-13273571D01*
X13726905Y-13511667D02*
X13717381Y-13502143D01*
X13698333Y-13473571D01*
X13688809Y-13454524D01*
X13679286Y-13425952D01*
X13669762Y-13378333D01*
X13669762Y-13340238D01*
X13679286Y-13292619D01*
X13688809Y-13264048D01*
X13698333Y-13245000D01*
X13717381Y-13216428D01*
X13726905Y-13206905D01*
X13907857Y-13435476D02*
X13793571Y-13435476D01*
X13850714Y-13435476D02*
X13850714Y-13235476D01*
X13831667Y-13264048D01*
X13812619Y-13283095D01*
X13793571Y-13292619D01*
X14098333Y-13435476D02*
X13984048Y-13435476D01*
X14041190Y-13435476D02*
X14041190Y-13235476D01*
X14022143Y-13264048D01*
X14003095Y-13283095D01*
X13984048Y-13292619D01*
X14165000Y-13235476D02*
X14288809Y-13235476D01*
X14222143Y-13311667D01*
X14250714Y-13311667D01*
X14269762Y-13321190D01*
X14279286Y-13330714D01*
X14288809Y-13349762D01*
X14288809Y-13397381D01*
X14279286Y-13416428D01*
X14269762Y-13425952D01*
X14250714Y-13435476D01*
X14193571Y-13435476D01*
X14174524Y-13425952D01*
X14165000Y-13416428D01*
X14526905Y-13435476D02*
X14526905Y-13235476D01*
X14612619Y-13435476D02*
X14612619Y-13330714D01*
X14603095Y-13311667D01*
X14584048Y-13302143D01*
X14555476Y-13302143D01*
X14536428Y-13311667D01*
X14526905Y-13321190D01*
X14736428Y-13435476D02*
X14717381Y-13425952D01*
X14707857Y-13416428D01*
X14698333Y-13397381D01*
X14698333Y-13340238D01*
X14707857Y-13321190D01*
X14717381Y-13311667D01*
X14736428Y-13302143D01*
X14765000Y-13302143D01*
X14784048Y-13311667D01*
X14793571Y-13321190D01*
X14803095Y-13340238D01*
X14803095Y-13397381D01*
X14793571Y-13416428D01*
X14784048Y-13425952D01*
X14765000Y-13435476D01*
X14736428Y-13435476D01*
X14917381Y-13435476D02*
X14898333Y-13425952D01*
X14888809Y-13406905D01*
X14888809Y-13235476D01*
X15069762Y-13425952D02*
X15050714Y-13435476D01*
X15012619Y-13435476D01*
X14993571Y-13425952D01*
X14984048Y-13406905D01*
X14984048Y-13330714D01*
X14993571Y-13311667D01*
X15012619Y-13302143D01*
X15050714Y-13302143D01*
X15069762Y-13311667D01*
X15079286Y-13330714D01*
X15079286Y-13349762D01*
X14984048Y-13368809D01*
X15155476Y-13425952D02*
X15174524Y-13435476D01*
X15212619Y-13435476D01*
X15231667Y-13425952D01*
X15241190Y-13406905D01*
X15241190Y-13397381D01*
X15231667Y-13378333D01*
X15212619Y-13368809D01*
X15184048Y-13368809D01*
X15165000Y-13359286D01*
X15155476Y-13340238D01*
X15155476Y-13330714D01*
X15165000Y-13311667D01*
X15184048Y-13302143D01*
X15212619Y-13302143D01*
X15231667Y-13311667D01*
X15307857Y-13511667D02*
X15317381Y-13502143D01*
X15336428Y-13473571D01*
X15345952Y-13454524D01*
X15355476Y-13425952D01*
X15365000Y-13378333D01*
X15365000Y-13340238D01*
X15355476Y-13292619D01*
X15345952Y-13264048D01*
X15336428Y-13245000D01*
X15317381Y-13216428D01*
X15307857Y-13206905D01*
D13*
X10155000Y-13609000D02*
G75*
G03*
X10155000Y-13609000I-25000J0D01*
G01*
D11*
X10450714Y-13499476D02*
X10469762Y-13499476D01*
X10488810Y-13509000D01*
X10498333Y-13518524D01*
X10507857Y-13537571D01*
X10517381Y-13575667D01*
X10517381Y-13623286D01*
X10507857Y-13661381D01*
X10498333Y-13680428D01*
X10488810Y-13689952D01*
X10469762Y-13699476D01*
X10450714Y-13699476D01*
X10431667Y-13689952D01*
X10422143Y-13680428D01*
X10412619Y-13661381D01*
X10403095Y-13623286D01*
X10403095Y-13575667D01*
X10412619Y-13537571D01*
X10422143Y-13518524D01*
X10431667Y-13509000D01*
X10450714Y-13499476D01*
X10603095Y-13680428D02*
X10612619Y-13689952D01*
X10603095Y-13699476D01*
X10593571Y-13689952D01*
X10603095Y-13680428D01*
X10603095Y-13699476D01*
X10793571Y-13499476D02*
X10698333Y-13499476D01*
X10688810Y-13594714D01*
X10698333Y-13585190D01*
X10717381Y-13575667D01*
X10765000Y-13575667D01*
X10784048Y-13585190D01*
X10793571Y-13594714D01*
X10803095Y-13613762D01*
X10803095Y-13661381D01*
X10793571Y-13680428D01*
X10784048Y-13689952D01*
X10765000Y-13699476D01*
X10717381Y-13699476D01*
X10698333Y-13689952D01*
X10688810Y-13680428D01*
X10926905Y-13499476D02*
X10945952Y-13499476D01*
X10965000Y-13509000D01*
X10974524Y-13518524D01*
X10984048Y-13537571D01*
X10993571Y-13575667D01*
X10993571Y-13623286D01*
X10984048Y-13661381D01*
X10974524Y-13680428D01*
X10965000Y-13689952D01*
X10945952Y-13699476D01*
X10926905Y-13699476D01*
X10907857Y-13689952D01*
X10898333Y-13680428D01*
X10888810Y-13661381D01*
X10879286Y-13623286D01*
X10879286Y-13575667D01*
X10888810Y-13537571D01*
X10898333Y-13518524D01*
X10907857Y-13509000D01*
X10926905Y-13499476D01*
X11117381Y-13499476D02*
X11136429Y-13499476D01*
X11155476Y-13509000D01*
X11165000Y-13518524D01*
X11174524Y-13537571D01*
X11184048Y-13575667D01*
X11184048Y-13623286D01*
X11174524Y-13661381D01*
X11165000Y-13680428D01*
X11155476Y-13689952D01*
X11136429Y-13699476D01*
X11117381Y-13699476D01*
X11098333Y-13689952D01*
X11088810Y-13680428D01*
X11079286Y-13661381D01*
X11069762Y-13623286D01*
X11069762Y-13575667D01*
X11079286Y-13537571D01*
X11088810Y-13518524D01*
X11098333Y-13509000D01*
X11117381Y-13499476D01*
X11269762Y-13699476D02*
X11269762Y-13566143D01*
X11269762Y-13585190D02*
X11279286Y-13575667D01*
X11298333Y-13566143D01*
X11326905Y-13566143D01*
X11345952Y-13575667D01*
X11355476Y-13594714D01*
X11355476Y-13699476D01*
X11355476Y-13594714D02*
X11365000Y-13575667D01*
X11384048Y-13566143D01*
X11412619Y-13566143D01*
X11431667Y-13575667D01*
X11441190Y-13594714D01*
X11441190Y-13699476D01*
X11536428Y-13699476D02*
X11536428Y-13566143D01*
X11536428Y-13585190D02*
X11545952Y-13575667D01*
X11565000Y-13566143D01*
X11593571Y-13566143D01*
X11612619Y-13575667D01*
X11622143Y-13594714D01*
X11622143Y-13699476D01*
X11622143Y-13594714D02*
X11631667Y-13575667D01*
X11650714Y-13566143D01*
X11679286Y-13566143D01*
X11698333Y-13575667D01*
X11707857Y-13594714D01*
X11707857Y-13699476D01*
X12098333Y-13489952D02*
X11926905Y-13747095D01*
X12355476Y-13499476D02*
X12374524Y-13499476D01*
X12393571Y-13509000D01*
X12403095Y-13518524D01*
X12412619Y-13537571D01*
X12422143Y-13575667D01*
X12422143Y-13623286D01*
X12412619Y-13661381D01*
X12403095Y-13680428D01*
X12393571Y-13689952D01*
X12374524Y-13699476D01*
X12355476Y-13699476D01*
X12336428Y-13689952D01*
X12326905Y-13680428D01*
X12317381Y-13661381D01*
X12307857Y-13623286D01*
X12307857Y-13575667D01*
X12317381Y-13537571D01*
X12326905Y-13518524D01*
X12336428Y-13509000D01*
X12355476Y-13499476D01*
X12507857Y-13680428D02*
X12517381Y-13689952D01*
X12507857Y-13699476D01*
X12498333Y-13689952D01*
X12507857Y-13680428D01*
X12507857Y-13699476D01*
X12641190Y-13499476D02*
X12660238Y-13499476D01*
X12679286Y-13509000D01*
X12688809Y-13518524D01*
X12698333Y-13537571D01*
X12707857Y-13575667D01*
X12707857Y-13623286D01*
X12698333Y-13661381D01*
X12688809Y-13680428D01*
X12679286Y-13689952D01*
X12660238Y-13699476D01*
X12641190Y-13699476D01*
X12622143Y-13689952D01*
X12612619Y-13680428D01*
X12603095Y-13661381D01*
X12593571Y-13623286D01*
X12593571Y-13575667D01*
X12603095Y-13537571D01*
X12612619Y-13518524D01*
X12622143Y-13509000D01*
X12641190Y-13499476D01*
X12898333Y-13699476D02*
X12784048Y-13699476D01*
X12841190Y-13699476D02*
X12841190Y-13499476D01*
X12822143Y-13528048D01*
X12803095Y-13547095D01*
X12784048Y-13556619D01*
X12993571Y-13699476D02*
X13031667Y-13699476D01*
X13050714Y-13689952D01*
X13060238Y-13680428D01*
X13079286Y-13651857D01*
X13088809Y-13613762D01*
X13088809Y-13537571D01*
X13079286Y-13518524D01*
X13069762Y-13509000D01*
X13050714Y-13499476D01*
X13012619Y-13499476D01*
X12993571Y-13509000D01*
X12984048Y-13518524D01*
X12974524Y-13537571D01*
X12974524Y-13585190D01*
X12984048Y-13604238D01*
X12993571Y-13613762D01*
X13012619Y-13623286D01*
X13050714Y-13623286D01*
X13069762Y-13613762D01*
X13079286Y-13604238D01*
X13088809Y-13585190D01*
X13155476Y-13499476D02*
X13288809Y-13499476D01*
X13203095Y-13699476D01*
X13355476Y-13499476D02*
X13355476Y-13537571D01*
X13431667Y-13499476D02*
X13431667Y-13537571D01*
X13726905Y-13775667D02*
X13717381Y-13766143D01*
X13698333Y-13737571D01*
X13688809Y-13718524D01*
X13679286Y-13689952D01*
X13669762Y-13642333D01*
X13669762Y-13604238D01*
X13679286Y-13556619D01*
X13688809Y-13528048D01*
X13698333Y-13509000D01*
X13717381Y-13480428D01*
X13726905Y-13470905D01*
X13841190Y-13499476D02*
X13860238Y-13499476D01*
X13879286Y-13509000D01*
X13888809Y-13518524D01*
X13898333Y-13537571D01*
X13907857Y-13575667D01*
X13907857Y-13623286D01*
X13898333Y-13661381D01*
X13888809Y-13680428D01*
X13879286Y-13689952D01*
X13860238Y-13699476D01*
X13841190Y-13699476D01*
X13822143Y-13689952D01*
X13812619Y-13680428D01*
X13803095Y-13661381D01*
X13793571Y-13623286D01*
X13793571Y-13575667D01*
X13803095Y-13537571D01*
X13812619Y-13518524D01*
X13822143Y-13509000D01*
X13841190Y-13499476D01*
X14145952Y-13699476D02*
X14145952Y-13499476D01*
X14231667Y-13699476D02*
X14231667Y-13594714D01*
X14222143Y-13575667D01*
X14203095Y-13566143D01*
X14174524Y-13566143D01*
X14155476Y-13575667D01*
X14145952Y-13585190D01*
X14355476Y-13699476D02*
X14336428Y-13689952D01*
X14326905Y-13680428D01*
X14317381Y-13661381D01*
X14317381Y-13604238D01*
X14326905Y-13585190D01*
X14336428Y-13575667D01*
X14355476Y-13566143D01*
X14384048Y-13566143D01*
X14403095Y-13575667D01*
X14412619Y-13585190D01*
X14422143Y-13604238D01*
X14422143Y-13661381D01*
X14412619Y-13680428D01*
X14403095Y-13689952D01*
X14384048Y-13699476D01*
X14355476Y-13699476D01*
X14536428Y-13699476D02*
X14517381Y-13689952D01*
X14507857Y-13670905D01*
X14507857Y-13499476D01*
X14688809Y-13689952D02*
X14669762Y-13699476D01*
X14631667Y-13699476D01*
X14612619Y-13689952D01*
X14603095Y-13670905D01*
X14603095Y-13594714D01*
X14612619Y-13575667D01*
X14631667Y-13566143D01*
X14669762Y-13566143D01*
X14688809Y-13575667D01*
X14698333Y-13594714D01*
X14698333Y-13613762D01*
X14603095Y-13632809D01*
X14774524Y-13689952D02*
X14793571Y-13699476D01*
X14831667Y-13699476D01*
X14850714Y-13689952D01*
X14860238Y-13670905D01*
X14860238Y-13661381D01*
X14850714Y-13642333D01*
X14831667Y-13632809D01*
X14803095Y-13632809D01*
X14784048Y-13623286D01*
X14774524Y-13604238D01*
X14774524Y-13594714D01*
X14784048Y-13575667D01*
X14803095Y-13566143D01*
X14831667Y-13566143D01*
X14850714Y-13575667D01*
X15098333Y-13623286D02*
X15250714Y-13623286D01*
X15174524Y-13699476D02*
X15174524Y-13547095D01*
X15488809Y-13518524D02*
X15498333Y-13509000D01*
X15517381Y-13499476D01*
X15565000Y-13499476D01*
X15584048Y-13509000D01*
X15593571Y-13518524D01*
X15603095Y-13537571D01*
X15603095Y-13556619D01*
X15593571Y-13585190D01*
X15479286Y-13699476D01*
X15603095Y-13699476D01*
X15831667Y-13689952D02*
X15850714Y-13699476D01*
X15888809Y-13699476D01*
X15907857Y-13689952D01*
X15917381Y-13670905D01*
X15917381Y-13661381D01*
X15907857Y-13642333D01*
X15888809Y-13632809D01*
X15860238Y-13632809D01*
X15841190Y-13623286D01*
X15831667Y-13604238D01*
X15831667Y-13594714D01*
X15841190Y-13575667D01*
X15860238Y-13566143D01*
X15888809Y-13566143D01*
X15907857Y-13575667D01*
X16031667Y-13699476D02*
X16012619Y-13689952D01*
X16003095Y-13670905D01*
X16003095Y-13499476D01*
X16136428Y-13699476D02*
X16117381Y-13689952D01*
X16107857Y-13680428D01*
X16098333Y-13661381D01*
X16098333Y-13604238D01*
X16107857Y-13585190D01*
X16117381Y-13575667D01*
X16136428Y-13566143D01*
X16165000Y-13566143D01*
X16184048Y-13575667D01*
X16193571Y-13585190D01*
X16203095Y-13604238D01*
X16203095Y-13661381D01*
X16193571Y-13680428D01*
X16184048Y-13689952D01*
X16165000Y-13699476D01*
X16136428Y-13699476D01*
X16260238Y-13566143D02*
X16336428Y-13566143D01*
X16288809Y-13499476D02*
X16288809Y-13670905D01*
X16298333Y-13689952D01*
X16317381Y-13699476D01*
X16336428Y-13699476D01*
X16393571Y-13689952D02*
X16412619Y-13699476D01*
X16450714Y-13699476D01*
X16469762Y-13689952D01*
X16479286Y-13670905D01*
X16479286Y-13661381D01*
X16469762Y-13642333D01*
X16450714Y-13632809D01*
X16422143Y-13632809D01*
X16403095Y-13623286D01*
X16393571Y-13604238D01*
X16393571Y-13594714D01*
X16403095Y-13575667D01*
X16422143Y-13566143D01*
X16450714Y-13566143D01*
X16469762Y-13575667D01*
X16545952Y-13775667D02*
X16555476Y-13766143D01*
X16574524Y-13737571D01*
X16584048Y-13718524D01*
X16593571Y-13689952D01*
X16603095Y-13642333D01*
X16603095Y-13604238D01*
X16593571Y-13556619D01*
X16584048Y-13528048D01*
X16574524Y-13509000D01*
X16555476Y-13480428D01*
X16545952Y-13470905D01*
D14*
X10115000Y-13833000D02*
X10115000Y-13913000D01*
X10075000Y-13873000D02*
X10155000Y-13873000D01*
D11*
X10450714Y-13763476D02*
X10469762Y-13763476D01*
X10488810Y-13773000D01*
X10498333Y-13782524D01*
X10507857Y-13801571D01*
X10517381Y-13839667D01*
X10517381Y-13887286D01*
X10507857Y-13925381D01*
X10498333Y-13944428D01*
X10488810Y-13953952D01*
X10469762Y-13963476D01*
X10450714Y-13963476D01*
X10431667Y-13953952D01*
X10422143Y-13944428D01*
X10412619Y-13925381D01*
X10403095Y-13887286D01*
X10403095Y-13839667D01*
X10412619Y-13801571D01*
X10422143Y-13782524D01*
X10431667Y-13773000D01*
X10450714Y-13763476D01*
X10603095Y-13944428D02*
X10612619Y-13953952D01*
X10603095Y-13963476D01*
X10593571Y-13953952D01*
X10603095Y-13944428D01*
X10603095Y-13963476D01*
X10726905Y-13849190D02*
X10707857Y-13839667D01*
X10698333Y-13830143D01*
X10688810Y-13811095D01*
X10688810Y-13801571D01*
X10698333Y-13782524D01*
X10707857Y-13773000D01*
X10726905Y-13763476D01*
X10765000Y-13763476D01*
X10784048Y-13773000D01*
X10793571Y-13782524D01*
X10803095Y-13801571D01*
X10803095Y-13811095D01*
X10793571Y-13830143D01*
X10784048Y-13839667D01*
X10765000Y-13849190D01*
X10726905Y-13849190D01*
X10707857Y-13858714D01*
X10698333Y-13868238D01*
X10688810Y-13887286D01*
X10688810Y-13925381D01*
X10698333Y-13944428D01*
X10707857Y-13953952D01*
X10726905Y-13963476D01*
X10765000Y-13963476D01*
X10784048Y-13953952D01*
X10793571Y-13944428D01*
X10803095Y-13925381D01*
X10803095Y-13887286D01*
X10793571Y-13868238D01*
X10784048Y-13858714D01*
X10765000Y-13849190D01*
X10926905Y-13763476D02*
X10945952Y-13763476D01*
X10965000Y-13773000D01*
X10974524Y-13782524D01*
X10984048Y-13801571D01*
X10993571Y-13839667D01*
X10993571Y-13887286D01*
X10984048Y-13925381D01*
X10974524Y-13944428D01*
X10965000Y-13953952D01*
X10945952Y-13963476D01*
X10926905Y-13963476D01*
X10907857Y-13953952D01*
X10898333Y-13944428D01*
X10888810Y-13925381D01*
X10879286Y-13887286D01*
X10879286Y-13839667D01*
X10888810Y-13801571D01*
X10898333Y-13782524D01*
X10907857Y-13773000D01*
X10926905Y-13763476D01*
X11117381Y-13763476D02*
X11136429Y-13763476D01*
X11155476Y-13773000D01*
X11165000Y-13782524D01*
X11174524Y-13801571D01*
X11184048Y-13839667D01*
X11184048Y-13887286D01*
X11174524Y-13925381D01*
X11165000Y-13944428D01*
X11155476Y-13953952D01*
X11136429Y-13963476D01*
X11117381Y-13963476D01*
X11098333Y-13953952D01*
X11088810Y-13944428D01*
X11079286Y-13925381D01*
X11069762Y-13887286D01*
X11069762Y-13839667D01*
X11079286Y-13801571D01*
X11088810Y-13782524D01*
X11098333Y-13773000D01*
X11117381Y-13763476D01*
X11269762Y-13963476D02*
X11269762Y-13830143D01*
X11269762Y-13849190D02*
X11279286Y-13839667D01*
X11298333Y-13830143D01*
X11326905Y-13830143D01*
X11345952Y-13839667D01*
X11355476Y-13858714D01*
X11355476Y-13963476D01*
X11355476Y-13858714D02*
X11365000Y-13839667D01*
X11384048Y-13830143D01*
X11412619Y-13830143D01*
X11431667Y-13839667D01*
X11441190Y-13858714D01*
X11441190Y-13963476D01*
X11536428Y-13963476D02*
X11536428Y-13830143D01*
X11536428Y-13849190D02*
X11545952Y-13839667D01*
X11565000Y-13830143D01*
X11593571Y-13830143D01*
X11612619Y-13839667D01*
X11622143Y-13858714D01*
X11622143Y-13963476D01*
X11622143Y-13858714D02*
X11631667Y-13839667D01*
X11650714Y-13830143D01*
X11679286Y-13830143D01*
X11698333Y-13839667D01*
X11707857Y-13858714D01*
X11707857Y-13963476D01*
X12098333Y-13753952D02*
X11926905Y-14011095D01*
X12355476Y-13763476D02*
X12374524Y-13763476D01*
X12393571Y-13773000D01*
X12403095Y-13782524D01*
X12412619Y-13801571D01*
X12422143Y-13839667D01*
X12422143Y-13887286D01*
X12412619Y-13925381D01*
X12403095Y-13944428D01*
X12393571Y-13953952D01*
X12374524Y-13963476D01*
X12355476Y-13963476D01*
X12336428Y-13953952D01*
X12326905Y-13944428D01*
X12317381Y-13925381D01*
X12307857Y-13887286D01*
X12307857Y-13839667D01*
X12317381Y-13801571D01*
X12326905Y-13782524D01*
X12336428Y-13773000D01*
X12355476Y-13763476D01*
X12507857Y-13944428D02*
X12517381Y-13953952D01*
X12507857Y-13963476D01*
X12498333Y-13953952D01*
X12507857Y-13944428D01*
X12507857Y-13963476D01*
X12641190Y-13763476D02*
X12660238Y-13763476D01*
X12679286Y-13773000D01*
X12688809Y-13782524D01*
X12698333Y-13801571D01*
X12707857Y-13839667D01*
X12707857Y-13887286D01*
X12698333Y-13925381D01*
X12688809Y-13944428D01*
X12679286Y-13953952D01*
X12660238Y-13963476D01*
X12641190Y-13963476D01*
X12622143Y-13953952D01*
X12612619Y-13944428D01*
X12603095Y-13925381D01*
X12593571Y-13887286D01*
X12593571Y-13839667D01*
X12603095Y-13801571D01*
X12612619Y-13782524D01*
X12622143Y-13773000D01*
X12641190Y-13763476D01*
X12774524Y-13763476D02*
X12898333Y-13763476D01*
X12831667Y-13839667D01*
X12860238Y-13839667D01*
X12879286Y-13849190D01*
X12888809Y-13858714D01*
X12898333Y-13877762D01*
X12898333Y-13925381D01*
X12888809Y-13944428D01*
X12879286Y-13953952D01*
X12860238Y-13963476D01*
X12803095Y-13963476D01*
X12784048Y-13953952D01*
X12774524Y-13944428D01*
X13088809Y-13963476D02*
X12974524Y-13963476D01*
X13031667Y-13963476D02*
X13031667Y-13763476D01*
X13012619Y-13792048D01*
X12993571Y-13811095D01*
X12974524Y-13820619D01*
X13269762Y-13763476D02*
X13174524Y-13763476D01*
X13165000Y-13858714D01*
X13174524Y-13849190D01*
X13193571Y-13839667D01*
X13241190Y-13839667D01*
X13260238Y-13849190D01*
X13269762Y-13858714D01*
X13279286Y-13877762D01*
X13279286Y-13925381D01*
X13269762Y-13944428D01*
X13260238Y-13953952D01*
X13241190Y-13963476D01*
X13193571Y-13963476D01*
X13174524Y-13953952D01*
X13165000Y-13944428D01*
X13355476Y-13763476D02*
X13355476Y-13801571D01*
X13431667Y-13763476D02*
X13431667Y-13801571D01*
X13726905Y-14039667D02*
X13717381Y-14030143D01*
X13698333Y-14001571D01*
X13688809Y-13982524D01*
X13679286Y-13953952D01*
X13669762Y-13906333D01*
X13669762Y-13868238D01*
X13679286Y-13820619D01*
X13688809Y-13792048D01*
X13698333Y-13773000D01*
X13717381Y-13744428D01*
X13726905Y-13734905D01*
X13793571Y-13782524D02*
X13803095Y-13773000D01*
X13822143Y-13763476D01*
X13869762Y-13763476D01*
X13888809Y-13773000D01*
X13898333Y-13782524D01*
X13907857Y-13801571D01*
X13907857Y-13820619D01*
X13898333Y-13849190D01*
X13784048Y-13963476D01*
X13907857Y-13963476D01*
X14145952Y-13963476D02*
X14145952Y-13763476D01*
X14231667Y-13963476D02*
X14231667Y-13858714D01*
X14222143Y-13839667D01*
X14203095Y-13830143D01*
X14174524Y-13830143D01*
X14155476Y-13839667D01*
X14145952Y-13849190D01*
X14355476Y-13963476D02*
X14336428Y-13953952D01*
X14326905Y-13944428D01*
X14317381Y-13925381D01*
X14317381Y-13868238D01*
X14326905Y-13849190D01*
X14336428Y-13839667D01*
X14355476Y-13830143D01*
X14384048Y-13830143D01*
X14403095Y-13839667D01*
X14412619Y-13849190D01*
X14422143Y-13868238D01*
X14422143Y-13925381D01*
X14412619Y-13944428D01*
X14403095Y-13953952D01*
X14384048Y-13963476D01*
X14355476Y-13963476D01*
X14536428Y-13963476D02*
X14517381Y-13953952D01*
X14507857Y-13934905D01*
X14507857Y-13763476D01*
X14688809Y-13953952D02*
X14669762Y-13963476D01*
X14631667Y-13963476D01*
X14612619Y-13953952D01*
X14603095Y-13934905D01*
X14603095Y-13858714D01*
X14612619Y-13839667D01*
X14631667Y-13830143D01*
X14669762Y-13830143D01*
X14688809Y-13839667D01*
X14698333Y-13858714D01*
X14698333Y-13877762D01*
X14603095Y-13896809D01*
X14774524Y-13953952D02*
X14793571Y-13963476D01*
X14831667Y-13963476D01*
X14850714Y-13953952D01*
X14860238Y-13934905D01*
X14860238Y-13925381D01*
X14850714Y-13906333D01*
X14831667Y-13896809D01*
X14803095Y-13896809D01*
X14784048Y-13887286D01*
X14774524Y-13868238D01*
X14774524Y-13858714D01*
X14784048Y-13839667D01*
X14803095Y-13830143D01*
X14831667Y-13830143D01*
X14850714Y-13839667D01*
X14926905Y-14039667D02*
X14936428Y-14030143D01*
X14955476Y-14001571D01*
X14965000Y-13982524D01*
X14974524Y-13953952D01*
X14984048Y-13906333D01*
X14984048Y-13868238D01*
X14974524Y-13820619D01*
X14965000Y-13792048D01*
X14955476Y-13773000D01*
X14936428Y-13744428D01*
X14926905Y-13734905D01*
D15*
X10140356Y-14172356D02*
X10140356Y-14101644D01*
X10069644Y-14101644D01*
X10069644Y-14172356D01*
X10140356Y-14172356D01*
D11*
X10517381Y-14227476D02*
X10403095Y-14227476D01*
X10460238Y-14227476D02*
X10460238Y-14027476D01*
X10441190Y-14056048D01*
X10422143Y-14075095D01*
X10403095Y-14084619D01*
X10603095Y-14208428D02*
X10612619Y-14217952D01*
X10603095Y-14227476D01*
X10593571Y-14217952D01*
X10603095Y-14208428D01*
X10603095Y-14227476D01*
X10736429Y-14027476D02*
X10755476Y-14027476D01*
X10774524Y-14037000D01*
X10784048Y-14046524D01*
X10793571Y-14065571D01*
X10803095Y-14103667D01*
X10803095Y-14151286D01*
X10793571Y-14189381D01*
X10784048Y-14208428D01*
X10774524Y-14217952D01*
X10755476Y-14227476D01*
X10736429Y-14227476D01*
X10717381Y-14217952D01*
X10707857Y-14208428D01*
X10698333Y-14189381D01*
X10688810Y-14151286D01*
X10688810Y-14103667D01*
X10698333Y-14065571D01*
X10707857Y-14046524D01*
X10717381Y-14037000D01*
X10736429Y-14027476D01*
X10926905Y-14027476D02*
X10945952Y-14027476D01*
X10965000Y-14037000D01*
X10974524Y-14046524D01*
X10984048Y-14065571D01*
X10993571Y-14103667D01*
X10993571Y-14151286D01*
X10984048Y-14189381D01*
X10974524Y-14208428D01*
X10965000Y-14217952D01*
X10945952Y-14227476D01*
X10926905Y-14227476D01*
X10907857Y-14217952D01*
X10898333Y-14208428D01*
X10888810Y-14189381D01*
X10879286Y-14151286D01*
X10879286Y-14103667D01*
X10888810Y-14065571D01*
X10898333Y-14046524D01*
X10907857Y-14037000D01*
X10926905Y-14027476D01*
X11117381Y-14027476D02*
X11136429Y-14027476D01*
X11155476Y-14037000D01*
X11165000Y-14046524D01*
X11174524Y-14065571D01*
X11184048Y-14103667D01*
X11184048Y-14151286D01*
X11174524Y-14189381D01*
X11165000Y-14208428D01*
X11155476Y-14217952D01*
X11136429Y-14227476D01*
X11117381Y-14227476D01*
X11098333Y-14217952D01*
X11088810Y-14208428D01*
X11079286Y-14189381D01*
X11069762Y-14151286D01*
X11069762Y-14103667D01*
X11079286Y-14065571D01*
X11088810Y-14046524D01*
X11098333Y-14037000D01*
X11117381Y-14027476D01*
X11269762Y-14227476D02*
X11269762Y-14094143D01*
X11269762Y-14113190D02*
X11279286Y-14103667D01*
X11298333Y-14094143D01*
X11326905Y-14094143D01*
X11345952Y-14103667D01*
X11355476Y-14122714D01*
X11355476Y-14227476D01*
X11355476Y-14122714D02*
X11365000Y-14103667D01*
X11384048Y-14094143D01*
X11412619Y-14094143D01*
X11431667Y-14103667D01*
X11441190Y-14122714D01*
X11441190Y-14227476D01*
X11536428Y-14227476D02*
X11536428Y-14094143D01*
X11536428Y-14113190D02*
X11545952Y-14103667D01*
X11565000Y-14094143D01*
X11593571Y-14094143D01*
X11612619Y-14103667D01*
X11622143Y-14122714D01*
X11622143Y-14227476D01*
X11622143Y-14122714D02*
X11631667Y-14103667D01*
X11650714Y-14094143D01*
X11679286Y-14094143D01*
X11698333Y-14103667D01*
X11707857Y-14122714D01*
X11707857Y-14227476D01*
X12098333Y-14017952D02*
X11926905Y-14275095D01*
X12355476Y-14027476D02*
X12374524Y-14027476D01*
X12393571Y-14037000D01*
X12403095Y-14046524D01*
X12412619Y-14065571D01*
X12422143Y-14103667D01*
X12422143Y-14151286D01*
X12412619Y-14189381D01*
X12403095Y-14208428D01*
X12393571Y-14217952D01*
X12374524Y-14227476D01*
X12355476Y-14227476D01*
X12336428Y-14217952D01*
X12326905Y-14208428D01*
X12317381Y-14189381D01*
X12307857Y-14151286D01*
X12307857Y-14103667D01*
X12317381Y-14065571D01*
X12326905Y-14046524D01*
X12336428Y-14037000D01*
X12355476Y-14027476D01*
X12507857Y-14208428D02*
X12517381Y-14217952D01*
X12507857Y-14227476D01*
X12498333Y-14217952D01*
X12507857Y-14208428D01*
X12507857Y-14227476D01*
X12641190Y-14027476D02*
X12660238Y-14027476D01*
X12679286Y-14037000D01*
X12688809Y-14046524D01*
X12698333Y-14065571D01*
X12707857Y-14103667D01*
X12707857Y-14151286D01*
X12698333Y-14189381D01*
X12688809Y-14208428D01*
X12679286Y-14217952D01*
X12660238Y-14227476D01*
X12641190Y-14227476D01*
X12622143Y-14217952D01*
X12612619Y-14208428D01*
X12603095Y-14189381D01*
X12593571Y-14151286D01*
X12593571Y-14103667D01*
X12603095Y-14065571D01*
X12612619Y-14046524D01*
X12622143Y-14037000D01*
X12641190Y-14027476D01*
X12774524Y-14027476D02*
X12898333Y-14027476D01*
X12831667Y-14103667D01*
X12860238Y-14103667D01*
X12879286Y-14113190D01*
X12888809Y-14122714D01*
X12898333Y-14141762D01*
X12898333Y-14189381D01*
X12888809Y-14208428D01*
X12879286Y-14217952D01*
X12860238Y-14227476D01*
X12803095Y-14227476D01*
X12784048Y-14217952D01*
X12774524Y-14208428D01*
X12993571Y-14227476D02*
X13031667Y-14227476D01*
X13050714Y-14217952D01*
X13060238Y-14208428D01*
X13079286Y-14179857D01*
X13088809Y-14141762D01*
X13088809Y-14065571D01*
X13079286Y-14046524D01*
X13069762Y-14037000D01*
X13050714Y-14027476D01*
X13012619Y-14027476D01*
X12993571Y-14037000D01*
X12984048Y-14046524D01*
X12974524Y-14065571D01*
X12974524Y-14113190D01*
X12984048Y-14132238D01*
X12993571Y-14141762D01*
X13012619Y-14151286D01*
X13050714Y-14151286D01*
X13069762Y-14141762D01*
X13079286Y-14132238D01*
X13088809Y-14113190D01*
X13260238Y-14094143D02*
X13260238Y-14227476D01*
X13212619Y-14017952D02*
X13165000Y-14160809D01*
X13288809Y-14160809D01*
X13355476Y-14027476D02*
X13355476Y-14065571D01*
X13431667Y-14027476D02*
X13431667Y-14065571D01*
X13726905Y-14303667D02*
X13717381Y-14294143D01*
X13698333Y-14265571D01*
X13688809Y-14246524D01*
X13679286Y-14217952D01*
X13669762Y-14170333D01*
X13669762Y-14132238D01*
X13679286Y-14084619D01*
X13688809Y-14056048D01*
X13698333Y-14037000D01*
X13717381Y-14008428D01*
X13726905Y-13998905D01*
X13907857Y-14227476D02*
X13793571Y-14227476D01*
X13850714Y-14227476D02*
X13850714Y-14027476D01*
X13831667Y-14056048D01*
X13812619Y-14075095D01*
X13793571Y-14084619D01*
X14088809Y-14027476D02*
X13993571Y-14027476D01*
X13984048Y-14122714D01*
X13993571Y-14113190D01*
X14012619Y-14103667D01*
X14060238Y-14103667D01*
X14079286Y-14113190D01*
X14088809Y-14122714D01*
X14098333Y-14141762D01*
X14098333Y-14189381D01*
X14088809Y-14208428D01*
X14079286Y-14217952D01*
X14060238Y-14227476D01*
X14012619Y-14227476D01*
X13993571Y-14217952D01*
X13984048Y-14208428D01*
X14336428Y-14227476D02*
X14336428Y-14027476D01*
X14422143Y-14227476D02*
X14422143Y-14122714D01*
X14412619Y-14103667D01*
X14393571Y-14094143D01*
X14365000Y-14094143D01*
X14345952Y-14103667D01*
X14336428Y-14113190D01*
X14545952Y-14227476D02*
X14526905Y-14217952D01*
X14517381Y-14208428D01*
X14507857Y-14189381D01*
X14507857Y-14132238D01*
X14517381Y-14113190D01*
X14526905Y-14103667D01*
X14545952Y-14094143D01*
X14574524Y-14094143D01*
X14593571Y-14103667D01*
X14603095Y-14113190D01*
X14612619Y-14132238D01*
X14612619Y-14189381D01*
X14603095Y-14208428D01*
X14593571Y-14217952D01*
X14574524Y-14227476D01*
X14545952Y-14227476D01*
X14726905Y-14227476D02*
X14707857Y-14217952D01*
X14698333Y-14198905D01*
X14698333Y-14027476D01*
X14879286Y-14217952D02*
X14860238Y-14227476D01*
X14822143Y-14227476D01*
X14803095Y-14217952D01*
X14793571Y-14198905D01*
X14793571Y-14122714D01*
X14803095Y-14103667D01*
X14822143Y-14094143D01*
X14860238Y-14094143D01*
X14879286Y-14103667D01*
X14888809Y-14122714D01*
X14888809Y-14141762D01*
X14793571Y-14160809D01*
X14965000Y-14217952D02*
X14984048Y-14227476D01*
X15022143Y-14227476D01*
X15041190Y-14217952D01*
X15050714Y-14198905D01*
X15050714Y-14189381D01*
X15041190Y-14170333D01*
X15022143Y-14160809D01*
X14993571Y-14160809D01*
X14974524Y-14151286D01*
X14965000Y-14132238D01*
X14965000Y-14122714D01*
X14974524Y-14103667D01*
X14993571Y-14094143D01*
X15022143Y-14094143D01*
X15041190Y-14103667D01*
X15117381Y-14303667D02*
X15126905Y-14294143D01*
X15145952Y-14265571D01*
X15155476Y-14246524D01*
X15165000Y-14217952D01*
X15174524Y-14170333D01*
X15174524Y-14132238D01*
X15165000Y-14084619D01*
X15155476Y-14056048D01*
X15145952Y-14037000D01*
X15126905Y-14008428D01*
X15117381Y-13998905D01*
D16*
X10104000Y-14452000D02*
X10155000Y-14401000D01*
X10104000Y-14350000D01*
X10053000Y-14401000D01*
X10104000Y-14452000D01*
D11*
X10517381Y-14491476D02*
X10403095Y-14491476D01*
X10460238Y-14491476D02*
X10460238Y-14291476D01*
X10441190Y-14320048D01*
X10422143Y-14339095D01*
X10403095Y-14348619D01*
X10603095Y-14472428D02*
X10612619Y-14481952D01*
X10603095Y-14491476D01*
X10593571Y-14481952D01*
X10603095Y-14472428D01*
X10603095Y-14491476D01*
X10736429Y-14291476D02*
X10755476Y-14291476D01*
X10774524Y-14301000D01*
X10784048Y-14310524D01*
X10793571Y-14329571D01*
X10803095Y-14367667D01*
X10803095Y-14415286D01*
X10793571Y-14453381D01*
X10784048Y-14472428D01*
X10774524Y-14481952D01*
X10755476Y-14491476D01*
X10736429Y-14491476D01*
X10717381Y-14481952D01*
X10707857Y-14472428D01*
X10698333Y-14453381D01*
X10688810Y-14415286D01*
X10688810Y-14367667D01*
X10698333Y-14329571D01*
X10707857Y-14310524D01*
X10717381Y-14301000D01*
X10736429Y-14291476D01*
X10879286Y-14310524D02*
X10888810Y-14301000D01*
X10907857Y-14291476D01*
X10955476Y-14291476D01*
X10974524Y-14301000D01*
X10984048Y-14310524D01*
X10993571Y-14329571D01*
X10993571Y-14348619D01*
X10984048Y-14377190D01*
X10869762Y-14491476D01*
X10993571Y-14491476D01*
X11117381Y-14291476D02*
X11136429Y-14291476D01*
X11155476Y-14301000D01*
X11165000Y-14310524D01*
X11174524Y-14329571D01*
X11184048Y-14367667D01*
X11184048Y-14415286D01*
X11174524Y-14453381D01*
X11165000Y-14472428D01*
X11155476Y-14481952D01*
X11136429Y-14491476D01*
X11117381Y-14491476D01*
X11098333Y-14481952D01*
X11088810Y-14472428D01*
X11079286Y-14453381D01*
X11069762Y-14415286D01*
X11069762Y-14367667D01*
X11079286Y-14329571D01*
X11088810Y-14310524D01*
X11098333Y-14301000D01*
X11117381Y-14291476D01*
X11269762Y-14491476D02*
X11269762Y-14358143D01*
X11269762Y-14377190D02*
X11279286Y-14367667D01*
X11298333Y-14358143D01*
X11326905Y-14358143D01*
X11345952Y-14367667D01*
X11355476Y-14386714D01*
X11355476Y-14491476D01*
X11355476Y-14386714D02*
X11365000Y-14367667D01*
X11384048Y-14358143D01*
X11412619Y-14358143D01*
X11431667Y-14367667D01*
X11441190Y-14386714D01*
X11441190Y-14491476D01*
X11536428Y-14491476D02*
X11536428Y-14358143D01*
X11536428Y-14377190D02*
X11545952Y-14367667D01*
X11565000Y-14358143D01*
X11593571Y-14358143D01*
X11612619Y-14367667D01*
X11622143Y-14386714D01*
X11622143Y-14491476D01*
X11622143Y-14386714D02*
X11631667Y-14367667D01*
X11650714Y-14358143D01*
X11679286Y-14358143D01*
X11698333Y-14367667D01*
X11707857Y-14386714D01*
X11707857Y-14491476D01*
X12098333Y-14281952D02*
X11926905Y-14539095D01*
X12355476Y-14291476D02*
X12374524Y-14291476D01*
X12393571Y-14301000D01*
X12403095Y-14310524D01*
X12412619Y-14329571D01*
X12422143Y-14367667D01*
X12422143Y-14415286D01*
X12412619Y-14453381D01*
X12403095Y-14472428D01*
X12393571Y-14481952D01*
X12374524Y-14491476D01*
X12355476Y-14491476D01*
X12336428Y-14481952D01*
X12326905Y-14472428D01*
X12317381Y-14453381D01*
X12307857Y-14415286D01*
X12307857Y-14367667D01*
X12317381Y-14329571D01*
X12326905Y-14310524D01*
X12336428Y-14301000D01*
X12355476Y-14291476D01*
X12507857Y-14472428D02*
X12517381Y-14481952D01*
X12507857Y-14491476D01*
X12498333Y-14481952D01*
X12507857Y-14472428D01*
X12507857Y-14491476D01*
X12641190Y-14291476D02*
X12660238Y-14291476D01*
X12679286Y-14301000D01*
X12688809Y-14310524D01*
X12698333Y-14329571D01*
X12707857Y-14367667D01*
X12707857Y-14415286D01*
X12698333Y-14453381D01*
X12688809Y-14472428D01*
X12679286Y-14481952D01*
X12660238Y-14491476D01*
X12641190Y-14491476D01*
X12622143Y-14481952D01*
X12612619Y-14472428D01*
X12603095Y-14453381D01*
X12593571Y-14415286D01*
X12593571Y-14367667D01*
X12603095Y-14329571D01*
X12612619Y-14310524D01*
X12622143Y-14301000D01*
X12641190Y-14291476D01*
X12879286Y-14358143D02*
X12879286Y-14491476D01*
X12831667Y-14281952D02*
X12784048Y-14424809D01*
X12907857Y-14424809D01*
X13022143Y-14291476D02*
X13041190Y-14291476D01*
X13060238Y-14301000D01*
X13069762Y-14310524D01*
X13079286Y-14329571D01*
X13088809Y-14367667D01*
X13088809Y-14415286D01*
X13079286Y-14453381D01*
X13069762Y-14472428D01*
X13060238Y-14481952D01*
X13041190Y-14491476D01*
X13022143Y-14491476D01*
X13003095Y-14481952D01*
X12993571Y-14472428D01*
X12984048Y-14453381D01*
X12974524Y-14415286D01*
X12974524Y-14367667D01*
X12984048Y-14329571D01*
X12993571Y-14310524D01*
X13003095Y-14301000D01*
X13022143Y-14291476D01*
X13165000Y-14310524D02*
X13174524Y-14301000D01*
X13193571Y-14291476D01*
X13241190Y-14291476D01*
X13260238Y-14301000D01*
X13269762Y-14310524D01*
X13279286Y-14329571D01*
X13279286Y-14348619D01*
X13269762Y-14377190D01*
X13155476Y-14491476D01*
X13279286Y-14491476D01*
X13355476Y-14291476D02*
X13355476Y-14329571D01*
X13431667Y-14291476D02*
X13431667Y-14329571D01*
X13726905Y-14567667D02*
X13717381Y-14558143D01*
X13698333Y-14529571D01*
X13688809Y-14510524D01*
X13679286Y-14481952D01*
X13669762Y-14434333D01*
X13669762Y-14396238D01*
X13679286Y-14348619D01*
X13688809Y-14320048D01*
X13698333Y-14301000D01*
X13717381Y-14272428D01*
X13726905Y-14262905D01*
X13793571Y-14310524D02*
X13803095Y-14301000D01*
X13822143Y-14291476D01*
X13869762Y-14291476D01*
X13888809Y-14301000D01*
X13898333Y-14310524D01*
X13907857Y-14329571D01*
X13907857Y-14348619D01*
X13898333Y-14377190D01*
X13784048Y-14491476D01*
X13907857Y-14491476D01*
X14145952Y-14491476D02*
X14145952Y-14291476D01*
X14231667Y-14491476D02*
X14231667Y-14386714D01*
X14222143Y-14367667D01*
X14203095Y-14358143D01*
X14174524Y-14358143D01*
X14155476Y-14367667D01*
X14145952Y-14377190D01*
X14355476Y-14491476D02*
X14336428Y-14481952D01*
X14326905Y-14472428D01*
X14317381Y-14453381D01*
X14317381Y-14396238D01*
X14326905Y-14377190D01*
X14336428Y-14367667D01*
X14355476Y-14358143D01*
X14384048Y-14358143D01*
X14403095Y-14367667D01*
X14412619Y-14377190D01*
X14422143Y-14396238D01*
X14422143Y-14453381D01*
X14412619Y-14472428D01*
X14403095Y-14481952D01*
X14384048Y-14491476D01*
X14355476Y-14491476D01*
X14536428Y-14491476D02*
X14517381Y-14481952D01*
X14507857Y-14462905D01*
X14507857Y-14291476D01*
X14688809Y-14481952D02*
X14669762Y-14491476D01*
X14631667Y-14491476D01*
X14612619Y-14481952D01*
X14603095Y-14462905D01*
X14603095Y-14386714D01*
X14612619Y-14367667D01*
X14631667Y-14358143D01*
X14669762Y-14358143D01*
X14688809Y-14367667D01*
X14698333Y-14386714D01*
X14698333Y-14405762D01*
X14603095Y-14424809D01*
X14774524Y-14481952D02*
X14793571Y-14491476D01*
X14831667Y-14491476D01*
X14850714Y-14481952D01*
X14860238Y-14462905D01*
X14860238Y-14453381D01*
X14850714Y-14434333D01*
X14831667Y-14424809D01*
X14803095Y-14424809D01*
X14784048Y-14415286D01*
X14774524Y-14396238D01*
X14774524Y-14386714D01*
X14784048Y-14367667D01*
X14803095Y-14358143D01*
X14831667Y-14358143D01*
X14850714Y-14367667D01*
X14926905Y-14567667D02*
X14936428Y-14558143D01*
X14955476Y-14529571D01*
X14965000Y-14510524D01*
X14974524Y-14481952D01*
X14984048Y-14434333D01*
X14984048Y-14396238D01*
X14974524Y-14348619D01*
X14965000Y-14320048D01*
X14955476Y-14301000D01*
X14936428Y-14272428D01*
X14926905Y-14262905D01*
M02*
