M48
; DRILL file {KiCad (6.0.5)} date Wed Mar  1 16:27:06 2023
; FORMAT={-:-/ absolute / metric / decimal}
; #@! TF.CreationDate,2023-03-01T16:27:06-05:00
; #@! TF.GenerationSoftware,Kicad,Pcbnew,(6.0.5)
; #@! TF.FileFunction,Plated,1,4,PTH
FMAT,2
METRIC
; #@! TA.AperFunction,Plated,PTH,ViaDrill
T1C0.300
; #@! TA.AperFunction,Plated,PTH,ComponentDrill
T2C0.500
; #@! TA.AperFunction,Plated,PTH,ComponentDrill
T3C0.800
; #@! TA.AperFunction,Plated,PTH,ComponentDrill
T4C1.000
; #@! TA.AperFunction,Plated,PTH,ComponentDrill
T5C1.020
%
G90
G05
T1
X105.029Y-118.999
X105.664Y-58.928
X105.664Y-73.914
X105.664Y-89.027
X105.664Y-103.886
X107.569Y-106.807
X107.569Y-108.585
X108.585Y-72.39
X108.585Y-87.249
X108.585Y-102.362
X108.585Y-117.348
X108.588Y-57.272
X109.093Y-106.807
X109.093Y-108.585
X110.109Y-92.583
X111.76Y-99.06
X111.76Y-100.33
X112.141Y-94.742
X112.141Y-111.633
X113.03Y-99.06
X113.03Y-100.33
X114.935Y-59.055
X116.459Y-108.712
X117.348Y-115.951
X117.348Y-116.967
X117.475Y-108.712
X118.364Y-115.951
X118.364Y-116.967
X119.761Y-62.23
X120.777Y-102.362
X120.777Y-117.348
X123.063Y-63.5
X123.536Y-57.272
X123.571Y-87.249
X123.698Y-72.263
X124.079Y-61.722
X125.857Y-73.787
X126.746Y-85.598
X130.429Y-62.357
X130.937Y-64.135
X135.509Y-117.348
X135.763Y-102.235
X136.144Y-83.312
X138.564Y-72.294
X138.58Y-57.272
X138.938Y-83.82
X139.446Y-86.614
X139.446Y-87.63
X139.7Y-98.425
X140.081Y-82.169
X141.224Y-84.328
X143.256Y-83.312
X146.05Y-91.45
X146.685Y-86.995
X149.352Y-87.376
X149.987Y-88.646
X150.622Y-117.348
X150.749Y-102.235
X150.876Y-79.756
X151.003Y-76.327
X151.689Y-98.425
X151.765Y-95.885
X151.765Y-97.155
X153.67Y-57.277
X153.67Y-72.39
X153.67Y-107.315
X153.67Y-110.49
X154.305Y-91.44
X154.448Y-87.757
X155.067Y-82.042
X155.448Y-87.757
X155.575Y-91.44
X156.845Y-82.042
X157.734Y-69.596
X158.676Y-78.412
X160.02Y-85.371
X160.02Y-86.388
X160.02Y-87.403
X160.655Y-78.486
X160.655Y-80.137
X160.655Y-93.98
X161.1Y-84.7
X161.1Y-85.7
X161.1Y-86.8
X161.425Y-83.533
X161.798Y-81.307
X162.22Y-90.465
X162.3Y-84.7
X162.3Y-85.7
X162.3Y-86.8
X162.941Y-77.724
X163.068Y-90.424
X163.5Y-84.7
X163.5Y-85.7
X164.63Y-81.307
X165.1Y-58.549
X165.608Y-56.35
X165.608Y-81.28
X165.735Y-93.98
X165.735Y-117.348
X165.862Y-102.362
X166.751Y-86.233
X167.767Y-82.042
X168.148Y-80.01
X168.656Y-72.39
X168.656Y-89.916
X168.91Y-86.741
X169.281Y-98.796
X170.053Y-86.741
X170.815Y-58.549
X170.815Y-83.312
X173.99Y-108.585
X175.26Y-108.585
T3
X123.347Y-77.65
X123.347Y-82.55
T4
X106.939Y-64.008
X109.479Y-64.008
X120.285Y-124.46
X122.825Y-124.46
X125.365Y-124.46
X133.985Y-124.46
X136.525Y-124.46
X139.065Y-124.46
X141.605Y-124.46
X144.145Y-124.46
X146.685Y-124.46
X154.305Y-124.46
X156.845Y-124.46
X159.385Y-124.46
X161.925Y-124.46
T5
X123.42Y-99.06
X123.42Y-111.76
T2
X164.318Y-52.674G85X164.318Y-51.974
G05
X170.918Y-52.674G85X170.918Y-51.974
G05
T0
M30
