G04 #@! TF.GenerationSoftware,KiCad,Pcbnew,(6.0.5)*
G04 #@! TF.CreationDate,2023-03-01T16:26:38-05:00*
G04 #@! TF.ProjectId,control_board,636f6e74-726f-46c5-9f62-6f6172642e6b,rev?*
G04 #@! TF.SameCoordinates,Original*
G04 #@! TF.FileFunction,Legend,Top*
G04 #@! TF.FilePolarity,Positive*
%FSLAX46Y46*%
G04 Gerber Fmt 4.6, Leading zero omitted, Abs format (unit mm)*
G04 Created by KiCad (PCBNEW (6.0.5)) date 2023-03-01 16:26:38*
%MOMM*%
%LPD*%
G01*
G04 APERTURE LIST*
G04 Aperture macros list*
%AMRoundRect*
0 Rectangle with rounded corners*
0 $1 Rounding radius*
0 $2 $3 $4 $5 $6 $7 $8 $9 X,Y pos of 4 corners*
0 Add a 4 corners polygon primitive as box body*
4,1,4,$2,$3,$4,$5,$6,$7,$8,$9,$2,$3,0*
0 Add four circle primitives for the rounded corners*
1,1,$1+$1,$2,$3*
1,1,$1+$1,$4,$5*
1,1,$1+$1,$6,$7*
1,1,$1+$1,$8,$9*
0 Add four rect primitives between the rounded corners*
20,1,$1+$1,$2,$3,$4,$5,0*
20,1,$1+$1,$4,$5,$6,$7,0*
20,1,$1+$1,$6,$7,$8,$9,0*
20,1,$1+$1,$8,$9,$2,$3,0*%
%AMFreePoly0*
4,1,9,5.362500,-0.866500,1.237500,-0.866500,1.237500,-0.450000,-1.237500,-0.450000,-1.237500,0.450000,1.237500,0.450000,1.237500,0.866500,5.362500,0.866500,5.362500,-0.866500,5.362500,-0.866500,$1*%
G04 Aperture macros list end*
%ADD10C,0.150000*%
%ADD11C,0.120000*%
%ADD12C,0.127000*%
%ADD13C,0.200000*%
%ADD14C,0.100000*%
%ADD15C,2.100000*%
%ADD16RoundRect,0.237500X-0.287500X-0.237500X0.287500X-0.237500X0.287500X0.237500X-0.287500X0.237500X0*%
%ADD17RoundRect,0.237500X0.287500X0.237500X-0.287500X0.237500X-0.287500X-0.237500X0.287500X-0.237500X0*%
%ADD18R,1.700000X1.700000*%
%ADD19O,1.700000X1.700000*%
%ADD20C,0.500000*%
%ADD21R,0.400000X1.350000*%
%ADD22R,1.900000X1.900000*%
%ADD23O,0.900000X1.800000*%
%ADD24R,1.600000X1.400000*%
%ADD25RoundRect,0.237500X-0.237500X0.300000X-0.237500X-0.300000X0.237500X-0.300000X0.237500X0.300000X0*%
%ADD26RoundRect,0.237500X-0.300000X-0.237500X0.300000X-0.237500X0.300000X0.237500X-0.300000X0.237500X0*%
%ADD27RoundRect,0.250000X-0.350000X-0.450000X0.350000X-0.450000X0.350000X0.450000X-0.350000X0.450000X0*%
%ADD28R,0.650000X1.560000*%
%ADD29C,3.450000*%
%ADD30R,2.000000X2.000000*%
%ADD31C,2.000000*%
%ADD32R,0.900000X2.300000*%
%ADD33FreePoly0,270.000000*%
%ADD34RoundRect,0.237500X0.237500X-0.300000X0.237500X0.300000X-0.237500X0.300000X-0.237500X-0.300000X0*%
%ADD35RoundRect,0.150000X-0.650000X-0.150000X0.650000X-0.150000X0.650000X0.150000X-0.650000X0.150000X0*%
%ADD36RoundRect,0.250000X0.350000X0.450000X-0.350000X0.450000X-0.350000X-0.450000X0.350000X-0.450000X0*%
%ADD37RoundRect,0.250000X-0.450000X0.350000X-0.450000X-0.350000X0.450000X-0.350000X0.450000X0.350000X0*%
%ADD38R,0.675000X0.250000*%
%ADD39R,0.250000X0.675000*%
%ADD40C,1.500000*%
%ADD41RoundRect,0.237500X0.300000X0.237500X-0.300000X0.237500X-0.300000X-0.237500X0.300000X-0.237500X0*%
%ADD42O,0.875000X0.200000*%
%ADD43O,0.200000X0.875000*%
%ADD44R,3.200000X3.200000*%
%ADD45RoundRect,0.250000X0.450000X-0.350000X0.450000X0.350000X-0.450000X0.350000X-0.450000X-0.350000X0*%
%ADD46RoundRect,0.250000X0.325000X0.450000X-0.325000X0.450000X-0.325000X-0.450000X0.325000X-0.450000X0*%
%ADD47R,0.700000X0.340000*%
%ADD48R,2.108200X0.558800*%
G04 APERTURE END LIST*
D10*
X141509761Y-121800952D02*
X141414523Y-121753333D01*
X141366904Y-121705714D01*
X141319285Y-121610476D01*
X141319285Y-121562857D01*
X141366904Y-121467619D01*
X141414523Y-121420000D01*
X141509761Y-121372380D01*
X141700238Y-121372380D01*
X141795476Y-121420000D01*
X141843095Y-121467619D01*
X141890714Y-121562857D01*
X141890714Y-121610476D01*
X141843095Y-121705714D01*
X141795476Y-121753333D01*
X141700238Y-121800952D01*
X141509761Y-121800952D01*
X141414523Y-121848571D01*
X141366904Y-121896190D01*
X141319285Y-121991428D01*
X141319285Y-122181904D01*
X141366904Y-122277142D01*
X141414523Y-122324761D01*
X141509761Y-122372380D01*
X141700238Y-122372380D01*
X141795476Y-122324761D01*
X141843095Y-122277142D01*
X141890714Y-122181904D01*
X141890714Y-121991428D01*
X141843095Y-121896190D01*
X141795476Y-121848571D01*
X141700238Y-121800952D01*
X134223095Y-121372380D02*
X133746904Y-121372380D01*
X133699285Y-121848571D01*
X133746904Y-121800952D01*
X133842142Y-121753333D01*
X134080238Y-121753333D01*
X134175476Y-121800952D01*
X134223095Y-121848571D01*
X134270714Y-121943809D01*
X134270714Y-122181904D01*
X134223095Y-122277142D01*
X134175476Y-122324761D01*
X134080238Y-122372380D01*
X133842142Y-122372380D01*
X133746904Y-122324761D01*
X133699285Y-122277142D01*
X136715476Y-121372380D02*
X136525000Y-121372380D01*
X136429761Y-121420000D01*
X136382142Y-121467619D01*
X136286904Y-121610476D01*
X136239285Y-121800952D01*
X136239285Y-122181904D01*
X136286904Y-122277142D01*
X136334523Y-122324761D01*
X136429761Y-122372380D01*
X136620238Y-122372380D01*
X136715476Y-122324761D01*
X136763095Y-122277142D01*
X136810714Y-122181904D01*
X136810714Y-121943809D01*
X136763095Y-121848571D01*
X136715476Y-121800952D01*
X136620238Y-121753333D01*
X136429761Y-121753333D01*
X136334523Y-121800952D01*
X136286904Y-121848571D01*
X136239285Y-121943809D01*
X138731666Y-121372380D02*
X139398333Y-121372380D01*
X138969761Y-122372380D01*
X152329285Y-122372380D02*
X151995952Y-121896190D01*
X151757857Y-122372380D02*
X151757857Y-121372380D01*
X152138809Y-121372380D01*
X152234047Y-121420000D01*
X152281666Y-121467619D01*
X152329285Y-121562857D01*
X152329285Y-121705714D01*
X152281666Y-121800952D01*
X152234047Y-121848571D01*
X152138809Y-121896190D01*
X151757857Y-121896190D01*
X152757857Y-121372380D02*
X152757857Y-122181904D01*
X152805476Y-122277142D01*
X152853095Y-122324761D01*
X152948333Y-122372380D01*
X153138809Y-122372380D01*
X153234047Y-122324761D01*
X153281666Y-122277142D01*
X153329285Y-122181904D01*
X153329285Y-121372380D01*
X153805476Y-122372380D02*
X153805476Y-121372380D01*
X154376904Y-122372380D01*
X154376904Y-121372380D01*
X155567380Y-121324761D02*
X154710238Y-122610476D01*
X155853095Y-122324761D02*
X155995952Y-122372380D01*
X156234047Y-122372380D01*
X156329285Y-122324761D01*
X156376904Y-122277142D01*
X156424523Y-122181904D01*
X156424523Y-122086666D01*
X156376904Y-121991428D01*
X156329285Y-121943809D01*
X156234047Y-121896190D01*
X156043571Y-121848571D01*
X155948333Y-121800952D01*
X155900714Y-121753333D01*
X155853095Y-121658095D01*
X155853095Y-121562857D01*
X155900714Y-121467619D01*
X155948333Y-121420000D01*
X156043571Y-121372380D01*
X156281666Y-121372380D01*
X156424523Y-121420000D01*
X156757857Y-121372380D02*
X156995952Y-122372380D01*
X157186428Y-121658095D01*
X157376904Y-122372380D01*
X157615000Y-121372380D01*
X158567380Y-122277142D02*
X158519761Y-122324761D01*
X158376904Y-122372380D01*
X158281666Y-122372380D01*
X158138809Y-122324761D01*
X158043571Y-122229523D01*
X157995952Y-122134285D01*
X157948333Y-121943809D01*
X157948333Y-121800952D01*
X157995952Y-121610476D01*
X158043571Y-121515238D01*
X158138809Y-121420000D01*
X158281666Y-121372380D01*
X158376904Y-121372380D01*
X158519761Y-121420000D01*
X158567380Y-121467619D01*
X159472142Y-122372380D02*
X158995952Y-122372380D01*
X158995952Y-121372380D01*
X159805476Y-122372380D02*
X159805476Y-121372380D01*
X160376904Y-122372380D02*
X159948333Y-121800952D01*
X160376904Y-121372380D02*
X159805476Y-121943809D01*
X161519761Y-121324761D02*
X160662619Y-122610476D01*
X161805476Y-122324761D02*
X161948333Y-122372380D01*
X162186428Y-122372380D01*
X162281666Y-122324761D01*
X162329285Y-122277142D01*
X162376904Y-122181904D01*
X162376904Y-122086666D01*
X162329285Y-121991428D01*
X162281666Y-121943809D01*
X162186428Y-121896190D01*
X161995952Y-121848571D01*
X161900714Y-121800952D01*
X161853095Y-121753333D01*
X161805476Y-121658095D01*
X161805476Y-121562857D01*
X161853095Y-121467619D01*
X161900714Y-121420000D01*
X161995952Y-121372380D01*
X162234047Y-121372380D01*
X162376904Y-121420000D01*
X162710238Y-121372380D02*
X162948333Y-122372380D01*
X163138809Y-121658095D01*
X163329285Y-122372380D01*
X163567380Y-121372380D01*
X163948333Y-122372380D02*
X163948333Y-121372380D01*
X164186428Y-121372380D01*
X164329285Y-121420000D01*
X164424523Y-121515238D01*
X164472142Y-121610476D01*
X164519761Y-121800952D01*
X164519761Y-121943809D01*
X164472142Y-122134285D01*
X164424523Y-122229523D01*
X164329285Y-122324761D01*
X164186428Y-122372380D01*
X163948333Y-122372380D01*
X113943095Y-124991761D02*
X114085952Y-125039380D01*
X114324047Y-125039380D01*
X114419285Y-124991761D01*
X114466904Y-124944142D01*
X114514523Y-124848904D01*
X114514523Y-124753666D01*
X114466904Y-124658428D01*
X114419285Y-124610809D01*
X114324047Y-124563190D01*
X114133571Y-124515571D01*
X114038333Y-124467952D01*
X113990714Y-124420333D01*
X113943095Y-124325095D01*
X113943095Y-124229857D01*
X113990714Y-124134619D01*
X114038333Y-124087000D01*
X114133571Y-124039380D01*
X114371666Y-124039380D01*
X114514523Y-124087000D01*
X114847857Y-124039380D02*
X115085952Y-125039380D01*
X115276428Y-124325095D01*
X115466904Y-125039380D01*
X115705000Y-124039380D01*
X116657380Y-124944142D02*
X116609761Y-124991761D01*
X116466904Y-125039380D01*
X116371666Y-125039380D01*
X116228809Y-124991761D01*
X116133571Y-124896523D01*
X116085952Y-124801285D01*
X116038333Y-124610809D01*
X116038333Y-124467952D01*
X116085952Y-124277476D01*
X116133571Y-124182238D01*
X116228809Y-124087000D01*
X116371666Y-124039380D01*
X116466904Y-124039380D01*
X116609761Y-124087000D01*
X116657380Y-124134619D01*
X117562142Y-125039380D02*
X117085952Y-125039380D01*
X117085952Y-124039380D01*
X117895476Y-125039380D02*
X117895476Y-124039380D01*
X118466904Y-125039380D02*
X118038333Y-124467952D01*
X118466904Y-124039380D02*
X117895476Y-124610809D01*
X124507857Y-122324761D02*
X124650714Y-122372380D01*
X124888809Y-122372380D01*
X124984047Y-122324761D01*
X125031666Y-122277142D01*
X125079285Y-122181904D01*
X125079285Y-122086666D01*
X125031666Y-121991428D01*
X124984047Y-121943809D01*
X124888809Y-121896190D01*
X124698333Y-121848571D01*
X124603095Y-121800952D01*
X124555476Y-121753333D01*
X124507857Y-121658095D01*
X124507857Y-121562857D01*
X124555476Y-121467619D01*
X124603095Y-121420000D01*
X124698333Y-121372380D01*
X124936428Y-121372380D01*
X125079285Y-121420000D01*
X125412619Y-121372380D02*
X125650714Y-122372380D01*
X125841190Y-121658095D01*
X126031666Y-122372380D01*
X126269761Y-121372380D01*
X126650714Y-122372380D02*
X126650714Y-121372380D01*
X126888809Y-121372380D01*
X127031666Y-121420000D01*
X127126904Y-121515238D01*
X127174523Y-121610476D01*
X127222142Y-121800952D01*
X127222142Y-121943809D01*
X127174523Y-122134285D01*
X127126904Y-122229523D01*
X127031666Y-122324761D01*
X126888809Y-122372380D01*
X126650714Y-122372380D01*
X144311666Y-122364285D02*
X144311666Y-121888095D01*
X144597380Y-122459523D02*
X143597380Y-122126190D01*
X144597380Y-121792857D01*
X144597380Y-121459523D02*
X143597380Y-121459523D01*
X143597380Y-121221428D01*
X143645000Y-121078571D01*
X143740238Y-120983333D01*
X143835476Y-120935714D01*
X144025952Y-120888095D01*
X144168809Y-120888095D01*
X144359285Y-120935714D01*
X144454523Y-120983333D01*
X144549761Y-121078571D01*
X144597380Y-121221428D01*
X144597380Y-121459523D01*
X144502142Y-119888095D02*
X144549761Y-119935714D01*
X144597380Y-120078571D01*
X144597380Y-120173809D01*
X144549761Y-120316666D01*
X144454523Y-120411904D01*
X144359285Y-120459523D01*
X144168809Y-120507142D01*
X144025952Y-120507142D01*
X143835476Y-120459523D01*
X143740238Y-120411904D01*
X143645000Y-120316666D01*
X143597380Y-120173809D01*
X143597380Y-120078571D01*
X143645000Y-119935714D01*
X143692619Y-119888095D01*
X143597380Y-119269047D02*
X143597380Y-119173809D01*
X143645000Y-119078571D01*
X143692619Y-119030952D01*
X143787857Y-118983333D01*
X143978333Y-118935714D01*
X144216428Y-118935714D01*
X144406904Y-118983333D01*
X144502142Y-119030952D01*
X144549761Y-119078571D01*
X144597380Y-119173809D01*
X144597380Y-119269047D01*
X144549761Y-119364285D01*
X144502142Y-119411904D01*
X144406904Y-119459523D01*
X144216428Y-119507142D01*
X143978333Y-119507142D01*
X143787857Y-119459523D01*
X143692619Y-119411904D01*
X143645000Y-119364285D01*
X143597380Y-119269047D01*
X146851666Y-122364285D02*
X146851666Y-121888095D01*
X147137380Y-122459523D02*
X146137380Y-122126190D01*
X147137380Y-121792857D01*
X147137380Y-121459523D02*
X146137380Y-121459523D01*
X146137380Y-121221428D01*
X146185000Y-121078571D01*
X146280238Y-120983333D01*
X146375476Y-120935714D01*
X146565952Y-120888095D01*
X146708809Y-120888095D01*
X146899285Y-120935714D01*
X146994523Y-120983333D01*
X147089761Y-121078571D01*
X147137380Y-121221428D01*
X147137380Y-121459523D01*
X147042142Y-119888095D02*
X147089761Y-119935714D01*
X147137380Y-120078571D01*
X147137380Y-120173809D01*
X147089761Y-120316666D01*
X146994523Y-120411904D01*
X146899285Y-120459523D01*
X146708809Y-120507142D01*
X146565952Y-120507142D01*
X146375476Y-120459523D01*
X146280238Y-120411904D01*
X146185000Y-120316666D01*
X146137380Y-120173809D01*
X146137380Y-120078571D01*
X146185000Y-119935714D01*
X146232619Y-119888095D01*
X147137380Y-118935714D02*
X147137380Y-119507142D01*
X147137380Y-119221428D02*
X146137380Y-119221428D01*
X146280238Y-119316666D01*
X146375476Y-119411904D01*
X146423095Y-119507142D01*
X173990095Y-122372380D02*
X173990095Y-121372380D01*
X173990095Y-121848571D02*
X174561523Y-121848571D01*
X174561523Y-122372380D02*
X174561523Y-121372380D01*
X175466285Y-121705714D02*
X175466285Y-122372380D01*
X175228190Y-121324761D02*
X174990095Y-122039047D01*
X175609142Y-122039047D01*
X103886095Y-122372380D02*
X103886095Y-121372380D01*
X103886095Y-121848571D02*
X104457523Y-121848571D01*
X104457523Y-122372380D02*
X104457523Y-121372380D01*
X104838476Y-121372380D02*
X105457523Y-121372380D01*
X105124190Y-121753333D01*
X105267047Y-121753333D01*
X105362285Y-121800952D01*
X105409904Y-121848571D01*
X105457523Y-121943809D01*
X105457523Y-122181904D01*
X105409904Y-122277142D01*
X105362285Y-122324761D01*
X105267047Y-122372380D01*
X104981333Y-122372380D01*
X104886095Y-122324761D01*
X104838476Y-122277142D01*
X173990095Y-56332380D02*
X173990095Y-55332380D01*
X173990095Y-55808571D02*
X174561523Y-55808571D01*
X174561523Y-56332380D02*
X174561523Y-55332380D01*
X174990095Y-55427619D02*
X175037714Y-55380000D01*
X175132952Y-55332380D01*
X175371047Y-55332380D01*
X175466285Y-55380000D01*
X175513904Y-55427619D01*
X175561523Y-55522857D01*
X175561523Y-55618095D01*
X175513904Y-55760952D01*
X174942476Y-56332380D01*
X175561523Y-56332380D01*
X103886095Y-56840380D02*
X103886095Y-55840380D01*
X103886095Y-56316571D02*
X104457523Y-56316571D01*
X104457523Y-56840380D02*
X104457523Y-55840380D01*
X105457523Y-56840380D02*
X104886095Y-56840380D01*
X105171809Y-56840380D02*
X105171809Y-55840380D01*
X105076571Y-55983238D01*
X104981333Y-56078476D01*
X104886095Y-56126095D01*
X169473714Y-59474380D02*
X169473714Y-58474380D01*
X169711809Y-58474380D01*
X169854666Y-58522000D01*
X169949904Y-58617238D01*
X169997523Y-58712476D01*
X170045142Y-58902952D01*
X170045142Y-59045809D01*
X169997523Y-59236285D01*
X169949904Y-59331523D01*
X169854666Y-59426761D01*
X169711809Y-59474380D01*
X169473714Y-59474380D01*
X170426095Y-58569619D02*
X170473714Y-58522000D01*
X170568952Y-58474380D01*
X170807047Y-58474380D01*
X170902285Y-58522000D01*
X170949904Y-58569619D01*
X170997523Y-58664857D01*
X170997523Y-58760095D01*
X170949904Y-58902952D01*
X170378476Y-59474380D01*
X170997523Y-59474380D01*
X171330857Y-58474380D02*
X171997523Y-58474380D01*
X171568952Y-59474380D01*
X165917714Y-62334380D02*
X165917714Y-61334380D01*
X166155809Y-61334380D01*
X166298666Y-61382000D01*
X166393904Y-61477238D01*
X166441523Y-61572476D01*
X166489142Y-61762952D01*
X166489142Y-61905809D01*
X166441523Y-62096285D01*
X166393904Y-62191523D01*
X166298666Y-62286761D01*
X166155809Y-62334380D01*
X165917714Y-62334380D01*
X166870095Y-61429619D02*
X166917714Y-61382000D01*
X167012952Y-61334380D01*
X167251047Y-61334380D01*
X167346285Y-61382000D01*
X167393904Y-61429619D01*
X167441523Y-61524857D01*
X167441523Y-61620095D01*
X167393904Y-61762952D01*
X166822476Y-62334380D01*
X167441523Y-62334380D01*
X168298666Y-61334380D02*
X168108190Y-61334380D01*
X168012952Y-61382000D01*
X167965333Y-61429619D01*
X167870095Y-61572476D01*
X167822476Y-61762952D01*
X167822476Y-62143904D01*
X167870095Y-62239142D01*
X167917714Y-62286761D01*
X168012952Y-62334380D01*
X168203428Y-62334380D01*
X168298666Y-62286761D01*
X168346285Y-62239142D01*
X168393904Y-62143904D01*
X168393904Y-61905809D01*
X168346285Y-61810571D01*
X168298666Y-61762952D01*
X168203428Y-61715333D01*
X168012952Y-61715333D01*
X167917714Y-61762952D01*
X167870095Y-61810571D01*
X167822476Y-61905809D01*
X163707380Y-124793333D02*
X164421666Y-124793333D01*
X164564523Y-124840952D01*
X164659761Y-124936190D01*
X164707380Y-125079047D01*
X164707380Y-125174285D01*
X163802619Y-124364761D02*
X163755000Y-124317142D01*
X163707380Y-124221904D01*
X163707380Y-123983809D01*
X163755000Y-123888571D01*
X163802619Y-123840952D01*
X163897857Y-123793333D01*
X163993095Y-123793333D01*
X164135952Y-123840952D01*
X164707380Y-124412380D01*
X164707380Y-123793333D01*
X167964326Y-56265300D02*
X167964326Y-56979586D01*
X167916707Y-57122443D01*
X167821469Y-57217681D01*
X167678612Y-57265300D01*
X167583374Y-57265300D01*
X168869088Y-56598634D02*
X168869088Y-57265300D01*
X168630993Y-56217681D02*
X168392898Y-56931967D01*
X169011945Y-56931967D01*
X128484142Y-84242857D02*
X128531761Y-84290476D01*
X128579380Y-84433333D01*
X128579380Y-84528571D01*
X128531761Y-84671428D01*
X128436523Y-84766666D01*
X128341285Y-84814285D01*
X128150809Y-84861904D01*
X128007952Y-84861904D01*
X127817476Y-84814285D01*
X127722238Y-84766666D01*
X127627000Y-84671428D01*
X127579380Y-84528571D01*
X127579380Y-84433333D01*
X127627000Y-84290476D01*
X127674619Y-84242857D01*
X128579380Y-83290476D02*
X128579380Y-83861904D01*
X128579380Y-83576190D02*
X127579380Y-83576190D01*
X127722238Y-83671428D01*
X127817476Y-83766666D01*
X127865095Y-83861904D01*
X127674619Y-82909523D02*
X127627000Y-82861904D01*
X127579380Y-82766666D01*
X127579380Y-82528571D01*
X127627000Y-82433333D01*
X127674619Y-82385714D01*
X127769857Y-82338095D01*
X127865095Y-82338095D01*
X128007952Y-82385714D01*
X128579380Y-82957142D01*
X128579380Y-82338095D01*
X159182642Y-68554642D02*
X159135023Y-68602261D01*
X158992166Y-68649880D01*
X158896928Y-68649880D01*
X158754071Y-68602261D01*
X158658833Y-68507023D01*
X158611214Y-68411785D01*
X158563595Y-68221309D01*
X158563595Y-68078452D01*
X158611214Y-67887976D01*
X158658833Y-67792738D01*
X158754071Y-67697500D01*
X158896928Y-67649880D01*
X158992166Y-67649880D01*
X159135023Y-67697500D01*
X159182642Y-67745119D01*
X160135023Y-68649880D02*
X159563595Y-68649880D01*
X159849309Y-68649880D02*
X159849309Y-67649880D01*
X159754071Y-67792738D01*
X159658833Y-67887976D01*
X159563595Y-67935595D01*
X160706452Y-68078452D02*
X160611214Y-68030833D01*
X160563595Y-67983214D01*
X160515976Y-67887976D01*
X160515976Y-67840357D01*
X160563595Y-67745119D01*
X160611214Y-67697500D01*
X160706452Y-67649880D01*
X160896928Y-67649880D01*
X160992166Y-67697500D01*
X161039785Y-67745119D01*
X161087404Y-67840357D01*
X161087404Y-67887976D01*
X161039785Y-67983214D01*
X160992166Y-68030833D01*
X160896928Y-68078452D01*
X160706452Y-68078452D01*
X160611214Y-68126071D01*
X160563595Y-68173690D01*
X160515976Y-68268928D01*
X160515976Y-68459404D01*
X160563595Y-68554642D01*
X160611214Y-68602261D01*
X160706452Y-68649880D01*
X160896928Y-68649880D01*
X160992166Y-68602261D01*
X161039785Y-68554642D01*
X161087404Y-68459404D01*
X161087404Y-68268928D01*
X161039785Y-68173690D01*
X160992166Y-68126071D01*
X160896928Y-68078452D01*
X107307142Y-91489642D02*
X107259523Y-91537261D01*
X107116666Y-91584880D01*
X107021428Y-91584880D01*
X106878571Y-91537261D01*
X106783333Y-91442023D01*
X106735714Y-91346785D01*
X106688095Y-91156309D01*
X106688095Y-91013452D01*
X106735714Y-90822976D01*
X106783333Y-90727738D01*
X106878571Y-90632500D01*
X107021428Y-90584880D01*
X107116666Y-90584880D01*
X107259523Y-90632500D01*
X107307142Y-90680119D01*
X108259523Y-91584880D02*
X107688095Y-91584880D01*
X107973809Y-91584880D02*
X107973809Y-90584880D01*
X107878571Y-90727738D01*
X107783333Y-90822976D01*
X107688095Y-90870595D01*
X108735714Y-91584880D02*
X108926190Y-91584880D01*
X109021428Y-91537261D01*
X109069047Y-91489642D01*
X109164285Y-91346785D01*
X109211904Y-91156309D01*
X109211904Y-90775357D01*
X109164285Y-90680119D01*
X109116666Y-90632500D01*
X109021428Y-90584880D01*
X108830952Y-90584880D01*
X108735714Y-90632500D01*
X108688095Y-90680119D01*
X108640476Y-90775357D01*
X108640476Y-91013452D01*
X108688095Y-91108690D01*
X108735714Y-91156309D01*
X108830952Y-91203928D01*
X109021428Y-91203928D01*
X109116666Y-91156309D01*
X109164285Y-91108690D01*
X109211904Y-91013452D01*
X169243333Y-82300642D02*
X169195714Y-82348261D01*
X169052857Y-82395880D01*
X168957619Y-82395880D01*
X168814761Y-82348261D01*
X168719523Y-82253023D01*
X168671904Y-82157785D01*
X168624285Y-81967309D01*
X168624285Y-81824452D01*
X168671904Y-81633976D01*
X168719523Y-81538738D01*
X168814761Y-81443500D01*
X168957619Y-81395880D01*
X169052857Y-81395880D01*
X169195714Y-81443500D01*
X169243333Y-81491119D01*
X170148095Y-81395880D02*
X169671904Y-81395880D01*
X169624285Y-81872071D01*
X169671904Y-81824452D01*
X169767142Y-81776833D01*
X170005238Y-81776833D01*
X170100476Y-81824452D01*
X170148095Y-81872071D01*
X170195714Y-81967309D01*
X170195714Y-82205404D01*
X170148095Y-82300642D01*
X170100476Y-82348261D01*
X170005238Y-82395880D01*
X169767142Y-82395880D01*
X169671904Y-82348261D01*
X169624285Y-82300642D01*
X127348783Y-66360180D02*
X127015450Y-65883990D01*
X126777354Y-66360180D02*
X126777354Y-65360180D01*
X127158307Y-65360180D01*
X127253545Y-65407800D01*
X127301164Y-65455419D01*
X127348783Y-65550657D01*
X127348783Y-65693514D01*
X127301164Y-65788752D01*
X127253545Y-65836371D01*
X127158307Y-65883990D01*
X126777354Y-65883990D01*
X128205926Y-65360180D02*
X128015450Y-65360180D01*
X127920211Y-65407800D01*
X127872592Y-65455419D01*
X127777354Y-65598276D01*
X127729735Y-65788752D01*
X127729735Y-66169704D01*
X127777354Y-66264942D01*
X127824973Y-66312561D01*
X127920211Y-66360180D01*
X128110688Y-66360180D01*
X128205926Y-66312561D01*
X128253545Y-66264942D01*
X128301164Y-66169704D01*
X128301164Y-65931609D01*
X128253545Y-65836371D01*
X128205926Y-65788752D01*
X128110688Y-65741133D01*
X127920211Y-65741133D01*
X127824973Y-65788752D01*
X127777354Y-65836371D01*
X127729735Y-65931609D01*
X114537695Y-107935780D02*
X114537695Y-108745304D01*
X114585314Y-108840542D01*
X114632933Y-108888161D01*
X114728171Y-108935780D01*
X114918647Y-108935780D01*
X115013885Y-108888161D01*
X115061504Y-108840542D01*
X115109123Y-108745304D01*
X115109123Y-107935780D01*
X116013885Y-107935780D02*
X115823409Y-107935780D01*
X115728171Y-107983400D01*
X115680552Y-108031019D01*
X115585314Y-108173876D01*
X115537695Y-108364352D01*
X115537695Y-108745304D01*
X115585314Y-108840542D01*
X115632933Y-108888161D01*
X115728171Y-108935780D01*
X115918647Y-108935780D01*
X116013885Y-108888161D01*
X116061504Y-108840542D01*
X116109123Y-108745304D01*
X116109123Y-108507209D01*
X116061504Y-108411971D01*
X116013885Y-108364352D01*
X115918647Y-108316733D01*
X115728171Y-108316733D01*
X115632933Y-108364352D01*
X115585314Y-108411971D01*
X115537695Y-108507209D01*
X122634285Y-91988571D02*
X122777142Y-92036190D01*
X122824761Y-92083809D01*
X122872380Y-92179047D01*
X122872380Y-92321904D01*
X122824761Y-92417142D01*
X122777142Y-92464761D01*
X122681904Y-92512380D01*
X122300952Y-92512380D01*
X122300952Y-91512380D01*
X122634285Y-91512380D01*
X122729523Y-91560000D01*
X122777142Y-91607619D01*
X122824761Y-91702857D01*
X122824761Y-91798095D01*
X122777142Y-91893333D01*
X122729523Y-91940952D01*
X122634285Y-91988571D01*
X122300952Y-91988571D01*
X123158095Y-91512380D02*
X123729523Y-91512380D01*
X123443809Y-92512380D02*
X123443809Y-91512380D01*
X124586666Y-92512380D02*
X124015238Y-92512380D01*
X124300952Y-92512380D02*
X124300952Y-91512380D01*
X124205714Y-91655238D01*
X124110476Y-91750476D01*
X124015238Y-91798095D01*
X135548571Y-111867142D02*
X136691428Y-111867142D01*
X119038571Y-111867142D02*
X120181428Y-111867142D01*
X157948571Y-99167142D02*
X159091428Y-99167142D01*
X135548571Y-99167142D02*
X136691428Y-99167142D01*
X136120000Y-99738571D02*
X136120000Y-98595714D01*
X119038571Y-99167142D02*
X120181428Y-99167142D01*
X119610000Y-99738571D02*
X119610000Y-98595714D01*
X157948571Y-111867142D02*
X159091428Y-111867142D01*
X158520000Y-112438571D02*
X158520000Y-111295714D01*
X104652380Y-100574404D02*
X105461904Y-100574404D01*
X105557142Y-100526785D01*
X105604761Y-100479166D01*
X105652380Y-100383928D01*
X105652380Y-100193452D01*
X105604761Y-100098214D01*
X105557142Y-100050595D01*
X105461904Y-100002976D01*
X104652380Y-100002976D01*
X104985714Y-99098214D02*
X105652380Y-99098214D01*
X104604761Y-99336309D02*
X105319047Y-99574404D01*
X105319047Y-98955357D01*
X119390321Y-107021556D02*
X119437940Y-107069175D01*
X119485559Y-107212032D01*
X119485559Y-107307270D01*
X119437940Y-107450127D01*
X119342702Y-107545365D01*
X119247464Y-107592984D01*
X119056988Y-107640603D01*
X118914131Y-107640603D01*
X118723655Y-107592984D01*
X118628417Y-107545365D01*
X118533179Y-107450127D01*
X118485559Y-107307270D01*
X118485559Y-107212032D01*
X118533179Y-107069175D01*
X118580798Y-107021556D01*
X118580798Y-106640603D02*
X118533179Y-106592984D01*
X118485559Y-106497746D01*
X118485559Y-106259651D01*
X118533179Y-106164413D01*
X118580798Y-106116794D01*
X118676036Y-106069175D01*
X118771274Y-106069175D01*
X118914131Y-106116794D01*
X119485559Y-106688222D01*
X119485559Y-106069175D01*
X118580798Y-105688222D02*
X118533179Y-105640603D01*
X118485559Y-105545365D01*
X118485559Y-105307270D01*
X118533179Y-105212032D01*
X118580798Y-105164413D01*
X118676036Y-105116794D01*
X118771274Y-105116794D01*
X118914131Y-105164413D01*
X119485559Y-105735841D01*
X119485559Y-105116794D01*
X127147380Y-124793333D02*
X127861666Y-124793333D01*
X128004523Y-124840952D01*
X128099761Y-124936190D01*
X128147380Y-125079047D01*
X128147380Y-125174285D01*
X127147380Y-124412380D02*
X127147380Y-123793333D01*
X127528333Y-124126666D01*
X127528333Y-123983809D01*
X127575952Y-123888571D01*
X127623571Y-123840952D01*
X127718809Y-123793333D01*
X127956904Y-123793333D01*
X128052142Y-123840952D01*
X128099761Y-123888571D01*
X128147380Y-123983809D01*
X128147380Y-124269523D01*
X128099761Y-124364761D01*
X128052142Y-124412380D01*
X167727333Y-90554642D02*
X167679714Y-90602261D01*
X167536857Y-90649880D01*
X167441619Y-90649880D01*
X167298761Y-90602261D01*
X167203523Y-90507023D01*
X167155904Y-90411785D01*
X167108285Y-90221309D01*
X167108285Y-90078452D01*
X167155904Y-89887976D01*
X167203523Y-89792738D01*
X167298761Y-89697500D01*
X167441619Y-89649880D01*
X167536857Y-89649880D01*
X167679714Y-89697500D01*
X167727333Y-89745119D01*
X168584476Y-89649880D02*
X168394000Y-89649880D01*
X168298761Y-89697500D01*
X168251142Y-89745119D01*
X168155904Y-89887976D01*
X168108285Y-90078452D01*
X168108285Y-90459404D01*
X168155904Y-90554642D01*
X168203523Y-90602261D01*
X168298761Y-90649880D01*
X168489238Y-90649880D01*
X168584476Y-90602261D01*
X168632095Y-90554642D01*
X168679714Y-90459404D01*
X168679714Y-90221309D01*
X168632095Y-90126071D01*
X168584476Y-90078452D01*
X168489238Y-90030833D01*
X168298761Y-90030833D01*
X168203523Y-90078452D01*
X168155904Y-90126071D01*
X168108285Y-90221309D01*
X156063595Y-76829880D02*
X156063595Y-77639404D01*
X156111214Y-77734642D01*
X156158833Y-77782261D01*
X156254071Y-77829880D01*
X156444547Y-77829880D01*
X156539785Y-77782261D01*
X156587404Y-77734642D01*
X156635023Y-77639404D01*
X156635023Y-76829880D01*
X157587404Y-76829880D02*
X157111214Y-76829880D01*
X157063595Y-77306071D01*
X157111214Y-77258452D01*
X157206452Y-77210833D01*
X157444547Y-77210833D01*
X157539785Y-77258452D01*
X157587404Y-77306071D01*
X157635023Y-77401309D01*
X157635023Y-77639404D01*
X157587404Y-77734642D01*
X157539785Y-77782261D01*
X157444547Y-77829880D01*
X157206452Y-77829880D01*
X157111214Y-77782261D01*
X157063595Y-77734642D01*
X146908833Y-73979880D02*
X146575500Y-73503690D01*
X146337404Y-73979880D02*
X146337404Y-72979880D01*
X146718357Y-72979880D01*
X146813595Y-73027500D01*
X146861214Y-73075119D01*
X146908833Y-73170357D01*
X146908833Y-73313214D01*
X146861214Y-73408452D01*
X146813595Y-73456071D01*
X146718357Y-73503690D01*
X146337404Y-73503690D01*
X147480261Y-73408452D02*
X147385023Y-73360833D01*
X147337404Y-73313214D01*
X147289785Y-73217976D01*
X147289785Y-73170357D01*
X147337404Y-73075119D01*
X147385023Y-73027500D01*
X147480261Y-72979880D01*
X147670738Y-72979880D01*
X147765976Y-73027500D01*
X147813595Y-73075119D01*
X147861214Y-73170357D01*
X147861214Y-73217976D01*
X147813595Y-73313214D01*
X147765976Y-73360833D01*
X147670738Y-73408452D01*
X147480261Y-73408452D01*
X147385023Y-73456071D01*
X147337404Y-73503690D01*
X147289785Y-73598928D01*
X147289785Y-73789404D01*
X147337404Y-73884642D01*
X147385023Y-73932261D01*
X147480261Y-73979880D01*
X147670738Y-73979880D01*
X147765976Y-73932261D01*
X147813595Y-73884642D01*
X147861214Y-73789404D01*
X147861214Y-73598928D01*
X147813595Y-73503690D01*
X147765976Y-73456071D01*
X147670738Y-73408452D01*
X148467380Y-124793333D02*
X149181666Y-124793333D01*
X149324523Y-124840952D01*
X149419761Y-124936190D01*
X149467380Y-125079047D01*
X149467380Y-125174285D01*
X149467380Y-123793333D02*
X149467380Y-124364761D01*
X149467380Y-124079047D02*
X148467380Y-124079047D01*
X148610238Y-124174285D01*
X148705476Y-124269523D01*
X148753095Y-124364761D01*
X140819142Y-91320857D02*
X140866761Y-91368476D01*
X140914380Y-91511333D01*
X140914380Y-91606571D01*
X140866761Y-91749428D01*
X140771523Y-91844666D01*
X140676285Y-91892285D01*
X140485809Y-91939904D01*
X140342952Y-91939904D01*
X140152476Y-91892285D01*
X140057238Y-91844666D01*
X139962000Y-91749428D01*
X139914380Y-91606571D01*
X139914380Y-91511333D01*
X139962000Y-91368476D01*
X140009619Y-91320857D01*
X140914380Y-90368476D02*
X140914380Y-90939904D01*
X140914380Y-90654190D02*
X139914380Y-90654190D01*
X140057238Y-90749428D01*
X140152476Y-90844666D01*
X140200095Y-90939904D01*
X139914380Y-89463714D02*
X139914380Y-89939904D01*
X140390571Y-89987523D01*
X140342952Y-89939904D01*
X140295333Y-89844666D01*
X140295333Y-89606571D01*
X140342952Y-89511333D01*
X140390571Y-89463714D01*
X140485809Y-89416095D01*
X140723904Y-89416095D01*
X140819142Y-89463714D01*
X140866761Y-89511333D01*
X140914380Y-89606571D01*
X140914380Y-89844666D01*
X140866761Y-89939904D01*
X140819142Y-89987523D01*
X118308380Y-121324666D02*
X117832190Y-121658000D01*
X118308380Y-121896095D02*
X117308380Y-121896095D01*
X117308380Y-121515142D01*
X117356000Y-121419904D01*
X117403619Y-121372285D01*
X117498857Y-121324666D01*
X117641714Y-121324666D01*
X117736952Y-121372285D01*
X117784571Y-121419904D01*
X117832190Y-121515142D01*
X117832190Y-121896095D01*
X118308380Y-120848476D02*
X118308380Y-120658000D01*
X118260761Y-120562761D01*
X118213142Y-120515142D01*
X118070285Y-120419904D01*
X117879809Y-120372285D01*
X117498857Y-120372285D01*
X117403619Y-120419904D01*
X117356000Y-120467523D01*
X117308380Y-120562761D01*
X117308380Y-120753238D01*
X117356000Y-120848476D01*
X117403619Y-120896095D01*
X117498857Y-120943714D01*
X117736952Y-120943714D01*
X117832190Y-120896095D01*
X117879809Y-120848476D01*
X117927428Y-120753238D01*
X117927428Y-120562761D01*
X117879809Y-120467523D01*
X117832190Y-120419904D01*
X117736952Y-120372285D01*
X159853333Y-79886642D02*
X159805714Y-79934261D01*
X159662857Y-79981880D01*
X159567619Y-79981880D01*
X159424761Y-79934261D01*
X159329523Y-79839023D01*
X159281904Y-79743785D01*
X159234285Y-79553309D01*
X159234285Y-79410452D01*
X159281904Y-79219976D01*
X159329523Y-79124738D01*
X159424761Y-79029500D01*
X159567619Y-78981880D01*
X159662857Y-78981880D01*
X159805714Y-79029500D01*
X159853333Y-79077119D01*
X160186666Y-78981880D02*
X160853333Y-78981880D01*
X160424761Y-79981880D01*
X135176095Y-84259880D02*
X135176095Y-85069404D01*
X135223714Y-85164642D01*
X135271333Y-85212261D01*
X135366571Y-85259880D01*
X135557047Y-85259880D01*
X135652285Y-85212261D01*
X135699904Y-85164642D01*
X135747523Y-85069404D01*
X135747523Y-84259880D01*
X136176095Y-84355119D02*
X136223714Y-84307500D01*
X136318952Y-84259880D01*
X136557047Y-84259880D01*
X136652285Y-84307500D01*
X136699904Y-84355119D01*
X136747523Y-84450357D01*
X136747523Y-84545595D01*
X136699904Y-84688452D01*
X136128476Y-85259880D01*
X136747523Y-85259880D01*
X119558309Y-73251190D02*
X119558309Y-73727380D01*
X119224976Y-72727380D02*
X119558309Y-73251190D01*
X119891642Y-72727380D01*
X120748785Y-73727380D02*
X120177357Y-73727380D01*
X120463071Y-73727380D02*
X120463071Y-72727380D01*
X120367833Y-72870238D01*
X120272595Y-72965476D01*
X120177357Y-73013095D01*
X155158833Y-68179880D02*
X154825500Y-67703690D01*
X154587404Y-68179880D02*
X154587404Y-67179880D01*
X154968357Y-67179880D01*
X155063595Y-67227500D01*
X155111214Y-67275119D01*
X155158833Y-67370357D01*
X155158833Y-67513214D01*
X155111214Y-67608452D01*
X155063595Y-67656071D01*
X154968357Y-67703690D01*
X154587404Y-67703690D01*
X155492166Y-67179880D02*
X156158833Y-67179880D01*
X155730261Y-68179880D01*
X156559333Y-88648642D02*
X156511714Y-88696261D01*
X156368857Y-88743880D01*
X156273619Y-88743880D01*
X156130761Y-88696261D01*
X156035523Y-88601023D01*
X155987904Y-88505785D01*
X155940285Y-88315309D01*
X155940285Y-88172452D01*
X155987904Y-87981976D01*
X156035523Y-87886738D01*
X156130761Y-87791500D01*
X156273619Y-87743880D01*
X156368857Y-87743880D01*
X156511714Y-87791500D01*
X156559333Y-87839119D01*
X157130761Y-88172452D02*
X157035523Y-88124833D01*
X156987904Y-88077214D01*
X156940285Y-87981976D01*
X156940285Y-87934357D01*
X156987904Y-87839119D01*
X157035523Y-87791500D01*
X157130761Y-87743880D01*
X157321238Y-87743880D01*
X157416476Y-87791500D01*
X157464095Y-87839119D01*
X157511714Y-87934357D01*
X157511714Y-87981976D01*
X157464095Y-88077214D01*
X157416476Y-88124833D01*
X157321238Y-88172452D01*
X157130761Y-88172452D01*
X157035523Y-88220071D01*
X156987904Y-88267690D01*
X156940285Y-88362928D01*
X156940285Y-88553404D01*
X156987904Y-88648642D01*
X157035523Y-88696261D01*
X157130761Y-88743880D01*
X157321238Y-88743880D01*
X157416476Y-88696261D01*
X157464095Y-88648642D01*
X157511714Y-88553404D01*
X157511714Y-88362928D01*
X157464095Y-88267690D01*
X157416476Y-88220071D01*
X157321238Y-88172452D01*
X111261380Y-64341333D02*
X111975666Y-64341333D01*
X112118523Y-64388952D01*
X112213761Y-64484190D01*
X112261380Y-64627047D01*
X112261380Y-64722285D01*
X111261380Y-63388952D02*
X111261380Y-63865142D01*
X111737571Y-63912761D01*
X111689952Y-63865142D01*
X111642333Y-63769904D01*
X111642333Y-63531809D01*
X111689952Y-63436571D01*
X111737571Y-63388952D01*
X111832809Y-63341333D01*
X112070904Y-63341333D01*
X112166142Y-63388952D01*
X112213761Y-63436571D01*
X112261380Y-63531809D01*
X112261380Y-63769904D01*
X112213761Y-63865142D01*
X112166142Y-63912761D01*
X157742095Y-90791880D02*
X157742095Y-91601404D01*
X157789714Y-91696642D01*
X157837333Y-91744261D01*
X157932571Y-91791880D01*
X158123047Y-91791880D01*
X158218285Y-91744261D01*
X158265904Y-91696642D01*
X158313523Y-91601404D01*
X158313523Y-90791880D01*
X159313523Y-91791880D02*
X158742095Y-91791880D01*
X159027809Y-91791880D02*
X159027809Y-90791880D01*
X158932571Y-90934738D01*
X158837333Y-91029976D01*
X158742095Y-91077595D01*
X153078380Y-82236166D02*
X152602190Y-82569500D01*
X153078380Y-82807595D02*
X152078380Y-82807595D01*
X152078380Y-82426642D01*
X152126000Y-82331404D01*
X152173619Y-82283785D01*
X152268857Y-82236166D01*
X152411714Y-82236166D01*
X152506952Y-82283785D01*
X152554571Y-82331404D01*
X152602190Y-82426642D01*
X152602190Y-82807595D01*
X152411714Y-81379023D02*
X153078380Y-81379023D01*
X152030761Y-81617119D02*
X152745047Y-81855214D01*
X152745047Y-81236166D01*
X129530333Y-76902380D02*
X129197000Y-76426190D01*
X128958904Y-76902380D02*
X128958904Y-75902380D01*
X129339857Y-75902380D01*
X129435095Y-75950000D01*
X129482714Y-75997619D01*
X129530333Y-76092857D01*
X129530333Y-76235714D01*
X129482714Y-76330952D01*
X129435095Y-76378571D01*
X129339857Y-76426190D01*
X128958904Y-76426190D01*
X129863666Y-75902380D02*
X130482714Y-75902380D01*
X130149380Y-76283333D01*
X130292238Y-76283333D01*
X130387476Y-76330952D01*
X130435095Y-76378571D01*
X130482714Y-76473809D01*
X130482714Y-76711904D01*
X130435095Y-76807142D01*
X130387476Y-76854761D01*
X130292238Y-76902380D01*
X130006523Y-76902380D01*
X129911285Y-76854761D01*
X129863666Y-76807142D01*
X114057142Y-97309090D02*
X114104761Y-97356709D01*
X114152380Y-97499566D01*
X114152380Y-97594804D01*
X114104761Y-97737661D01*
X114009523Y-97832899D01*
X113914285Y-97880518D01*
X113723809Y-97928137D01*
X113580952Y-97928137D01*
X113390476Y-97880518D01*
X113295238Y-97832899D01*
X113200000Y-97737661D01*
X113152380Y-97594804D01*
X113152380Y-97499566D01*
X113200000Y-97356709D01*
X113247619Y-97309090D01*
X113247619Y-96928137D02*
X113200000Y-96880518D01*
X113152380Y-96785280D01*
X113152380Y-96547185D01*
X113200000Y-96451947D01*
X113247619Y-96404328D01*
X113342857Y-96356709D01*
X113438095Y-96356709D01*
X113580952Y-96404328D01*
X114152380Y-96975756D01*
X114152380Y-96356709D01*
X113152380Y-95737661D02*
X113152380Y-95642423D01*
X113200000Y-95547185D01*
X113247619Y-95499566D01*
X113342857Y-95451947D01*
X113533333Y-95404328D01*
X113771428Y-95404328D01*
X113961904Y-95451947D01*
X114057142Y-95499566D01*
X114104761Y-95547185D01*
X114152380Y-95642423D01*
X114152380Y-95737661D01*
X114104761Y-95832899D01*
X114057142Y-95880518D01*
X113961904Y-95928137D01*
X113771428Y-95975756D01*
X113533333Y-95975756D01*
X113342857Y-95928137D01*
X113247619Y-95880518D01*
X113200000Y-95832899D01*
X113152380Y-95737661D01*
X121335392Y-61228142D02*
X121287773Y-61275761D01*
X121144916Y-61323380D01*
X121049678Y-61323380D01*
X120906821Y-61275761D01*
X120811583Y-61180523D01*
X120763964Y-61085285D01*
X120716345Y-60894809D01*
X120716345Y-60751952D01*
X120763964Y-60561476D01*
X120811583Y-60466238D01*
X120906821Y-60371000D01*
X121049678Y-60323380D01*
X121144916Y-60323380D01*
X121287773Y-60371000D01*
X121335392Y-60418619D01*
X122287773Y-61323380D02*
X121716345Y-61323380D01*
X122002059Y-61323380D02*
X122002059Y-60323380D01*
X121906821Y-60466238D01*
X121811583Y-60561476D01*
X121716345Y-60609095D01*
X123144916Y-60656714D02*
X123144916Y-61323380D01*
X122906821Y-60275761D02*
X122668726Y-60990047D01*
X123287773Y-60990047D01*
X161750569Y-76425880D02*
X161417236Y-75949690D01*
X161179140Y-76425880D02*
X161179140Y-75425880D01*
X161560093Y-75425880D01*
X161655331Y-75473500D01*
X161702950Y-75521119D01*
X161750569Y-75616357D01*
X161750569Y-75759214D01*
X161702950Y-75854452D01*
X161655331Y-75902071D01*
X161560093Y-75949690D01*
X161179140Y-75949690D01*
X162702950Y-76425880D02*
X162131521Y-76425880D01*
X162417236Y-76425880D02*
X162417236Y-75425880D01*
X162321997Y-75568738D01*
X162226759Y-75663976D01*
X162131521Y-75711595D01*
X125624142Y-75992857D02*
X125671761Y-76040476D01*
X125719380Y-76183333D01*
X125719380Y-76278571D01*
X125671761Y-76421428D01*
X125576523Y-76516666D01*
X125481285Y-76564285D01*
X125290809Y-76611904D01*
X125147952Y-76611904D01*
X124957476Y-76564285D01*
X124862238Y-76516666D01*
X124767000Y-76421428D01*
X124719380Y-76278571D01*
X124719380Y-76183333D01*
X124767000Y-76040476D01*
X124814619Y-75992857D01*
X125719380Y-75040476D02*
X125719380Y-75611904D01*
X125719380Y-75326190D02*
X124719380Y-75326190D01*
X124862238Y-75421428D01*
X124957476Y-75516666D01*
X125005095Y-75611904D01*
X124719380Y-74707142D02*
X124719380Y-74088095D01*
X125100333Y-74421428D01*
X125100333Y-74278571D01*
X125147952Y-74183333D01*
X125195571Y-74135714D01*
X125290809Y-74088095D01*
X125528904Y-74088095D01*
X125624142Y-74135714D01*
X125671761Y-74183333D01*
X125719380Y-74278571D01*
X125719380Y-74564285D01*
X125671761Y-74659523D01*
X125624142Y-74707142D01*
X152978380Y-86284166D02*
X152502190Y-86617500D01*
X152978380Y-86855595D02*
X151978380Y-86855595D01*
X151978380Y-86474642D01*
X152026000Y-86379404D01*
X152073619Y-86331785D01*
X152168857Y-86284166D01*
X152311714Y-86284166D01*
X152406952Y-86331785D01*
X152454571Y-86379404D01*
X152502190Y-86474642D01*
X152502190Y-86855595D01*
X151978380Y-85379404D02*
X151978380Y-85855595D01*
X152454571Y-85903214D01*
X152406952Y-85855595D01*
X152359333Y-85760357D01*
X152359333Y-85522261D01*
X152406952Y-85427023D01*
X152454571Y-85379404D01*
X152549809Y-85331785D01*
X152787904Y-85331785D01*
X152883142Y-85379404D01*
X152930761Y-85427023D01*
X152978380Y-85522261D01*
X152978380Y-85760357D01*
X152930761Y-85855595D01*
X152883142Y-85903214D01*
X138787142Y-91320857D02*
X138834761Y-91368476D01*
X138882380Y-91511333D01*
X138882380Y-91606571D01*
X138834761Y-91749428D01*
X138739523Y-91844666D01*
X138644285Y-91892285D01*
X138453809Y-91939904D01*
X138310952Y-91939904D01*
X138120476Y-91892285D01*
X138025238Y-91844666D01*
X137930000Y-91749428D01*
X137882380Y-91606571D01*
X137882380Y-91511333D01*
X137930000Y-91368476D01*
X137977619Y-91320857D01*
X138882380Y-90368476D02*
X138882380Y-90939904D01*
X138882380Y-90654190D02*
X137882380Y-90654190D01*
X138025238Y-90749428D01*
X138120476Y-90844666D01*
X138168095Y-90939904D01*
X137882380Y-89511333D02*
X137882380Y-89701809D01*
X137930000Y-89797047D01*
X137977619Y-89844666D01*
X138120476Y-89939904D01*
X138310952Y-89987523D01*
X138691904Y-89987523D01*
X138787142Y-89939904D01*
X138834761Y-89892285D01*
X138882380Y-89797047D01*
X138882380Y-89606571D01*
X138834761Y-89511333D01*
X138787142Y-89463714D01*
X138691904Y-89416095D01*
X138453809Y-89416095D01*
X138358571Y-89463714D01*
X138310952Y-89511333D01*
X138263333Y-89606571D01*
X138263333Y-89797047D01*
X138310952Y-89892285D01*
X138358571Y-89939904D01*
X138453809Y-89987523D01*
X127685392Y-61228142D02*
X127637773Y-61275761D01*
X127494916Y-61323380D01*
X127399678Y-61323380D01*
X127256821Y-61275761D01*
X127161583Y-61180523D01*
X127113964Y-61085285D01*
X127066345Y-60894809D01*
X127066345Y-60751952D01*
X127113964Y-60561476D01*
X127161583Y-60466238D01*
X127256821Y-60371000D01*
X127399678Y-60323380D01*
X127494916Y-60323380D01*
X127637773Y-60371000D01*
X127685392Y-60418619D01*
X128637773Y-61323380D02*
X128066345Y-61323380D01*
X128352059Y-61323380D02*
X128352059Y-60323380D01*
X128256821Y-60466238D01*
X128161583Y-60561476D01*
X128066345Y-60609095D01*
X128971107Y-60323380D02*
X129637773Y-60323380D01*
X129209202Y-61323380D01*
X156551333Y-85092642D02*
X156503714Y-85140261D01*
X156360857Y-85187880D01*
X156265619Y-85187880D01*
X156122761Y-85140261D01*
X156027523Y-85045023D01*
X155979904Y-84949785D01*
X155932285Y-84759309D01*
X155932285Y-84616452D01*
X155979904Y-84425976D01*
X156027523Y-84330738D01*
X156122761Y-84235500D01*
X156265619Y-84187880D01*
X156360857Y-84187880D01*
X156503714Y-84235500D01*
X156551333Y-84283119D01*
X157408476Y-84521214D02*
X157408476Y-85187880D01*
X157170380Y-84140261D02*
X156932285Y-84854547D01*
X157551333Y-84854547D01*
X111068142Y-110116857D02*
X111115761Y-110164476D01*
X111163380Y-110307333D01*
X111163380Y-110402571D01*
X111115761Y-110545428D01*
X111020523Y-110640666D01*
X110925285Y-110688285D01*
X110734809Y-110735904D01*
X110591952Y-110735904D01*
X110401476Y-110688285D01*
X110306238Y-110640666D01*
X110211000Y-110545428D01*
X110163380Y-110402571D01*
X110163380Y-110307333D01*
X110211000Y-110164476D01*
X110258619Y-110116857D01*
X110258619Y-109735904D02*
X110211000Y-109688285D01*
X110163380Y-109593047D01*
X110163380Y-109354952D01*
X110211000Y-109259714D01*
X110258619Y-109212095D01*
X110353857Y-109164476D01*
X110449095Y-109164476D01*
X110591952Y-109212095D01*
X111163380Y-109783523D01*
X111163380Y-109164476D01*
X111163380Y-108212095D02*
X111163380Y-108783523D01*
X111163380Y-108497809D02*
X110163380Y-108497809D01*
X110306238Y-108593047D01*
X110401476Y-108688285D01*
X110449095Y-108783523D01*
X114996933Y-118586780D02*
X114520742Y-118586780D01*
X114520742Y-117586780D01*
X115854076Y-118586780D02*
X115282647Y-118586780D01*
X115568361Y-118586780D02*
X115568361Y-117586780D01*
X115473123Y-117729638D01*
X115377885Y-117824876D01*
X115282647Y-117872495D01*
X167981333Y-76425880D02*
X167648000Y-75949690D01*
X167409904Y-76425880D02*
X167409904Y-75425880D01*
X167790857Y-75425880D01*
X167886095Y-75473500D01*
X167933714Y-75521119D01*
X167981333Y-75616357D01*
X167981333Y-75759214D01*
X167933714Y-75854452D01*
X167886095Y-75902071D01*
X167790857Y-75949690D01*
X167409904Y-75949690D01*
X168362285Y-75521119D02*
X168409904Y-75473500D01*
X168505142Y-75425880D01*
X168743238Y-75425880D01*
X168838476Y-75473500D01*
X168886095Y-75521119D01*
X168933714Y-75616357D01*
X168933714Y-75711595D01*
X168886095Y-75854452D01*
X168314666Y-76425880D01*
X168933714Y-76425880D01*
X124391345Y-61323380D02*
X124391345Y-62132904D01*
X124438964Y-62228142D01*
X124486583Y-62275761D01*
X124581821Y-62323380D01*
X124772297Y-62323380D01*
X124867535Y-62275761D01*
X124915154Y-62228142D01*
X124962773Y-62132904D01*
X124962773Y-61323380D01*
X125343726Y-61323380D02*
X125962773Y-61323380D01*
X125629440Y-61704333D01*
X125772297Y-61704333D01*
X125867535Y-61751952D01*
X125915154Y-61799571D01*
X125962773Y-61894809D01*
X125962773Y-62132904D01*
X125915154Y-62228142D01*
X125867535Y-62275761D01*
X125772297Y-62323380D01*
X125486583Y-62323380D01*
X125391345Y-62275761D01*
X125343726Y-62228142D01*
X166108142Y-78843142D02*
X166060523Y-78890761D01*
X165917666Y-78938380D01*
X165822428Y-78938380D01*
X165679571Y-78890761D01*
X165584333Y-78795523D01*
X165536714Y-78700285D01*
X165489095Y-78509809D01*
X165489095Y-78366952D01*
X165536714Y-78176476D01*
X165584333Y-78081238D01*
X165679571Y-77986000D01*
X165822428Y-77938380D01*
X165917666Y-77938380D01*
X166060523Y-77986000D01*
X166108142Y-78033619D01*
X167060523Y-78938380D02*
X166489095Y-78938380D01*
X166774809Y-78938380D02*
X166774809Y-77938380D01*
X166679571Y-78081238D01*
X166584333Y-78176476D01*
X166489095Y-78224095D01*
X167679571Y-77938380D02*
X167774809Y-77938380D01*
X167870047Y-77986000D01*
X167917666Y-78033619D01*
X167965285Y-78128857D01*
X168012904Y-78319333D01*
X168012904Y-78557428D01*
X167965285Y-78747904D01*
X167917666Y-78843142D01*
X167870047Y-78890761D01*
X167774809Y-78938380D01*
X167679571Y-78938380D01*
X167584333Y-78890761D01*
X167536714Y-78843142D01*
X167489095Y-78747904D01*
X167441476Y-78557428D01*
X167441476Y-78319333D01*
X167489095Y-78128857D01*
X167536714Y-78033619D01*
X167584333Y-77986000D01*
X167679571Y-77938380D01*
X150016166Y-69580261D02*
X150159023Y-69627880D01*
X150397119Y-69627880D01*
X150492357Y-69580261D01*
X150539976Y-69532642D01*
X150587595Y-69437404D01*
X150587595Y-69342166D01*
X150539976Y-69246928D01*
X150492357Y-69199309D01*
X150397119Y-69151690D01*
X150206642Y-69104071D01*
X150111404Y-69056452D01*
X150063785Y-69008833D01*
X150016166Y-68913595D01*
X150016166Y-68818357D01*
X150063785Y-68723119D01*
X150111404Y-68675500D01*
X150206642Y-68627880D01*
X150444738Y-68627880D01*
X150587595Y-68675500D01*
X150920928Y-68627880D02*
X151159023Y-69627880D01*
X151349500Y-68913595D01*
X151539976Y-69627880D01*
X151778071Y-68627880D01*
X152682833Y-69627880D02*
X152111404Y-69627880D01*
X152397119Y-69627880D02*
X152397119Y-68627880D01*
X152301880Y-68770738D01*
X152206642Y-68865976D01*
X152111404Y-68913595D01*
D11*
X169028000Y-61187000D02*
X171488000Y-61187000D01*
X169028000Y-59717000D02*
X169028000Y-61187000D01*
X171488000Y-59717000D02*
X169028000Y-59717000D01*
X168792000Y-59717000D02*
X166332000Y-59717000D01*
X168792000Y-61187000D02*
X168792000Y-59717000D01*
X166332000Y-61187000D02*
X168792000Y-61187000D01*
X152975000Y-123130000D02*
X152975000Y-125790000D01*
X160655000Y-123130000D02*
X152975000Y-123130000D01*
X160655000Y-125790000D02*
X152975000Y-125790000D01*
X163255000Y-123130000D02*
X163255000Y-124460000D01*
X160655000Y-123130000D02*
X160655000Y-125790000D01*
X161925000Y-123130000D02*
X163255000Y-123130000D01*
D12*
X163818250Y-51224000D02*
X163818250Y-50924000D01*
X171418250Y-53824000D02*
X171418250Y-53424000D01*
X163818250Y-53424000D02*
X163818250Y-53824000D01*
X171418250Y-50874000D02*
X163818250Y-50874000D01*
X171418250Y-51224000D02*
X171418250Y-50924000D01*
D13*
X169718250Y-55824000D02*
G75*
G03*
X169718250Y-55824000I-100000J0D01*
G01*
D11*
X126187000Y-83453733D02*
X126187000Y-83746267D01*
X127207000Y-83453733D02*
X127207000Y-83746267D01*
X159679233Y-70137500D02*
X159971767Y-70137500D01*
X159679233Y-69117500D02*
X159971767Y-69117500D01*
X107803733Y-93072500D02*
X108096267Y-93072500D01*
X107803733Y-92052500D02*
X108096267Y-92052500D01*
X168501733Y-83723500D02*
X168794267Y-83723500D01*
X168501733Y-82703500D02*
X168794267Y-82703500D01*
X128304386Y-63471000D02*
X128758514Y-63471000D01*
X128304386Y-64941000D02*
X128758514Y-64941000D01*
X113833000Y-110606000D02*
X113833000Y-113056000D01*
X117053000Y-112406000D02*
X117053000Y-110606000D01*
X124690000Y-115570000D02*
X137390000Y-115570000D01*
X145010000Y-105060000D02*
X145010000Y-105760000D01*
X138660000Y-96520000D02*
X157250000Y-96520000D01*
X122150000Y-93980000D02*
X122150000Y-116840000D01*
X138660000Y-100330000D02*
X137390000Y-100330000D01*
X137390000Y-115570000D02*
X137390000Y-116840000D01*
X145010000Y-105760000D02*
X122150000Y-105760000D01*
X173920000Y-93005000D02*
X120720000Y-93005000D01*
X137390000Y-116840000D02*
X157250000Y-116840000D01*
X155980000Y-114300000D02*
X137390000Y-114300000D01*
X120720000Y-117815000D02*
X173920000Y-117815000D01*
X138660000Y-101600000D02*
X138660000Y-100330000D01*
X173920000Y-117810000D02*
X173920000Y-93010000D01*
X124690000Y-95250000D02*
X124690000Y-93980000D01*
X169950000Y-116840000D02*
X169950000Y-115570000D01*
X172490000Y-105060000D02*
X152170000Y-105060000D01*
X172490000Y-93980000D02*
X169950000Y-93980000D01*
X152170000Y-105760000D02*
X172490000Y-105760000D01*
X157250000Y-110490000D02*
X157250000Y-113030000D01*
X169950000Y-95250000D02*
X157250000Y-95250000D01*
X124690000Y-116840000D02*
X124690000Y-115570000D01*
X155980000Y-109220000D02*
X155980000Y-110490000D01*
X124690000Y-93980000D02*
X122150000Y-93980000D01*
X169950000Y-93980000D02*
X169950000Y-95250000D01*
X138660000Y-97790000D02*
X138660000Y-96520000D01*
X122150000Y-116840000D02*
X124690000Y-116840000D01*
X124690000Y-95250000D02*
X137390000Y-95250000D01*
X137390000Y-109220000D02*
X155980000Y-109220000D01*
X155980000Y-110490000D02*
X157250000Y-110490000D01*
X137390000Y-93980000D02*
X137390000Y-95250000D01*
X157250000Y-95250000D02*
X157250000Y-93980000D01*
X157250000Y-93980000D02*
X137390000Y-93980000D01*
X157250000Y-96520000D02*
X157250000Y-101600000D01*
X172490000Y-93980000D02*
X172490000Y-116840000D01*
X152170000Y-105060000D02*
X152170000Y-105760000D01*
X137390000Y-100330000D02*
X137390000Y-97790000D01*
X122150000Y-105060000D02*
X145010000Y-105060000D01*
X169950000Y-115570000D02*
X157250000Y-115570000D01*
X157250000Y-113030000D02*
X155980000Y-113030000D01*
X137390000Y-114300000D02*
X137390000Y-109220000D01*
X172490000Y-116840000D02*
X169950000Y-116840000D01*
X157250000Y-101600000D02*
X138660000Y-101600000D01*
X157250000Y-116840000D02*
X157250000Y-115570000D01*
X120720000Y-93010000D02*
X120720000Y-117810000D01*
X137390000Y-97790000D02*
X138660000Y-97790000D01*
X155980000Y-113030000D02*
X155980000Y-114300000D01*
X106340000Y-98972500D02*
X106340000Y-96252500D01*
X106340000Y-96252500D02*
X106570000Y-96252500D01*
X111060000Y-96252500D02*
X111060000Y-98972500D01*
X111060000Y-98972500D02*
X109750000Y-98972500D01*
X107650000Y-98972500D02*
X106340000Y-98972500D01*
X111060000Y-96252500D02*
X110830000Y-96252500D01*
X110830000Y-95112500D02*
X110830000Y-96252500D01*
X119509000Y-109773767D02*
X119509000Y-109481233D01*
X118489000Y-109773767D02*
X118489000Y-109481233D01*
X124095000Y-123130000D02*
X118955000Y-123130000D01*
X125365000Y-123130000D02*
X126695000Y-123130000D01*
X118955000Y-123130000D02*
X118955000Y-125790000D01*
X124095000Y-125790000D02*
X118955000Y-125790000D01*
X126695000Y-123130000D02*
X126695000Y-124460000D01*
X124095000Y-123130000D02*
X124095000Y-125790000D01*
X167384000Y-87511233D02*
X167384000Y-87803767D01*
X168404000Y-87511233D02*
X168404000Y-87803767D01*
X155075500Y-76352500D02*
X157800500Y-76352500D01*
X152350500Y-76352500D02*
X152350500Y-76092500D01*
X152350500Y-70902500D02*
X152350500Y-71162500D01*
X155075500Y-76352500D02*
X152350500Y-76352500D01*
X155075500Y-70902500D02*
X152350500Y-70902500D01*
X157800500Y-70902500D02*
X157800500Y-71162500D01*
X157800500Y-76352500D02*
X157800500Y-76092500D01*
X152350500Y-71162500D02*
X150675500Y-71162500D01*
X155075500Y-70902500D02*
X157800500Y-70902500D01*
X147302564Y-71142500D02*
X146848436Y-71142500D01*
X147302564Y-72612500D02*
X146848436Y-72612500D01*
X145415000Y-123130000D02*
X145415000Y-125790000D01*
X145415000Y-123130000D02*
X132655000Y-123130000D01*
X148015000Y-123130000D02*
X148015000Y-124460000D01*
X132655000Y-123130000D02*
X132655000Y-125790000D01*
X146685000Y-123130000D02*
X148015000Y-123130000D01*
X145415000Y-125790000D02*
X132655000Y-125790000D01*
X139952000Y-87522267D02*
X139952000Y-87229733D01*
X140972000Y-87522267D02*
X140972000Y-87229733D01*
X118645000Y-120422936D02*
X118645000Y-120877064D01*
X120115000Y-120422936D02*
X120115000Y-120877064D01*
X162308000Y-79547767D02*
X162308000Y-79255233D01*
X161288000Y-79547767D02*
X161288000Y-79255233D01*
D14*
X140538000Y-85170000D02*
X139818000Y-85170000D01*
X140538000Y-84950000D02*
X140538000Y-85170000D01*
X140538000Y-82470000D02*
X140538000Y-82690000D01*
X137338000Y-85170000D02*
X137338000Y-84950000D01*
X137338000Y-85170000D02*
X138058000Y-85170000D01*
X139818000Y-82470000D02*
X140538000Y-82470000D01*
X137238000Y-82470000D02*
X138058000Y-82470000D01*
D11*
X121667000Y-74100000D02*
X121667000Y-86100000D01*
X121547000Y-86100000D02*
X121547000Y-74100000D01*
X121547000Y-74450000D02*
X108147000Y-74450000D01*
X121547000Y-74100000D02*
X121667000Y-74100000D01*
X108147000Y-85750000D02*
X121547000Y-85750000D01*
X108147000Y-74450000D02*
X108147000Y-85750000D01*
X122397000Y-82550000D02*
X122397000Y-82550000D01*
X121547000Y-77650000D02*
X122397000Y-77650000D01*
X122397000Y-77650000D02*
X122397000Y-77650000D01*
X121667000Y-86100000D02*
X121547000Y-86100000D01*
X121547000Y-85750000D02*
X121547000Y-74450000D01*
X121547000Y-82550000D02*
X122397000Y-82550000D01*
X155098436Y-70112500D02*
X155552564Y-70112500D01*
X155098436Y-68642500D02*
X155552564Y-68642500D01*
X156110267Y-86257500D02*
X155817733Y-86257500D01*
X156110267Y-87277500D02*
X155817733Y-87277500D01*
X108209000Y-62678000D02*
X105609000Y-62678000D01*
X108209000Y-62678000D02*
X108209000Y-65338000D01*
X108209000Y-65338000D02*
X105609000Y-65338000D01*
X109479000Y-62678000D02*
X110809000Y-62678000D01*
X110809000Y-62678000D02*
X110809000Y-64008000D01*
X105609000Y-62678000D02*
X105609000Y-65338000D01*
X166331000Y-89904500D02*
X166331000Y-88879500D01*
X159306000Y-81854500D02*
X157993500Y-81854500D01*
X159306000Y-89904500D02*
X158281000Y-89904500D01*
X158281000Y-89904500D02*
X158281000Y-88879500D01*
X165306000Y-81854500D02*
X166331000Y-81854500D01*
X165306000Y-89904500D02*
X166331000Y-89904500D01*
X166331000Y-81854500D02*
X166331000Y-82879500D01*
X151611000Y-82296564D02*
X151611000Y-81842436D01*
X150141000Y-82296564D02*
X150141000Y-81842436D01*
X129469936Y-77365000D02*
X129924064Y-77365000D01*
X129469936Y-78835000D02*
X129924064Y-78835000D01*
X111690000Y-96958767D02*
X111690000Y-96666233D01*
X112710000Y-96958767D02*
X112710000Y-96666233D01*
X121831983Y-61791000D02*
X122124517Y-61791000D01*
X121831983Y-62811000D02*
X122124517Y-62811000D01*
X163349000Y-74930564D02*
X163349000Y-74476436D01*
X164819000Y-74930564D02*
X164819000Y-74476436D01*
X127207000Y-75496267D02*
X127207000Y-75203733D01*
X126187000Y-75496267D02*
X126187000Y-75203733D01*
X150141000Y-85890436D02*
X150141000Y-86344564D01*
X151611000Y-85890436D02*
X151611000Y-86344564D01*
X137920000Y-87229733D02*
X137920000Y-87522267D01*
X138940000Y-87229733D02*
X138940000Y-87522267D01*
X128181983Y-61791000D02*
X128474517Y-61791000D01*
X128181983Y-62811000D02*
X128474517Y-62811000D01*
X156102267Y-82701500D02*
X155809733Y-82701500D01*
X156102267Y-83721500D02*
X155809733Y-83721500D01*
X111631000Y-109620267D02*
X111631000Y-109327733D01*
X112651000Y-109620267D02*
X112651000Y-109327733D01*
X115424852Y-115774400D02*
X114902348Y-115774400D01*
X115424852Y-117194400D02*
X114902348Y-117194400D01*
X166851000Y-74930564D02*
X166851000Y-74476436D01*
X165381000Y-74930564D02*
X165381000Y-74476436D01*
X125803250Y-64471000D02*
X124503250Y-64471000D01*
X124253250Y-62671000D02*
X125803250Y-62671000D01*
X165969733Y-79500000D02*
X166262267Y-79500000D01*
X165969733Y-80520000D02*
X166262267Y-80520000D01*
X153102100Y-64044700D02*
X146548900Y-64044700D01*
X146548900Y-66739640D02*
X146548900Y-68210300D01*
X153102100Y-68210300D02*
X153102100Y-66739640D01*
X153102100Y-65515360D02*
X153102100Y-64044700D01*
X146548900Y-64044700D02*
X146548900Y-65515360D01*
X146548900Y-68210300D02*
X153102100Y-68210300D01*
%LPC*%
D15*
X174752000Y-123952000D03*
X104648000Y-123952000D03*
X174752000Y-53848000D03*
X104648000Y-53848000D03*
D16*
X169813000Y-60452000D03*
X171563000Y-60452000D03*
D17*
X168007000Y-60452000D03*
X166257000Y-60452000D03*
D18*
X161925000Y-124460000D03*
D19*
X159385000Y-124460000D03*
X156845000Y-124460000D03*
X154305000Y-124460000D03*
D20*
X164318250Y-52324000D03*
X170918250Y-52324000D03*
D21*
X168918250Y-54999000D03*
X168268250Y-54999000D03*
X167618250Y-54999000D03*
X166968250Y-54999000D03*
X166318250Y-54999000D03*
D22*
X166418250Y-52324000D03*
D23*
X164318250Y-52324000D03*
D24*
X164418250Y-54774000D03*
D23*
X170918250Y-52324000D03*
D22*
X168818250Y-52324000D03*
D24*
X170818250Y-54774000D03*
D25*
X126697000Y-82737500D03*
X126697000Y-84462500D03*
D26*
X158963000Y-69627500D03*
X160688000Y-69627500D03*
X107087500Y-92562500D03*
X108812500Y-92562500D03*
X167785500Y-83213500D03*
X169510500Y-83213500D03*
D27*
X127531450Y-64206000D03*
X129531450Y-64206000D03*
D28*
X114493000Y-112856000D03*
X115443000Y-112856000D03*
X116393000Y-112856000D03*
X116393000Y-110156000D03*
X114493000Y-110156000D03*
D29*
X162030000Y-107760000D03*
D30*
X123420000Y-99060000D03*
D31*
X123420000Y-111760000D03*
D32*
X110200000Y-95162500D03*
D33*
X108700000Y-95250000D03*
D32*
X107200000Y-95162500D03*
D34*
X118999000Y-110490000D03*
X118999000Y-108765000D03*
D19*
X125365000Y-124460000D03*
D18*
X122825000Y-124460000D03*
D19*
X120285000Y-124460000D03*
D25*
X167894000Y-86795000D03*
X167894000Y-88520000D03*
D35*
X151475500Y-71722500D03*
X151475500Y-72992500D03*
X151475500Y-74262500D03*
X151475500Y-75532500D03*
X158675500Y-75532500D03*
X158675500Y-74262500D03*
X158675500Y-72992500D03*
X158675500Y-71722500D03*
D36*
X148075500Y-71877500D03*
X146075500Y-71877500D03*
D19*
X146685000Y-124460000D03*
X144145000Y-124460000D03*
X141605000Y-124460000D03*
X139065000Y-124460000D03*
X136525000Y-124460000D03*
X133985000Y-124460000D03*
D34*
X140462000Y-88238500D03*
X140462000Y-86513500D03*
D37*
X119380000Y-119650000D03*
X119380000Y-121650000D03*
D34*
X161798000Y-80264000D03*
X161798000Y-78539000D03*
D38*
X137675500Y-83070000D03*
X137675500Y-83570000D03*
X137675500Y-84070000D03*
X137675500Y-84570000D03*
D39*
X138438000Y-84832500D03*
X138938000Y-84832500D03*
X139438000Y-84832500D03*
D38*
X140200500Y-84570000D03*
X140200500Y-84070000D03*
X140200500Y-83570000D03*
X140200500Y-83070000D03*
D39*
X139438000Y-82807500D03*
X138938000Y-82807500D03*
X138438000Y-82807500D03*
D40*
X123347000Y-77650000D03*
X123347000Y-82550000D03*
D27*
X154325500Y-69377500D03*
X156325500Y-69377500D03*
D41*
X156826500Y-86767500D03*
X155101500Y-86767500D03*
D18*
X109479000Y-64008000D03*
D19*
X106939000Y-64008000D03*
D42*
X158868500Y-83279500D03*
X158868500Y-83679500D03*
X158868500Y-84079500D03*
X158868500Y-84479500D03*
X158868500Y-84879500D03*
X158868500Y-85279500D03*
X158868500Y-85679500D03*
X158868500Y-86079500D03*
X158868500Y-86479500D03*
X158868500Y-86879500D03*
X158868500Y-87279500D03*
X158868500Y-87679500D03*
X158868500Y-88079500D03*
X158868500Y-88479500D03*
D43*
X159706000Y-89317000D03*
X160106000Y-89317000D03*
X160506000Y-89317000D03*
X160906000Y-89317000D03*
X161306000Y-89317000D03*
X161706000Y-89317000D03*
X162106000Y-89317000D03*
X162506000Y-89317000D03*
X162906000Y-89317000D03*
X163306000Y-89317000D03*
X163706000Y-89317000D03*
X164106000Y-89317000D03*
X164506000Y-89317000D03*
X164906000Y-89317000D03*
D42*
X165743500Y-88479500D03*
X165743500Y-88079500D03*
X165743500Y-87679500D03*
X165743500Y-87279500D03*
X165743500Y-86879500D03*
X165743500Y-86479500D03*
X165743500Y-86079500D03*
X165743500Y-85679500D03*
X165743500Y-85279500D03*
X165743500Y-84879500D03*
X165743500Y-84479500D03*
X165743500Y-84079500D03*
X165743500Y-83679500D03*
X165743500Y-83279500D03*
D43*
X164906000Y-82442000D03*
X164506000Y-82442000D03*
X164106000Y-82442000D03*
X163706000Y-82442000D03*
X163306000Y-82442000D03*
X162906000Y-82442000D03*
X162506000Y-82442000D03*
X162106000Y-82442000D03*
X161706000Y-82442000D03*
X161306000Y-82442000D03*
X160906000Y-82442000D03*
X160506000Y-82442000D03*
X160106000Y-82442000D03*
X159706000Y-82442000D03*
D44*
X162306000Y-85879500D03*
D45*
X150876000Y-83069500D03*
X150876000Y-81069500D03*
D27*
X128697000Y-78100000D03*
X130697000Y-78100000D03*
D34*
X112200000Y-97675000D03*
X112200000Y-95950000D03*
D26*
X121115750Y-62301000D03*
X122840750Y-62301000D03*
D45*
X164084000Y-75703500D03*
X164084000Y-73703500D03*
D34*
X126697000Y-76212500D03*
X126697000Y-74487500D03*
D37*
X150876000Y-85117500D03*
X150876000Y-87117500D03*
D25*
X138430000Y-86513500D03*
X138430000Y-88238500D03*
D26*
X127465750Y-62301000D03*
X129190750Y-62301000D03*
D41*
X156818500Y-83211500D03*
X155093500Y-83211500D03*
D34*
X112141000Y-110336500D03*
X112141000Y-108611500D03*
D46*
X116188600Y-116484400D03*
X114138600Y-116484400D03*
D45*
X166116000Y-75703500D03*
X166116000Y-73703500D03*
D47*
X124403250Y-63071000D03*
X124403250Y-63571000D03*
X124403250Y-64071000D03*
X125903250Y-64071000D03*
X125903250Y-63571000D03*
X125903250Y-63071000D03*
D26*
X165253500Y-80010000D03*
X166978500Y-80010000D03*
D48*
X153126200Y-66127500D03*
X146524800Y-66127500D03*
M02*
